<?xml version="1.0" standalone="no"?>
 <!DOCTYPE svg PUBLIC "-//W3C//DTD SVG 1.1//EN" 
 "http://www.w3.org/Graphics/SVG/1.1/DTD/svg11.dtd"> 
<svg
  xmlns:svg="http://www.w3.org/2000/svg"
  xmlns="http://www.w3.org/2000/svg"
  xmlns:xlink="http://www.w3.org/1999/xlink"
  version="1.1"
  width="216.6874mm" height="155.7782mm" viewBox="0.0000 0.0000 216.6874 155.7782">
<title>SVG Image created as ergodonk_simple_zero-brd.svg date 2023/12/09 15:36:47 </title>
  <desc>Image generated by PCBNEW </desc>
<g style="fill:#000000; fill-opacity:1.0000;stroke:#000000; stroke-opacity:1.0000;
stroke-linecap:round; stroke-linejoin:round;"
 transform="translate(0 0) scale(1 1)">
</g>
<g style="fill:#000000; fill-opacity:0.0; 
stroke:#000000; stroke-width:0.0000; stroke-opacity:1; 
stroke-linecap:round; stroke-linejoin:round;">
</g>
<g style="fill:#000000; fill-opacity:0.0; 
stroke:#000000; stroke-width:0.1500; stroke-opacity:1; 
stroke-linecap:round; stroke-linejoin:round;">
<path d="M131.0557 145.0974
L206.3917 155.6955
" />
<path d="M28.7779 135.0787 A2.0000 2.0000 0.0 0 0 30.4757 136.3674" />
<path d="M29.7100 0.0750
L192.5750 0.0750
" />
<path d="M0.0750 58.1730 A2.0000 2.0000 0.0 0 0 0.2029 58.8767" />
<path d="M0.0750 58.1730
L0.0770 39.1230
" />
<path d="M0.4714 37.9277 A2.0040 2.0040 0.0 0 0 0.0760 39.1230" />
</g>
<g style="fill:#000000; fill-opacity:0.0; 
stroke:#000000; stroke-width:0.1000; stroke-opacity:1; 
stroke-linecap:round; stroke-linejoin:round;">
<path d="M194.2311 0.9537
L216.2811 33.5037
" />
</g>
<g style="fill:#000000; fill-opacity:0.0; 
stroke:#000000; stroke-width:0.1500; stroke-opacity:1; 
stroke-linecap:round; stroke-linejoin:round;">
<path d="M29.7100 0.0750 A2.0000 2.0000 0.0 0 0 28.1064 0.8798" />
<path d="M216.6250 34.6250 A2.0001 2.0001 0.0 0 0 216.2811 33.5037" />
<path d="M216.6055 97.4033 A2.0012 2.0012 0.0 0 0 216.6250 97.1250" />
<path d="M194.2312 0.9537 A1.9999 1.9999 0.0 0 0 192.5750 0.0750" />
<path d="M30.4757 136.3674
L131.0557 145.0974
" />
<path d="M208.6555 153.9933
L216.6055 97.4033
" />
<path d="M0.4714 37.9277
L28.1064 0.8798
" />
<path d="M0.2029 58.8767
L28.7779 135.0787
" />
<path d="M216.6250 34.6250
L216.6250 97.1250
" />
<path d="M206.3917 155.6955 A2.0000 2.0000 0.0 0 0 208.6555 153.9933" />
</g>
<g style="fill:#000000; fill-opacity:0.0; 
stroke:#000000; stroke-width:0.1200; stroke-opacity:1; 
stroke-linecap:round; stroke-linejoin:round;">
<circle cx="135.4250" cy="78.1700" r="22.5000" /> 
</g>
<g style="fill:#000000; fill-opacity:0.0; 
stroke:#000000; stroke-width:0.1000; stroke-opacity:1; 
stroke-linecap:round; stroke-linejoin:round;">
<circle cx="125.9400" cy="139.1300" r="1.1000" /> 
<circle cx="191.5600" cy="132.3200" r="1.1000" /> 
<circle cx="154.4600" cy="107.8250" r="1.1000" /> 
<circle cx="78.3400" cy="33.5700" r="1.1000" /> 
<circle cx="19.2900" cy="88.6320" r="1.1000" /> 
<circle cx="211.9700" cy="94.2400" r="1.1000" /> 
<circle cx="78.3400" cy="109.8250" r="1.1000" /> 
<circle cx="195.3800" cy="12.3500" r="1.1000" /> 
<circle cx="217.8900" cy="13.1420" r="1.1000" /> 
<circle cx="154.4600" cy="29.1250" r="1.1000" /> 
<circle cx="17.1400" cy="23.1500" r="1.1000" /> 
<circle cx="129.0300" cy="124.1320" r="1.1000" /> 
<circle cx="28.6400" cy="118.2800" r="1.1000" /> 
<circle cx="101.7700" cy="127.7920" r="1.1000" /> 
<g >
</g>
<g >
</g>
<g >
</g>
<g >
</g>
<g >
</g>
<g >
</g>
<g >
</g>
<g >
</g>
<g >
</g>
<g >
</g>
<g >
</g>
<g >
</g>
<g >
</g>
<g >
</g>
<g >
</g>
<g >
</g>
<g >
</g>
<g >
</g>
<g >
</g>
<g >
</g>
<g >
</g>
<g >
</g>
<g >
</g>
<g >
</g>
<g >
</g>
<g >
</g>
<g >
</g>
<g >
</g>
<g >
</g>
<g >
</g>
<g >
</g>
<g >
</g>
<g >
</g>
<g >
</g>
<g >
</g>
<g >
</g>
<g >
</g>
<g >
</g>
<g >
</g>
<g >
</g>
<g >
</g>
<g >
</g>
<g >
</g>
<g >
</g>
<g >
</g>
<g >
</g>
<g >
</g>
<g >
</g>
<g >
</g>
<g >
</g>
<g >
</g>
<g >
</g>
<g >
</g>
<g >
</g>
<g >
</g>
<g >
</g>
<g >
</g>
<g >
</g>
<g >
</g>
<g >
</g>
<g >
</g>
<g >
</g>
<g >
</g>
<g >
</g>
<g >
</g>
<g >
</g>
<g >
</g>
<g >
</g>
<g >
</g>
<g >
</g>
<g >
</g>
<g >
</g>
<g >
</g>
<g >
</g>
<g >
</g>
<g >
</g>
<g >
</g>
<g >
</g>
<g >
</g>
<g >
</g>
<g >
</g>
<g >
</g>
<g >
</g>
<g >
</g>
<g >
</g>
<g >
</g>
<g >
</g>
<g >
</g>
<g >
</g>
<g >
</g>
<g >
</g>
<g >
</g>
<g >
</g>
<g >
</g>
<g >
</g>
<g >
</g>
<g >
</g>
<g >
</g>
<g >
</g>
<g >
</g>
<g >
</g>
<g >
</g>
<g >
</g>
<g >
</g>
<g >
</g>
<g >
</g>
<g >
</g>
<g >
</g>
<g >
</g>
<g >
</g>
<g >
</g>
<g >
</g>
<g >
</g>
<g >
</g>
<g >
</g>
<g >
</g>
<g >
</g>
<g >
</g>
<g >
</g>
<g >
</g>
<g >
</g>
<g >
</g>
<g >
</g>
<g >
</g>
<g >
</g>
<g >
</g>
<g >
</g>
<g >
</g>
<g >
</g>
<g >
</g>
<g >
</g>
<g >
</g>
<g >
</g>
<g >
</g>
<g >
</g>
<g >
</g>
<g >
</g>
<g >
</g>
<g >
</g>
<g >
</g>
<g >
</g>
<g >
</g>
<g >
</g>
<g >
</g>
<g >
</g>
<g >
</g>
<g >
</g>
<g >
</g>
<g >
</g>
<g >
</g>
<g >
</g>
<g >
</g>
<g >
</g>
<g >
</g>
<g >
</g>
<g >
</g>
<g >
</g>
<g >
</g>
<g >
</g>
<g >
</g>
<g >
</g>
<g >
</g>
<g >
</g>
<g >
</g>
<g >
</g>
<g >
</g>
<g >
</g>
<g >
</g>
</g> 
</svg>
