<?xml version="1.0" standalone="no"?>
 <!DOCTYPE svg PUBLIC "-//W3C//DTD SVG 1.1//EN" 
 "http://www.w3.org/Graphics/SVG/1.1/DTD/svg11.dtd"> 
<svg
  xmlns:svg="http://www.w3.org/2000/svg"
  xmlns="http://www.w3.org/2000/svg"
  xmlns:xlink="http://www.w3.org/1999/xlink"
  version="1.1"
  width="216.6874mm" height="155.7782mm" viewBox="0.0000 0.0000 216.6874 155.7782">
<title>SVG Image created as ergodonk_simple_zero-brd.svg date 2024/01/23 12:24:40 </title>
  <desc>Image generated by PCBNEW </desc>
<g style="fill:#000000; fill-opacity:1.0000;stroke:#000000; stroke-opacity:1.0000;
stroke-linecap:round; stroke-linejoin:round;"
 transform="translate(0 0) scale(1 1)">
</g>
<g style="fill:#000000; fill-opacity:0.0; 
stroke:#000000; stroke-width:0.0000; stroke-opacity:1; 
stroke-linecap:round; stroke-linejoin:round;">
</g>
<g style="fill:#000000; fill-opacity:0.0; 
stroke:#000000; stroke-width:0.1500; stroke-opacity:1; 
stroke-linecap:round; stroke-linejoin:round;">
<path d="M216.6250 34.6250
L216.6250 97.1250
" />
<path d="M0.2029 58.8767
L28.7779 135.0787
" />
<path d="M206.3917 155.6955 A2.0000 2.0000 0.0 0 0 208.6555 153.9933" />
<path d="M0.4714 37.9277
L28.1064 0.8798
" />
<path d="M194.2311 0.9537 A2.0000 2.0000 0.0 0 0 192.5750 0.0750" />
<path d="M216.6250 34.6250 A2.0000 2.0000 0.0 0 0 216.2811 33.5037" />
<path d="M208.6555 153.9933
L216.6055 97.4033
" />
<path d="M29.7100 0.0750 A2.0000 2.0000 0.0 0 0 28.1064 0.8798" />
<path d="M28.7779 135.0787 A2.0000 2.0000 0.0 0 0 30.4757 136.3674" />
<path d="M0.4714 37.9277 A2.0040 2.0040 0.0 0 0 0.0760 39.1230" />
<path d="M30.4757 136.3674
L131.0557 145.0974
" />
<path d="M216.6055 97.4033 A2.0000 2.0000 0.0 0 0 216.6250 97.1250" />
<path d="M0.0750 58.1730 A2.0000 2.0000 0.0 0 0 0.2029 58.8767" />
<path d="M0.0750 58.1730
L0.0770 39.1230
" />
<path d="M29.7100 0.0750
L192.5750 0.0750
" />
</g>
<g style="fill:#000000; fill-opacity:0.0; 
stroke:#000000; stroke-width:0.1000; stroke-opacity:1; 
stroke-linecap:round; stroke-linejoin:round;">
<path d="M194.2311 0.9537
L216.2811 33.5037
" />
</g>
<g style="fill:#000000; fill-opacity:0.0; 
stroke:#000000; stroke-width:0.1500; stroke-opacity:1; 
stroke-linecap:round; stroke-linejoin:round;">
<path d="M131.0557 145.0974
L206.3917 155.6955
" />
<g transform="rotate(-8.000000 86.7232 136.6643)">
<text x="86.7232" y="137.4143"
textLength="0.7893" font-size="2.0000" lengthAdjust="spacingAndGlyphs"
text-anchor="middle" opacity="0">!</text>
</g>
<g class="stroked-text"><desc>!</desc>
<path d="M86.7988 137.2023
L86.8795 137.2631
" />
<path d="M86.8795 137.2631
L86.8187 137.3437
" />
<path d="M86.8187 137.3437
L86.7380 137.2829
" />
<path d="M86.7380 137.2829
L86.7988 137.2023
" />
<path d="M86.7988 137.2023
L86.8187 137.3437
" />
<path d="M86.7392 136.7779
L86.5492 135.9390
" />
<path d="M86.5492 135.9390
L86.6100 135.8583
" />
<path d="M86.6100 135.8583
L86.6906 135.9191
" />
<path d="M86.6906 135.9191
L86.7392 136.7779
" />
<path d="M86.7392 136.7779
L86.6100 135.8583
" />
</g><g transform="rotate(-8.000000 127.7095 131.0050)">
<text x="127.7095" y="131.7550"
textLength="0.7893" font-size="2.0000" lengthAdjust="spacingAndGlyphs"
text-anchor="middle" opacity="0">!</text>
</g>
<g class="stroked-text"><desc>!</desc>
<path d="M127.7851 131.5430
L127.8658 131.6038
" />
<path d="M127.8658 131.6038
L127.8050 131.6845
" />
<path d="M127.8050 131.6845
L127.7243 131.6237
" />
<path d="M127.7243 131.6237
L127.7851 131.5430
" />
<path d="M127.7851 131.5430
L127.8050 131.6845
" />
<path d="M127.7254 131.1186
L127.5354 130.2797
" />
<path d="M127.5354 130.2797
L127.5962 130.1991
" />
<path d="M127.5962 130.1991
L127.6769 130.2599
" />
<path d="M127.6769 130.2599
L127.7254 131.1186
" />
<path d="M127.7254 131.1186
L127.5962 130.1991
" />
</g></g>
<g style="fill:#000000; fill-opacity:0.0; 
stroke:#000000; stroke-width:0.1200; stroke-opacity:1; 
stroke-linecap:round; stroke-linejoin:round;">
<path d="M176.0500 72.2500
L190.0500 72.2500
" />
<path d="M190.0500 72.2500
L190.0500 86.2500
" />
<path d="M190.0500 86.2500
L176.0500 86.2500
" />
<path d="M176.0500 86.2500
L176.0500 72.2500
" />
<path d="M173.5250 88.7750
L192.5750 88.7750
" />
<path d="M192.5750 88.7750
L192.5750 69.7250
" />
<path d="M192.5750 69.7250
L173.5250 69.7250
" />
<path d="M173.5250 69.7250
L173.5250 88.7750
" />
<path d="M99.8500 106.8500
L113.8500 106.8500
" />
<path d="M113.8500 106.8500
L113.8500 120.8500
" />
<path d="M113.8500 120.8500
L99.8500 120.8500
" />
<path d="M99.8500 120.8500
L99.8500 106.8500
" />
<path d="M97.3250 123.3750
L116.3750 123.3750
" />
<path d="M116.3750 123.3750
L116.3750 104.3250
" />
<path d="M116.3750 104.3250
L97.3250 104.3250
" />
<path d="M97.3250 104.3250
L97.3250 123.3750
" />
</g>
<g style="fill:#000000; fill-opacity:0.0; 
stroke:#000000; stroke-width:0.1000; stroke-opacity:1; 
stroke-linecap:round; stroke-linejoin:round;">
<circle cx="126.9500" cy="140.0820" r="2.0500" /> 
<circle cx="82.9000" cy="133.4820" r="2.0500" /> 
<circle cx="191.5600" cy="132.3200" r="2.0500" /> 
</g>
<g style="fill:#000000; fill-opacity:0.0; 
stroke:#000000; stroke-width:0.1200; stroke-opacity:1; 
stroke-linecap:round; stroke-linejoin:round;">
<path d="M80.8000 36.1500
L94.8000 36.1500
" />
<path d="M94.8000 36.1500
L94.8000 50.1500
" />
<path d="M94.8000 50.1500
L80.8000 50.1500
" />
<path d="M80.8000 50.1500
L80.8000 36.1500
" />
<path d="M78.2750 52.6750
L97.3250 52.6750
" />
<path d="M97.3250 52.6750
L97.3250 33.6250
" />
<path d="M97.3250 33.6250
L78.2750 33.6250
" />
<path d="M78.2750 33.6250
L78.2750 52.6750
" />
<path d="M76.8000 4.6000
L90.8000 4.6000
" />
<path d="M90.8000 4.6000
L90.8000 18.6000
" />
<path d="M90.8000 18.6000
L76.8000 18.6000
" />
<path d="M76.8000 18.6000
L76.8000 4.6000
" />
<path d="M74.2750 21.1250
L93.3250 21.1250
" />
<path d="M93.3250 21.1250
L93.3250 2.0750
" />
<path d="M93.3250 2.0750
L74.2750 2.0750
" />
<path d="M74.2750 2.0750
L74.2750 21.1250
" />
</g>
<g style="fill:#000000; fill-opacity:0.0; 
stroke:#000000; stroke-width:0.1000; stroke-opacity:1; 
stroke-linecap:round; stroke-linejoin:round;">
<circle cx="164.2400" cy="29.1250" r="1.1000" /> 
<circle cx="74.9300" cy="112.0750" r="1.1000" /> 
<circle cx="154.4600" cy="104.8250" r="2.0500" /> 
</g>
<g style="fill:#000000; fill-opacity:0.0; 
stroke:#000000; stroke-width:0.1200; stroke-opacity:1; 
stroke-linecap:round; stroke-linejoin:round;">
<path d="M118.9000 26.6500
L132.9000 26.6500
" />
<path d="M132.9000 26.6500
L132.9000 40.6500
" />
<path d="M132.9000 40.6500
L118.9000 40.6500
" />
<path d="M118.9000 40.6500
L118.9000 26.6500
" />
<path d="M116.3750 43.1750
L135.4250 43.1750
" />
<path d="M135.4250 43.1750
L135.4250 24.1250
" />
<path d="M135.4250 24.1250
L116.3750 24.1250
" />
<path d="M116.3750 24.1250
L116.3750 43.1750
" />
<path d="M137.9500 88.8000
L151.9500 88.8000
" />
<path d="M151.9500 88.8000
L151.9500 102.8000
" />
<path d="M151.9500 102.8000
L137.9500 102.8000
" />
<path d="M137.9500 102.8000
L137.9500 88.8000
" />
<path d="M135.4250 105.3250
L154.4750 105.3250
" />
<path d="M154.4750 105.3250
L154.4750 86.2750
" />
<path d="M154.4750 86.2750
L135.4250 86.2750
" />
<path d="M135.4250 86.2750
L135.4250 105.3250
" />
</g>
<g style="fill:#000000; fill-opacity:0.0; 
stroke:#000000; stroke-width:0.1000; stroke-opacity:1; 
stroke-linecap:round; stroke-linejoin:round;">
<circle cx="74.9300" cy="30.1247" r="2.0500" /> 
</g>
<g style="fill:#000000; fill-opacity:0.0; 
stroke:#000000; stroke-width:0.1200; stroke-opacity:1; 
stroke-linecap:round; stroke-linejoin:round;">
<path d="M192.6069 135.0492
L206.4707 136.9976
" />
<path d="M206.4707 136.9976
L204.5222 150.8614
" />
<path d="M204.5222 150.8614
L190.6585 148.9130
" />
<path d="M190.6585 148.9130
L192.6069 135.0492
" />
<path d="M187.8067 151.0620
L206.6713 153.7132
" />
<path d="M206.6713 153.7132
L209.3225 134.8486
" />
<path d="M209.3225 134.8486
L190.4579 132.1974
" />
<path d="M190.4579 132.1974
L187.8067 151.0620
" />
</g>
<g style="fill:#000000; fill-opacity:0.0; 
stroke:#000000; stroke-width:0.1000; stroke-opacity:1; 
stroke-linecap:round; stroke-linejoin:round;">
<circle cx="196.2500" cy="13.0070" r="1.1000" /> 
</g>
<g style="fill:#000000; fill-opacity:0.0; 
stroke:#000000; stroke-width:0.1200; stroke-opacity:1; 
stroke-linecap:round; stroke-linejoin:round;">
<path d="M157.0000 53.2000
L171.0000 53.2000
" />
<path d="M171.0000 53.2000
L171.0000 67.2000
" />
<path d="M171.0000 67.2000
L157.0000 67.2000
" />
<path d="M157.0000 67.2000
L157.0000 53.2000
" />
<path d="M154.4750 69.7250
L173.5250 69.7250
" />
<path d="M173.5250 69.7250
L173.5250 50.6750
" />
<path d="M173.5250 50.6750
L154.4750 50.6750
" />
<path d="M154.4750 50.6750
L154.4750 69.7250
" />
<path d="M114.9000 4.6000
L128.9000 4.6000
" />
<path d="M128.9000 4.6000
L128.9000 18.6000
" />
<path d="M128.9000 18.6000
L114.9000 18.6000
" />
<path d="M114.9000 18.6000
L114.9000 4.6000
" />
<path d="M112.3750 21.1250
L131.4250 21.1250
" />
<path d="M131.4250 21.1250
L131.4250 2.0750
" />
<path d="M131.4250 2.0750
L112.3750 2.0750
" />
<path d="M112.3750 2.0750
L112.3750 21.1250
" />
<path d="M53.7500 4.6000
L67.7500 4.6000
" />
<path d="M67.7500 4.6000
L67.7500 18.6000
" />
<path d="M67.7500 18.6000
L53.7500 18.6000
" />
<path d="M53.7500 18.6000
L53.7500 4.6000
" />
<path d="M51.2250 21.1250
L70.2750 21.1250
" />
<path d="M70.2750 21.1250
L70.2750 2.0750
" />
<path d="M70.2750 2.0750
L51.2250 2.0750
" />
<path d="M51.2250 2.0750
L51.2250 21.1250
" />
<path d="M156.2657 120.2608
L170.1295 122.2092
" />
<path d="M170.1295 122.2092
L168.1811 136.0730
" />
<path d="M168.1811 136.0730
L154.3173 134.1245
" />
<path d="M154.3173 134.1245
L156.2657 120.2608
" />
<path d="M150.1399 145.7059
L169.0045 148.3571
" />
<path d="M169.0045 148.3571
L174.3070 110.6279
" />
<path d="M174.3070 110.6279
L155.4424 107.9766
" />
<path d="M155.4424 107.9766
L150.1399 145.7059
" />
<path d="M118.9000 83.8000
L132.9000 83.8000
" />
<path d="M132.9000 83.8000
L132.9000 97.8000
" />
<path d="M132.9000 97.8000
L118.9000 97.8000
" />
<path d="M118.9000 97.8000
L118.9000 83.8000
" />
<path d="M116.3750 100.3250
L135.4250 100.3250
" />
<path d="M135.4250 100.3250
L135.4250 81.2750
" />
<path d="M135.4250 81.2750
L116.3750 81.2750
" />
<path d="M116.3750 81.2750
L116.3750 100.3250
" />
</g>
<g style="fill:#000000; fill-opacity:0.0; 
stroke:#000000; stroke-width:0.1000; stroke-opacity:1; 
stroke-linecap:round; stroke-linejoin:round;">
<circle cx="72.2800" cy="11.6000" r="1.1000" /> 
</g>
<g style="fill:#000000; fill-opacity:0.0; 
stroke:#000000; stroke-width:0.1200; stroke-opacity:1; 
stroke-linecap:round; stroke-linejoin:round;">
<path d="M80.8000 55.2000
L94.8000 55.2000
" />
<path d="M94.8000 55.2000
L94.8000 69.2000
" />
<path d="M94.8000 69.2000
L80.8000 69.2000
" />
<path d="M80.8000 69.2000
L80.8000 55.2000
" />
<path d="M78.2750 71.7250
L97.3250 71.7250
" />
<path d="M97.3250 71.7250
L97.3250 52.6750
" />
<path d="M97.3250 52.6750
L78.2750 52.6750
" />
<path d="M78.2750 52.6750
L78.2750 71.7250
" />
</g>
<g style="fill:#000000; fill-opacity:0.0; 
stroke:#000000; stroke-width:0.1000; stroke-opacity:1; 
stroke-linecap:round; stroke-linejoin:round;">
<circle cx="19.2900" cy="88.6320" r="2.0500" /> 
</g>
<g style="fill:#000000; fill-opacity:0.0; 
stroke:#000000; stroke-width:0.1200; stroke-opacity:1; 
stroke-linecap:round; stroke-linejoin:round;">
<path d="M80.8000 112.3500
L94.8000 112.3500
" />
<path d="M94.8000 112.3500
L94.8000 126.3500
" />
<path d="M94.8000 126.3500
L80.8000 126.3500
" />
<path d="M80.8000 126.3500
L80.8000 112.3500
" />
<path d="M78.2750 128.8750
L97.3250 128.8750
" />
<path d="M97.3250 128.8750
L97.3250 109.8250
" />
<path d="M97.3250 109.8250
L78.2750 109.8250
" />
<path d="M78.2750 109.8250
L78.2750 128.8750
" />
<path d="M30.7200 -0.5000
L49.7200 -0.5000
" />
<path d="M49.7200 -0.5000
L49.7200 24.0000
" />
<path d="M49.7200 24.0000
L30.7200 24.0000
" />
<path d="M30.7200 24.0000
L30.7200 -0.5000
" />
<path d="M80.8000 93.3000
L94.8000 93.3000
" />
<path d="M94.8000 93.3000
L94.8000 107.3000
" />
<path d="M94.8000 107.3000
L80.8000 107.3000
" />
<path d="M80.8000 107.3000
L80.8000 93.3000
" />
<path d="M78.2750 109.8250
L97.3250 109.8250
" />
<path d="M97.3250 109.8250
L97.3250 90.7750
" />
<path d="M97.3250 90.7750
L78.2750 90.7750
" />
<path d="M78.2750 90.7750
L78.2750 109.8250
" />
<path d="M49.7000 58.1750
L78.2750 58.1750
" />
<path d="M78.2750 58.1750
L78.2750 77.2250
" />
<path d="M78.2750 77.2250
L49.7000 77.2250
" />
<path d="M49.7000 77.2250
L49.7000 58.1750
" />
<path d="M59.2250 77.2250
L78.2750 77.2250
" />
<path d="M78.2750 77.2250
L78.2750 58.1750
" />
<path d="M78.2750 58.1750
L59.2250 58.1750
" />
<path d="M59.2250 58.1750
L59.2250 77.2250
" />
<path d="M70.9875 74.7000
L56.9875 74.7000
" />
<path d="M56.9875 74.7000
L56.9875 60.7000
" />
<path d="M56.9875 60.7000
L70.9875 60.7000
" />
<path d="M70.9875 60.7000
L70.9875 74.7000
" />
<path d="M75.7500 74.7000
L61.7500 74.7000
" />
<path d="M61.7500 74.7000
L61.7500 60.7000
" />
<path d="M61.7500 60.7000
L75.7500 60.7000
" />
<path d="M75.7500 60.7000
L75.7500 74.7000
" />
<path d="M95.8500 4.6000
L109.8500 4.6000
" />
<path d="M109.8500 4.6000
L109.8500 18.6000
" />
<path d="M109.8500 18.6000
L95.8500 18.6000
" />
<path d="M95.8500 18.6000
L95.8500 4.6000
" />
<path d="M93.3250 21.1250
L112.3750 21.1250
" />
<path d="M112.3750 21.1250
L112.3750 2.0750
" />
<path d="M112.3750 2.0750
L93.3250 2.0750
" />
<path d="M93.3250 2.0750
L93.3250 21.1250
" />
</g>
<g style="fill:#000000; fill-opacity:0.0; 
stroke:#000000; stroke-width:0.1000; stroke-opacity:1; 
stroke-linecap:round; stroke-linejoin:round;">
<circle cx="212.1250" cy="94.2570" r="2.0500" /> 
</g>
<g style="fill:#000000; fill-opacity:0.0; 
stroke:#000000; stroke-width:0.1200; stroke-opacity:1; 
stroke-linecap:round; stroke-linejoin:round;">
<path d="M2.0750 58.1750
L40.1750 58.1750
" />
<path d="M40.1750 58.1750
L40.1750 39.1250
" />
<path d="M40.1750 39.1250
L2.0750 39.1250
" />
<path d="M2.0750 39.1250
L2.0750 58.1750
" />
<path d="M28.1250 55.6500
L14.1250 55.6500
" />
<path d="M14.1250 55.6500
L14.1250 41.6500
" />
<path d="M14.1250 41.6500
L28.1250 41.6500
" />
<path d="M28.1250 41.6500
L28.1250 55.6500
" />
<path d="M198.1000 56.2000
L212.1000 56.2000
" />
<path d="M212.1000 56.2000
L212.1000 70.2000
" />
<path d="M212.1000 70.2000
L198.1000 70.2000
" />
<path d="M198.1000 70.2000
L198.1000 56.2000
" />
<path d="M195.5750 72.7250
L214.6250 72.7250
" />
<path d="M214.6250 72.7250
L214.6250 53.6750
" />
<path d="M214.6250 53.6750
L195.5750 53.6750
" />
<path d="M195.5750 53.6750
L195.5750 72.7250
" />
<path d="M99.8500 68.7500
L113.8500 68.7500
" />
<path d="M113.8500 68.7500
L113.8500 82.7500
" />
<path d="M113.8500 82.7500
L99.8500 82.7500
" />
<path d="M99.8500 82.7500
L99.8500 68.7500
" />
<path d="M97.3250 85.2750
L116.3750 85.2750
" />
<path d="M116.3750 85.2750
L116.3750 66.2250
" />
<path d="M116.3750 66.2250
L97.3250 66.2250
" />
<path d="M97.3250 66.2250
L97.3250 85.2750
" />
<path d="M11.6000 58.1750
L40.1750 58.1750
" />
<path d="M40.1750 58.1750
L40.1750 77.2250
" />
<path d="M40.1750 77.2250
L11.6000 77.2250
" />
<path d="M11.6000 77.2250
L11.6000 58.1750
" />
<path d="M32.8875 74.7000
L18.8875 74.7000
" />
<path d="M18.8875 74.7000
L18.8875 60.7000
" />
<path d="M18.8875 60.7000
L32.8875 60.7000
" />
<path d="M32.8875 60.7000
L32.8875 74.7000
" />
<path d="M99.8500 30.6500
L113.8500 30.6500
" />
<path d="M113.8500 30.6500
L113.8500 44.6500
" />
<path d="M113.8500 44.6500
L99.8500 44.6500
" />
<path d="M99.8500 44.6500
L99.8500 30.6500
" />
<path d="M97.3250 47.1750
L116.3750 47.1750
" />
<path d="M116.3750 47.1750
L116.3750 28.1250
" />
<path d="M116.3750 28.1250
L97.3250 28.1250
" />
<path d="M97.3250 28.1250
L97.3250 47.1750
" />
<path d="M176.0500 53.2000
L190.0500 53.2000
" />
<path d="M190.0500 53.2000
L190.0500 67.2000
" />
<path d="M190.0500 67.2000
L176.0500 67.2000
" />
<path d="M176.0500 67.2000
L176.0500 53.2000
" />
<path d="M173.5250 69.7250
L192.5750 69.7250
" />
<path d="M192.5750 69.7250
L192.5750 50.6750
" />
<path d="M192.5750 50.6750
L173.5250 50.6750
" />
<path d="M173.5250 50.6750
L173.5250 69.7250
" />
</g>
<g style="fill:#000000; fill-opacity:0.0; 
stroke:#000000; stroke-width:0.1000; stroke-opacity:1; 
stroke-linecap:round; stroke-linejoin:round;">
<circle cx="74.9300" cy="104.8250" r="2.0500" /> 
</g>
<g style="fill:#000000; fill-opacity:0.0; 
stroke:#000000; stroke-width:0.1200; stroke-opacity:1; 
stroke-linecap:round; stroke-linejoin:round;">
<path d="M203.1906 13.3444
L208.0963 20.5898
" />
<path d="M208.0963 20.5898
L197.3317 27.8783
" />
<path d="M197.3317 27.8783
L192.4259 20.6329
" />
<path d="M192.4259 20.6329
L203.1906 13.3444
" />
</g>
<g style="fill:#000000; fill-opacity:0.0; 
stroke:#000000; stroke-width:0.1000; stroke-opacity:1; 
stroke-linecap:round; stroke-linejoin:round;">
<circle cx="190.8250" cy="110.1570" r="1.1000" /> 
</g>
<g style="fill:#000000; fill-opacity:0.0; 
stroke:#000000; stroke-width:0.1200; stroke-opacity:1; 
stroke-linecap:round; stroke-linejoin:round;">
<path d="M61.7500 41.6500
L75.7500 41.6500
" />
<path d="M75.7500 41.6500
L75.7500 55.6500
" />
<path d="M75.7500 55.6500
L61.7500 55.6500
" />
<path d="M61.7500 55.6500
L61.7500 41.6500
" />
<path d="M59.2250 58.1750
L78.2750 58.1750
" />
<path d="M78.2750 58.1750
L78.2750 39.1250
" />
<path d="M78.2750 39.1250
L59.2250 39.1250
" />
<path d="M59.2250 39.1250
L59.2250 58.1750
" />
</g>
<g style="fill:#000000; fill-opacity:0.0; 
stroke:#000000; stroke-width:0.1000; stroke-opacity:1; 
stroke-linecap:round; stroke-linejoin:round;">
<circle cx="205.1000" cy="29.5570" r="2.0500" /> 
<circle cx="4.0760" cy="48.6480" r="2.0500" /> 
</g>
<g style="fill:#000000; fill-opacity:0.0; 
stroke:#000000; stroke-width:0.1200; stroke-opacity:1; 
stroke-linecap:round; stroke-linejoin:round;">
<path d="M197.9094 97.3200
L211.7732 99.2684
" />
<path d="M211.7732 99.2684
L209.8247 113.1322
" />
<path d="M209.8247 113.1322
L195.9610 111.1837
" />
<path d="M195.9610 111.1837
L197.9094 97.3200
" />
<path d="M193.1091 113.3328
L211.9738 115.9840
" />
<path d="M211.9738 115.9840
L214.6250 97.1194
" />
<path d="M214.6250 97.1194
L195.7604 94.4681
" />
<path d="M195.7604 94.4681
L193.1091 113.3328
" />
<path d="M78.2750 134.3750
L54.4625 134.3750
" />
<path d="M54.4625 134.3750
L54.4625 115.3250
" />
<path d="M54.4625 115.3250
L78.2750 115.3250
" />
<path d="M78.2750 115.3250
L78.2750 134.3750
" />
<path d="M59.3687 117.8500
L73.3687 117.8500
" />
<path d="M73.3687 117.8500
L73.3687 131.8500
" />
<path d="M73.3687 131.8500
L59.3687 131.8500
" />
<path d="M59.3687 131.8500
L59.3687 117.8500
" />
</g>
<g style="fill:#000000; fill-opacity:0.0; 
stroke:#000000; stroke-width:0.1000; stroke-opacity:1; 
stroke-linecap:round; stroke-linejoin:round;">
<circle cx="154.4600" cy="30.1247" r="2.0500" /> 
</g>
<g style="fill:#000000; fill-opacity:0.0; 
stroke:#000000; stroke-width:0.1200; stroke-opacity:1; 
stroke-linecap:round; stroke-linejoin:round;">
<path d="M44.9375 77.2100
L78.2750 77.2100
" />
<path d="M78.2750 77.2100
L78.2750 96.2600
" />
<path d="M78.2750 96.2600
L44.9375 96.2600
" />
<path d="M44.9375 96.2600
L44.9375 77.2100
" />
<path d="M59.2250 96.2600
L78.2750 96.2600
" />
<path d="M78.2750 96.2600
L78.2750 77.2100
" />
<path d="M78.2750 77.2100
L59.2250 77.2100
" />
<path d="M59.2250 77.2100
L59.2250 96.2600
" />
<path d="M68.6063 93.7350
L54.6062 93.7350
" />
<path d="M54.6062 93.7350
L54.6062 79.7350
" />
<path d="M54.6062 79.7350
L68.6063 79.7350
" />
<path d="M68.6063 79.7350
L68.6063 93.7350
" />
<path d="M75.7500 93.7350
L61.7500 93.7350
" />
<path d="M61.7500 93.7350
L61.7500 79.7350
" />
<path d="M61.7500 79.7350
L75.7500 79.7350
" />
<path d="M75.7500 79.7350
L75.7500 93.7350
" />
<path d="M118.9000 45.7000
L132.9000 45.7000
" />
<path d="M132.9000 45.7000
L132.9000 59.7000
" />
<path d="M132.9000 59.7000
L118.9000 59.7000
" />
<path d="M118.9000 59.7000
L118.9000 45.7000
" />
<path d="M116.3750 62.2250
L135.4250 62.2250
" />
<path d="M135.4250 62.2250
L135.4250 43.1750
" />
<path d="M135.4250 43.1750
L116.3750 43.1750
" />
<path d="M116.3750 43.1750
L116.3750 62.2250
" />
<path d="M176.0500 4.6000
L190.0500 4.6000
" />
<path d="M190.0500 4.6000
L190.0500 18.6000
" />
<path d="M190.0500 18.6000
L176.0500 18.6000
" />
<path d="M176.0500 18.6000
L176.0500 4.6000
" />
<path d="M173.5250 21.1250
L192.5750 21.1250
" />
<path d="M192.5750 21.1250
L192.5750 2.0750
" />
<path d="M192.5750 2.0750
L173.5250 2.0750
" />
<path d="M173.5250 2.0750
L173.5250 21.1250
" />
<path d="M157.0000 4.6000
L171.0000 4.6000
" />
<path d="M171.0000 4.6000
L171.0000 18.6000
" />
<path d="M171.0000 18.6000
L157.0000 18.6000
" />
<path d="M157.0000 18.6000
L157.0000 4.6000
" />
<path d="M154.4750 21.1250
L173.5250 21.1250
" />
<path d="M173.5250 21.1250
L173.5250 2.0750
" />
<path d="M173.5250 2.0750
L154.4750 2.0750
" />
<path d="M154.4750 2.0750
L154.4750 21.1250
" />
</g>
<g style="fill:#000000; fill-opacity:0.0; 
stroke:#000000; stroke-width:0.1000; stroke-opacity:1; 
stroke-linecap:round; stroke-linejoin:round;">
<circle cx="66.9750" cy="32.5600" r="1.1000" /> 
</g>
<g style="fill:#000000; fill-opacity:0.0; 
stroke:#000000; stroke-width:0.1200; stroke-opacity:1; 
stroke-linecap:round; stroke-linejoin:round;">
<path d="M198.1000 75.2500
L212.1000 75.2500
" />
<path d="M212.1000 75.2500
L212.1000 89.2500
" />
<path d="M212.1000 89.2500
L198.1000 89.2500
" />
<path d="M198.1000 89.2500
L198.1000 75.2500
" />
<path d="M195.5750 91.7750
L214.6250 91.7750
" />
<path d="M214.6250 91.7750
L214.6250 72.7250
" />
<path d="M214.6250 72.7250
L195.5750 72.7250
" />
<path d="M195.5750 72.7250
L195.5750 91.7750
" />
<path d="M157.0000 91.3000
L171.0000 91.3000
" />
<path d="M171.0000 91.3000
L171.0000 105.3000
" />
<path d="M171.0000 105.3000
L157.0000 105.3000
" />
<path d="M157.0000 105.3000
L157.0000 91.3000
" />
<path d="M154.4750 107.8250
L173.5250 107.8250
" />
<path d="M173.5250 107.8250
L173.5250 88.7750
" />
<path d="M173.5250 88.7750
L154.4750 88.7750
" />
<path d="M154.4750 88.7750
L154.4750 107.8250
" />
</g>
<g style="fill:#000000; fill-opacity:0.0; 
stroke:#000000; stroke-width:0.1000; stroke-opacity:1; 
stroke-linecap:round; stroke-linejoin:round;">
<circle cx="23.8300" cy="12.8920" r="2.0500" /> 
<circle cx="152.4900" cy="11.6000" r="1.1000" /> 
</g>
<g style="fill:#000000; fill-opacity:0.0; 
stroke:#000000; stroke-width:0.1200; stroke-opacity:1; 
stroke-linecap:round; stroke-linejoin:round;">
<path d="M118.9000 64.7500
L132.9000 64.7500
" />
<path d="M132.9000 64.7500
L132.9000 78.7500
" />
<path d="M132.9000 78.7500
L118.9000 78.7500
" />
<path d="M118.9000 78.7500
L118.9000 64.7500
" />
<path d="M116.3750 81.2750
L135.4250 81.2750
" />
<path d="M135.4250 81.2750
L135.4250 62.2250
" />
<path d="M135.4250 62.2250
L116.3750 62.2250
" />
<path d="M116.3750 62.2250
L116.3750 81.2750
" />
</g>
<g style="fill:#000000; fill-opacity:0.0; 
stroke:#000000; stroke-width:0.1000; stroke-opacity:1; 
stroke-linecap:round; stroke-linejoin:round;">
<circle cx="87.8000" cy="31.1420" r="1.1000" /> 
</g>
<g style="fill:#000000; fill-opacity:0.0; 
stroke:#000000; stroke-width:0.1200; stroke-opacity:1; 
stroke-linecap:round; stroke-linejoin:round;">
<path d="M198.1000 37.1500
L212.1000 37.1500
" />
<path d="M212.1000 37.1500
L212.1000 51.1500
" />
<path d="M212.1000 51.1500
L198.1000 51.1500
" />
<path d="M198.1000 51.1500
L198.1000 37.1500
" />
<path d="M195.5750 53.6750
L214.6250 53.6750
" />
<path d="M214.6250 53.6750
L214.6250 34.6250
" />
<path d="M214.6250 34.6250
L195.5750 34.6250
" />
<path d="M195.5750 34.6250
L195.5750 53.6750
" />
<path d="M54.4625 134.3750
L30.6500 134.3750
" />
<path d="M30.6500 134.3750
L30.6500 115.3250
" />
<path d="M30.6500 115.3250
L54.4625 115.3250
" />
<path d="M54.4625 115.3250
L54.4625 134.3750
" />
<path d="M35.5562 117.8500
L49.5562 117.8500
" />
<path d="M49.5562 117.8500
L49.5562 131.8500
" />
<path d="M49.5562 131.8500
L35.5562 131.8500
" />
<path d="M35.5562 131.8500
L35.5562 117.8500
" />
<path d="M133.9500 4.6000
L147.9500 4.6000
" />
<path d="M147.9500 4.6000
L147.9500 18.6000
" />
<path d="M147.9500 18.6000
L133.9500 18.6000
" />
<path d="M133.9500 18.6000
L133.9500 4.6000
" />
<path d="M131.4250 21.1250
L150.4750 21.1250
" />
<path d="M150.4750 21.1250
L150.4750 2.0750
" />
<path d="M150.4750 2.0750
L131.4250 2.0750
" />
<path d="M131.4250 2.0750
L131.4250 21.1250
" />
<path d="M42.7000 41.6500
L56.7000 41.6500
" />
<path d="M56.7000 41.6500
L56.7000 55.6500
" />
<path d="M56.7000 55.6500
L42.7000 55.6500
" />
<path d="M42.7000 55.6500
L42.7000 41.6500
" />
<path d="M40.1750 58.1750
L59.2250 58.1750
" />
<path d="M59.2250 58.1750
L59.2250 39.1250
" />
<path d="M59.2250 39.1250
L40.1750 39.1250
" />
<path d="M40.1750 39.1250
L40.1750 58.1750
" />
<path d="M80.8000 74.2500
L94.8000 74.2500
" />
<path d="M94.8000 74.2500
L94.8000 88.2500
" />
<path d="M94.8000 88.2500
L80.8000 88.2500
" />
<path d="M80.8000 88.2500
L80.8000 74.2500
" />
<path d="M78.2750 90.7750
L97.3250 90.7750
" />
<path d="M97.3250 90.7750
L97.3250 71.7250
" />
<path d="M97.3250 71.7250
L78.2750 71.7250
" />
<path d="M78.2750 71.7250
L78.2750 90.7750
" />
<path d="M195.2582 116.1846
L209.1219 118.1330
" />
<path d="M209.1219 118.1330
L207.1735 131.9968
" />
<path d="M207.1735 131.9968
L193.3097 130.0483
" />
<path d="M193.3097 130.0483
L195.2582 116.1846
" />
<path d="M190.4579 132.1974
L209.3225 134.8486
" />
<path d="M209.3225 134.8486
L211.9738 115.9840
" />
<path d="M211.9738 115.9840
L193.1091 113.3328
" />
<path d="M193.1091 113.3328
L190.4579 132.1974
" />
<path d="M99.8500 49.7000
L113.8500 49.7000
" />
<path d="M113.8500 49.7000
L113.8500 63.7000
" />
<path d="M113.8500 63.7000
L99.8500 63.7000
" />
<path d="M99.8500 63.7000
L99.8500 49.7000
" />
<path d="M97.3250 66.2250
L116.3750 66.2250
" />
<path d="M116.3750 66.2250
L116.3750 47.1750
" />
<path d="M116.3750 47.1750
L97.3250 47.1750
" />
<path d="M97.3250 47.1750
L97.3250 66.2250
" />
</g>
<g style="fill:#000000; fill-opacity:0.0; 
stroke:#000000; stroke-width:0.1000; stroke-opacity:1; 
stroke-linecap:round; stroke-linejoin:round;">
<circle cx="105.4750" cy="133.9250" r="1.1000" /> 
<circle cx="194.0750" cy="93.7380" r="1.1000" /> 
</g>
<g style="fill:#000000; fill-opacity:0.0; 
stroke:#000000; stroke-width:0.1200; stroke-opacity:1; 
stroke-linecap:round; stroke-linejoin:round;">
<path d="M157.0000 72.2500
L171.0000 72.2500
" />
<path d="M171.0000 72.2500
L171.0000 86.2500
" />
<path d="M171.0000 86.2500
L157.0000 86.2500
" />
<path d="M157.0000 86.2500
L157.0000 72.2500
" />
<path d="M154.4750 88.7750
L173.5250 88.7750
" />
<path d="M173.5250 88.7750
L173.5250 69.7250
" />
<path d="M173.5250 69.7250
L154.4750 69.7250
" />
<path d="M154.4750 69.7250
L154.4750 88.7750
" />
<path d="M44.7937 93.7500
L30.7937 93.7500
" />
<path d="M30.7937 93.7500
L30.7937 79.7500
" />
<path d="M30.7937 79.7500
L44.7937 79.7500
" />
<path d="M44.7937 79.7500
L44.7937 93.7500
" />
<path d="M59.2250 96.2850
L16.3625 96.2850
" />
<path d="M16.3625 96.2850
L16.3625 77.2350
" />
<path d="M16.3625 77.2350
L59.2250 77.2350
" />
<path d="M59.2250 77.2350
L59.2250 96.2850
" />
<path d="M84.2829 135.4673
L84.7004 138.4381
" />
<path d="M84.7004 138.4381
L95.9152 136.8619
" />
<path d="M89.1814 137.8083
L88.7638 134.8375
" />
<path d="M95.2228 131.9354
L95.4977 133.8911
" />
<path d="M95.4977 133.8911
L84.2829 135.4673
" />
<path d="M95.9152 136.8619
L96.1970 138.8672
" />
<path d="M96.1970 138.8672
L105.1094 137.6147
" />
<path d="M103.8569 128.7023
L123.6622 125.9188
" />
<path d="M104.1352 130.6828
L95.2228 131.9354
" />
<path d="M104.1352 130.6828
L103.8569 128.7023
" />
<path d="M105.3878 139.5952
L105.1094 137.6147
" />
<path d="M123.6622 125.9188
L124.2189 129.8799
" />
<path d="M124.2189 129.8799
L129.6654 129.1144
" />
<path d="M124.6364 132.8507
L125.1931 136.8117
" />
<path d="M124.6364 132.8507
L130.0829 132.0852
" />
<path d="M125.1931 136.8117
L105.3878 139.5952
" />
<path d="M125.2092 129.7407
L125.6267 132.7115
" />
<path d="M129.6654 129.1144
L130.0829 132.0852
" />
<path d="M103.4233 132.8025
L125.2092 129.7407
" />
<path d="M125.2092 129.7407
L125.6267 132.7115
" />
<path d="M125.6267 132.7115
L103.8408 135.7733
" />
<path d="M103.8408 135.7733
L103.4233 132.8025
" />
<path d="M109.1561 130.4821
L119.0588 129.0903
" />
<path d="M119.0588 129.0903
L119.8939 135.0319
" />
<path d="M119.8939 135.0319
L109.9912 136.4237
" />
<path d="M109.9912 136.4237
L109.1561 130.4821
" />
<path d="M115.9328 135.5886
L109.9912 136.4237
" />
<path d="M109.9912 136.4237
L109.3649 131.9675
" />
<path d="M109.3649 131.9675
L115.3065 131.1324
" />
<path d="M115.3065 131.1324
L115.9328 135.5886
" />
<path d="M119.6851 133.5465
L113.7435 134.3816
" />
<path d="M113.7435 134.3816
L113.1172 129.9254
" />
<path d="M113.1172 129.9254
L119.0588 129.0903
" />
<path d="M119.0588 129.0903
L119.6851 133.5465
" />
<circle cx="86.7128" cy="136.5900" r="1.0753" /> 
<circle cx="127.6990" cy="130.9308" r="1.0753" /> 
<path d="M176.0500 34.1500
L190.0500 34.1500
" />
<path d="M190.0500 34.1500
L190.0500 48.1500
" />
<path d="M190.0500 48.1500
L176.0500 48.1500
" />
<path d="M176.0500 48.1500
L176.0500 34.1500
" />
<path d="M173.5250 50.6750
L192.5750 50.6750
" />
<path d="M192.5750 50.6750
L192.5750 31.6250
" />
<path d="M192.5750 31.6250
L173.5250 31.6250
" />
<path d="M173.5250 31.6250
L173.5250 50.6750
" />
<path d="M118.9000 102.8500
L132.9000 102.8500
" />
<path d="M132.9000 102.8500
L132.9000 116.8500
" />
<path d="M132.9000 116.8500
L118.9000 116.8500
" />
<path d="M118.9000 116.8500
L118.9000 102.8500
" />
<path d="M116.3750 119.3750
L135.4250 119.3750
" />
<path d="M135.4250 119.3750
L135.4250 100.3250
" />
<path d="M135.4250 100.3250
L116.3750 100.3250
" />
<path d="M116.3750 100.3250
L116.3750 119.3750
" />
</g>
<g style="fill:#000000; fill-opacity:0.0; 
stroke:#000000; stroke-width:0.1000; stroke-opacity:1; 
stroke-linecap:round; stroke-linejoin:round;">
<circle cx="129.2000" cy="124.0320" r="2.0500" /> 
</g>
<g style="fill:#000000; fill-opacity:0.0; 
stroke:#000000; stroke-width:0.1200; stroke-opacity:1; 
stroke-linecap:round; stroke-linejoin:round;">
<path d="M136.3445 124.7374
L150.2083 126.6858
" />
<path d="M150.2083 126.6858
L148.2598 140.5496
" />
<path d="M148.2598 140.5496
L134.3961 138.6011
" />
<path d="M134.3961 138.6011
L136.3445 124.7374
" />
<path d="M131.2128 143.1082
L150.0774 145.7595
" />
<path d="M150.0774 145.7595
L153.3915 122.1787
" />
<path d="M153.3915 122.1787
L134.5269 119.5275
" />
<path d="M134.5269 119.5275
L131.2128 143.1082
" />
</g>
<g style="fill:#000000; fill-opacity:0.0; 
stroke:#000000; stroke-width:0.1000; stroke-opacity:1; 
stroke-linecap:round; stroke-linejoin:round;">
<circle cx="7.3500" cy="64.6570" r="1.1000" /> 
<circle cx="144.5493" cy="113.1507" r="1.1000" /> 
</g>
<g style="fill:#000000; fill-opacity:0.0; 
stroke:#000000; stroke-width:0.1200; stroke-opacity:1; 
stroke-linecap:round; stroke-linejoin:round;">
<path d="M42.7000 60.7000
L56.7000 60.7000
" />
<path d="M56.7000 60.7000
L56.7000 74.7000
" />
<path d="M56.7000 74.7000
L42.7000 74.7000
" />
<path d="M42.7000 74.7000
L42.7000 60.7000
" />
<path d="M40.1750 77.2250
L59.2250 77.2250
" />
<path d="M59.2250 77.2250
L59.2250 58.1750
" />
<path d="M59.2250 58.1750
L40.1750 58.1750
" />
<path d="M40.1750 58.1750
L40.1750 77.2250
" />
</g>
<g style="fill:#000000; fill-opacity:0.0; 
stroke:#000000; stroke-width:0.1000; stroke-opacity:1; 
stroke-linecap:round; stroke-linejoin:round;">
<circle cx="54.4625" cy="132.2750" r="2.0500" /> 
</g>
<g style="fill:#000000; fill-opacity:0.0; 
stroke:#000000; stroke-width:0.1200; stroke-opacity:1; 
stroke-linecap:round; stroke-linejoin:round;">
<path d="M99.8500 87.8000
L113.8500 87.8000
" />
<path d="M113.8500 87.8000
L113.8500 101.8000
" />
<path d="M113.8500 101.8000
L99.8500 101.8000
" />
<path d="M99.8500 101.8000
L99.8500 87.8000
" />
<path d="M97.3250 104.3250
L116.3750 104.3250
" />
<path d="M116.3750 104.3250
L116.3750 85.2750
" />
<path d="M116.3750 85.2750
L97.3250 85.2750
" />
<path d="M97.3250 85.2750
L97.3250 104.3250
" />
<path d="M175.0431 123.0111
L188.9069 124.9595
" />
<path d="M188.9069 124.9595
L186.9584 138.8232
" />
<path d="M186.9584 138.8232
L173.0947 136.8748
" />
<path d="M173.0947 136.8748
L175.0431 123.0111
" />
<path d="M168.9172 148.4561
L187.7818 151.1074
" />
<path d="M187.7818 151.1074
L193.0843 113.3782
" />
<path d="M193.0843 113.3782
L174.2197 110.7269
" />
<path d="M174.2197 110.7269
L168.9172 148.4561
" />
<path d="M137.9500 50.7000
L151.9500 50.7000
" />
<path d="M151.9500 50.7000
L151.9500 64.7000
" />
<path d="M151.9500 64.7000
L137.9500 64.7000
" />
<path d="M137.9500 64.7000
L137.9500 50.7000
" />
<path d="M135.4250 67.2250
L154.4750 67.2250
" />
<path d="M154.4750 67.2250
L154.4750 48.1750
" />
<path d="M154.4750 48.1750
L135.4250 48.1750
" />
<path d="M135.4250 48.1750
L135.4250 67.2250
" />
<path d="M137.9500 31.6500
L151.9500 31.6500
" />
<path d="M151.9500 31.6500
L151.9500 45.6500
" />
<path d="M151.9500 45.6500
L137.9500 45.6500
" />
<path d="M137.9500 45.6500
L137.9500 31.6500
" />
<path d="M135.4250 48.1750
L154.4750 48.1750
" />
<path d="M154.4750 48.1750
L154.4750 29.1250
" />
<path d="M154.4750 29.1250
L135.4250 29.1250
" />
<path d="M135.4250 29.1250
L135.4250 48.1750
" />
<path d="M137.9500 69.7500
L151.9500 69.7500
" />
<path d="M151.9500 69.7500
L151.9500 83.7500
" />
<path d="M151.9500 83.7500
L137.9500 83.7500
" />
<path d="M137.9500 83.7500
L137.9500 69.7500
" />
<path d="M135.4250 86.2750
L154.4750 86.2750
" />
<path d="M154.4750 86.2750
L154.4750 67.2250
" />
<path d="M154.4750 67.2250
L135.4250 67.2250
" />
<path d="M135.4250 67.2250
L135.4250 86.2750
" />
<path d="M157.0000 34.1500
L171.0000 34.1500
" />
<path d="M171.0000 34.1500
L171.0000 48.1500
" />
<path d="M171.0000 48.1500
L157.0000 48.1500
" />
<path d="M157.0000 48.1500
L157.0000 34.1500
" />
<path d="M154.4750 50.6750
L173.5250 50.6750
" />
<path d="M173.5250 50.6750
L173.5250 31.6250
" />
<path d="M173.5250 31.6250
L154.4750 31.6250
" />
<path d="M154.4750 31.6250
L154.4750 50.6750
" />
<path d="M25.8875 96.2750
L78.2750 96.2750
" />
<path d="M78.2750 96.2750
L78.2750 115.3250
" />
<path d="M78.2750 115.3250
L25.8875 115.3250
" />
<path d="M25.8875 115.3250
L25.8875 96.2750
" />
<path d="M35.4125 96.2750
L78.2750 96.2750
" />
<path d="M78.2750 96.2750
L78.2750 115.3250
" />
<path d="M78.2750 115.3250
L35.4125 115.3250
" />
<path d="M35.4125 115.3250
L35.4125 96.2750
" />
<path d="M59.0812 112.8000
L45.0812 112.8000
" />
<path d="M45.0812 112.8000
L45.0812 98.8000
" />
<path d="M45.0812 98.8000
L59.0812 98.8000
" />
<path d="M59.0812 98.8000
L59.0812 112.8000
" />
<path d="M63.8438 112.8000
L49.8438 112.8000
" />
<path d="M49.8438 112.8000
L49.8438 98.8000
" />
<path d="M49.8438 98.8000
L63.8438 98.8000
" />
<path d="M63.8438 98.8000
L63.8438 112.8000
" />
</g>
<g style="fill:#000000; fill-opacity:0.0; 
stroke:#000000; stroke-width:0.1000; stroke-opacity:1; 
stroke-linecap:round; stroke-linejoin:round;">
<circle cx="27.7000" cy="118.3500" r="1.1000" /> 
</g>
<g style="fill:#000000; fill-opacity:0.0; 
stroke:#000000; stroke-width:0.1200; stroke-opacity:1; 
stroke-linecap:round; stroke-linejoin:round;">
<path d="M173.5250 107.8250
L192.5750 107.8250
" />
<path d="M192.5750 107.8250
L192.5750 88.7750
" />
<path d="M192.5750 88.7750
L173.5250 88.7750
" />
<path d="M173.5250 88.7750
L173.5250 107.8250
" />
<circle cx="183.0500" cy="98.3000" r="9.5250" /> 
<g >
</g>
<g >
</g>
<g >
</g>
<g >
</g>
<g >
</g>
<g >
</g>
<g >
</g>
<g >
</g>
<g >
</g>
<g >
</g>
<g >
</g>
<g >
</g>
<g >
</g>
<g >
</g>
<g >
</g>
<g >
</g>
<g >
</g>
<g >
</g>
<g >
</g>
<g >
</g>
<g >
</g>
<g >
</g>
<g >
</g>
<g >
</g>
<g >
</g>
<g >
</g>
<g >
</g>
<g >
</g>
<g >
</g>
<g >
</g>
<g >
</g>
<g >
</g>
<g >
</g>
<g >
</g>
<g >
</g>
<g >
</g>
<g >
</g>
<g >
</g>
<g >
</g>
<g >
</g>
<g >
</g>
<g >
</g>
<g >
</g>
<g >
</g>
<g >
</g>
<g >
</g>
<g >
</g>
<g >
</g>
<g >
</g>
<g >
</g>
<g >
</g>
<g >
</g>
<g >
</g>
<g >
</g>
<g >
</g>
<g >
</g>
<g >
</g>
<g >
</g>
<g >
</g>
<g >
</g>
<g >
</g>
<g >
</g>
<g >
</g>
<g >
</g>
<g >
</g>
<g >
</g>
<g >
</g>
<g >
</g>
<g >
</g>
<g >
</g>
<g >
</g>
<g >
</g>
<g >
</g>
<g >
</g>
<g >
</g>
<g >
</g>
<g >
</g>
<g >
</g>
<g >
</g>
<g >
</g>
<g >
</g>
<g >
</g>
<g >
</g>
<g >
</g>
<g >
</g>
<g >
</g>
<g >
</g>
<g >
</g>
<g >
</g>
<g >
</g>
<g >
</g>
<g >
</g>
<g >
</g>
<g >
</g>
<g >
</g>
<g >
</g>
<g >
</g>
<g >
</g>
<g >
</g>
<g >
</g>
<g >
</g>
<g >
</g>
<g >
</g>
<g >
</g>
<g >
</g>
<g >
</g>
<g >
</g>
<g >
</g>
<g >
</g>
<g >
</g>
<g >
</g>
<g >
</g>
<g >
</g>
<g >
</g>
<g >
</g>
<g >
</g>
<g >
</g>
<g >
</g>
<g >
</g>
<g >
</g>
<g >
</g>
<g >
</g>
<g >
</g>
<g >
</g>
<g >
</g>
<g >
</g>
<g >
</g>
<g >
</g>
<g >
</g>
<g >
</g>
<g >
</g>
<g >
</g>
<g >
</g>
<g >
</g>
<g >
</g>
<g >
</g>
<g >
</g>
<g >
</g>
<g >
</g>
<g >
</g>
<g >
</g>
<g >
</g>
<g >
</g>
<g >
</g>
<g >
</g>
<g >
</g>
<g >
</g>
<g >
</g>
<g >
</g>
<g >
</g>
<g >
</g>
<g >
</g>
<g >
</g>
<g >
</g>
<g >
</g>
<g >
</g>
<g >
</g>
<g >
</g>
<g >
</g>
<g >
</g>
<g >
</g>
<g >
</g>
<g >
</g>
<g >
</g>
<g >
</g>
<g >
</g>
<g >
</g>
<g >
</g>
<g >
</g>
<g >
</g>
</g> 
</svg>
