0
SECTION
2
HEADER
9
$INSUNITS
70
4
9
$ACADVER
1
AC1014
9
$HANDSEED
5
FFFF
0
ENDSEC
0
SECTION
2
TABLES
0
TABLE
2
VPORT
5
8
100
AcDbSymbolTable
0
ENDTAB
0
TABLE
2
LTYPE
5
5
100
AcDbSymbolTable
0
LTYPE
5
14
100
AcDbSymbolTableRecord
100
AcDbLinetypeTableRecord
2
BYBLOCK
70
0
0
LTYPE
5
15
100
AcDbSymbolTableRecord
100
AcDbLinetypeTableRecord
2
BYLAYER
70
0
0
ENDTAB
0
TABLE
2
LAYER
5
2
100
AcDbSymbolTable
70
2
0
LAYER
5
50
100
AcDbSymbolTableRecord
100
AcDbLayerTableRecord
2
0
70
0
6
CONTINUOUS
0
ENDTAB
0
TABLE
2
STYLE
5
3
100
AcDbSymbolTable
70
1
0
STYLE
5
11
100
AcDbSymbolTableRecord
100
AcDbTextStyleTableRecord
2
STANDARD
70
0
0
ENDTAB
0
TABLE
2
VIEW
5
6
100
AcDbSymbolTable
70
0
0
ENDTAB
0
TABLE
2
UCS
5
7
100
AcDbSymbolTable
70
0
0
ENDTAB
0
TABLE
2
APPID
5
9
100
AcDbSymbolTable
70
2
0
APPID
5
12
100
AcDbSymbolTableRecord
100
AcDbRegAppTableRecord
2
ACAD
70
0
0
ENDTAB
0
TABLE
2
DIMSTYLE
5
A
100
AcDbSymbolTable
70
1
0
ENDTAB
0
TABLE
2
BLOCK_RECORD
5
1
100
AcDbSymbolTable
70
1
0
BLOCK_RECORD
5
1F
100
AcDbSymbolTableRecord
100
AcDbBlockTableRecord
2
*MODEL_SPACE
0
BLOCK_RECORD
5
1B
100
AcDbSymbolTableRecord
100
AcDbBlockTableRecord
2
*PAPER_SPACE
0
ENDTAB
0
ENDSEC
0
SECTION
2
BLOCKS
0
BLOCK
5
20
100
AcDbEntity
100
AcDbBlockBegin
2
*MODEL_SPACE
0
ENDBLK
5
21
100
AcDbEntity
100
AcDbBlockEnd
0
BLOCK
5
1C
100
AcDbEntity
100
AcDbBlockBegin
2
*PAPER_SPACE
0
ENDBLK
5
1D
100
AcDbEntity
100
AcDbBlockEnd
0
ENDSEC
0
SECTION
2
ENTITIES
0
CIRCLE
5
100
100
AcDbEntity
8
0
100
AcDbCircle
10
-61.735449842395845
20
139.41198344687504
30
0
40
1.0999919791666635
210
0
220
0
230
1
0
CIRCLE
5
101
100
AcDbEntity
8
0
100
AcDbCircle
10
-136.47240488145835
20
131.16904355208334
30
0
40
1.0999919791666635
210
0
220
0
230
1
0
CIRCLE
5
102
100
AcDbEntity
8
0
100
AcDbCircle
10
-134.22242128770836
20
147.21892652083335
30
0
40
1.0999919791666635
210
0
220
0
230
1
0
CIRCLE
5
103
100
AcDbEntity
8
0
100
AcDbCircle
10
-31.103173204375004
20
20.029853947916671
30
0
40
1.0999919791666679
210
0
220
0
230
1
0
CIRCLE
5
104
100
AcDbEntity
8
0
100
AcDbCircle
10
-82.202800600208349
20
111.96218360312501
30
0
40
1.0999919791666635
210
0
220
0
230
1
0
CIRCLE
5
105
100
AcDbEntity
8
0
100
AcDbCircle
10
-90.172742485625008
20
140.61897464583336
30
0
40
1.0999919791666635
210
0
220
0
230
1
0
CIRCLE
5
106
100
AcDbEntity
8
0
100
AcDbCircle
10
-82.202800600208349
20
37.262428292812508
30
0
40
1.0999919791666635
210
0
220
0
230
1
0
CIRCLE
5
107
100
AcDbEntity
8
0
100
AcDbCircle
10
-26.563206308541673
20
95.769301677083348
30
0
40
1.0999919791666679
210
0
220
0
230
1
0
CIRCLE
5
108
100
AcDbEntity
8
0
100
AcDbCircle
10
-161.73222069395834
20
111.96218360312501
30
0
40
1.0999919791666812
210
0
220
0
230
1
0
CIRCLE
5
109
100
AcDbEntity
8
0
100
AcDbCircle
10
-219.39680022000005
20
101.39426066145833
30
0
40
1.0999919791666812
210
0
220
0
230
1
0
CIRCLE
5
110
100
AcDbEntity
8
0
100
AcDbCircle
10
-198.83195017312505
20
139.45698311875003
30
0
40
1.0999919791666812
210
0
220
0
230
1
0
CIRCLE
5
111
100
AcDbEntity
8
0
100
AcDbCircle
10
-212.37185144395838
20
36.694732432291673
30
0
40
1.0999919791666812
210
0
220
0
230
1
0
CIRCLE
5
112
100
AcDbEntity
8
0
100
AcDbCircle
10
-11.349317243958335
20
55.785593227083339
30
0
40
1.0999919791666679
210
0
220
0
230
1
0
CIRCLE
5
113
100
AcDbEntity
8
0
100
AcDbCircle
10
-142.69735949083335
20
85.307377962500013
30
0
40
22.499835937500006
210
0
220
0
230
1
0
CIRCLE
5
114
100
AcDbEntity
8
0
100
AcDbCircle
10
-161.73222069395834
20
37.262428292812508
30
0
40
1.0999919791666812
210
0
220
0
230
1
0
LWPOLYLINE
5
115
100
AcDbEntity
8
0
100
AcDbPolyline
90
17
70
1
43
0.0
10
-37.750990202881539
20
143.5045434070671
10
-138.32809291280111
20
152.23428728909494
10
-213.66354212296807
20
162.83230876617438
42
0.41502760775249409
10
-215.92731956144974
20
161.13012696413995
10
-223.87727379964196
20
104.5405356323004
42
0.034894001084238901
10
-223.89677438987098
20
104.26224023723604
10
-223.89677439018249
20
41.762764160393573
42
0.15000136715216345
10
-223.55243690703992
20
40.640758636807199
10
-201.51253262229807
20
8.1056652672062235
42
0.25112933368678386
10
-199.84694670271878
20
7.2129472259188701
10
-36.983274837491749
20
7.2129472249660154
42
0.23686616861346355
10
-35.379643907535076
20
8.0177418679883079
10
-7.7448437533622005
20
45.065371926939491
42
0.1692300466009414
10
-7.350339751402128
20
46.323752325345033
10
-7.3483465338826193
20
65.310520783257488
42
0.090130449322486247
10
-7.4762452480400636
20
66.014220486060793
10
-36.051037174765277
20
142.21566832545597
42
0.2889276112956734
0
ENDSEC
0
SECTION
2
OBJECTS
0
DICTIONARY
5
C
100
AcDbDictionary
3
ACAD_GROUP
350
D
3
ACAD_MLINESTYLE
350
17
0
DICTIONARY
5
D
100
AcDbDictionary
0
DICTIONARY
5
1A
330
C
100
AcDbDictionary
0
DICTIONARY
5
17
100
AcDbDictionary
0
ENDSEC
0
EOF
