<?xml version="1.0" standalone="no"?>
 <!DOCTYPE svg PUBLIC "-//W3C//DTD SVG 1.1//EN" 
 "http://www.w3.org/Graphics/SVG/1.1/DTD/svg11.dtd"> 
<svg
  xmlns:svg="http://www.w3.org/2000/svg"
  xmlns="http://www.w3.org/2000/svg"
  xmlns:xlink="http://www.w3.org/1999/xlink"
  version="1.1"
  width="225.5266mm" height="169.4180mm" viewBox="0.0000 0.0000 225.5266 169.4180">
<title>SVG Image created as ergodonk_simple_zero-brd.svg date 2024/01/12 12:42:41 </title>
  <desc>Image generated by PCBNEW </desc>
<g style="fill:#000000; fill-opacity:1.0000;stroke:#000000; stroke-opacity:1.0000;
stroke-linecap:round; stroke-linejoin:round;"
 transform="translate(0 0) scale(1 1)">
</g>
<g style="fill:#000000; fill-opacity:0.0; 
stroke:#000000; stroke-width:0.0000; stroke-opacity:1; 
stroke-linecap:round; stroke-linejoin:round;">
</g>
<g style="fill:#000000; fill-opacity:0.0; 
stroke:#000000; stroke-width:0.1500; stroke-opacity:1; 
stroke-linecap:round; stroke-linejoin:round;">
<path d="M135.6157 152.2354
L210.9517 162.8335
" />
<path d="M82.8350 147.6558 A2.0000 2.0000 0.0 0 0 84.8350 145.6558" />
<path d="M54.2800 9.2110
L54.2800 42.2650
" />
<path d="M133.7976 150.0687 A2.0000 2.0000 0.0 0 0 135.6157 152.2354" />
<path d="M210.9517 162.8335 A2.0000 2.0000 0.0 0 0 213.2155 161.1313" />
<path d="M134.8078 128.5111
L124.9350 128.5111
" />
<path d="M6.6350 44.2630
L52.2800 44.2630
" />
<path d="M133.7976 150.0687
L136.5100 130.7700
" />
<path d="M5.0314 45.0657 A2.0040 2.0040 0.0 0 0 4.6360 46.2610" />
<path d="M101.8850 138.0130
L86.8350 138.0130
" />
<path d="M6.6350 44.2630 A2.0000 2.0000 0.0 0 0 4.6350 46.2610" />
<path d="M221.1850 41.7630
L221.1850 104.2630
" />
<path d="M4.7629 66.0147
L33.3379 142.2167
" />
<path d="M221.1850 41.7630 A2.0000 2.0000 0.0 0 0 220.8411 40.6417" />
<path d="M120.9350 132.5130
L105.8850 132.5130
" />
<path d="M213.2155 161.1313
L221.1655 104.5413
" />
<path d="M86.8350 138.0130 A2.0000 2.0000 0.0 0 0 84.8350 140.0130" />
<path d="M52.2800 44.2630 A2.0000 2.0000 0.0 0 0 54.2800 42.2650" />
<path d="M120.9350 132.5130 A2.0000 2.0000 0.0 0 0 122.9350 130.5130" />
<path d="M33.3379 142.2167 A2.0000 2.0000 0.0 0 0 35.0357 143.5054" />
<path d="M221.1655 104.5413 A2.0000 2.0000 0.0 0 0 221.1850 104.2630" />
</g>
<g style="fill:#000000; fill-opacity:0.0; 
stroke:#000000; stroke-width:0.1000; stroke-opacity:1; 
stroke-linecap:round; stroke-linejoin:round;">
<path d="M198.7911 8.0917
L220.8411 40.6417
" />
</g>
<g style="fill:#000000; fill-opacity:0.0; 
stroke:#000000; stroke-width:0.1500; stroke-opacity:1; 
stroke-linecap:round; stroke-linejoin:round;">
<path d="M35.0357 143.5054
L82.8350 147.6558
" />
<path d="M56.2800 7.2130 A2.0000 2.0000 0.0 0 0 54.2800 9.2110" />
<path d="M124.9350 128.5130 A2.0000 2.0000 0.0 0 0 122.9350 130.5130" />
<path d="M103.8850 136.0130
L103.8850 134.5130
" />
<path d="M101.8850 138.0130 A2.0000 2.0000 0.0 0 0 103.8850 136.0130" />
<path d="M136.5101 130.7700 A2.0000 2.0000 0.0 0 0 134.8078 128.5111" />
<path d="M84.8350 145.6558
L84.8350 140.0130
" />
<path d="M105.8850 132.5130 A2.0000 2.0000 0.0 0 0 103.8850 134.5130" />
<path d="M4.6350 65.3110 A2.0000 2.0000 0.0 0 0 4.7629 66.0147" />
<path d="M56.2800 7.2130
L197.1350 7.2130
" />
<path d="M198.7911 8.0917 A2.0000 2.0000 0.0 0 0 197.1350 7.2130" />
<path d="M4.6350 65.3110
L4.6370 46.2610
" />
</g>
<g style="fill:#000000; fill-opacity:0.0; 
stroke:#000000; stroke-width:0.1200; stroke-opacity:1; 
stroke-linecap:round; stroke-linejoin:round;">
<path d="M180.6100 79.3880
L194.6100 79.3880
" />
<path d="M194.6100 79.3880
L194.6100 93.3880
" />
<path d="M194.6100 93.3880
L180.6100 93.3880
" />
<path d="M180.6100 93.3880
L180.6100 79.3880
" />
<path d="M104.4100 113.9880
L118.4100 113.9880
" />
<path d="M118.4100 113.9880
L118.4100 127.9880
" />
<path d="M118.4100 127.9880
L104.4100 127.9880
" />
<path d="M104.4100 127.9880
L104.4100 113.9880
" />
</g>
<g style="fill:#000000; fill-opacity:0.0; 
stroke:#000000; stroke-width:0.1000; stroke-opacity:1; 
stroke-linecap:round; stroke-linejoin:round;">
<circle cx="131.5100" cy="147.2200" r="1.1000" /> 
<circle cx="87.4600" cy="140.6200" r="1.1000" /> 
<circle cx="196.1200" cy="139.4580" r="1.1000" /> 
</g>
<g style="fill:#000000; fill-opacity:0.0; 
stroke:#000000; stroke-width:0.1200; stroke-opacity:1; 
stroke-linecap:round; stroke-linejoin:round;">
<path d="M85.3600 43.2880
L99.3600 43.2880
" />
<path d="M99.3600 43.2880
L99.3600 57.2880
" />
<path d="M99.3600 57.2880
L85.3600 57.2880
" />
<path d="M85.3600 57.2880
L85.3600 43.2880
" />
<path d="M81.3600 11.7380
L95.3600 11.7380
" />
<path d="M95.3600 11.7380
L95.3600 25.7380
" />
<path d="M95.3600 25.7380
L81.3600 25.7380
" />
<path d="M81.3600 25.7380
L81.3600 11.7380
" />
</g>
<g style="fill:#000000; fill-opacity:0.0; 
stroke:#000000; stroke-width:0.1000; stroke-opacity:1; 
stroke-linecap:round; stroke-linejoin:round;">
<circle cx="159.0200" cy="111.9630" r="1.1000" /> 
</g>
<g style="fill:#000000; fill-opacity:0.0; 
stroke:#000000; stroke-width:0.0500; stroke-opacity:1; 
stroke-linecap:round; stroke-linejoin:round;">
<path d="M45.9975 107.4380
L45.9975 120.4380
" />
<path d="M46.4975 106.9380
L52.4975 106.9380
" />
<path d="M46.4975 120.9380
L52.4975 120.9380
" />
<path d="M52.9975 107.4380
L52.9975 120.4380
" />
<path d="M69.8100 107.4380
L69.8100 120.4380
" />
<path d="M70.3100 106.9380
L76.3088 106.9380
" />
<path d="M70.3100 120.9380
L76.3100 120.9380
" />
<path d="M76.8088 107.4380
L76.8100 120.4380
" />
<path d="M45.9975 106.9380
L52.9975 106.9380
" />
<path d="M52.9975 106.9380
L52.9975 120.9380
" />
<path d="M52.9975 120.9380
L45.9975 120.9380
" />
<path d="M45.9975 120.9380
L45.9975 106.9380
" />
<path d="M69.8100 106.9380
L76.8100 106.9380
" />
<path d="M76.8100 106.9380
L76.8100 120.9380
" />
<path d="M76.8100 120.9380
L69.8100 120.9380
" />
<path d="M69.8100 120.9380
L69.8100 106.9380
" />
<path d="M46.4975 106.9380 A0.5000 0.5000 0.0 0 0 45.9975 107.4380" />
<path d="M45.9975 120.4380 A0.5000 0.5000 0.0 0 0 46.4975 120.9380" />
<path d="M52.9975 107.4380 A0.5000 0.5000 0.0 0 0 52.4975 106.9380" />
<path d="M52.4975 120.9380 A0.5000 0.5000 0.0 0 0 52.9975 120.4380" />
<path d="M70.3100 106.9380 A0.5000 0.5000 0.0 0 0 69.8100 107.4380" />
<path d="M69.8100 120.4380 A0.5000 0.5000 0.0 0 0 70.3100 120.9380" />
<path d="M76.8087 107.4380 A0.5000 0.5000 0.0 0 0 76.3088 106.9380" />
<path d="M76.3100 120.9380 A0.5000 0.5000 0.0 0 0 76.8100 120.4380" />
</g>
<g style="fill:#000000; fill-opacity:0.0; 
stroke:#000000; stroke-width:0.1200; stroke-opacity:1; 
stroke-linecap:round; stroke-linejoin:round;">
<path d="M123.4600 33.7880
L137.4600 33.7880
" />
<path d="M137.4600 33.7880
L137.4600 47.7880
" />
<path d="M137.4600 47.7880
L123.4600 47.7880
" />
<path d="M123.4600 47.7880
L123.4600 33.7880
" />
<path d="M142.5100 95.9380
L156.5100 95.9380
" />
<path d="M156.5100 95.9380
L156.5100 109.9380
" />
<path d="M156.5100 109.9380
L142.5100 109.9380
" />
<path d="M142.5100 109.9380
L142.5100 95.9380
" />
</g>
<g style="fill:#000000; fill-opacity:0.0; 
stroke:#000000; stroke-width:0.1000; stroke-opacity:1; 
stroke-linecap:round; stroke-linejoin:round;">
<circle cx="79.4900" cy="37.2627" r="1.1000" /> 
</g>
<g style="fill:#000000; fill-opacity:0.0; 
stroke:#000000; stroke-width:0.1200; stroke-opacity:1; 
stroke-linecap:round; stroke-linejoin:round;">
<path d="M197.1669 142.1872
L211.0307 144.1356
" />
<path d="M211.0307 144.1356
L209.0822 157.9994
" />
<path d="M209.0822 157.9994
L195.2185 156.0510
" />
<path d="M195.2185 156.0510
L197.1669 142.1872
" />
<path d="M161.5600 60.3380
L175.5600 60.3380
" />
<path d="M175.5600 60.3380
L175.5600 74.3380
" />
<path d="M175.5600 74.3380
L161.5600 74.3380
" />
<path d="M161.5600 74.3380
L161.5600 60.3380
" />
<path d="M119.4600 11.7380
L133.4600 11.7380
" />
<path d="M133.4600 11.7380
L133.4600 25.7380
" />
<path d="M133.4600 25.7380
L119.4600 25.7380
" />
<path d="M119.4600 25.7380
L119.4600 11.7380
" />
<path d="M58.3100 11.7380
L72.3100 11.7380
" />
<path d="M72.3100 11.7380
L72.3100 25.7380
" />
<path d="M72.3100 25.7380
L58.3100 25.7380
" />
<path d="M58.3100 25.7380
L58.3100 11.7380
" />
<path d="M160.8257 127.3988
L174.6895 129.3472
" />
<path d="M174.6895 129.3472
L172.7411 143.2110
" />
<path d="M172.7411 143.2110
L158.8773 141.2625
" />
<path d="M158.8773 141.2625
L160.8257 127.3988
" />
<path d="M123.4600 90.9380
L137.4600 90.9380
" />
<path d="M137.4600 90.9380
L137.4600 104.9380
" />
<path d="M137.4600 104.9380
L123.4600 104.9380
" />
<path d="M123.4600 104.9380
L123.4600 90.9380
" />
<path d="M85.3600 62.3380
L99.3600 62.3380
" />
<path d="M99.3600 62.3380
L99.3600 76.3380
" />
<path d="M99.3600 76.3380
L85.3600 76.3380
" />
<path d="M85.3600 76.3380
L85.3600 62.3380
" />
</g>
<g style="fill:#000000; fill-opacity:0.0; 
stroke:#000000; stroke-width:0.1000; stroke-opacity:1; 
stroke-linecap:round; stroke-linejoin:round;">
<circle cx="23.8500" cy="95.7700" r="1.1000" /> 
</g>
<g style="fill:#000000; fill-opacity:0.0; 
stroke:#000000; stroke-width:0.1200; stroke-opacity:1; 
stroke-linecap:round; stroke-linejoin:round;">
<path d="M85.3600 119.4880
L99.3600 119.4880
" />
<path d="M99.3600 119.4880
L99.3600 133.4880
" />
<path d="M99.3600 133.4880
L85.3600 133.4880
" />
<path d="M85.3600 133.4880
L85.3600 119.4880
" />
<path d="M35.2800 6.6380
L54.2800 6.6380
" />
<path d="M54.2800 6.6380
L54.2800 31.1380
" />
<path d="M54.2800 31.1380
L35.2800 31.1380
" />
<path d="M35.2800 31.1380
L35.2800 6.6380
" />
<path d="M85.3600 100.4380
L99.3600 100.4380
" />
<path d="M99.3600 100.4380
L99.3600 114.4380
" />
<path d="M99.3600 114.4380
L85.3600 114.4380
" />
<path d="M85.3600 114.4380
L85.3600 100.4380
" />
<path d="M75.5475 81.8380
L61.5475 81.8380
" />
<path d="M61.5475 81.8380
L61.5475 67.8380
" />
<path d="M61.5475 67.8380
L75.5475 67.8380
" />
<path d="M75.5475 67.8380
L75.5475 81.8380
" />
<path d="M80.3100 81.8380
L66.3100 81.8380
" />
<path d="M66.3100 81.8380
L66.3100 67.8380
" />
<path d="M66.3100 67.8380
L80.3100 67.8380
" />
<path d="M80.3100 67.8380
L80.3100 81.8380
" />
<path d="M100.4100 11.7380
L114.4100 11.7380
" />
<path d="M114.4100 11.7380
L114.4100 25.7380
" />
<path d="M114.4100 25.7380
L100.4100 25.7380
" />
<path d="M100.4100 25.7380
L100.4100 11.7380
" />
</g>
<g style="fill:#000000; fill-opacity:0.0; 
stroke:#000000; stroke-width:0.1000; stroke-opacity:1; 
stroke-linecap:round; stroke-linejoin:round;">
<circle cx="216.6850" cy="101.3950" r="1.1000" /> 
</g>
<g style="fill:#000000; fill-opacity:0.0; 
stroke:#000000; stroke-width:0.1200; stroke-opacity:1; 
stroke-linecap:round; stroke-linejoin:round;">
<path d="M32.6850 62.7880
L18.6850 62.7880
" />
<path d="M18.6850 62.7880
L18.6850 48.7880
" />
<path d="M18.6850 48.7880
L32.6850 48.7880
" />
<path d="M32.6850 48.7880
L32.6850 62.7880
" />
<path d="M202.6600 63.3380
L216.6600 63.3380
" />
<path d="M216.6600 63.3380
L216.6600 77.3380
" />
<path d="M216.6600 77.3380
L202.6600 77.3380
" />
<path d="M202.6600 77.3380
L202.6600 63.3380
" />
<path d="M104.4100 75.8880
L118.4100 75.8880
" />
<path d="M118.4100 75.8880
L118.4100 89.8880
" />
<path d="M118.4100 89.8880
L104.4100 89.8880
" />
<path d="M104.4100 89.8880
L104.4100 75.8880
" />
<path d="M37.4475 81.8380
L23.4475 81.8380
" />
<path d="M23.4475 81.8380
L23.4475 67.8380
" />
<path d="M23.4475 67.8380
L37.4475 67.8380
" />
<path d="M37.4475 67.8380
L37.4475 81.8380
" />
<path d="M37.4475 81.8380
L23.4475 81.8380
" />
<path d="M23.4475 81.8380
L23.4475 67.8380
" />
<path d="M23.4475 67.8380
L37.4475 67.8380
" />
<path d="M37.4475 67.8380
L37.4475 81.8380
" />
<path d="M104.4100 37.7880
L118.4100 37.7880
" />
<path d="M118.4100 37.7880
L118.4100 51.7880
" />
<path d="M118.4100 51.7880
L104.4100 51.7880
" />
<path d="M104.4100 51.7880
L104.4100 37.7880
" />
<path d="M180.6100 60.3380
L194.6100 60.3380
" />
<path d="M194.6100 60.3380
L194.6100 74.3380
" />
<path d="M194.6100 74.3380
L180.6100 74.3380
" />
<path d="M180.6100 74.3380
L180.6100 60.3380
" />
</g>
<g style="fill:#000000; fill-opacity:0.0; 
stroke:#000000; stroke-width:0.1000; stroke-opacity:1; 
stroke-linecap:round; stroke-linejoin:round;">
<circle cx="79.4900" cy="111.9630" r="1.1000" /> 
</g>
<g style="fill:#000000; fill-opacity:0.0; 
stroke:#000000; stroke-width:0.1200; stroke-opacity:1; 
stroke-linecap:round; stroke-linejoin:round;">
<path d="M207.7506 20.4824
L212.6563 27.7279
" />
<path d="M212.6563 27.7279
L201.8917 35.0163
" />
<path d="M201.8917 35.0163
L196.9859 27.7709
" />
<path d="M196.9859 27.7709
L207.7506 20.4824
" />
<path d="M66.3100 48.7880
L80.3100 48.7880
" />
<path d="M80.3100 48.7880
L80.3100 62.7880
" />
<path d="M80.3100 62.7880
L66.3100 62.7880
" />
<path d="M66.3100 62.7880
L66.3100 48.7880
" />
</g>
<g style="fill:#000000; fill-opacity:0.0; 
stroke:#000000; stroke-width:0.1000; stroke-opacity:1; 
stroke-linecap:round; stroke-linejoin:round;">
<circle cx="209.6600" cy="36.6950" r="1.1000" /> 
<circle cx="8.6360" cy="55.7860" r="1.1000" /> 
</g>
<g style="fill:#000000; fill-opacity:0.0; 
stroke:#000000; stroke-width:0.1200; stroke-opacity:1; 
stroke-linecap:round; stroke-linejoin:round;">
<path d="M202.4694 104.4580
L216.3332 106.4064
" />
<path d="M216.3332 106.4064
L214.3847 120.2702
" />
<path d="M214.3847 120.2702
L200.5210 118.3217
" />
<path d="M200.5210 118.3217
L202.4694 104.4580
" />
<path d="M63.9287 124.9880
L77.9287 124.9880
" />
<path d="M77.9287 124.9880
L77.9287 138.9880
" />
<path d="M77.9287 138.9880
L63.9287 138.9880
" />
<path d="M63.9287 138.9880
L63.9287 124.9880
" />
</g>
<g style="fill:#000000; fill-opacity:0.0; 
stroke:#000000; stroke-width:0.1000; stroke-opacity:1; 
stroke-linecap:round; stroke-linejoin:round;">
<circle cx="159.0200" cy="37.2627" r="1.1000" /> 
</g>
<g style="fill:#000000; fill-opacity:0.0; 
stroke:#000000; stroke-width:0.1200; stroke-opacity:1; 
stroke-linecap:round; stroke-linejoin:round;">
<path d="M73.1662 100.8730
L59.1662 100.8730
" />
<path d="M59.1662 100.8730
L59.1662 86.8730
" />
<path d="M59.1662 86.8730
L73.1662 86.8730
" />
<path d="M73.1662 86.8730
L73.1662 100.8730
" />
<path d="M80.3100 100.8730
L66.3100 100.8730
" />
<path d="M66.3100 100.8730
L66.3100 86.8730
" />
<path d="M66.3100 86.8730
L80.3100 86.8730
" />
<path d="M80.3100 86.8730
L80.3100 100.8730
" />
<path d="M123.4600 52.8380
L137.4600 52.8380
" />
<path d="M137.4600 52.8380
L137.4600 66.8380
" />
<path d="M137.4600 66.8380
L123.4600 66.8380
" />
<path d="M123.4600 66.8380
L123.4600 52.8380
" />
<path d="M180.6100 11.7380
L194.6100 11.7380
" />
<path d="M194.6100 11.7380
L194.6100 25.7380
" />
<path d="M194.6100 25.7380
L180.6100 25.7380
" />
<path d="M180.6100 25.7380
L180.6100 11.7380
" />
<path d="M161.5600 11.7380
L175.5600 11.7380
" />
<path d="M175.5600 11.7380
L175.5600 25.7380
" />
<path d="M175.5600 25.7380
L161.5600 25.7380
" />
<path d="M161.5600 25.7380
L161.5600 11.7380
" />
</g>
<g style="fill:#000000; fill-opacity:0.0; 
stroke:#000000; stroke-width:0.0500; stroke-opacity:1; 
stroke-linecap:round; stroke-linejoin:round;">
<path d="M174.2972 120.8536
L161.4238 119.0443
" />
<path d="M174.7228 121.4183
L173.8878 127.3599
" />
<path d="M160.8590 119.4699
L160.0240 125.4115
" />
<path d="M173.3230 127.7854
L160.4496 125.9762
" />
<path d="M170.9832 144.4343
L158.1097 142.6251
" />
<path d="M171.4087 144.9990
L170.5739 150.9395
" />
<path d="M157.5450 143.0506
L156.7099 148.9922
" />
<path d="M170.0091 151.3650
L157.1355 149.5570
" />
<path d="M174.7924 120.9232
L173.8182 127.8550
" />
<path d="M173.8182 127.8550
L159.9544 125.9066
" />
<path d="M159.9544 125.9066
L160.9286 118.9747
" />
<path d="M160.9286 118.9747
L174.7924 120.9232
" />
<path d="M171.4783 144.5039
L170.5041 151.4358
" />
<path d="M170.5041 151.4358
L156.6404 149.4874
" />
<path d="M156.6404 149.4874
L157.6146 142.5555
" />
<path d="M157.6146 142.5555
L171.4783 144.5039
" />
<path d="M174.7228 121.4183 A0.5000 0.5000 0.0 0 0 174.2972 120.8536" />
<path d="M161.4238 119.0443 A0.5000 0.5000 0.0 0 0 160.8590 119.4699" />
<path d="M173.3230 127.7854 A0.5000 0.5000 0.0 0 0 173.8878 127.3599" />
<path d="M160.0240 125.4115 A0.5000 0.5000 0.0 0 0 160.4496 125.9762" />
<path d="M171.4087 144.9990 A0.5000 0.5000 0.0 0 0 170.9832 144.4343" />
<path d="M158.1097 142.6251 A0.5000 0.5000 0.0 0 0 157.5450 143.0506" />
<path d="M170.0092 151.3650 A0.5000 0.5000 0.0 0 0 170.5739 150.9395" />
<path d="M156.7099 148.9922 A0.5000 0.5000 0.0 0 0 157.1355 149.5570" />
</g>
<g style="fill:#000000; fill-opacity:0.0; 
stroke:#000000; stroke-width:0.1200; stroke-opacity:1; 
stroke-linecap:round; stroke-linejoin:round;">
<path d="M202.6600 82.3880
L216.6600 82.3880
" />
<path d="M216.6600 82.3880
L216.6600 96.3880
" />
<path d="M216.6600 96.3880
L202.6600 96.3880
" />
<path d="M202.6600 96.3880
L202.6600 82.3880
" />
<path d="M161.5600 98.4380
L175.5600 98.4380
" />
<path d="M175.5600 98.4380
L175.5600 112.4380
" />
<path d="M175.5600 112.4380
L161.5600 112.4380
" />
<path d="M161.5600 112.4380
L161.5600 98.4380
" />
</g>
<g style="fill:#000000; fill-opacity:0.0; 
stroke:#000000; stroke-width:0.1000; stroke-opacity:1; 
stroke-linecap:round; stroke-linejoin:round;">
<circle cx="28.3900" cy="20.0300" r="1.1000" /> 
</g>
<g style="fill:#000000; fill-opacity:0.0; 
stroke:#000000; stroke-width:0.1200; stroke-opacity:1; 
stroke-linecap:round; stroke-linejoin:round;">
<path d="M123.4600 71.8880
L137.4600 71.8880
" />
<path d="M137.4600 71.8880
L137.4600 85.8880
" />
<path d="M137.4600 85.8880
L123.4600 85.8880
" />
<path d="M123.4600 85.8880
L123.4600 71.8880
" />
<path d="M202.6600 44.2880
L216.6600 44.2880
" />
<path d="M216.6600 44.2880
L216.6600 58.2880
" />
<path d="M216.6600 58.2880
L202.6600 58.2880
" />
<path d="M202.6600 58.2880
L202.6600 44.2880
" />
<path d="M40.1163 124.9880
L54.1163 124.9880
" />
<path d="M54.1163 124.9880
L54.1163 138.9880
" />
<path d="M54.1163 138.9880
L40.1163 138.9880
" />
<path d="M40.1163 138.9880
L40.1163 124.9880
" />
<path d="M138.5100 11.7380
L152.5100 11.7380
" />
<path d="M152.5100 11.7380
L152.5100 25.7380
" />
<path d="M152.5100 25.7380
L138.5100 25.7380
" />
<path d="M138.5100 25.7380
L138.5100 11.7380
" />
<path d="M47.2600 48.7880
L61.2600 48.7880
" />
<path d="M61.2600 48.7880
L61.2600 62.7880
" />
<path d="M61.2600 62.7880
L47.2600 62.7880
" />
<path d="M47.2600 62.7880
L47.2600 48.7880
" />
<path d="M85.3600 81.3880
L99.3600 81.3880
" />
<path d="M99.3600 81.3880
L99.3600 95.3880
" />
<path d="M99.3600 95.3880
L85.3600 95.3880
" />
<path d="M85.3600 95.3880
L85.3600 81.3880
" />
<path d="M199.8182 123.3226
L213.6819 125.2710
" />
<path d="M213.6819 125.2710
L211.7335 139.1348
" />
<path d="M211.7335 139.1348
L197.8697 137.1863
" />
<path d="M197.8697 137.1863
L199.8182 123.3226
" />
<path d="M104.4100 56.8380
L118.4100 56.8380
" />
<path d="M118.4100 56.8380
L118.4100 70.8380
" />
<path d="M118.4100 70.8380
L104.4100 70.8380
" />
<path d="M104.4100 70.8380
L104.4100 56.8380
" />
<path d="M161.5600 79.3880
L175.5600 79.3880
" />
<path d="M175.5600 79.3880
L175.5600 93.3880
" />
<path d="M175.5600 93.3880
L161.5600 93.3880
" />
<path d="M161.5600 93.3880
L161.5600 79.3880
" />
<path d="M49.3537 100.8880
L35.3537 100.8880
" />
<path d="M35.3537 100.8880
L35.3537 86.8880
" />
<path d="M35.3537 86.8880
L49.3537 86.8880
" />
<path d="M49.3537 86.8880
L49.3537 100.8880
" />
<path d="M88.8429 142.6053
L89.2604 145.5761
" />
<path d="M89.2604 145.5761
L100.4752 143.9999
" />
<path d="M99.7828 139.0734
L100.0577 141.0291
" />
<path d="M100.0577 141.0291
L88.8429 142.6053
" />
<path d="M100.4752 143.9999
L100.7570 146.0052
" />
<path d="M100.7570 146.0052
L109.6694 144.7527
" />
<path d="M108.4169 135.8403
L128.2222 133.0568
" />
<path d="M108.6952 137.8208
L99.7828 139.0734
" />
<path d="M108.6952 137.8208
L108.4169 135.8403
" />
<path d="M109.9478 146.7332
L109.6694 144.7527
" />
<path d="M128.2222 133.0568
L128.7789 137.0179
" />
<path d="M128.7789 137.0179
L134.2254 136.2524
" />
<path d="M129.1964 139.9887
L129.7531 143.9497
" />
<path d="M129.1964 139.9887
L134.6429 139.2232
" />
<path d="M129.7531 143.9497
L109.9478 146.7332
" />
<path d="M134.2254 136.2524
L134.6429 139.2232
" />
<path d="M180.6100 41.2880
L194.6100 41.2880
" />
<path d="M194.6100 41.2880
L194.6100 55.2880
" />
<path d="M194.6100 55.2880
L180.6100 55.2880
" />
<path d="M180.6100 55.2880
L180.6100 41.2880
" />
<path d="M123.4600 109.9880
L137.4600 109.9880
" />
<path d="M137.4600 109.9880
L137.4600 123.9880
" />
<path d="M137.4600 123.9880
L123.4600 123.9880
" />
<path d="M123.4600 123.9880
L123.4600 109.9880
" />
</g>
<g style="fill:#000000; fill-opacity:0.0; 
stroke:#000000; stroke-width:0.1000; stroke-opacity:1; 
stroke-linecap:round; stroke-linejoin:round;">
<circle cx="133.7600" cy="131.1700" r="1.1000" /> 
</g>
<g style="fill:#000000; fill-opacity:0.0; 
stroke:#000000; stroke-width:0.1200; stroke-opacity:1; 
stroke-linecap:round; stroke-linejoin:round;">
<path d="M140.9045 131.8754
L154.7683 133.8238
" />
<path d="M154.7683 133.8238
L152.8198 147.6876
" />
<path d="M152.8198 147.6876
L138.9561 145.7391
" />
<path d="M138.9561 145.7391
L140.9045 131.8754
" />
</g>
<g style="fill:#000000; fill-opacity:0.0; 
stroke:#000000; stroke-width:0.0500; stroke-opacity:1; 
stroke-linecap:round; stroke-linejoin:round;">
<path d="M177.9800 152.4856
L190.8535 154.2949
" />
<path d="M177.5544 151.9209
L178.3895 145.9793
" />
<path d="M191.4182 153.8693
L192.2532 147.9277
" />
<path d="M178.9542 145.5537
L191.8277 147.3630
" />
<path d="M181.2940 128.9048
L194.1675 130.7141
" />
<path d="M180.8685 128.3401
L181.7034 122.3997
" />
<path d="M194.7323 130.2885
L195.5673 124.3469
" />
<path d="M182.2681 121.9742
L195.1417 123.7822
" />
<path d="M177.4849 152.4160
L178.4591 145.4841
" />
<path d="M178.4591 145.4841
L192.3228 147.4326
" />
<path d="M192.3228 147.4326
L191.3486 154.3644
" />
<path d="M191.3486 154.3644
L177.4849 152.4160
" />
<path d="M180.7989 128.8353
L181.7731 121.9034
" />
<path d="M181.7731 121.9034
L195.6369 123.8518
" />
<path d="M195.6369 123.8518
L194.6627 130.7837
" />
<path d="M194.6627 130.7837
L180.7989 128.8353
" />
<path d="M177.5544 151.9209 A0.5000 0.5000 0.0 0 0 177.9800 152.4856" />
<path d="M190.8535 154.2949 A0.5000 0.5000 0.0 0 0 191.4182 153.8693" />
<path d="M178.9542 145.5537 A0.5000 0.5000 0.0 0 0 178.3895 145.9793" />
<path d="M192.2532 147.9277 A0.5000 0.5000 0.0 0 0 191.8277 147.3630" />
<path d="M180.8685 128.3401 A0.5000 0.5000 0.0 0 0 181.2940 128.9048" />
<path d="M194.1675 130.7140 A0.5000 0.5000 0.0 0 0 194.7323 130.2885" />
<path d="M182.2681 121.9742 A0.5000 0.5000 0.0 0 0 181.7034 122.3997" />
<path d="M195.5673 124.3469 A0.5000 0.5000 0.0 0 0 195.1417 123.7822" />
</g>
<g style="fill:#000000; fill-opacity:0.0; 
stroke:#000000; stroke-width:0.1200; stroke-opacity:1; 
stroke-linecap:round; stroke-linejoin:round;">
<path d="M47.2600 67.8380
L61.2600 67.8380
" />
<path d="M61.2600 67.8380
L61.2600 81.8380
" />
<path d="M61.2600 81.8380
L47.2600 81.8380
" />
<path d="M47.2600 81.8380
L47.2600 67.8380
" />
</g>
<g style="fill:#000000; fill-opacity:0.0; 
stroke:#000000; stroke-width:0.1000; stroke-opacity:1; 
stroke-linecap:round; stroke-linejoin:round;">
<circle cx="59.0225" cy="139.4130" r="1.1000" /> 
</g>
<g style="fill:#000000; fill-opacity:0.0; 
stroke:#000000; stroke-width:0.1200; stroke-opacity:1; 
stroke-linecap:round; stroke-linejoin:round;">
<path d="M104.4100 94.9380
L118.4100 94.9380
" />
<path d="M118.4100 94.9380
L118.4100 108.9380
" />
<path d="M118.4100 108.9380
L104.4100 108.9380
" />
<path d="M104.4100 108.9380
L104.4100 94.9380
" />
<path d="M179.6031 130.1491
L193.4669 132.0975
" />
<path d="M193.4669 132.0975
L191.5184 145.9612
" />
<path d="M191.5184 145.9612
L177.6547 144.0128
" />
<path d="M177.6547 144.0128
L179.6031 130.1491
" />
<path d="M142.5100 57.8380
L156.5100 57.8380
" />
<path d="M156.5100 57.8380
L156.5100 71.8380
" />
<path d="M156.5100 71.8380
L142.5100 71.8380
" />
<path d="M142.5100 71.8380
L142.5100 57.8380
" />
<path d="M142.5100 38.7880
L156.5100 38.7880
" />
<path d="M156.5100 38.7880
L156.5100 52.7880
" />
<path d="M156.5100 52.7880
L142.5100 52.7880
" />
<path d="M142.5100 52.7880
L142.5100 38.7880
" />
<path d="M142.5100 76.8880
L156.5100 76.8880
" />
<path d="M156.5100 76.8880
L156.5100 90.8880
" />
<path d="M156.5100 90.8880
L142.5100 90.8880
" />
<path d="M142.5100 90.8880
L142.5100 76.8880
" />
<path d="M161.5600 41.2880
L175.5600 41.2880
" />
<path d="M175.5600 41.2880
L175.5600 55.2880
" />
<path d="M175.5600 55.2880
L161.5600 55.2880
" />
<path d="M161.5600 55.2880
L161.5600 41.2880
" />
<path d="M63.6412 119.9380
L49.6412 119.9380
" />
<path d="M49.6412 119.9380
L49.6412 105.9380
" />
<path d="M49.6412 105.9380
L63.6412 105.9380
" />
<path d="M63.6412 105.9380
L63.6412 119.9380
" />
<path d="M68.4038 119.9380
L54.4037 119.9380
" />
<path d="M54.4037 119.9380
L54.4037 105.9380
" />
<path d="M54.4037 105.9380
L68.4038 105.9380
" />
<path d="M68.4038 105.9380
L68.4038 119.9380
" />
</g>
<g style="fill:#000000; fill-opacity:0.0; 
stroke:#000000; stroke-width:0.0500; stroke-opacity:1; 
stroke-linecap:round; stroke-linejoin:round;">
<path d="M72.0475 107.4380
L72.0475 120.4380
" />
<path d="M71.5475 120.9380
L65.5475 120.9380
" />
<path d="M71.5475 106.9380
L65.5475 106.9380
" />
<path d="M65.0475 107.4380
L65.0475 120.4380
" />
<path d="M48.2350 107.4380
L48.2350 120.4380
" />
<path d="M47.7350 120.9380
L41.7350 120.9380
" />
<path d="M47.7350 106.9380
L41.7362 106.9380
" />
<path d="M41.2362 107.4380
L41.2350 120.4380
" />
<path d="M72.0475 106.9380
L65.0475 106.9380
" />
<path d="M65.0475 106.9380
L65.0475 120.9380
" />
<path d="M65.0475 120.9380
L72.0475 120.9380
" />
<path d="M72.0475 120.9380
L72.0475 106.9380
" />
<path d="M48.2350 106.9380
L41.2350 106.9380
" />
<path d="M41.2350 106.9380
L41.2350 120.9380
" />
<path d="M41.2350 120.9380
L48.2350 120.9380
" />
<path d="M48.2350 120.9380
L48.2350 106.9380
" />
<path d="M71.5475 120.9380 A0.5000 0.5000 0.0 0 0 72.0475 120.4380" />
<path d="M72.0475 107.4380 A0.5000 0.5000 0.0 0 0 71.5475 106.9380" />
<path d="M65.0475 120.4380 A0.5000 0.5000 0.0 0 0 65.5475 120.9380" />
<path d="M65.5475 106.9380 A0.5000 0.5000 0.0 0 0 65.0475 107.4380" />
<path d="M47.7350 120.9380 A0.5001 0.5001 0.0 0 0 48.2350 120.4380" />
<path d="M48.2350 107.4380 A0.5000 0.5000 0.0 0 0 47.7350 106.9380" />
<path d="M41.2350 120.4380 A0.4999 0.4999 0.0 0 0 41.7350 120.9380" />
<path d="M41.7362 106.9380 A0.5001 0.5001 0.0 0 0 41.2362 107.4380" />
</g>
<g style="fill:#000000; fill-opacity:0.0; 
stroke:#000000; stroke-width:0.1200; stroke-opacity:1; 
stroke-linecap:round; stroke-linejoin:round;">
<path d="M181.1100 97.4380
L194.1100 97.4380
" />
<path d="M194.1100 97.4380
L194.1100 113.0380
" />
<path d="M194.1100 113.0380
L181.1100 113.0380
" />
<path d="M181.1100 113.0380
L181.1100 97.4380
" />
</g>
<g style="fill:#000000; fill-opacity:0.0; 
stroke:#000000; stroke-width:0.0500; stroke-opacity:1; 
stroke-linecap:round; stroke-linejoin:round;">
<path d="M41.0912 50.2880
L41.0912 63.2880
" />
<path d="M40.5912 63.7880
L34.5912 63.7880
" />
<path d="M40.5912 49.7880
L34.5912 49.7880
" />
<path d="M34.0912 50.2880
L34.0912 63.2880
" />
<path d="M17.2787 50.2880
L17.2787 63.2880
" />
<path d="M16.7787 63.7880
L10.7787 63.7880
" />
<path d="M16.7787 49.7880
L10.7800 49.7880
" />
<path d="M10.2800 50.2880
L10.2787 63.2880
" />
<path d="M41.0912 49.7880
L34.0912 49.7880
" />
<path d="M34.0912 49.7880
L34.0912 63.7880
" />
<path d="M34.0912 63.7880
L41.0912 63.7880
" />
<path d="M41.0912 63.7880
L41.0912 49.7880
" />
<path d="M17.2787 49.7880
L10.2787 49.7880
" />
<path d="M10.2787 49.7880
L10.2787 63.7880
" />
<path d="M10.2787 63.7880
L17.2787 63.7880
" />
<path d="M17.2787 63.7880
L17.2787 49.7880
" />
<path d="M40.5912 63.7880 A0.5000 0.5000 0.0 0 0 41.0912 63.2880" />
<path d="M41.0912 50.2880 A0.5000 0.5000 0.0 0 0 40.5912 49.7880" />
<path d="M34.0913 63.2880 A0.5000 0.5000 0.0 0 0 34.5913 63.7880" />
<path d="M34.5913 49.7880 A0.5000 0.5000 0.0 0 0 34.0913 50.2880" />
<path d="M16.7787 63.7880 A0.5001 0.5001 0.0 0 0 17.2787 63.2880" />
<path d="M17.2788 50.2880 A0.5000 0.5000 0.0 0 0 16.7788 49.7880" />
<path d="M10.2788 63.2880 A0.4999 0.4999 0.0 0 0 10.7787 63.7880" />
<path d="M10.7800 49.7880 A0.5001 0.5001 0.0 0 0 10.2800 50.2880" />
<path d="M57.7600 88.3880
L57.7600 101.3880
" />
<path d="M57.2600 101.8880
L51.2600 101.8880
" />
<path d="M57.2600 87.8880
L51.2600 87.8880
" />
<path d="M50.7600 88.3880
L50.7600 101.3880
" />
<path d="M33.9475 88.3880
L33.9475 101.3880
" />
<path d="M33.4475 101.8880
L27.4475 101.8880
" />
<path d="M33.4475 87.8880
L27.4487 87.8880
" />
<path d="M26.9487 88.3880
L26.9475 101.3880
" />
<path d="M57.7600 87.8880
L50.7600 87.8880
" />
<path d="M50.7600 87.8880
L50.7600 101.8880
" />
<path d="M50.7600 101.8880
L57.7600 101.8880
" />
<path d="M57.7600 101.8880
L57.7600 87.8880
" />
<path d="M33.9475 87.8880
L26.9475 87.8880
" />
<path d="M26.9475 87.8880
L26.9475 101.8880
" />
<path d="M26.9475 101.8880
L33.9475 101.8880
" />
<path d="M33.9475 101.8880
L33.9475 87.8880
" />
<path d="M57.2600 101.8880 A0.5000 0.5000 0.0 0 0 57.7600 101.3880" />
<path d="M57.7600 88.3880 A0.5000 0.5000 0.0 0 0 57.2600 87.8880" />
<path d="M50.7600 101.3880 A0.5000 0.5000 0.0 0 0 51.2600 101.8880" />
<path d="M51.2600 87.8880 A0.5000 0.5000 0.0 0 0 50.7600 88.3880" />
<path d="M33.4475 101.8880 A0.5001 0.5001 0.0 0 0 33.9475 101.3880" />
<path d="M33.9475 88.3880 A0.5000 0.5000 0.0 0 0 33.4475 87.8880" />
<path d="M26.9475 101.3880 A0.4999 0.4999 0.0 0 0 27.4475 101.8880" />
<path d="M27.4487 87.8880 A0.5001 0.5001 0.0 0 0 26.9487 88.3880" />
<g >
</g>
<g >
</g>
<g >
</g>
<g >
</g>
<g >
</g>
<g >
</g>
<g >
</g>
<g >
</g>
<g >
</g>
<g >
</g>
<g >
</g>
<g >
</g>
<g >
</g>
<g >
</g>
<g >
</g>
<g >
</g>
<g >
</g>
<g >
</g>
<g >
</g>
<g >
</g>
<g >
</g>
<g >
</g>
<g >
</g>
<g >
</g>
<g >
</g>
<g >
</g>
<g >
</g>
<g >
</g>
<g >
</g>
<g >
</g>
<g >
</g>
<g >
</g>
<g >
</g>
<g >
</g>
<g >
</g>
<g >
</g>
<g >
</g>
<g >
</g>
<g >
</g>
<g >
</g>
<g >
</g>
<g >
</g>
<g >
</g>
<g >
</g>
<g >
</g>
<g >
</g>
<g >
</g>
<g >
</g>
<g >
</g>
<g >
</g>
<g >
</g>
<g >
</g>
<g >
</g>
<g >
</g>
<g >
</g>
<g >
</g>
<g >
</g>
<g >
</g>
<g >
</g>
<g >
</g>
<g >
</g>
<g >
</g>
<g >
</g>
<g >
</g>
<g >
</g>
<g >
</g>
<g >
</g>
<g >
</g>
<g >
</g>
<g >
</g>
<g >
</g>
<g >
</g>
<g >
</g>
<g >
</g>
<g >
</g>
<g >
</g>
<g >
</g>
<g >
</g>
<g >
</g>
<g >
</g>
<g >
</g>
<g >
</g>
<g >
</g>
<g >
</g>
<g >
</g>
<g >
</g>
<g >
</g>
<g >
</g>
<g >
</g>
<g >
</g>
<g >
</g>
<g >
</g>
<g >
</g>
<g >
</g>
<g >
</g>
<g >
</g>
<g >
</g>
<g >
</g>
<g >
</g>
<g >
</g>
<g >
</g>
<g >
</g>
<g >
</g>
<g >
</g>
<g >
</g>
<g >
</g>
<g >
</g>
<g >
</g>
<g >
</g>
<g >
</g>
<g >
</g>
<g >
</g>
<g >
</g>
<g >
</g>
<g >
</g>
<g >
</g>
<g >
</g>
<g >
</g>
<g >
</g>
<g >
</g>
<g >
</g>
<g >
</g>
<g >
</g>
<g >
</g>
<g >
</g>
<g >
</g>
<g >
</g>
<g >
</g>
<g >
</g>
<g >
</g>
<g >
</g>
<g >
</g>
<g >
</g>
<g >
</g>
<g >
</g>
<g >
</g>
<g >
</g>
<g >
</g>
<g >
</g>
<g >
</g>
<g >
</g>
<g >
</g>
<g >
</g>
<g >
</g>
<g >
</g>
<g >
</g>
<g >
</g>
<g >
</g>
<g >
</g>
<g >
</g>
<g >
</g>
<g >
</g>
<g >
</g>
<g >
</g>
<g >
</g>
<g >
</g>
<g >
</g>
<g >
</g>
<g >
</g>
<g >
</g>
<g >
</g>
<g >
</g>
<g >
</g>
<g >
</g>
</g> 
</svg>
