0
SECTION
2
HEADER
9
$INSUNITS
70
4
9
$ACADVER
1
AC1014
9
$HANDSEED
5
FFFF
0
ENDSEC
0
SECTION
2
TABLES
0
TABLE
2
VPORT
5
8
100
AcDbSymbolTable
0
ENDTAB
0
TABLE
2
LTYPE
5
5
100
AcDbSymbolTable
0
LTYPE
5
14
100
AcDbSymbolTableRecord
100
AcDbLinetypeTableRecord
2
BYBLOCK
70
0
0
LTYPE
5
15
100
AcDbSymbolTableRecord
100
AcDbLinetypeTableRecord
2
BYLAYER
70
0
0
ENDTAB
0
TABLE
2
LAYER
5
2
100
AcDbSymbolTable
70
2
0
LAYER
5
50
100
AcDbSymbolTableRecord
100
AcDbLayerTableRecord
2
0
70
0
6
CONTINUOUS
0
ENDTAB
0
TABLE
2
STYLE
5
3
100
AcDbSymbolTable
70
1
0
STYLE
5
11
100
AcDbSymbolTableRecord
100
AcDbTextStyleTableRecord
2
STANDARD
70
0
0
ENDTAB
0
TABLE
2
VIEW
5
6
100
AcDbSymbolTable
70
0
0
ENDTAB
0
TABLE
2
UCS
5
7
100
AcDbSymbolTable
70
0
0
ENDTAB
0
TABLE
2
APPID
5
9
100
AcDbSymbolTable
70
2
0
APPID
5
12
100
AcDbSymbolTableRecord
100
AcDbRegAppTableRecord
2
ACAD
70
0
0
ENDTAB
0
TABLE
2
DIMSTYLE
5
A
100
AcDbSymbolTable
70
1
0
ENDTAB
0
TABLE
2
BLOCK_RECORD
5
1
100
AcDbSymbolTable
70
1
0
BLOCK_RECORD
5
1F
100
AcDbSymbolTableRecord
100
AcDbBlockTableRecord
2
*MODEL_SPACE
0
BLOCK_RECORD
5
1B
100
AcDbSymbolTableRecord
100
AcDbBlockTableRecord
2
*PAPER_SPACE
0
ENDTAB
0
ENDSEC
0
SECTION
2
BLOCKS
0
BLOCK
5
20
100
AcDbEntity
100
AcDbBlockBegin
2
*MODEL_SPACE
0
ENDBLK
5
21
100
AcDbEntity
100
AcDbBlockEnd
0
BLOCK
5
1C
100
AcDbEntity
100
AcDbBlockBegin
2
*PAPER_SPACE
0
ENDBLK
5
1D
100
AcDbEntity
100
AcDbBlockEnd
0
ENDSEC
0
SECTION
2
ENTITIES
0
LWPOLYLINE
5
100
100
AcDbEntity
8
0
100
AcDbPolyline
90
4
70
1
43
0.0
10
-54.11590407752594
20
138.98699313758217
10
-40.116006160859271
20
138.98699313758217
10
-40.116006160859278
20
124.9870875915766
10
-54.115904077525947
20
124.9870875915766
0
LWPOLYLINE
5
101
100
AcDbEntity
8
0
100
AcDbPolyline
90
6
70
1
43
0.0
10
-33.947250787691281
20
87.887359638277701
10
-33.947250787691281
20
101.88725755494437
10
-27.447300090859144
20
101.88725755494437
42
-7.8880753487676418e-05
10
-27.447142362065776
20
101.8872575616119
10
-26.947303736692668
20
101.88725755494437
10
-26.947303736692668
20
87.887359638277701
0
LWPOLYLINE
5
102
100
AcDbEntity
8
0
100
AcDbPolyline
90
4
70
1
43
0.0
10
-152.50888245479271
20
25.737813196827961
10
-138.50898453812604
20
25.737813196827961
10
-138.50898453812601
20
11.737914326493932
10
-152.50888245479268
20
11.737914326493932
0
LWPOLYLINE
5
103
100
AcDbEntity
8
0
100
AcDbPolyline
90
4
70
1
43
0.0
10
-99.359276110347125
20
95.387304950777704
10
-85.359378193680456
20
95.387304950777704
10
-85.359378193680456
20
81.387407034111035
10
-99.359276110347125
20
81.387407034111035
0
LWPOLYLINE
5
104
100
AcDbEntity
8
0
100
AcDbPolyline
90
4
70
1
43
0.0
10
-61.259551634045451
20
62.787540370309365
10
-47.259653717378782
20
62.787540370309358
10
-47.259653717378782
20
48.787642453642697
10
-61.259551634045451
20
48.787642453642697
0
LWPOLYLINE
5
105
100
AcDbEntity
8
0
100
AcDbPolyline
90
4
70
1
43
0.0
10
-59.165767310269679
20
86.872367649666486
10
-80.309411964861553
20
86.872367649666486
10
-80.309411964861553
20
100.87226556633314
10
-59.165767310269679
20
100.87226556633314
0
CIRCLE
5
106
100
AcDbEntity
8
0
100
AcDbCircle
10
-159.0188404791667
20
37.262428292812508
30
0
40
1.0999919791666635
210
0
220
0
230
1
0
LWPOLYLINE
5
107
100
AcDbEntity
8
0
100
AcDbPolyline
90
4
70
1
43
0.0
10
-77.928135077977188
20
138.98699313758217
10
-63.928233346641072
20
138.98699313758217
10
-63.928233346641072
20
124.9870875915766
10
-77.928135077977188
20
124.9870875915766
0
LWPOLYLINE
5
108
100
AcDbEntity
8
0
100
AcDbPolyline
90
4
70
1
43
0.0
10
-214.3831413680395
20
120.26932566649121
10
-200.51953396148687
20
118.32083828740122
10
-202.46792978851005
20
104.45723851018748
10
-216.33162874712949
20
106.40562670787176
0
LWPOLYLINE
5
109
100
AcDbEntity
8
0
100
AcDbPolyline
90
4
70
1
43
0.0
10
-216.6584238495827
20
96.387297659111027
10
-202.65852593291606
20
96.387297659111027
10
-202.65852593291606
20
82.387399742444373
10
-216.6584238495827
20
82.387399742444373
0
LWPOLYLINE
5
110
100
AcDbEntity
8
0
100
AcDbPolyline
90
4
70
1
43
0.0
10
-175.5587174336116
20
112.43718367959659
10
-161.55881951694494
20
112.4371836795966
10
-161.55881951694488
20
98.437285762929918
10
-175.55871743361155
20
98.437285762929918
0
LWPOLYLINE
5
111
100
AcDbEntity
8
0
100
AcDbPolyline
90
4
70
1
43
0.0
10
-194.60858157909715
20
25.737813196827961
10
-180.60868366243051
20
25.737813196827961
10
-180.60868366243045
20
11.737914326493932
10
-194.60858157909712
20
11.737914326493932
0
LWPOLYLINE
5
112
100
AcDbEntity
8
0
100
AcDbPolyline
90
4
70
1
43
0.0
10
-137.45900440131828
20
85.887374221611026
10
-123.45909885531269
20
85.88737422161104
10
-123.45909885531269
20
71.887476304944357
10
-137.45900440131828
20
71.887476304944357
0
LWPOLYLINE
5
113
100
AcDbEntity
8
0
100
AcDbPolyline
90
4
70
1
43
0.0
10
-216.6584238495827
20
58.287573182809368
10
-202.65852593291606
20
58.287573182809368
10
-202.65852593291606
20
44.287675266142692
10
-216.6584238495827
20
44.287675266142692
0
LWPOLYLINE
5
114
100
AcDbEntity
8
0
100
AcDbPolyline
90
4
70
1
43
0.0
10
-175.5587174336116
20
25.737813196827961
10
-161.55881951694494
20
25.737813196827961
10
-161.55881951694488
20
11.737914326493932
10
-175.55871743361155
20
11.737914326493932
0
LWPOLYLINE
5
115
100
AcDbEntity
8
0
100
AcDbPolyline
90
17
70
1
43
0.0
10
-164.54524793521855
20
143.52865466205404
10
-170.9819533207417
20
144.43324248755775
42
-0.0026488631272873742
10
-170.98719536831811
20
144.43400801839655
10
-171.47705163933438
20
144.50285257568362
10
-171.17589618815259
20
146.64572372866232
10
-170.57265454742119
20
150.93839830085437
42
-0.0032596678481022555
10
-170.57170461567208
20
150.94484793996219
10
-170.50286135516166
20
151.43470205499335
10
-157.42856845110251
20
149.59723674105871
10
-157.13435226720176
20
149.55591631609602
42
-0.0027017164451127135
10
-157.1290055432292
20
149.55513607400223
10
-156.63925394860908
20
149.48630622797015
10
-156.70752183248251
20
149.00054620449581
42
-0.004755355530780804
10
-156.7087572259903
20
148.99111635731063
10
-157.5438494033337
20
143.04955506725315
42
-0.0018686144362821974
10
-157.54438378192887
20
143.04585628124718
10
-157.61344423278175
20
142.55445674866044
0
LWPOLYLINE
5
116
100
AcDbEntity
8
0
100
AcDbPolyline
90
10
70
1
43
0.0
10
-160.42222223511851
20
122.56864338052452
10
-160.85782060011229
20
119.46903090387188
42
-0.0020169642547138173
10
-160.85839756374796
20
119.46503849575718
10
-160.92743068823819
20
118.97383340387347
10
-174.7911296468576
20
120.92232078296345
10
-174.14712747479655
20
125.5046516895236
10
-173.88653419213296
20
127.35897276227477
42
-0.0018141096472038018
10
-173.88601595300915
20
127.36256374052533
10
-173.81693936268491
20
127.85407108086746
10
-159.95324040406547
20
125.90568288318318
0
LWPOLYLINE
5
117
100
AcDbEntity
8
0
100
AcDbPolyline
90
4
70
1
43
0.0
10
-137.45900440131828
20
66.837510076125469
10
-123.45909885531269
20
66.837510076125469
10
-123.45909885531269
20
52.837615974128255
10
-137.45900440131828
20
52.837615974128255
0
LWPOLYLINE
5
118
100
AcDbEntity
8
0
100
AcDbPolyline
90
4
70
1
43
0.0
10
-175.5587174336116
20
74.337455388625472
10
-161.55881951694494
20
74.337455388625472
10
-161.55881951694488
20
60.337561286628258
10
-175.55871743361155
20
60.337561286628258
0
LWPOLYLINE
5
119
100
AcDbEntity
8
0
100
AcDbPolyline
90
4
70
1
43
0.0
10
-118.40914025583268
20
89.887345054944362
10
-104.40924233916603
20
89.887345054944362
10
-104.40924233916603
20
75.887447138277707
10
-118.40914025583268
20
75.887447138277707
0
LWPOLYLINE
5
120
100
AcDbEntity
8
0
100
AcDbPolyline
90
4
70
1
43
0.0
10
-209.08067453897797
20
157.99825282823247
10
-195.21708239110313
20
156.04985700120929
10
-197.16546295944852
20
142.18615804258985
10
-211.02916191806796
20
144.13455386961303
0
CIRCLE
5
121
100
AcDbEntity
8
0
100
AcDbCircle
10
-79.489420385416679
20
37.262428292812508
30
0
40
1.0999919791666635
210
0
220
0
230
1
0
LWPOLYLINE
5
122
100
AcDbEntity
8
0
100
AcDbPolyline
90
4
70
1
43
0.0
10
-194.60858157909715
20
93.387319534111043
10
-180.60868366243051
20
93.387319534111043
10
-180.60868366243045
20
79.387421617444375
10
-194.60858157909712
20
79.387421617444375
0
LWPOLYLINE
5
123
100
AcDbEntity
8
0
100
AcDbPolyline
90
4
70
1
43
0.0
10
-118.40914025583268
20
127.98706571657659
10
-104.40924233916603
20
127.98706571657659
10
-104.40924233916603
20
113.98716779990993
10
-118.40914025583268
20
113.98716779990993
0
CIRCLE
5
124
100
AcDbEntity
8
0
100
AcDbCircle
10
-196.11856995833335
20
139.45698311875003
30
0
40
1.0999919791666812
210
0
220
0
230
1
0
CIRCLE
5
125
100
AcDbEntity
8
0
100
AcDbCircle
10
-23.849826093750007
20
95.769301677083348
30
0
40
1.0999919791666679
210
0
220
0
230
1
0
CIRCLE
5
126
100
AcDbEntity
8
0
100
AcDbCircle
10
-8.6359370291666675
20
55.785593227083339
30
0
40
1.0999919791666666
210
0
220
0
230
1
0
LWPOLYLINE
5
127
100
AcDbEntity
8
0
100
AcDbPolyline
90
4
70
1
43
0.0
10
-137.45900440131828
20
104.9372383670966
10
-123.45909885531269
20
104.9372383670966
10
-123.45909885531269
20
90.937340450429929
10
-137.45900440131828
20
90.937340450429929
0
LWPOLYLINE
5
128
100
AcDbEntity
8
0
100
AcDbPolyline
90
4
70
1
43
0.0
10
-172.73984455542569
20
143.20995428829195
10
-158.87614559680625
20
141.26146690920197
10
-160.82452616515161
20
127.39787476132713
10
-174.68822512377105
20
129.34625532967254
0
LWPOLYLINE
5
129
100
AcDbEntity
8
0
100
AcDbPolyline
90
4
70
1
43
0.0
10
-133.4590335679849
20
25.737813196827961
10
-119.45912802197935
20
25.737813196827961
10
-119.45912802197935
20
11.737914326493932
10
-133.4590335679849
20
11.737914326493932
0
LWPOLYLINE
5
130
100
AcDbEntity
8
0
100
AcDbPolyline
90
4
70
1
43
0.0
10
-72.309470298194896
20
25.737813196827961
10
-58.309576196197675
20
25.737813196827961
10
-58.309576196197675
20
11.737914326493932
10
-72.309470298194896
20
11.737914326493932
0
CIRCLE
5
131
100
AcDbEntity
8
0
100
AcDbCircle
10
-209.65847122916671
20
36.694732432291673
30
0
40
1.0999919791666812
210
0
220
0
230
1
0
LWPOLYLINE
5
132
100
AcDbEntity
8
0
100
AcDbPolyline
90
4
70
1
43
0.0
10
-18.684863221154615
20
48.787642453642675
10
-32.684763045156011
20
48.787642453642697
10
-32.684763045156011
20
62.787540370309358
10
-18.684863221154615
20
62.787540370309358
0
CIRCLE
5
133
100
AcDbEntity
8
0
100
AcDbCircle
10
-216.68342000520838
20
101.39426066145833
30
0
40
1.0999919791666812
210
0
220
0
230
1
0
LWPOLYLINE
5
134
100
AcDbEntity
8
0
100
AcDbPolyline
90
4
70
1
43
0.0
10
-114.40916942249936
20
25.737813196827961
10
-100.40927150583271
20
25.737813196827961
10
-100.40927150583269
20
11.737914326493932
10
-114.40916942249935
20
11.737914326493932
0
LWPOLYLINE
5
135
100
AcDbEntity
8
0
100
AcDbPolyline
90
4
70
1
43
0.0
10
-99.359276110347125
20
133.48703324174883
10
-85.359378193680456
20
133.48703324174883
10
-85.359378193680456
20
119.48712769574327
10
-99.359276110347125
20
119.48712769574327
0
LWPOLYLINE
5
136
100
AcDbEntity
8
0
100
AcDbPolyline
90
4
70
1
43
0.0
10
-99.359276110347125
20
114.43716909626326
10
-85.359378193680456
20
114.43716909626326
10
-85.359378193680456
20
100.43727117959661
10
-99.359276110347125
20
100.43727117959661
0
LWPOLYLINE
5
137
100
AcDbEntity
8
0
100
AcDbPolyline
90
4
70
1
43
0.0
10
-80.309411964861553
20
62.787540370309365
10
-66.309514048194885
20
62.787540370309358
10
-66.309514048194899
20
48.787642453642697
10
-80.309411964861553
20
48.787642453642697
0
CIRCLE
5
138
100
AcDbEntity
8
0
100
AcDbCircle
10
-79.489420385416679
20
111.96218360312501
30
0
40
1.0999919791666635
210
0
220
0
230
1
0
LWPOLYLINE
5
139
100
AcDbEntity
8
0
100
AcDbPolyline
90
4
70
1
43
0.0
10
-194.60858157909715
20
74.337455388625472
10
-180.60868366243051
20
74.337455388625472
10
-180.60868366243045
20
60.337561286628258
10
-194.60858157909712
20
60.337561286628258
0
LWPOLYLINE
5
140
100
AcDbEntity
8
0
100
AcDbPolyline
90
4
70
1
43
0.0
10
-118.40914025583268
20
51.787620578642702
10
-104.40924233916603
20
51.787620578642702
10
-104.40924233916603
20
37.787722661976026
10
-118.40914025583268
20
37.787722661976026
0
LWPOLYLINE
5
141
100
AcDbEntity
8
0
100
AcDbPolyline
90
4
70
1
43
0.0
10
-23.447329257526004
20
67.837502784458806
10
-37.447225266857949
20
67.837502784458806
10
-37.447225266857949
20
81.837400701125475
10
-23.447329257526004
20
81.837400701125475
0
LWPOLYLINE
5
142
100
AcDbEntity
8
0
100
AcDbPolyline
90
4
70
1
43
0.0
10
-156.50885328812603
20
90.887337763277699
10
-142.50895537145936
20
90.887337763277699
10
-142.50895537145936
20
76.887439846611031
10
-156.50885328812603
20
76.887439846611031
0
LWPOLYLINE
5
143
100
AcDbEntity
8
0
100
AcDbPolyline
90
4
70
1
43
0.0
10
-175.5587174336116
20
55.287595057809362
10
-161.55881951694494
20
55.287595057809362
10
-161.55881951694488
20
41.287697141142687
10
-175.55871743361155
20
41.287697141142687
0
LWPOLYLINE
5
144
100
AcDbEntity
8
0
100
AcDbPolyline
90
4
70
1
43
0.0
10
-99.359276110347125
20
76.337440805292147
10
-85.359378193680456
20
76.337440805292147
10
-85.359378193680456
20
62.337546703294926
10
-99.359276110347125
20
62.337546703294926
0
LWPOLYLINE
5
145
100
AcDbEntity
8
0
100
AcDbPolyline
90
14
70
1
43
0.0
10
-41.734538563845398
20
120.93712170709748
42
7.8880753487651237e-05
10
-41.734696292638453
20
120.93712170042993
10
-52.997114933176839
20
120.93712170042993
10
-52.997114933176839
20
119.9371289920966
10
-65.047026305659614
20
119.9371289920966
10
-65.047026305659614
20
120.93712170042993
10
-76.8094374856949
20
120.93712170042993
10
-76.809437485694886
20
106.93722378376327
10
-68.403302186640104
20
106.93722378376327
10
-68.403302186640104
20
105.93723107542993
10
-49.640839052196348
20
105.93723107542993
10
-49.640839052196348
20
106.93722378376327
10
-41.234699938472126
20
106.93722378376327
10
-41.234699938472119
20
120.93712170042993
0
LWPOLYLINE
5
146
100
AcDbEntity
8
0
100
AcDbPolyline
90
4
70
1
43
0.0
10
-57.759577154878784
20
87.887359638277701
10
-57.759577154878777
20
101.88725755494437
10
-50.759628196545449
20
101.88725755494437
10
-50.759628196545457
20
87.887359638277701
0
LWPOLYLINE
5
147
100
AcDbEntity
8
0
100
AcDbPolyline
90
4
70
1
43
0.0
10
-17.278573884358011
20
49.787635161976027
10
-17.278573884358011
20
63.787533078642696
10
-10.27862492602468
20
63.787533078642696
10
-10.278624926024671
20
49.787635161976027
0
LWPOLYLINE
5
148
100
AcDbEntity
8
0
100
AcDbPolyline
90
4
70
1
43
0.0
10
-99.359276110347125
20
57.287580474476044
10
-85.359378193680456
20
57.287580474476044
10
-85.359378193680456
20
43.287682557809362
10
-99.359276110347125
20
43.287682557809362
0
LWPOLYLINE
5
149
100
AcDbEntity
8
0
100
AcDbPolyline
90
4
70
1
43
0.0
10
-156.50885328812603
20
109.93720190876326
10
-142.50895537145936
20
109.93720190876326
10
-142.50895537145936
20
95.937303992096602
10
-156.50885328812603
20
95.937303992096602
0
CIRCLE
5
150
100
AcDbEntity
8
0
100
AcDbCircle
10
-159.0188404791667
20
111.96218360312501
30
0
40
1.0999919791666635
210
0
220
0
230
1
0
LWPOLYLINE
5
151
100
AcDbEntity
8
0
100
AcDbPolyline
90
4
70
1
43
0.0
10
-80.309411964861553
20
81.837400701125475
10
-47.259653717378782
20
81.837400701125475
10
-47.259653717378782
20
67.837502784458806
10
-80.309411964861553
20
67.837502784458806
0
LWPOLYLINE
5
152
100
AcDbEntity
8
0
100
AcDbPolyline
90
4
70
1
43
0.0
10
-137.45900440131828
20
47.787649745309352
10
-123.45909885531269
20
47.787649745309352
10
-123.45909885531269
20
33.787751828642683
10
-137.45900440131828
20
33.787751828642683
0
LWPOLYLINE
5
153
100
AcDbEntity
8
0
100
AcDbPolyline
90
6
70
1
43
0.0
10
-41.09090215888024
20
49.787635161976027
10
-41.09090215888024
20
63.787533078642696
10
-34.591048736119262
20
63.787533088479719
42
-4.9591111448995276e-05
10
-34.590949554713575
20
63.787533078642696
10
-34.090953200546906
20
63.787533078642696
10
-34.090953200546906
20
49.787635161976027
0
LWPOLYLINE
5
154
100
AcDbEntity
8
0
100
AcDbPolyline
90
4
70
1
43
0.0
10
-95.359305277013803
20
25.737813196827961
10
-81.359407360347134
20
25.737813196827961
10
-81.35940736034712
20
11.737914326493932
10
-95.359305277013789
20
11.737914326493932
0
LWPOLYLINE
5
155
100
AcDbEntity
8
0
100
AcDbPolyline
90
4
70
1
43
0.0
10
-194.10858522493047
20
113.03717777872882
10
-181.10868001659713
20
113.03717777872882
10
-181.10868001659713
20
97.437293054596594
10
-194.10858522493047
20
97.437293054596594
0
LWPOLYLINE
5
156
100
AcDbEntity
8
0
100
AcDbPolyline
90
4
70
1
43
0.0
10
-216.6584238495827
20
77.33743351362547
10
-202.65852593291606
20
77.33743351362547
10
-202.65852593291606
20
63.337539411628256
10
-216.6584238495827
20
63.337539411628256
0
LWPOLYLINE
5
157
100
AcDbEntity
8
0
100
AcDbPolyline
90
4
70
1
43
0.0
10
-156.50885328812603
20
71.837473617792142
10
-142.50895537145936
20
71.837473617792142
10
-142.50895537145936
20
57.837579515794921
10
-156.50885328812603
20
57.837579515794921
0
LWPOLYLINE
5
158
100
AcDbEntity
8
0
100
AcDbPolyline
90
4
70
1
43
0.0
10
-156.50885328812603
20
52.78761328697604
10
-142.50895537145936
20
52.78761328697604
10
-142.50895537145936
20
38.787715370309357
10
-156.50885328812603
20
38.787715370309357
0
LWPOLYLINE
5
159
100
AcDbEntity
8
0
100
AcDbPolyline
90
4
70
1
43
0.0
10
-191.51700561126077
20
145.96013259902003
10
-177.65339820470814
20
144.01175203067464
10
-179.60179403173132
20
130.14814462412201
10
-193.46549299035075
20
132.09654045114519
0
LWPOLYLINE
5
160
100
AcDbEntity
8
0
100
AcDbPolyline
90
4
70
1
43
0.0
10
-194.60858157909715
20
55.287595057809362
10
-180.60868366243051
20
55.287595057809362
10
-180.60868366243045
20
41.287697141142687
10
-194.60858157909712
20
41.287697141142687
0
LWPOLYLINE
5
161
100
AcDbEntity
8
0
100
AcDbPolyline
90
4
70
1
43
0.0
10
-211.73196135888105
20
139.13378161802291
10
-197.86826240026159
20
137.18529423893295
10
-199.81674977935157
20
123.32170209105811
10
-213.68034192722638
20
125.2700902887424
0
LWPOLYLINE
5
162
100
AcDbEntity
8
0
100
AcDbPolyline
90
4
70
1
43
0.0
10
-118.40914025583268
20
70.837480909458804
10
-104.40924233916603
20
70.837480909458804
10
-104.40924233916603
20
56.837586807461591
10
-118.40914025583268
20
56.837586807461591
0
LWPOLYLINE
5
163
100
AcDbEntity
8
0
100
AcDbPolyline
90
4
70
1
43
0.0
10
-175.5587174336116
20
93.387319534111043
10
-161.55881951694494
20
93.387319534111043
10
-161.55881951694488
20
79.387421617444375
10
-175.55871743361155
20
79.387421617444375
0
LWPOLYLINE
5
164
100
AcDbEntity
8
0
100
AcDbPolyline
90
4
70
1
43
0.0
10
-195.63547533639274
20
123.85089592519603
10
-194.66128505222005
20
130.78275303384464
10
-180.79758609360061
20
128.83435720682147
10
-181.77177637777334
20
121.90250772751173
0
LWPOLYLINE
5
165
100
AcDbEntity
8
0
100
AcDbPolyline
90
4
70
1
43
0.0
10
-118.40914025583268
20
108.93720920042993
10
-104.40924233916603
20
108.93720920042993
10
-104.40924233916603
20
94.937311283763265
10
-118.40914025583268
20
94.937311283763265
0
CIRCLE
5
166
100
AcDbEntity
8
0
100
AcDbCircle
10
-59.022069627604175
20
139.41198344687504
30
0
40
1.0999919791666635
210
0
220
0
230
1
0
LWPOLYLINE
5
167
100
AcDbEntity
8
0
100
AcDbPolyline
90
15
70
1
43
0.0
10
-190.85210872610415
20
154.29378154918356
10
-177.97869795673691
20
152.48448382898968
42
-0.001891431790566498
10
-177.97495391607521
20
152.48394354639868
10
-177.4835996381442
20
152.41488899954163
10
-177.55195989713513
20
151.92847929959018
42
-0.0043818561753294081
10
-177.55310291552547
20
151.91979068094892
10
-178.38819509286884
20
145.97822939089139
42
-0.0020050237511464596
10
-178.38876872410475
20
145.97426062984053
10
-178.45780518099468
20
145.48303952023193
10
-192.32139732886952
20
147.43152689932188
10
-191.83430218685999
20
150.89739823305797
10
-191.41680187414491
20
153.86817124929428
42
-0.0018583640133568694
10
-191.41627139166982
20
153.87184988472805
10
-191.34720704469683
20
154.36326956788702
10
-190.86157845036283
20
154.29501970414952
42
-0.0047753061491006927
0
LWPOLYLINE
5
168
100
AcDbEntity
8
0
100
AcDbPolyline
90
4
70
1
43
0.0
10
-137.45900440131828
20
123.98709488324326
10
-123.45909885531269
20
123.98709488324327
10
-123.45909885531269
20
109.98719696657659
10
-137.45900440131828
20
109.98719696657659
0
LWPOLYLINE
5
169
100
AcDbEntity
8
0
100
AcDbPolyline
90
4
70
1
43
0.0
10
-152.81867939017616
20
147.68652992272379
10
-138.95508724230132
20
145.73804254363381
10
-140.9034678106467
20
131.87443513708115
10
-154.76716676926614
20
133.82283096410436
0
LWPOLYLINE
5
170
100
AcDbEntity
8
0
100
AcDbPolyline
90
4
70
1
43
0.0
10
-35.353440943082177
20
86.887366929944378
10
-49.353338859748845
20
86.887366929944378
10
-49.353338859748845
20
100.88726484661103
10
-35.353440943082177
20
100.88726484661103
0
LWPOLYLINE
5
171
100
AcDbEntity
8
0
100
AcDbPolyline
90
41
70
1
43
0.0
10
-4.6359663522347816
20
46.260664267110826
10
-4.6349664320051609
20
46.260664267110826
42
0.011407215824980286
10
-4.636956695888081
20
46.351887746388279
10
-4.6349664320051698
20
65.310520783257488
42
0.090130449322485068
10
-4.7628651461626079
20
66.014220486060779
10
-33.337655165553095
20
142.21566832545602
42
0.28863369842720593
10
-35.035446283050383
20
143.50435521777473
10
-82.834395079271005
20
147.65473083818756
42
0.41421356237309509
10
-84.834380495937666
20
145.65474542152089
10
-84.834380495937694
20
140.01197956015272
42
-0.4142135623731002
10
-86.834365912604341
20
138.01199414348605
10
-101.88425922475658
20
138.01199414348605
42
0.41421356237309509
10
-103.88424464142324
20
136.01200872681937
10
-103.88424464142324
20
134.51201966431938
42
-0.41421356237308465
10
-105.88423005808991
20
132.51203424765271
10
-120.93411574090324
20
132.51203424765271
42
0.41421356237309509
10
-122.93410115756991
20
130.51204883098603
42
-0.4142135623731002
10
-124.93408657423657
20
128.51206341431939
10
-134.80681731942497
20
128.51015607959431
42
-0.41423217172213195
10
-136.50910593220397
20
130.7690507411798
10
-136.50899912145934
20
130.7690507411798
10
-133.7966318143209
20
150.06760081745784
42
0.41421672014076372
10
-135.61471853292784
20
152.23428728909494
10
-210.95016774309477
20
162.83230876617435
42
0.41502760775249409
10
-213.21394518157643
20
161.13012696413995
10
-221.16388416109086
20
104.5405356323004
42
0.034914987889913415
10
-221.18338475131992
20
104.26224023723603
10
-221.18338475131992
20
41.762695966402688
42
0.14990080057316166
10
-220.83948467105233
20
40.641404398894316
10
-212.26860299266022
20
27.989143043483491
10
-201.89022098830543
20
35.016044874227049
10
-196.98446452337905
20
27.770698230167223
10
-207.36119913805382
20
20.744875945319752
10
-198.78965765924454
20
8.0916405982434547
42
0.24886196906809055
10
-197.13355706416769
20
7.2129472259188692
10
-56.279588404305784
20
7.2129472259188709
42
0.41392093679274
10
-54.279602987639123
20
9.21093327895999
10
-54.279602987639109
20
42.26469120736121
42
-0.41392100653973546
10
-52.279617570972462
20
44.262677737236025
10
-6.6349518486718306
20
44.262677737236032
42
0.31731092657414084
10
-4.7506252236092097
20
45.59239559430705
42
0.085199665147273243
0
ENDSEC
0
SECTION
2
OBJECTS
0
DICTIONARY
5
C
100
AcDbDictionary
3
ACAD_GROUP
350
D
3
ACAD_MLINESTYLE
350
17
0
DICTIONARY
5
D
100
AcDbDictionary
0
DICTIONARY
5
1A
330
C
100
AcDbDictionary
0
DICTIONARY
5
17
100
AcDbDictionary
0
ENDSEC
0
EOF
