<?xml version="1.0" standalone="no"?>
 <!DOCTYPE svg PUBLIC "-//W3C//DTD SVG 1.1//EN" 
 "http://www.w3.org/Graphics/SVG/1.1/DTD/svg11.dtd"> 
<svg
  xmlns:svg="http://www.w3.org/2000/svg"
  xmlns="http://www.w3.org/2000/svg"
  xmlns:xlink="http://www.w3.org/1999/xlink"
  version="1.1"
  width="228.2444mm" height="169.4180mm" viewBox="0.0000 0.0000 228.2444 169.4180">
<title>SVG Image created as ergodonk_simple_zero-brd.svg date 2024/01/13 11:13:15 </title>
  <desc>Image generated by PCBNEW </desc>
<g style="fill:#000000; fill-opacity:1.0000;stroke:#000000; stroke-opacity:1.0000;
stroke-linecap:round; stroke-linejoin:round;"
 transform="translate(0 0) scale(1 1)">
</g>
<g style="fill:#000000; fill-opacity:0.0; 
stroke:#000000; stroke-width:0.0000; stroke-opacity:1; 
stroke-linecap:round; stroke-linejoin:round;">
</g>
<g style="fill:#000000; fill-opacity:0.0; 
stroke:#000000; stroke-width:0.1500; stroke-opacity:1; 
stroke-linecap:round; stroke-linejoin:round;">
<path d="M138.3291 152.2354
L213.6651 162.8335
" />
<path d="M36.0513 142.2167 A2.0000 2.0000 0.0 0 0 37.7491 143.5054" />
<path d="M36.9834 7.2130
L199.8484 7.2130
" />
<path d="M7.3484 65.3110 A2.0000 2.0000 0.0 0 0 7.4763 66.0147" />
<path d="M7.3484 65.3110
L7.3504 46.2610
" />
<path d="M7.7449 45.0657 A2.0040 2.0040 0.0 0 0 7.3494 46.2610" />
</g>
<g style="fill:#000000; fill-opacity:0.0; 
stroke:#000000; stroke-width:0.1000; stroke-opacity:1; 
stroke-linecap:round; stroke-linejoin:round;">
<path d="M201.5045 8.0917
L223.5545 40.6417
" />
</g>
<g style="fill:#000000; fill-opacity:0.0; 
stroke:#000000; stroke-width:0.1500; stroke-opacity:1; 
stroke-linecap:round; stroke-linejoin:round;">
<path d="M36.9834 7.2130 A2.0000 2.0000 0.0 0 0 35.3799 8.0178" />
<path d="M223.8984 41.7630 A2.0001 2.0001 0.0 0 0 223.5545 40.6417" />
<path d="M223.8789 104.5413 A2.0012 2.0012 0.0 0 0 223.8984 104.2630" />
<path d="M201.5046 8.0917 A1.9999 1.9999 0.0 0 0 199.8484 7.2130" />
<path d="M37.7491 143.5054
L138.3291 152.2354
" />
<path d="M215.9289 161.1313
L223.8789 104.5413
" />
<path d="M7.7449 45.0658
L35.3799 8.0178
" />
<path d="M7.4763 66.0147
L36.0513 142.2167
" />
<path d="M223.8984 41.7630
L223.8984 104.2630
" />
<path d="M213.6651 162.8335 A2.0000 2.0000 0.0 0 0 215.9289 161.1313" />
</g>
<g style="fill:#000000; fill-opacity:0.0; 
stroke:#000000; stroke-width:0.1000; stroke-opacity:1; 
stroke-linecap:round; stroke-linejoin:round;">
<circle cx="134.2234" cy="147.2200" r="1.1000" /> 
<circle cx="90.1734" cy="140.6200" r="1.1000" /> 
<circle cx="198.8334" cy="139.4580" r="1.1000" /> 
<circle cx="161.7334" cy="111.9630" r="1.1000" /> 
<circle cx="82.2034" cy="37.2627" r="1.1000" /> 
<circle cx="26.5634" cy="95.7700" r="1.1000" /> 
<circle cx="219.3984" cy="101.3950" r="1.1000" /> 
<circle cx="82.2034" cy="111.9630" r="1.1000" /> 
<circle cx="212.3734" cy="36.6950" r="1.1000" /> 
<circle cx="11.3494" cy="55.7860" r="1.1000" /> 
<circle cx="161.7334" cy="37.2627" r="1.1000" /> 
</g>
<g style="fill:#000000; fill-opacity:0.0; 
stroke:#000000; stroke-width:0.1200; stroke-opacity:1; 
stroke-linecap:round; stroke-linejoin:round;">
<circle cx="142.6984" cy="85.3080" r="22.5000" /> 
</g>
<g style="fill:#000000; fill-opacity:0.0; 
stroke:#000000; stroke-width:0.1000; stroke-opacity:1; 
stroke-linecap:round; stroke-linejoin:round;">
<circle cx="31.1034" cy="20.0300" r="1.1000" /> 
<circle cx="136.4734" cy="131.1700" r="1.1000" /> 
<circle cx="61.7359" cy="139.4130" r="1.1000" /> 
<g >
</g>
<g >
</g>
<g >
</g>
<g >
</g>
<g >
</g>
<g >
</g>
<g >
</g>
<g >
</g>
<g >
</g>
<g >
</g>
<g >
</g>
<g >
</g>
<g >
</g>
<g >
</g>
<g >
</g>
<g >
</g>
<g >
</g>
<g >
</g>
<g >
</g>
<g >
</g>
<g >
</g>
<g >
</g>
<g >
</g>
<g >
</g>
<g >
</g>
<g >
</g>
<g >
</g>
<g >
</g>
<g >
</g>
<g >
</g>
<g >
</g>
<g >
</g>
<g >
</g>
<g >
</g>
<g >
</g>
<g >
</g>
<g >
</g>
<g >
</g>
<g >
</g>
<g >
</g>
<g >
</g>
<g >
</g>
<g >
</g>
<g >
</g>
<g >
</g>
<g >
</g>
<g >
</g>
<g >
</g>
<g >
</g>
<g >
</g>
<g >
</g>
<g >
</g>
<g >
</g>
<g >
</g>
<g >
</g>
<g >
</g>
<g >
</g>
<g >
</g>
<g >
</g>
<g >
</g>
<g >
</g>
<g >
</g>
<g >
</g>
<g >
</g>
<g >
</g>
<g >
</g>
<g >
</g>
<g >
</g>
<g >
</g>
<g >
</g>
<g >
</g>
<g >
</g>
<g >
</g>
<g >
</g>
<g >
</g>
<g >
</g>
<g >
</g>
<g >
</g>
<g >
</g>
<g >
</g>
<g >
</g>
<g >
</g>
<g >
</g>
<g >
</g>
<g >
</g>
<g >
</g>
<g >
</g>
<g >
</g>
<g >
</g>
<g >
</g>
<g >
</g>
<g >
</g>
<g >
</g>
<g >
</g>
<g >
</g>
<g >
</g>
<g >
</g>
<g >
</g>
<g >
</g>
<g >
</g>
<g >
</g>
<g >
</g>
<g >
</g>
<g >
</g>
<g >
</g>
<g >
</g>
<g >
</g>
<g >
</g>
<g >
</g>
<g >
</g>
<g >
</g>
<g >
</g>
<g >
</g>
<g >
</g>
<g >
</g>
<g >
</g>
<g >
</g>
<g >
</g>
<g >
</g>
<g >
</g>
<g >
</g>
<g >
</g>
<g >
</g>
<g >
</g>
<g >
</g>
<g >
</g>
<g >
</g>
<g >
</g>
<g >
</g>
<g >
</g>
<g >
</g>
<g >
</g>
<g >
</g>
<g >
</g>
<g >
</g>
<g >
</g>
<g >
</g>
<g >
</g>
<g >
</g>
<g >
</g>
<g >
</g>
<g >
</g>
<g >
</g>
<g >
</g>
<g >
</g>
<g >
</g>
<g >
</g>
<g >
</g>
<g >
</g>
<g >
</g>
<g >
</g>
<g >
</g>
<g >
</g>
<g >
</g>
<g >
</g>
<g >
</g>
<g >
</g>
<g >
</g>
<g >
</g>
<g >
</g>
<g >
</g>
<g >
</g>
<g >
</g>
<g >
</g>
<g >
</g>
<g >
</g>
<g >
</g>
</g> 
</svg>
