0
SECTION
2
HEADER
9
$INSUNITS
70
4
9
$ACADVER
1
AC1014
9
$HANDSEED
5
FFFF
0
ENDSEC
0
SECTION
2
TABLES
0
TABLE
2
VPORT
5
8
100
AcDbSymbolTable
0
ENDTAB
0
TABLE
2
LTYPE
5
5
100
AcDbSymbolTable
0
LTYPE
5
14
100
AcDbSymbolTableRecord
100
AcDbLinetypeTableRecord
2
BYBLOCK
70
0
0
LTYPE
5
15
100
AcDbSymbolTableRecord
100
AcDbLinetypeTableRecord
2
BYLAYER
70
0
0
ENDTAB
0
TABLE
2
LAYER
5
2
100
AcDbSymbolTable
70
2
0
LAYER
5
50
100
AcDbSymbolTableRecord
100
AcDbLayerTableRecord
2
0
70
0
6
CONTINUOUS
0
ENDTAB
0
TABLE
2
STYLE
5
3
100
AcDbSymbolTable
70
1
0
STYLE
5
11
100
AcDbSymbolTableRecord
100
AcDbTextStyleTableRecord
2
STANDARD
70
0
0
ENDTAB
0
TABLE
2
VIEW
5
6
100
AcDbSymbolTable
70
0
0
ENDTAB
0
TABLE
2
UCS
5
7
100
AcDbSymbolTable
70
0
0
ENDTAB
0
TABLE
2
APPID
5
9
100
AcDbSymbolTable
70
2
0
APPID
5
12
100
AcDbSymbolTableRecord
100
AcDbRegAppTableRecord
2
ACAD
70
0
0
ENDTAB
0
TABLE
2
DIMSTYLE
5
A
100
AcDbSymbolTable
70
1
0
ENDTAB
0
TABLE
2
BLOCK_RECORD
5
1
100
AcDbSymbolTable
70
1
0
BLOCK_RECORD
5
1F
100
AcDbSymbolTableRecord
100
AcDbBlockTableRecord
2
*MODEL_SPACE
0
BLOCK_RECORD
5
1B
100
AcDbSymbolTableRecord
100
AcDbBlockTableRecord
2
*PAPER_SPACE
0
ENDTAB
0
ENDSEC
0
SECTION
2
BLOCKS
0
BLOCK
5
20
100
AcDbEntity
100
AcDbBlockBegin
2
*MODEL_SPACE
0
ENDBLK
5
21
100
AcDbEntity
100
AcDbBlockEnd
0
BLOCK
5
1C
100
AcDbEntity
100
AcDbBlockBegin
2
*PAPER_SPACE
0
ENDBLK
5
1D
100
AcDbEntity
100
AcDbBlockEnd
0
ENDSEC
0
SECTION
2
ENTITIES
0
LWPOLYLINE
5
100
100
AcDbEntity
8
0
100
AcDbPolyline
90
4
70
1
43
0.0
10
-159.2222429266771
20
109.93720190876326
10
-145.22234501001043
20
109.93720190876326
10
-145.22234501001043
20
95.937303992096602
10
-159.2222429266771
20
95.937303992096602
0
LWPOLYLINE
5
101
100
AcDbEntity
8
0
100
AcDbPolyline
90
4
70
1
43
0.0
10
-219.37179822945598
20
96.387297659111027
10
-205.37190031278931
20
96.387297659111027
10
-205.37190031278931
20
82.387399742444373
10
-219.37179822945598
20
82.387399742444373
0
LWPOLYLINE
5
102
100
AcDbEntity
8
0
100
AcDbPolyline
90
4
70
1
43
0.0
10
-102.07265811955929
20
57.28758047447603
10
-88.072760202892638
20
57.28758047447603
10
-88.072760202892638
20
43.287682557809362
10
-102.07265811955929
20
43.287682557809362
0
LWPOLYLINE
5
103
100
AcDbEntity
8
0
100
AcDbPolyline
90
4
70
1
43
0.0
10
-178.27210707216267
20
112.43718367959659
10
-164.272209155496
20
112.4371836795966
10
-164.27220915549597
20
98.437285762929918
10
-178.27210707216264
20
98.437285762929918
0
LWPOLYLINE
5
104
100
AcDbEntity
8
0
100
AcDbPolyline
90
4
70
1
43
0.0
10
-219.37179822945598
20
58.287573182809361
10
-205.37190031278931
20
58.287573182809361
10
-205.37190031278931
20
44.287675266142692
10
-219.37179822945598
20
44.287675266142692
0
LWPOLYLINE
5
105
100
AcDbEntity
8
0
100
AcDbPolyline
90
4
70
1
43
0.0
10
-140.17237878119153
20
85.887374221611026
10
-126.17248086452486
20
85.88737422161104
10
-126.17248086452486
20
71.887476304944357
10
-140.17237878119153
20
71.887476304944357
0
LWPOLYLINE
5
106
100
AcDbEntity
8
0
100
AcDbPolyline
90
4
70
1
43
0.0
10
-178.27210707216267
20
25.737813196827961
10
-164.272209155496
20
25.737813196827961
10
-164.27220915549597
20
11.737914326493932
10
-178.27210707216264
20
11.737914326493932
0
LWPOLYLINE
5
107
100
AcDbEntity
8
0
100
AcDbPolyline
90
4
70
1
43
0.0
10
-196.82195960480374
20
113.03717777872882
10
-183.82205439647041
20
113.03717777872882
10
-183.82205439647041
20
97.437293054596594
10
-196.82195960480374
20
97.437293054596594
0
LWPOLYLINE
5
108
100
AcDbEntity
8
0
100
AcDbPolyline
90
4
70
1
43
0.0
10
-43.804379534828669
20
49.787635161976027
10
-43.804379534828669
20
63.787533078642696
10
-36.804430576495335
20
63.787533078642696
10
-36.804430576495335
20
49.787635161976027
0
CIRCLE
5
109
100
AcDbEntity
8
0
100
AcDbCircle
10
-198.83195017312505
20
139.45698311875003
30
0
40
1.0999919791666812
210
0
220
0
230
1
0
LWPOLYLINE
5
110
100
AcDbEntity
8
0
100
AcDbPolyline
90
4
70
1
43
0.0
10
-175.45321893529893
20
143.20995428829195
10
-161.58951997667953
20
141.26146690920197
10
-163.53800735576951
20
127.39787476132713
10
-177.40159950364432
20
129.34625532967254
0
CIRCLE
5
111
100
AcDbEntity
8
0
100
AcDbCircle
10
-161.73222069395834
20
37.262428292812508
30
0
40
1.0999919791666812
210
0
220
0
230
1
0
LWPOLYLINE
5
112
100
AcDbEntity
8
0
100
AcDbPolyline
90
4
70
1
43
0.0
10
-98.072687286225971
20
25.737813196827961
10
-84.072789369559317
20
25.737813196827961
10
-84.072789369559302
20
11.737914326493932
10
-98.072687286225957
20
11.737914326493932
0
LWPOLYLINE
5
113
100
AcDbEntity
8
0
100
AcDbPolyline
90
4
70
1
43
0.0
10
-140.17237878119153
20
66.837510076125469
10
-126.17248086452486
20
66.837510076125469
10
-126.17248086452486
20
52.837615974128255
10
-140.17237878119153
20
52.837615974128255
0
LWPOLYLINE
5
114
100
AcDbEntity
8
0
100
AcDbPolyline
90
4
70
1
43
0.0
10
-61.87924850088757
20
86.872367649666486
10
-83.022793974073736
20
86.872367649666486
10
-83.022793974073736
20
100.87226556633314
10
-61.879248500887556
20
100.87226556633314
0
LWPOLYLINE
5
115
100
AcDbEntity
8
0
100
AcDbPolyline
90
4
70
1
43
0.0
10
-197.32195595897042
20
25.737813196827961
10
-183.32205804230375
20
25.737813196827961
10
-183.32205804230372
20
11.737914326493932
10
-197.32195595897039
20
11.737914326493932
0
LWPOLYLINE
5
116
100
AcDbEntity
8
0
100
AcDbPolyline
90
10
70
1
43
0.0
10
-164.13601019744874
20
119.04342823332152
10
-177.00940570813816
20
120.85271832417648
42
-0.0021122130859312729
10
-177.01358639938553
20
120.85332427604928
10
-177.5045040267309
20
120.92232078296345
10
-177.00153237667269
20
124.50116358377095
10
-176.59990857200626
20
127.35897276227476
42
-0.0018130575503570768
10
-176.59939062572303
20
127.36256165684742
10
-176.53031374255818
20
127.85407108086746
10
-162.66661478393874
20
125.90568288318318
10
-163.64080506811146
20
118.97383340387347
0
LWPOLYLINE
5
117
100
AcDbEntity
8
0
100
AcDbPolyline
90
16
70
1
43
0.0
10
-167.25862994477976
20
143.52865466210309
10
-173.69532770061497
20
144.43324248755775
42
-0.0026453489065258219
10
-173.70056279909716
20
144.43400696599548
10
-174.19042601920765
20
144.50285257568362
10
-173.88927056802586
20
146.64572372866232
10
-173.28602892729447
20
150.93839830085437
42
-0.00326102650126626
10
-173.28507843581676
20
150.94485192271583
10
-173.21623573503496
20
151.43470205499335
10
-160.13776001452126
20
149.5966468636785
10
-159.84774190575286
20
149.55591631609605
42
-0.0027032126161420072
10
-159.84239327838674
20
149.55513588225335
10
-159.35264358716014
20
149.48630622797015
10
-159.4222384166082
20
148.99111635731063
10
-160.25723904188479
20
143.04955506725315
42
-0.0018712723259384446
10
-160.25777426445723
20
143.0458502759152
10
-160.32683387133284
20
142.55445674866044
0
LWPOLYLINE
5
118
100
AcDbEntity
8
0
100
AcDbPolyline
90
4
70
1
43
0.0
10
-197.32195595897042
20
74.337455388625472
10
-183.32205804230375
20
74.337455388625472
10
-183.32205804230372
20
60.337561286628258
10
-197.32195595897039
20
60.337561286628258
0
LWPOLYLINE
5
119
100
AcDbEntity
8
0
100
AcDbPolyline
90
4
70
1
43
0.0
10
-75.022852307407078
20
25.737813196827961
10
-61.022954390740395
20
25.737813196827961
10
-61.022954390740395
20
11.737914326493932
10
-75.022852307407078
20
11.737914326493932
0
LWPOLYLINE
5
120
100
AcDbEntity
8
0
100
AcDbPolyline
90
4
70
1
43
0.0
10
-136.1724079478582
20
25.737813196827961
10
-122.17251003119154
20
25.737813196827961
10
-122.17251003119152
20
11.737914326493932
10
-136.17240794785818
20
11.737914326493932
0
LWPOLYLINE
5
121
100
AcDbEntity
8
0
100
AcDbPolyline
90
4
70
1
43
0.0
10
-211.79415572959587
20
157.99825282823247
10
-197.93045677097641
20
156.04985700120929
10
-199.87883733932179
20
142.18615804258985
10
-213.74253629794123
20
144.13455386961303
0
LWPOLYLINE
5
122
100
AcDbEntity
8
0
100
AcDbPolyline
90
4
70
1
43
0.0
10
-178.27210707216267
20
74.337455388625472
10
-164.272209155496
20
74.337455388625472
10
-164.27220915549597
20
60.337561286628258
10
-178.27210707216264
20
60.337561286628258
0
LWPOLYLINE
5
123
100
AcDbEntity
8
0
100
AcDbPolyline
90
4
70
1
43
0.0
10
-140.17237878119153
20
104.9372383670966
10
-126.17248086452486
20
104.9372383670966
10
-126.17248086452486
20
90.937340450429929
10
-140.17237878119153
20
90.937340450429929
0
LWPOLYLINE
5
124
100
AcDbEntity
8
0
100
AcDbPolyline
90
4
70
1
43
0.0
10
-140.17237878119153
20
47.787649745309359
10
-126.17248086452486
20
47.787649745309359
10
-126.17248086452486
20
33.787751828642683
10
-140.17237878119153
20
33.787751828642683
0
LWPOLYLINE
5
125
100
AcDbEntity
8
0
100
AcDbPolyline
90
4
70
1
43
0.0
10
-21.398243323032062
20
48.78764245364269
10
-35.398141239698745
20
48.787642453642697
10
-35.398141239698745
20
62.787540370309358
10
-21.398243323032062
20
62.787540370309358
0
CIRCLE
5
126
100
AcDbEntity
8
0
100
AcDbCircle
10
-161.73222069395834
20
111.96218360312501
30
0
40
1.0999919791666812
210
0
220
0
230
1
0
CIRCLE
5
127
100
AcDbEntity
8
0
100
AcDbCircle
10
-26.563206308541673
20
95.769301677083348
30
0
40
2.0499850520833318
210
0
220
0
230
1
0
CIRCLE
5
128
100
AcDbEntity
8
0
100
AcDbCircle
10
-82.202800600208349
20
37.262428292812508
30
0
40
2.0499850520833363
210
0
220
0
230
1
0
LWPOLYLINE
5
129
100
AcDbEntity
8
0
100
AcDbPolyline
90
4
70
1
43
0.0
10
-121.12251463570595
20
127.98706571657659
10
-107.1226167190393
20
127.98706571657659
10
-107.1226167190393
20
113.98716779990993
10
-121.12251463570595
20
113.98716779990993
0
LWPOLYLINE
5
130
100
AcDbEntity
8
0
100
AcDbPolyline
90
4
70
1
43
0.0
10
-197.32195595897042
20
93.387319534111043
10
-183.32205804230375
20
93.387319534111043
10
-183.32205804230372
20
79.387421617444375
10
-197.32195595897039
20
79.387421617444375
0
LWPOLYLINE
5
131
100
AcDbEntity
8
0
100
AcDbPolyline
90
4
70
1
43
0.0
10
-56.829286086738122
20
138.98699313758217
10
-42.829388170071439
20
138.98699313758217
10
-42.829388170071439
20
124.9870875915766
10
-56.829286086738122
20
124.9870875915766
0
LWPOLYLINE
5
132
100
AcDbEntity
8
0
100
AcDbPolyline
90
4
70
1
43
0.0
10
-63.972933643257633
20
62.787540370309365
10
-49.973035726590957
20
62.787540370309358
10
-49.973035726590957
20
48.787642453642697
10
-63.972933643257633
20
48.787642453642697
0
LWPOLYLINE
5
133
100
AcDbEntity
8
0
100
AcDbPolyline
90
4
70
1
43
0.0
10
-102.07265811955929
20
95.387304950777704
10
-88.072760202892638
20
95.387304950777704
10
-88.072760202892638
20
81.387407034111035
10
-102.07265811955929
20
81.387407034111035
0
LWPOLYLINE
5
134
100
AcDbEntity
8
0
100
AcDbPolyline
90
4
70
1
43
0.0
10
-121.12251463570595
20
70.837480909458804
10
-107.1226167190393
20
70.837480909458804
10
-107.1226167190393
20
56.837586807461591
10
-121.12251463570595
20
56.837586807461591
0
LWPOLYLINE
5
135
100
AcDbEntity
8
0
100
AcDbPolyline
90
4
70
1
43
0.0
10
-214.44533573875432
20
139.13378161802291
10
-200.58163678013486
20
137.18529423893295
10
-202.53012415922484
20
123.32170209105811
10
-216.39371630709968
20
125.2700902887424
0
LWPOLYLINE
5
136
100
AcDbEntity
8
0
100
AcDbPolyline
90
4
70
1
43
0.0
10
-197.32195595897042
20
55.287595057809362
10
-183.32205804230375
20
55.287595057809362
10
-183.32205804230372
20
41.287697141142694
10
-197.32195595897039
20
41.287697141142694
0
LWPOLYLINE
5
137
100
AcDbEntity
8
0
100
AcDbPolyline
90
4
70
1
43
0.0
10
-121.12251463570595
20
51.787620578642695
10
-107.1226167190393
20
51.787620578642695
10
-107.1226167190393
20
37.787722661976026
10
-121.12251463570595
20
37.787722661976026
0
LWPOLYLINE
5
138
100
AcDbEntity
8
0
100
AcDbPolyline
90
4
70
1
43
0.0
10
-26.160709359403445
20
67.837502784458806
10
-40.160607276070124
20
67.837502784458806
10
-40.160607276070124
20
81.837400701125475
10
-26.160709359403445
20
81.837400701125475
0
LWPOLYLINE
5
139
100
AcDbEntity
8
0
100
AcDbPolyline
90
4
70
1
43
0.0
10
-219.37179822945598
20
77.33743351362547
10
-205.37190031278931
20
77.33743351362547
10
-205.37190031278931
20
63.337539411628256
10
-219.37179822945598
20
63.337539411628256
0
LWPOLYLINE
5
140
100
AcDbEntity
8
0
100
AcDbPolyline
90
4
70
1
43
0.0
10
-121.12251463570595
20
89.887345054944362
10
-107.1226167190393
20
89.887345054944362
10
-107.1226167190393
20
75.887447138277707
10
-121.12251463570595
20
75.887447138277707
0
CIRCLE
5
141
100
AcDbEntity
8
0
100
AcDbCircle
10
-82.202800600208349
20
111.96218360312501
30
0
40
1.0999919791666635
210
0
220
0
230
1
0
CIRCLE
5
142
100
AcDbEntity
8
0
100
AcDbCircle
10
-219.39680022000005
20
101.39426066145833
30
0
40
1.0999919791666812
210
0
220
0
230
1
0
LWPOLYLINE
5
143
100
AcDbEntity
8
0
100
AcDbPolyline
90
4
70
1
43
0.0
10
-117.12254380237263
20
25.737813196827961
10
-103.12264588570598
20
25.737813196827961
10
-103.12264588570596
20
11.737914326493932
10
-117.12254380237262
20
11.737914326493932
0
LWPOLYLINE
5
144
100
AcDbEntity
8
0
100
AcDbPolyline
90
4
70
1
43
0.0
10
-102.07265811955929
20
114.43716909626326
10
-88.072760202892638
20
114.43716909626326
10
-88.072760202892638
20
100.43727117959661
10
-102.07265811955929
20
100.43727117959661
0
LWPOLYLINE
5
145
100
AcDbEntity
8
0
100
AcDbPolyline
90
4
70
1
43
0.0
10
-102.07265811955929
20
76.337440805292147
10
-88.072760202892638
20
76.337440805292147
10
-88.072760202892638
20
62.337546703294926
10
-102.07265811955929
20
62.337546703294926
0
LWPOLYLINE
5
146
100
AcDbEntity
8
0
100
AcDbPolyline
90
4
70
1
43
0.0
10
-102.07265811955929
20
133.48703324174883
10
-88.072760202892638
20
133.48703324174883
10
-88.072760202892638
20
119.48712769574327
10
-102.07265811955929
20
119.48712769574327
0
LWPOLYLINE
5
147
100
AcDbEntity
8
0
100
AcDbPolyline
90
4
70
1
43
0.0
10
-194.23037999113404
20
145.96013259902003
10
-180.3667878432592
20
144.01175203067464
10
-182.31516841160459
20
130.14814462412201
10
-196.17886737022403
20
132.09654045114519
0
LWPOLYLINE
5
148
100
AcDbEntity
8
0
100
AcDbPolyline
90
4
70
1
43
0.0
10
-159.2222429266771
20
71.837473617792142
10
-145.22234501001043
20
71.837473617792142
10
-145.22234501001043
20
57.837579515794921
10
-159.2222429266771
20
57.837579515794921
0
LWPOLYLINE
5
149
100
AcDbEntity
8
0
100
AcDbPolyline
90
4
70
1
43
0.0
10
-38.066922133700061
20
86.887366929944378
10
-52.066820050366722
20
86.887366929944378
10
-52.066820050366744
20
100.88726484661103
10
-38.066922133700061
20
100.88726484661103
0
CIRCLE
5
150
100
AcDbEntity
8
0
100
AcDbCircle
10
-61.735449842395845
20
139.41198344687504
30
0
40
1.0999919791666635
210
0
220
0
230
1
0
LWPOLYLINE
5
151
100
AcDbEntity
8
0
100
AcDbPolyline
90
4
70
1
43
0.0
10
-121.12251463570595
20
108.93720920042993
10
-107.1226167190393
20
108.93720920042993
10
-107.1226167190393
20
94.937311283763265
10
-121.12251463570595
20
94.937311283763265
0
LWPOLYLINE
5
152
100
AcDbEntity
8
0
100
AcDbPolyline
90
4
70
1
43
0.0
10
-140.17237878119153
20
123.98709488324326
10
-126.17248086452486
20
123.98709488324327
10
-126.17248086452486
20
109.98719696657659
10
-140.17237878119153
20
109.98719696657659
0
LWPOLYLINE
5
153
100
AcDbEntity
8
0
100
AcDbPolyline
90
4
70
1
43
0.0
10
-80.641608639256162
20
138.98699313758217
10
-66.641710722589508
20
138.98699313758217
10
-66.641710722589508
20
124.9870875915766
10
-80.641608639256162
20
124.9870875915766
0
LWPOLYLINE
5
154
100
AcDbEntity
8
0
100
AcDbPolyline
90
4
70
1
43
0.0
10
-217.09662255865737
20
120.26932566649121
10
-203.23292360003794
20
118.32083828740122
10
-205.18130416838332
20
104.45723851018748
10
-219.04500312700276
20
106.40562670787176
0
CIRCLE
5
155
100
AcDbEntity
8
0
100
AcDbCircle
10
-212.37185144395838
20
36.694732432291673
30
0
40
1.0999919791666812
210
0
220
0
230
1
0
LWPOLYLINE
5
156
100
AcDbEntity
8
0
100
AcDbPolyline
90
4
70
1
43
0.0
10
-83.022793974073736
20
62.787540370309365
10
-69.022896057407067
20
62.787540370309358
10
-69.022896057407067
20
48.787642453642697
10
-83.022793974073736
20
48.787642453642697
0
LWPOLYLINE
5
157
100
AcDbEntity
8
0
100
AcDbPolyline
90
7
70
1
43
0.0
10
-197.70626220896619
20
123.76058742102701
10
-197.85375139767331
20
123.78130109574796
42
-0.00190861098711347
10
-197.8575286798187
20
123.78184623567822
10
-198.34884971626599
20
123.85089592519603
10
-197.37465943209332
20
130.78275303384464
10
-183.51096047347392
20
128.83435720682147
10
-184.48515075764661
20
121.90250772751173
0
LWPOLYLINE
5
158
100
AcDbEntity
8
0
100
AcDbPolyline
90
4
70
1
43
0.0
10
-178.27210707216267
20
55.287595057809362
10
-164.272209155496
20
55.287595057809362
10
-164.27220915549597
20
41.287697141142694
10
-178.27210707216264
20
41.287697141142694
0
LWPOLYLINE
5
159
100
AcDbEntity
8
0
100
AcDbPolyline
90
4
70
1
43
0.0
10
-159.2222429266771
20
90.887337763277699
10
-145.22234501001043
20
90.887337763277699
10
-145.22234501001043
20
76.887439846611031
10
-159.2222429266771
20
76.887439846611031
0
LWPOLYLINE
5
160
100
AcDbEntity
8
0
100
AcDbPolyline
90
4
70
1
43
0.0
10
-155.22227209334378
20
25.737813196827961
10
-141.22237417667711
20
25.737813196827961
10
-141.22237417667708
20
11.737914326493932
10
-155.22227209334375
20
11.737914326493932
0
LWPOLYLINE
5
161
100
AcDbEntity
8
0
100
AcDbPolyline
90
4
70
1
43
0.0
10
-159.2222429266771
20
52.787613286976026
10
-145.22234501001043
20
52.787613286976026
10
-145.22234501001043
20
38.787715370309357
10
-159.2222429266771
20
38.787715370309357
0
LWPOLYLINE
5
162
100
AcDbEntity
8
0
100
AcDbPolyline
90
4
70
1
43
0.0
10
-178.27210707216267
20
93.387319534111043
10
-164.272209155496
20
93.387319534111043
10
-164.27220915549597
20
79.387421617444375
10
-178.27210707216264
20
79.387421617444375
0
LWPOLYLINE
5
163
100
AcDbEntity
8
0
100
AcDbPolyline
90
14
70
1
43
0.0
10
-193.56548310597742
20
154.29378154918356
10
-180.692087595288
20
152.48448382898968
42
-0.0018410473316111103
10
-180.68844333105235
20
152.48395764491937
10
-180.19698927669526
20
152.41488899954163
10
-181.17117956086798
20
145.48303952023193
10
-187.49106927130885
20
146.37128155784279
10
-194.53968864882791
20
147.36193206987383
42
-0.00098183180314910935
10
-194.54163261310606
20
147.36220940346038
10
-195.0347717087428
20
147.43152689932188
10
-194.69853606049028
20
149.82397427592844
10
-194.13019151269597
20
153.86817124929433
42
-0.0026998042478760011
10
-194.12941186851123
20
153.87351419574446
10
-194.0605814245701
20
154.36326956788702
10
-193.5749716090566
20
154.29502226817939
42
-0.0047847832419053386
0
LWPOLYLINE
5
164
100
AcDbEntity
8
0
100
AcDbPolyline
90
4
70
1
43
0.0
10
-155.53206902872722
20
147.68652992272379
10
-141.66846162217462
20
145.73804254363381
10
-143.61685744919779
20
131.87443513708115
10
-157.48055640781723
20
133.82283096410436
0
LWPOLYLINE
5
165
100
AcDbEntity
8
0
100
AcDbPolyline
90
14
70
1
43
0.0
10
-71.116684195852301
20
106.93722378376327
10
-79.522819494907068
20
106.93722378376327
10
-79.522819494907083
20
120.93712170042993
10
-67.760408314871796
20
120.93712170042993
10
-67.760408314871796
20
119.9371289920966
10
-55.710493127719559
20
119.9371289920966
10
-55.710493127719559
20
120.93712170042993
10
-43.948078133014846
20
120.93712170042993
10
-43.948078133014846
20
106.93722378376327
10
-50.448030737181746
20
106.93722378376327
42
-7.8880753487676418e-05
10
-50.448188465975051
20
106.93722377709574
10
-52.35431642814477
20
106.93722378376327
10
-52.35431642814477
20
105.93723107542993
10
-71.116684195852301
20
105.93723107542993
0
LWPOLYLINE
5
166
100
AcDbEntity
8
0
100
AcDbPolyline
90
6
70
1
43
0.0
10
-29.660683838570119
20
101.88725755494437
10
-29.660683838570119
20
87.887359638277701
10
-36.160636442736987
20
87.887359638277701
42
-7.8880753487676418e-05
10
-36.160794171530355
20
87.887359631610167
10
-36.660632796903471
20
87.887359638277701
10
-36.660632796903471
20
101.88725755494437
0
LWPOLYLINE
5
167
100
AcDbEntity
8
0
100
AcDbPolyline
90
4
70
1
43
0.0
10
-83.022793974073736
20
81.837400701125475
10
-49.973035726590957
20
81.837400701125475
10
-49.973035726590957
20
67.837502784458806
10
-83.022793974073736
20
67.837502784458806
0
LWPOLYLINE
5
168
100
AcDbEntity
8
0
100
AcDbPolyline
90
4
70
1
43
0.0
10
-60.472959164090966
20
87.887359638277701
10
-60.472959164090966
20
101.88725755494437
10
-53.473010205757618
20
101.88725755494437
10
-53.473010205757632
20
87.887359638277701
0
LWPOLYLINE
5
169
100
AcDbEntity
8
0
100
AcDbPolyline
90
39
70
1
43
0.0
10
-139.22248031207721
20
130.7690507411798
10
-136.51000619419418
20
150.06760081745784
42
0.41421672014076372
10
-138.32809291280111
20
152.23428728909494
10
-213.66354212296807
20
162.83230876617435
42
0.41502760775249409
10
-215.92731956144971
20
161.13012696413995
10
-223.87727379964193
20
104.5405356323004
42
0.034914987889913415
10
-223.89677438987098
20
104.26224023723603
10
-223.89677438987098
20
41.762695966402688
42
0.14990080057316166
10
-223.55287430960342
20
40.641404398894316
10
-214.98198856506664
20
27.989145796552251
10
-204.60361062685649
20
35.016044874227049
10
-199.69794571399692
20
27.770698230167223
10
-210.0745834196604
20
20.744881806016462
10
-201.50303203911784
20
8.0916405982434725
42
0.24885994359428035
10
-199.84694670271878
20
7.2129472259188701
10
-58.992970413517952
20
7.2129472259188709
42
0.41392093679274
10
-56.992984996851291
20
9.21093327895999
10
-56.992984996851284
20
42.264691207361224
42
-0.41392100653973424
10
-54.99299958018463
20
44.262677737236025
10
-9.3483319505492801
20
44.262677737236032
42
0.31385794983233767
10
-7.4725729259855846
20
45.568780241576867
42
0.088356217971176709
10
-7.349346454112232
20
46.260664267110833
10
-7.3503463743418429
20
46.260664267110833
10
-7.3483465338826193
20
65.310520783257488
42
0.090130449322486095
10
-7.476245248040061
20
66.014220486060793
10
-36.051037174765298
20
142.21566832545602
42
0.28863321218246962
10
-37.748824477593111
20
143.50435521777473
10
-85.547777088483187
20
147.65473083818756
42
0.41421356237309509
10
-87.547762505149848
20
145.65474542152089
10
-87.547762505149848
20
140.01197956015272
42
-0.41421356237308465
10
-89.547747921816523
20
138.01199414348605
10
-104.59763360462985
20
138.01199414348605
42
0.41421356237309509
10
-106.59761902129651
20
136.01200872681937
10
-106.59761902129651
20
134.51201966431938
42
-0.41421356237308465
10
-108.59760443796318
20
132.51203424765271
10
-123.64749775011541
20
132.51203424765271
42
0.41421356237309509
10
-125.64748316678208
20
130.51204883098603
42
-0.4142135623731002
10
-127.64746858344876
20
128.51206341431939
10
-136.96296393810667
20
128.51026373174324
42
-0.49868646368258673
0
LWPOLYLINE
5
170
100
AcDbEntity
8
0
100
AcDbPolyline
90
8
70
1
43
0.0
10
-12.992105162975193
20
54.559344244658746
42
3.0114381532848875
10
-12.992105162975198
20
57.01184220950794
10
-12.992105162975189
20
63.787533078642696
10
-13.491943569060014
20
63.787533085327439
42
7.8974619352830693e-05
10
-13.492101517141855
20
63.787533078642696
10
-19.992055074975887
20
63.787533078642696
10
-19.992055074975887
20
49.787635161976027
10
-12.992105162975189
20
49.787635161976027
0
ENDSEC
0
SECTION
2
OBJECTS
0
DICTIONARY
5
C
100
AcDbDictionary
3
ACAD_GROUP
350
D
3
ACAD_MLINESTYLE
350
17
0
DICTIONARY
5
D
100
AcDbDictionary
0
DICTIONARY
5
1A
330
C
100
AcDbDictionary
0
DICTIONARY
5
17
100
AcDbDictionary
0
ENDSEC
0
EOF
