<?xml version="1.0" standalone="no"?>
 <!DOCTYPE svg PUBLIC "-//W3C//DTD SVG 1.1//EN" 
 "http://www.w3.org/Graphics/SVG/1.1/DTD/svg11.dtd"> 
<svg
  xmlns:svg="http://www.w3.org/2000/svg"
  xmlns="http://www.w3.org/2000/svg"
  xmlns:xlink="http://www.w3.org/1999/xlink"
  version="1.1"
  width="228.2444mm" height="169.4180mm" viewBox="0.0000 0.0000 228.2444 169.4180">
<title>SVG Image created as ergodonk_simple_zero-brd.svg date 2024/01/13 11:34:37 </title>
  <desc>Image generated by PCBNEW </desc>
<g style="fill:#000000; fill-opacity:1.0000;stroke:#000000; stroke-opacity:1.0000;
stroke-linecap:round; stroke-linejoin:round;"
 transform="translate(0 0) scale(1 1)">
</g>
<g style="fill:#000000; fill-opacity:0.0; 
stroke:#000000; stroke-width:0.0000; stroke-opacity:1; 
stroke-linecap:round; stroke-linejoin:round;">
</g>
<g style="fill:#000000; fill-opacity:0.0; 
stroke:#000000; stroke-width:0.1500; stroke-opacity:1; 
stroke-linecap:round; stroke-linejoin:round;">
<path d="M138.3291 152.2354
L213.6651 162.8335
" />
<path d="M85.5484 147.6558 A2.0000 2.0000 0.0 0 0 87.5484 145.6558" />
<path d="M56.9934 9.2110
L56.9934 42.2650
" />
<path d="M136.5110 150.0687 A2.0000 2.0000 0.0 0 0 138.3291 152.2354" />
<path d="M213.6651 162.8335 A2.0000 2.0000 0.0 0 0 215.9289 161.1313" />
<path d="M137.5212 128.5111
L127.6484 128.5111
" />
<path d="M9.3484 44.2630
L54.9934 44.2630
" />
<path d="M136.5110 150.0687
L139.2234 130.7700
" />
<path d="M7.7449 45.0657 A2.0040 2.0040 0.0 0 0 7.3494 46.2610" />
<path d="M104.5984 138.0130
L89.5484 138.0130
" />
<path d="M9.3484 44.2630 A2.0000 2.0000 0.0 0 0 7.3484 46.2610" />
<path d="M223.8984 41.7630
L223.8984 104.2630
" />
<path d="M7.4763 66.0147
L36.0513 142.2167
" />
<path d="M223.8984 41.7630 A2.0000 2.0000 0.0 0 0 223.5545 40.6417" />
<path d="M123.6484 132.5130
L108.5984 132.5130
" />
<path d="M215.9289 161.1313
L223.8789 104.5413
" />
<path d="M89.5484 138.0130 A2.0000 2.0000 0.0 0 0 87.5484 140.0130" />
<path d="M54.9934 44.2630 A2.0000 2.0000 0.0 0 0 56.9934 42.2650" />
<path d="M123.6484 132.5130 A2.0000 2.0000 0.0 0 0 125.6484 130.5130" />
<path d="M36.0513 142.2167 A2.0000 2.0000 0.0 0 0 37.7491 143.5054" />
<path d="M223.8789 104.5413 A2.0000 2.0000 0.0 0 0 223.8984 104.2630" />
</g>
<g style="fill:#000000; fill-opacity:0.0; 
stroke:#000000; stroke-width:0.1000; stroke-opacity:1; 
stroke-linecap:round; stroke-linejoin:round;">
<path d="M201.5045 8.0917
L223.5545 40.6417
" />
</g>
<g style="fill:#000000; fill-opacity:0.0; 
stroke:#000000; stroke-width:0.1500; stroke-opacity:1; 
stroke-linecap:round; stroke-linejoin:round;">
<path d="M37.7491 143.5054
L85.5484 147.6558
" />
<path d="M58.9934 7.2130 A2.0000 2.0000 0.0 0 0 56.9934 9.2110" />
<path d="M127.6484 128.5130 A2.0000 2.0000 0.0 0 0 125.6484 130.5130" />
<path d="M106.5984 136.0130
L106.5984 134.5130
" />
<path d="M104.5984 138.0130 A2.0000 2.0000 0.0 0 0 106.5984 136.0130" />
<path d="M139.2235 130.7700 A2.0000 2.0000 0.0 0 0 137.5212 128.5111" />
<path d="M87.5484 145.6558
L87.5484 140.0130
" />
<path d="M108.5984 132.5130 A2.0000 2.0000 0.0 0 0 106.5984 134.5130" />
<path d="M7.3484 65.3110 A2.0000 2.0000 0.0 0 0 7.4763 66.0147" />
<path d="M58.9934 7.2130
L199.8484 7.2130
" />
<path d="M201.5045 8.0917 A2.0000 2.0000 0.0 0 0 199.8484 7.2130" />
<path d="M7.3484 65.3110
L7.3504 46.2610
" />
</g>
<g style="fill:#000000; fill-opacity:0.0; 
stroke:#000000; stroke-width:0.1000; stroke-opacity:1; 
stroke-linecap:round; stroke-linejoin:round;">
<circle cx="26.5634" cy="95.7700" r="2.0500" /> 
<circle cx="82.2034" cy="37.2627" r="2.0500" /> 
<circle cx="11.3494" cy="55.7860" r="2.0500" /> 
</g>
<g style="fill:#000000; fill-opacity:0.0; 
stroke:#000000; stroke-width:0.1200; stroke-opacity:1; 
stroke-linecap:round; stroke-linejoin:round;">
<path d="M183.3234 79.3880
L197.3234 79.3880
" />
<path d="M197.3234 79.3880
L197.3234 93.3880
" />
<path d="M197.3234 93.3880
L183.3234 93.3880
" />
<path d="M183.3234 93.3880
L183.3234 79.3880
" />
<path d="M107.1234 113.9880
L121.1234 113.9880
" />
<path d="M121.1234 113.9880
L121.1234 127.9880
" />
<path d="M121.1234 127.9880
L107.1234 127.9880
" />
<path d="M107.1234 127.9880
L107.1234 113.9880
" />
</g>
<g style="fill:#000000; fill-opacity:0.0; 
stroke:#000000; stroke-width:0.1000; stroke-opacity:1; 
stroke-linecap:round; stroke-linejoin:round;">
<circle cx="134.2234" cy="147.2200" r="1.1000" /> 
<circle cx="90.1734" cy="140.6200" r="1.1000" /> 
<circle cx="198.8334" cy="139.4580" r="1.1000" /> 
</g>
<g style="fill:#000000; fill-opacity:0.0; 
stroke:#000000; stroke-width:0.1200; stroke-opacity:1; 
stroke-linecap:round; stroke-linejoin:round;">
<path d="M88.0734 43.2880
L102.0734 43.2880
" />
<path d="M102.0734 43.2880
L102.0734 57.2880
" />
<path d="M102.0734 57.2880
L88.0734 57.2880
" />
<path d="M88.0734 57.2880
L88.0734 43.2880
" />
<path d="M84.0734 11.7380
L98.0734 11.7380
" />
<path d="M98.0734 11.7380
L98.0734 25.7380
" />
<path d="M98.0734 25.7380
L84.0734 25.7380
" />
<path d="M84.0734 25.7380
L84.0734 11.7380
" />
</g>
<g style="fill:#000000; fill-opacity:0.0; 
stroke:#000000; stroke-width:0.1000; stroke-opacity:1; 
stroke-linecap:round; stroke-linejoin:round;">
<circle cx="161.7334" cy="111.9630" r="1.1000" /> 
</g>
<g style="fill:#000000; fill-opacity:0.0; 
stroke:#000000; stroke-width:0.0500; stroke-opacity:1; 
stroke-linecap:round; stroke-linejoin:round;">
<path d="M48.7109 107.4380
L48.7109 120.4380
" />
<path d="M49.2109 106.9380
L55.2109 106.9380
" />
<path d="M49.2109 120.9380
L55.2109 120.9380
" />
<path d="M55.7109 107.4380
L55.7109 120.4380
" />
<path d="M72.5234 107.4380
L72.5234 120.4380
" />
<path d="M73.0234 106.9380
L79.0222 106.9380
" />
<path d="M73.0234 120.9380
L79.0234 120.9380
" />
<path d="M79.5222 107.4380
L79.5234 120.4380
" />
<path d="M48.7109 106.9380
L55.7109 106.9380
" />
<path d="M55.7109 106.9380
L55.7109 120.9380
" />
<path d="M55.7109 120.9380
L48.7109 120.9380
" />
<path d="M48.7109 120.9380
L48.7109 106.9380
" />
<path d="M72.5234 106.9380
L79.5234 106.9380
" />
<path d="M79.5234 106.9380
L79.5234 120.9380
" />
<path d="M79.5234 120.9380
L72.5234 120.9380
" />
<path d="M72.5234 120.9380
L72.5234 106.9380
" />
<path d="M49.2109 106.9380 A0.5000 0.5000 0.0 0 0 48.7109 107.4380" />
<path d="M48.7109 120.4380 A0.5000 0.5000 0.0 0 0 49.2109 120.9380" />
<path d="M55.7109 107.4380 A0.5000 0.5000 0.0 0 0 55.2109 106.9380" />
<path d="M55.2109 120.9380 A0.5000 0.5000 0.0 0 0 55.7109 120.4380" />
<path d="M73.0234 106.9380 A0.5000 0.5000 0.0 0 0 72.5234 107.4380" />
<path d="M72.5234 120.4380 A0.5001 0.5001 0.0 0 0 73.0234 120.9380" />
<path d="M79.5223 107.4380 A0.5001 0.5001 0.0 0 0 79.0222 106.9380" />
<path d="M79.0234 120.9379 A0.4999 0.4999 0.0 0 0 79.5234 120.4380" />
</g>
<g style="fill:#000000; fill-opacity:0.0; 
stroke:#000000; stroke-width:0.1200; stroke-opacity:1; 
stroke-linecap:round; stroke-linejoin:round;">
<path d="M126.1734 33.7880
L140.1734 33.7880
" />
<path d="M140.1734 33.7880
L140.1734 47.7880
" />
<path d="M140.1734 47.7880
L126.1734 47.7880
" />
<path d="M126.1734 47.7880
L126.1734 33.7880
" />
<path d="M145.2234 95.9380
L159.2234 95.9380
" />
<path d="M159.2234 95.9380
L159.2234 109.9380
" />
<path d="M159.2234 109.9380
L145.2234 109.9380
" />
<path d="M145.2234 109.9380
L145.2234 95.9380
" />
<path d="M199.8803 142.1872
L213.7441 144.1356
" />
<path d="M213.7441 144.1356
L211.7957 157.9994
" />
<path d="M211.7957 157.9994
L197.9319 156.0510
" />
<path d="M197.9319 156.0510
L199.8803 142.1872
" />
<path d="M164.2734 60.3380
L178.2734 60.3380
" />
<path d="M178.2734 60.3380
L178.2734 74.3380
" />
<path d="M178.2734 74.3380
L164.2734 74.3380
" />
<path d="M164.2734 74.3380
L164.2734 60.3380
" />
<path d="M122.1734 11.7380
L136.1734 11.7380
" />
<path d="M136.1734 11.7380
L136.1734 25.7380
" />
<path d="M136.1734 25.7380
L122.1734 25.7380
" />
<path d="M122.1734 25.7380
L122.1734 11.7380
" />
<path d="M61.0234 11.7380
L75.0234 11.7380
" />
<path d="M75.0234 11.7380
L75.0234 25.7380
" />
<path d="M75.0234 25.7380
L61.0234 25.7380
" />
<path d="M61.0234 25.7380
L61.0234 11.7380
" />
<path d="M163.5392 127.3988
L177.4029 129.3472
" />
<path d="M177.4029 129.3472
L175.4545 143.2110
" />
<path d="M175.4545 143.2110
L161.5907 141.2625
" />
<path d="M161.5907 141.2625
L163.5392 127.3988
" />
<path d="M126.1734 90.9380
L140.1734 90.9380
" />
<path d="M140.1734 90.9380
L140.1734 104.9380
" />
<path d="M140.1734 104.9380
L126.1734 104.9380
" />
<path d="M126.1734 104.9380
L126.1734 90.9380
" />
<path d="M88.0734 62.3380
L102.0734 62.3380
" />
<path d="M102.0734 62.3380
L102.0734 76.3380
" />
<path d="M102.0734 76.3380
L88.0734 76.3380
" />
<path d="M88.0734 76.3380
L88.0734 62.3380
" />
<path d="M88.0734 119.4880
L102.0734 119.4880
" />
<path d="M102.0734 119.4880
L102.0734 133.4880
" />
<path d="M102.0734 133.4880
L88.0734 133.4880
" />
<path d="M88.0734 133.4880
L88.0734 119.4880
" />
<path d="M88.0734 100.4380
L102.0734 100.4380
" />
<path d="M102.0734 100.4380
L102.0734 114.4380
" />
<path d="M102.0734 114.4380
L88.0734 114.4380
" />
<path d="M88.0734 114.4380
L88.0734 100.4380
" />
<path d="M78.2609 81.8380
L64.2609 81.8380
" />
<path d="M64.2609 81.8380
L64.2609 67.8380
" />
<path d="M64.2609 67.8380
L78.2609 67.8380
" />
<path d="M78.2609 67.8380
L78.2609 81.8380
" />
<path d="M83.0234 81.8380
L69.0234 81.8380
" />
<path d="M69.0234 81.8380
L69.0234 67.8380
" />
<path d="M69.0234 67.8380
L83.0234 67.8380
" />
<path d="M83.0234 67.8380
L83.0234 81.8380
" />
<path d="M103.1234 11.7380
L117.1234 11.7380
" />
<path d="M117.1234 11.7380
L117.1234 25.7380
" />
<path d="M117.1234 25.7380
L103.1234 25.7380
" />
<path d="M103.1234 25.7380
L103.1234 11.7380
" />
</g>
<g style="fill:#000000; fill-opacity:0.0; 
stroke:#000000; stroke-width:0.1000; stroke-opacity:1; 
stroke-linecap:round; stroke-linejoin:round;">
<circle cx="219.3984" cy="101.3950" r="1.1000" /> 
</g>
<g style="fill:#000000; fill-opacity:0.0; 
stroke:#000000; stroke-width:0.1200; stroke-opacity:1; 
stroke-linecap:round; stroke-linejoin:round;">
<path d="M35.3984 62.7880
L21.3984 62.7880
" />
<path d="M21.3984 62.7880
L21.3984 48.7880
" />
<path d="M21.3984 48.7880
L35.3984 48.7880
" />
<path d="M35.3984 48.7880
L35.3984 62.7880
" />
<path d="M205.3734 63.3380
L219.3734 63.3380
" />
<path d="M219.3734 63.3380
L219.3734 77.3380
" />
<path d="M219.3734 77.3380
L205.3734 77.3380
" />
<path d="M205.3734 77.3380
L205.3734 63.3380
" />
<path d="M107.1234 75.8880
L121.1234 75.8880
" />
<path d="M121.1234 75.8880
L121.1234 89.8880
" />
<path d="M121.1234 89.8880
L107.1234 89.8880
" />
<path d="M107.1234 89.8880
L107.1234 75.8880
" />
<path d="M40.1609 81.8380
L26.1609 81.8380
" />
<path d="M26.1609 81.8380
L26.1609 67.8380
" />
<path d="M26.1609 67.8380
L40.1609 67.8380
" />
<path d="M40.1609 67.8380
L40.1609 81.8380
" />
<path d="M40.1609 81.8380
L26.1609 81.8380
" />
<path d="M26.1609 81.8380
L26.1609 67.8380
" />
<path d="M26.1609 67.8380
L40.1609 67.8380
" />
<path d="M40.1609 67.8380
L40.1609 81.8380
" />
<path d="M107.1234 37.7880
L121.1234 37.7880
" />
<path d="M121.1234 37.7880
L121.1234 51.7880
" />
<path d="M121.1234 51.7880
L107.1234 51.7880
" />
<path d="M107.1234 51.7880
L107.1234 37.7880
" />
<path d="M183.3234 60.3380
L197.3234 60.3380
" />
<path d="M197.3234 60.3380
L197.3234 74.3380
" />
<path d="M197.3234 74.3380
L183.3234 74.3380
" />
<path d="M183.3234 74.3380
L183.3234 60.3380
" />
</g>
<g style="fill:#000000; fill-opacity:0.0; 
stroke:#000000; stroke-width:0.1000; stroke-opacity:1; 
stroke-linecap:round; stroke-linejoin:round;">
<circle cx="82.2034" cy="111.9630" r="1.1000" /> 
</g>
<g style="fill:#000000; fill-opacity:0.0; 
stroke:#000000; stroke-width:0.1200; stroke-opacity:1; 
stroke-linecap:round; stroke-linejoin:round;">
<path d="M210.4640 20.4824
L215.3697 27.7279
" />
<path d="M215.3697 27.7279
L204.6051 35.0163
" />
<path d="M204.6051 35.0163
L199.6994 27.7709
" />
<path d="M199.6994 27.7709
L210.4640 20.4824
" />
<path d="M69.0234 48.7880
L83.0234 48.7880
" />
<path d="M83.0234 48.7880
L83.0234 62.7880
" />
<path d="M83.0234 62.7880
L69.0234 62.7880
" />
<path d="M69.0234 62.7880
L69.0234 48.7880
" />
</g>
<g style="fill:#000000; fill-opacity:0.0; 
stroke:#000000; stroke-width:0.1000; stroke-opacity:1; 
stroke-linecap:round; stroke-linejoin:round;">
<circle cx="212.3734" cy="36.6950" r="1.1000" /> 
</g>
<g style="fill:#000000; fill-opacity:0.0; 
stroke:#000000; stroke-width:0.1200; stroke-opacity:1; 
stroke-linecap:round; stroke-linejoin:round;">
<path d="M205.1828 104.4580
L219.0466 106.4064
" />
<path d="M219.0466 106.4064
L217.0982 120.2702
" />
<path d="M217.0982 120.2702
L203.2344 118.3217
" />
<path d="M203.2344 118.3217
L205.1828 104.4580
" />
<path d="M66.6422 124.9880
L80.6422 124.9880
" />
<path d="M80.6422 124.9880
L80.6422 138.9880
" />
<path d="M80.6422 138.9880
L66.6422 138.9880
" />
<path d="M66.6422 138.9880
L66.6422 124.9880
" />
</g>
<g style="fill:#000000; fill-opacity:0.0; 
stroke:#000000; stroke-width:0.1000; stroke-opacity:1; 
stroke-linecap:round; stroke-linejoin:round;">
<circle cx="161.7334" cy="37.2627" r="1.1000" /> 
</g>
<g style="fill:#000000; fill-opacity:0.0; 
stroke:#000000; stroke-width:0.1200; stroke-opacity:1; 
stroke-linecap:round; stroke-linejoin:round;">
<path d="M75.8797 100.8730
L61.8797 100.8730
" />
<path d="M61.8797 100.8730
L61.8797 86.8730
" />
<path d="M61.8797 86.8730
L75.8797 86.8730
" />
<path d="M75.8797 86.8730
L75.8797 100.8730
" />
<path d="M83.0234 100.8730
L69.0234 100.8730
" />
<path d="M69.0234 100.8730
L69.0234 86.8730
" />
<path d="M69.0234 86.8730
L83.0234 86.8730
" />
<path d="M83.0234 86.8730
L83.0234 100.8730
" />
<path d="M126.1734 52.8380
L140.1734 52.8380
" />
<path d="M140.1734 52.8380
L140.1734 66.8380
" />
<path d="M140.1734 66.8380
L126.1734 66.8380
" />
<path d="M126.1734 66.8380
L126.1734 52.8380
" />
<path d="M183.3234 11.7380
L197.3234 11.7380
" />
<path d="M197.3234 11.7380
L197.3234 25.7380
" />
<path d="M197.3234 25.7380
L183.3234 25.7380
" />
<path d="M183.3234 25.7380
L183.3234 11.7380
" />
<path d="M164.2734 11.7380
L178.2734 11.7380
" />
<path d="M178.2734 11.7380
L178.2734 25.7380
" />
<path d="M178.2734 25.7380
L164.2734 25.7380
" />
<path d="M164.2734 25.7380
L164.2734 11.7380
" />
</g>
<g style="fill:#000000; fill-opacity:0.0; 
stroke:#000000; stroke-width:0.0500; stroke-opacity:1; 
stroke-linecap:round; stroke-linejoin:round;">
<path d="M177.0107 120.8536
L164.1372 119.0443
" />
<path d="M177.4362 121.4183
L176.6012 127.3599
" />
<path d="M163.5725 119.4699
L162.7374 125.4115
" />
<path d="M176.0364 127.7854
L163.1630 125.9762
" />
<path d="M173.6966 144.4343
L160.8231 142.6251
" />
<path d="M174.1221 144.9990
L173.2873 150.9395
" />
<path d="M160.2584 143.0506
L159.4234 148.9922
" />
<path d="M172.7226 151.3650
L159.8489 149.5570
" />
<path d="M177.5058 120.9232
L176.5316 127.8550
" />
<path d="M176.5316 127.8550
L162.6678 125.9066
" />
<path d="M162.6678 125.9066
L163.6420 118.9747
" />
<path d="M163.6420 118.9747
L177.5058 120.9232
" />
<path d="M174.1917 144.5039
L173.2175 151.4358
" />
<path d="M173.2175 151.4358
L159.3538 149.4874
" />
<path d="M159.3538 149.4874
L160.3280 142.5555
" />
<path d="M160.3280 142.5555
L174.1917 144.5039
" />
<path d="M177.4362 121.4183 A0.5000 0.5000 0.0 0 0 177.0107 120.8536" />
<path d="M164.1372 119.0443 A0.5000 0.5000 0.0 0 0 163.5725 119.4699" />
<path d="M176.0364 127.7854 A0.5000 0.5000 0.0 0 0 176.6012 127.3599" />
<path d="M162.7374 125.4115 A0.5000 0.5000 0.0 0 0 163.1630 125.9762" />
<path d="M174.1221 144.9990 A0.5000 0.5000 0.0 0 0 173.6966 144.4343" />
<path d="M160.8231 142.6250 A0.5001 0.5001 0.0 0 0 160.2584 143.0506" />
<path d="M172.7225 151.3651 A0.5001 0.5001 0.0 0 0 173.2873 150.9395" />
<path d="M159.4234 148.9922 A0.4999 0.4999 0.0 0 0 159.8489 149.5570" />
</g>
<g style="fill:#000000; fill-opacity:0.0; 
stroke:#000000; stroke-width:0.1200; stroke-opacity:1; 
stroke-linecap:round; stroke-linejoin:round;">
<path d="M205.3734 82.3880
L219.3734 82.3880
" />
<path d="M219.3734 82.3880
L219.3734 96.3880
" />
<path d="M219.3734 96.3880
L205.3734 96.3880
" />
<path d="M205.3734 96.3880
L205.3734 82.3880
" />
<path d="M164.2734 98.4380
L178.2734 98.4380
" />
<path d="M178.2734 98.4380
L178.2734 112.4380
" />
<path d="M178.2734 112.4380
L164.2734 112.4380
" />
<path d="M164.2734 112.4380
L164.2734 98.4380
" />
</g>
<g style="fill:#000000; fill-opacity:0.0; 
stroke:#000000; stroke-width:0.1000; stroke-opacity:1; 
stroke-linecap:round; stroke-linejoin:round;">
<circle cx="31.1034" cy="20.0300" r="1.1000" /> 
</g>
<g style="fill:#000000; fill-opacity:0.0; 
stroke:#000000; stroke-width:0.1200; stroke-opacity:1; 
stroke-linecap:round; stroke-linejoin:round;">
<path d="M126.1734 71.8880
L140.1734 71.8880
" />
<path d="M140.1734 71.8880
L140.1734 85.8880
" />
<path d="M140.1734 85.8880
L126.1734 85.8880
" />
<path d="M126.1734 85.8880
L126.1734 71.8880
" />
<path d="M205.3734 44.2880
L219.3734 44.2880
" />
<path d="M219.3734 44.2880
L219.3734 58.2880
" />
<path d="M219.3734 58.2880
L205.3734 58.2880
" />
<path d="M205.3734 58.2880
L205.3734 44.2880
" />
<path d="M42.8297 124.9880
L56.8297 124.9880
" />
<path d="M56.8297 124.9880
L56.8297 138.9880
" />
<path d="M56.8297 138.9880
L42.8297 138.9880
" />
<path d="M42.8297 138.9880
L42.8297 124.9880
" />
<path d="M141.2234 11.7380
L155.2234 11.7380
" />
<path d="M155.2234 11.7380
L155.2234 25.7380
" />
<path d="M155.2234 25.7380
L141.2234 25.7380
" />
<path d="M141.2234 25.7380
L141.2234 11.7380
" />
<path d="M49.9734 48.7880
L63.9734 48.7880
" />
<path d="M63.9734 48.7880
L63.9734 62.7880
" />
<path d="M63.9734 62.7880
L49.9734 62.7880
" />
<path d="M49.9734 62.7880
L49.9734 48.7880
" />
<path d="M88.0734 81.3880
L102.0734 81.3880
" />
<path d="M102.0734 81.3880
L102.0734 95.3880
" />
<path d="M102.0734 95.3880
L88.0734 95.3880
" />
<path d="M88.0734 95.3880
L88.0734 81.3880
" />
<path d="M202.5316 123.3226
L216.3953 125.2710
" />
<path d="M216.3953 125.2710
L214.4469 139.1348
" />
<path d="M214.4469 139.1348
L200.5831 137.1863
" />
<path d="M200.5831 137.1863
L202.5316 123.3226
" />
<path d="M107.1234 56.8380
L121.1234 56.8380
" />
<path d="M121.1234 56.8380
L121.1234 70.8380
" />
<path d="M121.1234 70.8380
L107.1234 70.8380
" />
<path d="M107.1234 70.8380
L107.1234 56.8380
" />
<path d="M164.2734 79.3880
L178.2734 79.3880
" />
<path d="M178.2734 79.3880
L178.2734 93.3880
" />
<path d="M178.2734 93.3880
L164.2734 93.3880
" />
<path d="M164.2734 93.3880
L164.2734 79.3880
" />
<path d="M52.0672 100.8880
L38.0672 100.8880
" />
<path d="M38.0672 100.8880
L38.0672 86.8880
" />
<path d="M38.0672 86.8880
L52.0672 86.8880
" />
<path d="M52.0672 86.8880
L52.0672 100.8880
" />
<path d="M91.5563 142.6053
L91.9738 145.5761
" />
<path d="M91.9738 145.5761
L103.1886 143.9999
" />
<path d="M102.4962 139.0734
L102.7711 141.0291
" />
<path d="M102.7711 141.0291
L91.5563 142.6053
" />
<path d="M103.1886 143.9999
L103.4704 146.0052
" />
<path d="M103.4704 146.0052
L112.3828 144.7527
" />
<path d="M111.1303 135.8403
L130.9356 133.0568
" />
<path d="M111.4086 137.8208
L102.4962 139.0734
" />
<path d="M111.4086 137.8208
L111.1303 135.8403
" />
<path d="M112.6612 146.7332
L112.3828 144.7527
" />
<path d="M130.9356 133.0568
L131.4923 137.0179
" />
<path d="M131.4923 137.0179
L136.9388 136.2524
" />
<path d="M131.9099 139.9887
L132.4665 143.9497
" />
<path d="M131.9099 139.9887
L137.3563 139.2232
" />
<path d="M132.4665 143.9497
L112.6612 146.7332
" />
<path d="M136.9388 136.2524
L137.3563 139.2232
" />
<path d="M183.3234 41.2880
L197.3234 41.2880
" />
<path d="M197.3234 41.2880
L197.3234 55.2880
" />
<path d="M197.3234 55.2880
L183.3234 55.2880
" />
<path d="M183.3234 55.2880
L183.3234 41.2880
" />
<path d="M126.1734 109.9880
L140.1734 109.9880
" />
<path d="M140.1734 109.9880
L140.1734 123.9880
" />
<path d="M140.1734 123.9880
L126.1734 123.9880
" />
<path d="M126.1734 123.9880
L126.1734 109.9880
" />
</g>
<g style="fill:#000000; fill-opacity:0.0; 
stroke:#000000; stroke-width:0.1000; stroke-opacity:1; 
stroke-linecap:round; stroke-linejoin:round;">
<circle cx="136.4734" cy="131.1700" r="1.1000" /> 
</g>
<g style="fill:#000000; fill-opacity:0.0; 
stroke:#000000; stroke-width:0.1200; stroke-opacity:1; 
stroke-linecap:round; stroke-linejoin:round;">
<path d="M143.6179 131.8754
L157.4817 133.8238
" />
<path d="M157.4817 133.8238
L155.5332 147.6876
" />
<path d="M155.5332 147.6876
L141.6695 145.7391
" />
<path d="M141.6695 145.7391
L143.6179 131.8754
" />
</g>
<g style="fill:#000000; fill-opacity:0.0; 
stroke:#000000; stroke-width:0.0500; stroke-opacity:1; 
stroke-linecap:round; stroke-linejoin:round;">
<path d="M180.6934 152.4856
L193.5669 154.2949
" />
<path d="M180.2679 151.9209
L181.1029 145.9793
" />
<path d="M194.1316 153.8693
L194.9666 147.9277
" />
<path d="M181.6676 145.5537
L194.5411 147.3630
" />
<path d="M184.0075 128.9048
L196.8809 130.7141
" />
<path d="M183.5819 128.3401
L184.4168 122.3997
" />
<path d="M197.4457 130.2885
L198.2807 124.3469
" />
<path d="M184.9815 121.9742
L197.8552 123.7822
" />
<path d="M180.1983 152.4160
L181.1725 145.4841
" />
<path d="M181.1725 145.4841
L195.0362 147.4326
" />
<path d="M195.0362 147.4326
L194.0620 154.3644
" />
<path d="M194.0620 154.3644
L180.1983 152.4160
" />
<path d="M183.5123 128.8353
L184.4865 121.9034
" />
<path d="M184.4865 121.9034
L198.3503 123.8518
" />
<path d="M198.3503 123.8518
L197.3761 130.7837
" />
<path d="M197.3761 130.7837
L183.5123 128.8353
" />
<path d="M180.2679 151.9209 A0.5000 0.5000 0.0 0 0 180.6934 152.4856" />
<path d="M193.5669 154.2949 A0.5000 0.5000 0.0 0 0 194.1316 153.8693" />
<path d="M181.6676 145.5537 A0.5000 0.5000 0.0 0 0 181.1029 145.9793" />
<path d="M194.9666 147.9277 A0.5000 0.5000 0.0 0 0 194.5411 147.3630" />
<path d="M183.5819 128.3401 A0.5000 0.5000 0.0 0 0 184.0075 128.9048" />
<path d="M196.8809 130.7141 A0.5001 0.5001 0.0 0 0 197.4457 130.2885" />
<path d="M184.9815 121.9741 A0.5001 0.5001 0.0 0 0 184.4168 122.3997" />
<path d="M198.2807 124.3469 A0.4999 0.4999 0.0 0 0 197.8552 123.7822" />
</g>
<g style="fill:#000000; fill-opacity:0.0; 
stroke:#000000; stroke-width:0.1200; stroke-opacity:1; 
stroke-linecap:round; stroke-linejoin:round;">
<path d="M49.9734 67.8380
L63.9734 67.8380
" />
<path d="M63.9734 67.8380
L63.9734 81.8380
" />
<path d="M63.9734 81.8380
L49.9734 81.8380
" />
<path d="M49.9734 81.8380
L49.9734 67.8380
" />
</g>
<g style="fill:#000000; fill-opacity:0.0; 
stroke:#000000; stroke-width:0.1000; stroke-opacity:1; 
stroke-linecap:round; stroke-linejoin:round;">
<circle cx="61.7359" cy="139.4130" r="1.1000" /> 
</g>
<g style="fill:#000000; fill-opacity:0.0; 
stroke:#000000; stroke-width:0.1200; stroke-opacity:1; 
stroke-linecap:round; stroke-linejoin:round;">
<path d="M107.1234 94.9380
L121.1234 94.9380
" />
<path d="M121.1234 94.9380
L121.1234 108.9380
" />
<path d="M121.1234 108.9380
L107.1234 108.9380
" />
<path d="M107.1234 108.9380
L107.1234 94.9380
" />
<path d="M182.3165 130.1491
L196.1803 132.0975
" />
<path d="M196.1803 132.0975
L194.2318 145.9612
" />
<path d="M194.2318 145.9612
L180.3681 144.0128
" />
<path d="M180.3681 144.0128
L182.3165 130.1491
" />
<path d="M145.2234 57.8380
L159.2234 57.8380
" />
<path d="M159.2234 57.8380
L159.2234 71.8380
" />
<path d="M159.2234 71.8380
L145.2234 71.8380
" />
<path d="M145.2234 71.8380
L145.2234 57.8380
" />
<path d="M145.2234 38.7880
L159.2234 38.7880
" />
<path d="M159.2234 38.7880
L159.2234 52.7880
" />
<path d="M159.2234 52.7880
L145.2234 52.7880
" />
<path d="M145.2234 52.7880
L145.2234 38.7880
" />
<path d="M145.2234 76.8880
L159.2234 76.8880
" />
<path d="M159.2234 76.8880
L159.2234 90.8880
" />
<path d="M159.2234 90.8880
L145.2234 90.8880
" />
<path d="M145.2234 90.8880
L145.2234 76.8880
" />
<path d="M164.2734 41.2880
L178.2734 41.2880
" />
<path d="M178.2734 41.2880
L178.2734 55.2880
" />
<path d="M178.2734 55.2880
L164.2734 55.2880
" />
<path d="M164.2734 55.2880
L164.2734 41.2880
" />
<path d="M66.3547 119.9380
L52.3547 119.9380
" />
<path d="M52.3547 119.9380
L52.3547 105.9380
" />
<path d="M52.3547 105.9380
L66.3547 105.9380
" />
<path d="M66.3547 105.9380
L66.3547 119.9380
" />
<path d="M71.1172 119.9380
L57.1172 119.9380
" />
<path d="M57.1172 119.9380
L57.1172 105.9380
" />
<path d="M57.1172 105.9380
L71.1172 105.9380
" />
<path d="M71.1172 105.9380
L71.1172 119.9380
" />
</g>
<g style="fill:#000000; fill-opacity:0.0; 
stroke:#000000; stroke-width:0.0500; stroke-opacity:1; 
stroke-linecap:round; stroke-linejoin:round;">
<path d="M74.7609 107.4380
L74.7609 120.4380
" />
<path d="M74.2609 120.9380
L68.2609 120.9380
" />
<path d="M74.2609 106.9380
L68.2609 106.9380
" />
<path d="M67.7609 107.4380
L67.7609 120.4380
" />
<path d="M50.9484 107.4380
L50.9484 120.4380
" />
<path d="M50.4484 120.9380
L44.4484 120.9380
" />
<path d="M50.4484 106.9380
L44.4496 106.9380
" />
<path d="M43.9496 107.4380
L43.9484 120.4380
" />
<path d="M74.7609 106.9380
L67.7609 106.9380
" />
<path d="M67.7609 106.9380
L67.7609 120.9380
" />
<path d="M67.7609 120.9380
L74.7609 120.9380
" />
<path d="M74.7609 120.9380
L74.7609 106.9380
" />
<path d="M50.9484 106.9380
L43.9484 106.9380
" />
<path d="M43.9484 106.9380
L43.9484 120.9380
" />
<path d="M43.9484 120.9380
L50.9484 120.9380
" />
<path d="M50.9484 120.9380
L50.9484 106.9380
" />
<path d="M74.2609 120.9380 A0.5000 0.5000 0.0 0 0 74.7609 120.4380" />
<path d="M74.7609 107.4380 A0.5000 0.5000 0.0 0 0 74.2609 106.9380" />
<path d="M67.7609 120.4380 A0.5000 0.5000 0.0 0 0 68.2609 120.9380" />
<path d="M68.2609 106.9380 A0.5000 0.5000 0.0 0 0 67.7609 107.4380" />
<path d="M50.4484 120.9380 A0.5001 0.5001 0.0 0 0 50.9484 120.4380" />
<path d="M50.9484 107.4380 A0.4999 0.4999 0.0 0 0 50.4484 106.9380" />
<path d="M43.9484 120.4380 A0.5000 0.5000 0.0 0 0 44.4484 120.9380" />
<path d="M44.4496 106.9380 A0.5001 0.5001 0.0 0 0 43.9496 107.4380" />
</g>
<g style="fill:#000000; fill-opacity:0.0; 
stroke:#000000; stroke-width:0.1200; stroke-opacity:1; 
stroke-linecap:round; stroke-linejoin:round;">
<path d="M183.8234 97.4380
L196.8234 97.4380
" />
<path d="M196.8234 97.4380
L196.8234 113.0380
" />
<path d="M196.8234 113.0380
L183.8234 113.0380
" />
<path d="M183.8234 113.0380
L183.8234 97.4380
" />
</g>
<g style="fill:#000000; fill-opacity:0.0; 
stroke:#000000; stroke-width:0.0500; stroke-opacity:1; 
stroke-linecap:round; stroke-linejoin:round;">
<path d="M43.8047 50.2880
L43.8047 63.2880
" />
<path d="M43.3047 63.7880
L37.3047 63.7880
" />
<path d="M43.3047 49.7880
L37.3047 49.7880
" />
<path d="M36.8047 50.2880
L36.8047 63.2880
" />
<path d="M19.9922 50.2880
L19.9922 63.2880
" />
<path d="M19.4922 63.7880
L13.4922 63.7880
" />
<path d="M19.4922 49.7880
L13.4934 49.7880
" />
<path d="M12.9934 50.2880
L12.9922 63.2880
" />
<path d="M43.8047 49.7880
L36.8047 49.7880
" />
<path d="M36.8047 49.7880
L36.8047 63.7880
" />
<path d="M36.8047 63.7880
L43.8047 63.7880
" />
<path d="M43.8047 63.7880
L43.8047 49.7880
" />
<path d="M19.9922 49.7880
L12.9922 49.7880
" />
<path d="M12.9922 49.7880
L12.9922 63.7880
" />
<path d="M12.9922 63.7880
L19.9922 63.7880
" />
<path d="M19.9922 63.7880
L19.9922 49.7880
" />
<path d="M43.3047 63.7880 A0.5000 0.5000 0.0 0 0 43.8047 63.2880" />
<path d="M43.8047 50.2880 A0.5000 0.5000 0.0 0 0 43.3047 49.7880" />
<path d="M36.8047 63.2880 A0.5000 0.5000 0.0 0 0 37.3047 63.7880" />
<path d="M37.3047 49.7880 A0.5000 0.5000 0.0 0 0 36.8047 50.2880" />
<path d="M19.4922 63.7880 A0.5001 0.5001 0.0 0 0 19.9922 63.2880" />
<path d="M19.9921 50.2880 A0.4999 0.4999 0.0 0 0 19.4922 49.7880" />
<path d="M12.9921 63.2880 A0.5000 0.5000 0.0 0 0 13.4922 63.7880" />
<path d="M13.4934 49.7880 A0.5001 0.5001 0.0 0 0 12.9934 50.2880" />
<path d="M60.4734 88.3880
L60.4734 101.3880
" />
<path d="M59.9734 101.8880
L53.9734 101.8880
" />
<path d="M59.9734 87.8880
L53.9734 87.8880
" />
<path d="M53.4734 88.3880
L53.4734 101.3880
" />
<path d="M36.6609 88.3880
L36.6609 101.3880
" />
<path d="M36.1609 101.8880
L30.1609 101.8880
" />
<path d="M36.1609 87.8880
L30.1621 87.8880
" />
<path d="M29.6621 88.3880
L29.6609 101.3880
" />
<path d="M60.4734 87.8880
L53.4734 87.8880
" />
<path d="M53.4734 87.8880
L53.4734 101.8880
" />
<path d="M53.4734 101.8880
L60.4734 101.8880
" />
<path d="M60.4734 101.8880
L60.4734 87.8880
" />
<path d="M36.6609 87.8880
L29.6609 87.8880
" />
<path d="M29.6609 87.8880
L29.6609 101.8880
" />
<path d="M29.6609 101.8880
L36.6609 101.8880
" />
<path d="M36.6609 101.8880
L36.6609 87.8880
" />
<path d="M59.9734 101.8880 A0.5000 0.5000 0.0 0 0 60.4734 101.3880" />
<path d="M60.4734 88.3880 A0.5000 0.5000 0.0 0 0 59.9734 87.8880" />
<path d="M53.4734 101.3880 A0.5000 0.5000 0.0 0 0 53.9734 101.8880" />
<path d="M53.9734 87.8880 A0.5000 0.5000 0.0 0 0 53.4734 88.3880" />
<path d="M36.1609 101.8880 A0.5001 0.5001 0.0 0 0 36.6609 101.3880" />
<path d="M36.6609 88.3880 A0.4999 0.4999 0.0 0 0 36.1609 87.8880" />
<path d="M29.6609 101.3880 A0.5000 0.5000 0.0 0 0 30.1609 101.8880" />
<path d="M30.1621 87.8880 A0.5001 0.5001 0.0 0 0 29.6621 88.3880" />
<g >
</g>
<g >
</g>
<g >
</g>
<g >
</g>
<g >
</g>
<g >
</g>
<g >
</g>
<g >
</g>
<g >
</g>
<g >
</g>
<g >
</g>
<g >
</g>
<g >
</g>
<g >
</g>
<g >
</g>
<g >
</g>
<g >
</g>
<g >
</g>
<g >
</g>
<g >
</g>
<g >
</g>
<g >
</g>
<g >
</g>
<g >
</g>
<g >
</g>
<g >
</g>
<g >
</g>
<g >
</g>
<g >
</g>
<g >
</g>
<g >
</g>
<g >
</g>
<g >
</g>
<g >
</g>
<g >
</g>
<g >
</g>
<g >
</g>
<g >
</g>
<g >
</g>
<g >
</g>
<g >
</g>
<g >
</g>
<g >
</g>
<g >
</g>
<g >
</g>
<g >
</g>
<g >
</g>
<g >
</g>
<g >
</g>
<g >
</g>
<g >
</g>
<g >
</g>
<g >
</g>
<g >
</g>
<g >
</g>
<g >
</g>
<g >
</g>
<g >
</g>
<g >
</g>
<g >
</g>
<g >
</g>
<g >
</g>
<g >
</g>
<g >
</g>
<g >
</g>
<g >
</g>
<g >
</g>
<g >
</g>
<g >
</g>
<g >
</g>
<g >
</g>
<g >
</g>
<g >
</g>
<g >
</g>
<g >
</g>
<g >
</g>
<g >
</g>
<g >
</g>
<g >
</g>
<g >
</g>
<g >
</g>
<g >
</g>
<g >
</g>
<g >
</g>
<g >
</g>
<g >
</g>
<g >
</g>
<g >
</g>
<g >
</g>
<g >
</g>
<g >
</g>
<g >
</g>
<g >
</g>
<g >
</g>
<g >
</g>
<g >
</g>
<g >
</g>
<g >
</g>
<g >
</g>
<g >
</g>
<g >
</g>
<g >
</g>
<g >
</g>
<g >
</g>
<g >
</g>
<g >
</g>
<g >
</g>
<g >
</g>
<g >
</g>
<g >
</g>
<g >
</g>
<g >
</g>
<g >
</g>
<g >
</g>
<g >
</g>
<g >
</g>
<g >
</g>
<g >
</g>
<g >
</g>
<g >
</g>
<g >
</g>
<g >
</g>
<g >
</g>
<g >
</g>
<g >
</g>
<g >
</g>
<g >
</g>
<g >
</g>
<g >
</g>
<g >
</g>
<g >
</g>
<g >
</g>
<g >
</g>
<g >
</g>
<g >
</g>
<g >
</g>
<g >
</g>
<g >
</g>
<g >
</g>
<g >
</g>
<g >
</g>
<g >
</g>
<g >
</g>
<g >
</g>
<g >
</g>
<g >
</g>
<g >
</g>
<g >
</g>
<g >
</g>
<g >
</g>
<g >
</g>
<g >
</g>
<g >
</g>
<g >
</g>
<g >
</g>
<g >
</g>
<g >
</g>
<g >
</g>
<g >
</g>
<g >
</g>
<g >
</g>
<g >
</g>
<g >
</g>
<g >
</g>
<g >
</g>
<g >
</g>
<g >
</g>
<g >
</g>
</g> 
</svg>
