<?xml version="1.0" standalone="no"?>
 <!DOCTYPE svg PUBLIC "-//W3C//DTD SVG 1.1//EN" 
 "http://www.w3.org/Graphics/SVG/1.1/DTD/svg11.dtd"> 
<svg
  xmlns:svg="http://www.w3.org/2000/svg"
  xmlns="http://www.w3.org/2000/svg"
  xmlns:xlink="http://www.w3.org/1999/xlink"
  version="1.1"
  width="225.5266mm" height="169.4180mm" viewBox="0.0000 0.0000 225.5266 169.4180">
<title>SVG Image created as ergodonk_simple_zero-brd.svg date 2024/01/12 13:03:13 </title>
  <desc>Image generated by PCBNEW </desc>
<g style="fill:#000000; fill-opacity:1.0000;stroke:#000000; stroke-opacity:1.0000;
stroke-linecap:round; stroke-linejoin:round;"
 transform="translate(0 0) scale(1 1)">
</g>
<g style="fill:#000000; fill-opacity:0.0; 
stroke:#000000; stroke-width:0.0000; stroke-opacity:1; 
stroke-linecap:round; stroke-linejoin:round;">
</g>
<g style="fill:#000000; fill-opacity:0.0; 
stroke:#000000; stroke-width:0.1500; stroke-opacity:1; 
stroke-linecap:round; stroke-linejoin:round;">
<path d="M120.9350 131.5130 A1.0000 1.0000 0.0 0 0 121.9350 130.5130" />
<path d="M103.8850 131.5130
L120.9350 131.5130
" />
<path d="M84.7600 147.8200
L133.4850 152.0450
" />
<path d="M121.9350 128.5130
L121.9350 130.5130
" />
<path d="M101.8850 137.0130 A1.0000 1.0000 0.0 0 0 102.8850 136.0130" />
<path d="M83.8350 138.0130
L83.8322 146.8200
" />
<path d="M137.7862 128.6952 A1.0000 1.0000 0.0 0 0 136.8029 127.5130" />
<path d="M84.8350 137.0130 A1.0000 1.0000 0.0 0 0 83.8350 138.0130" />
<path d="M84.8350 137.0130
L101.8850 137.0130
" />
<path d="M122.9350 127.5130 A1.0000 1.0000 0.0 0 0 121.9350 128.5130" />
<path d="M133.4850 152.0450 A0.9883 0.9883 0.0 0 0 134.6123 151.2300" />
<path d="M103.8850 131.5130 A1.0000 1.0000 0.0 0 0 102.8850 132.5130" />
<path d="M122.9350 127.5130
L136.8029 127.5130
" />
<path d="M102.8850 132.5130
L102.8850 136.0130
" />
<path d="M134.6123 151.2300
L137.7862 128.6952
" />
<path d="M83.8322 146.8200 A1.0028 1.0028 0.0 0 0 84.7600 147.8200" />
</g>
<g style="fill:#000000; fill-opacity:0.0; 
stroke:#000000; stroke-width:0.1000; stroke-opacity:1; 
stroke-linecap:round; stroke-linejoin:round;">
<circle cx="131.5100" cy="147.2200" r="1.1000" /> 
<circle cx="87.4600" cy="140.6200" r="1.1000" /> 
<circle cx="196.1200" cy="139.4580" r="1.1000" /> 
<circle cx="159.0200" cy="111.9630" r="1.1000" /> 
<circle cx="79.4900" cy="37.2627" r="1.1000" /> 
<circle cx="23.8500" cy="95.7700" r="1.1000" /> 
<circle cx="216.6850" cy="101.3950" r="1.1000" /> 
<circle cx="79.4900" cy="111.9630" r="1.1000" /> 
<circle cx="209.6600" cy="36.6950" r="1.1000" /> 
<circle cx="8.6360" cy="55.7860" r="1.1000" /> 
<circle cx="159.0200" cy="37.2627" r="1.1000" /> 
<circle cx="28.3900" cy="20.0300" r="1.1000" /> 
<circle cx="133.7600" cy="131.1700" r="1.1000" /> 
<circle cx="59.0225" cy="139.4130" r="1.1000" /> 
<g >
</g>
<g >
</g>
<g >
</g>
<g >
</g>
<g >
</g>
<g >
</g>
<g >
</g>
<g >
</g>
<g >
</g>
<g >
</g>
<g >
</g>
<g >
</g>
<g >
</g>
<g >
</g>
<g >
</g>
<g >
</g>
<g >
</g>
<g >
</g>
<g >
</g>
<g >
</g>
<g >
</g>
<g >
</g>
<g >
</g>
<g >
</g>
<g >
</g>
<g >
</g>
<g >
</g>
<g >
</g>
<g >
</g>
<g >
</g>
<g >
</g>
<g >
</g>
<g >
</g>
<g >
</g>
<g >
</g>
<g >
</g>
<g >
</g>
<g >
</g>
<g >
</g>
<g >
</g>
<g >
</g>
<g >
</g>
<g >
</g>
<g >
</g>
<g >
</g>
<g >
</g>
<g >
</g>
<g >
</g>
<g >
</g>
<g >
</g>
<g >
</g>
<g >
</g>
<g >
</g>
<g >
</g>
<g >
</g>
<g >
</g>
<g >
</g>
<g >
</g>
<g >
</g>
<g >
</g>
<g >
</g>
<g >
</g>
<g >
</g>
<g >
</g>
<g >
</g>
<g >
</g>
<g >
</g>
<g >
</g>
<g >
</g>
<g >
</g>
<g >
</g>
<g >
</g>
<g >
</g>
<g >
</g>
<g >
</g>
<g >
</g>
<g >
</g>
<g >
</g>
<g >
</g>
<g >
</g>
<g >
</g>
<g >
</g>
<g >
</g>
<g >
</g>
<g >
</g>
<g >
</g>
<g >
</g>
<g >
</g>
<g >
</g>
<g >
</g>
<g >
</g>
<g >
</g>
<g >
</g>
<g >
</g>
<g >
</g>
<g >
</g>
<g >
</g>
<g >
</g>
<g >
</g>
<g >
</g>
<g >
</g>
<g >
</g>
<g >
</g>
<g >
</g>
<g >
</g>
<g >
</g>
<g >
</g>
<g >
</g>
<g >
</g>
<g >
</g>
<g >
</g>
<g >
</g>
<g >
</g>
<g >
</g>
<g >
</g>
<g >
</g>
<g >
</g>
<g >
</g>
<g >
</g>
<g >
</g>
<g >
</g>
<g >
</g>
<g >
</g>
<g >
</g>
<g >
</g>
<g >
</g>
<g >
</g>
<g >
</g>
<g >
</g>
<g >
</g>
<g >
</g>
<g >
</g>
<g >
</g>
<g >
</g>
<g >
</g>
<g >
</g>
<g >
</g>
<g >
</g>
<g >
</g>
<g >
</g>
<g >
</g>
<g >
</g>
<g >
</g>
<g >
</g>
<g >
</g>
<g >
</g>
<g >
</g>
<g >
</g>
<g >
</g>
<g >
</g>
<g >
</g>
<g >
</g>
<g >
</g>
<g >
</g>
<g >
</g>
<g >
</g>
<g >
</g>
<g >
</g>
<g >
</g>
<g >
</g>
<g >
</g>
<g >
</g>
<g >
</g>
<g >
</g>
</g> 
</svg>
