<?xml version="1.0" standalone="no"?>
 <!DOCTYPE svg PUBLIC "-//W3C//DTD SVG 1.1//EN" 
 "http://www.w3.org/Graphics/SVG/1.1/DTD/svg11.dtd"> 
<svg
  xmlns:svg="http://www.w3.org/2000/svg"
  xmlns="http://www.w3.org/2000/svg"
  xmlns:xlink="http://www.w3.org/1999/xlink"
  version="1.1"
  width="225.5266mm" height="169.4180mm" viewBox="0.0000 0.0000 225.5266 169.4180">
<title>SVG Image created as ergodonk_simple_zero-brd.svg date 2024/01/12 13:02:45 </title>
  <desc>Image generated by PCBNEW </desc>
<g style="fill:#000000; fill-opacity:1.0000;stroke:#000000; stroke-opacity:1.0000;
stroke-linecap:round; stroke-linejoin:round;"
 transform="translate(0 0) scale(1 1)">
</g>
<g style="fill:#000000; fill-opacity:0.0; 
stroke:#000000; stroke-width:0.0000; stroke-opacity:1; 
stroke-linecap:round; stroke-linejoin:round;">
</g>
<g style="fill:#000000; fill-opacity:0.0; 
stroke:#000000; stroke-width:0.1000; stroke-opacity:1; 
stroke-linecap:round; stroke-linejoin:round;">
<path d="M18.4094 102.4062 A1.6463 1.6463 0.0 0 0 19.9200 103.3980" />
<path d="M47.4970 103.3980
L19.9200 103.3980
" />
<path d="M80.8345 46.2630 A2.0005 2.0005 0.0 0 0 82.8345 44.2175" />
<path d="M4.7629 66.0147
L18.4094 102.4062
" />
<path d="M80.7895 28.2635
L55.7850 28.2630
" />
</g>
<g style="fill:#000000; fill-opacity:0.0; 
stroke:#000000; stroke-width:0.1500; stroke-opacity:1; 
stroke-linecap:round; stroke-linejoin:round;">
<path d="M4.6350 65.3110
L4.6370 46.2610
" />
<path d="M5.0314 45.0657 A2.0040 2.0040 0.0 0 0 4.6360 46.2610" />
</g>
<g style="fill:#000000; fill-opacity:0.0; 
stroke:#000000; stroke-width:0.1000; stroke-opacity:1; 
stroke-linecap:round; stroke-linejoin:round;">
<path d="M54.2600 65.3130
L61.7845 65.3130
" />
</g>
<g style="fill:#000000; fill-opacity:0.0; 
stroke:#000000; stroke-width:0.1500; stroke-opacity:1; 
stroke-linecap:round; stroke-linejoin:round;">
<path d="M34.2700 7.2130
L53.7400 7.2130
" />
<path d="M5.0314 45.0658
L32.6664 8.0178
" />
<path d="M34.2700 7.2130 A2.0000 2.0000 0.0 0 0 32.6664 8.0178" />
</g>
<g style="fill:#000000; fill-opacity:0.0; 
stroke:#000000; stroke-width:0.1000; stroke-opacity:1; 
stroke-linecap:round; stroke-linejoin:round;">
<path d="M52.2595 84.3630 A2.0005 2.0005 0.0 0 0 54.2595 82.3175" />
<path d="M54.2595 82.3175
L54.2600 65.3130
" />
<path d="M55.7855 9.2130
L55.7855 28.2630
" />
<path d="M61.7845 65.3130 A2.0005 2.0005 0.0 0 0 63.7845 63.2675" />
<path d="M47.4970 103.3980 A2.0005 2.0005 0.0 0 0 49.4970 101.3525" />
</g>
<g style="fill:#000000; fill-opacity:0.0; 
stroke:#000000; stroke-width:0.1500; stroke-opacity:1; 
stroke-linecap:round; stroke-linejoin:round;">
<path d="M55.7855 9.2130 A2.0005 2.0005 0.0 0 0 53.7400 7.2130" />
</g>
<g style="fill:#000000; fill-opacity:0.0; 
stroke:#000000; stroke-width:0.1000; stroke-opacity:1; 
stroke-linecap:round; stroke-linejoin:round;">
<path d="M82.8345 44.2175
L82.8350 30.2635
" />
<path d="M82.8350 30.2635 A2.0005 2.0005 0.0 0 0 80.7895 28.2635" />
</g>
<g style="fill:#000000; fill-opacity:0.0; 
stroke:#000000; stroke-width:0.1500; stroke-opacity:1; 
stroke-linecap:round; stroke-linejoin:round;">
<path d="M4.6350 65.3110 A2.0000 2.0000 0.0 0 0 4.7629 66.0147" />
</g>
<g style="fill:#000000; fill-opacity:0.0; 
stroke:#000000; stroke-width:0.1000; stroke-opacity:1; 
stroke-linecap:round; stroke-linejoin:round;">
<path d="M63.7850 46.2630
L80.8345 46.2630
" />
<path d="M55.7855 28.2630
L61.7395 28.2635
" />
<path d="M52.2595 84.3630
L49.4975 84.3630
" />
<path d="M49.4975 84.3630
L49.4970 101.3525
" />
<path d="M63.7845 63.2675
L63.7850 46.2630
" />
<circle cx="131.5100" cy="147.2200" r="1.1000" /> 
<circle cx="87.4600" cy="140.6200" r="1.1000" /> 
<circle cx="196.1200" cy="139.4580" r="1.1000" /> 
<circle cx="159.0200" cy="111.9630" r="1.1000" /> 
<circle cx="79.4900" cy="37.2627" r="1.1000" /> 
<circle cx="23.8500" cy="95.7700" r="1.1000" /> 
<circle cx="216.6850" cy="101.3950" r="1.1000" /> 
<circle cx="79.4900" cy="111.9630" r="1.1000" /> 
<circle cx="209.6600" cy="36.6950" r="1.1000" /> 
<circle cx="8.6360" cy="55.7860" r="1.1000" /> 
<circle cx="159.0200" cy="37.2627" r="1.1000" /> 
<circle cx="28.3900" cy="20.0300" r="1.1000" /> 
<circle cx="133.7600" cy="131.1700" r="1.1000" /> 
<circle cx="59.0225" cy="139.4130" r="1.1000" /> 
<g >
</g>
<g >
</g>
<g >
</g>
<g >
</g>
<g >
</g>
<g >
</g>
<g >
</g>
<g >
</g>
<g >
</g>
<g >
</g>
<g >
</g>
<g >
</g>
<g >
</g>
<g >
</g>
<g >
</g>
<g >
</g>
<g >
</g>
<g >
</g>
<g >
</g>
<g >
</g>
<g >
</g>
<g >
</g>
<g >
</g>
<g >
</g>
<g >
</g>
<g >
</g>
<g >
</g>
<g >
</g>
<g >
</g>
<g >
</g>
<g >
</g>
<g >
</g>
<g >
</g>
<g >
</g>
<g >
</g>
<g >
</g>
<g >
</g>
<g >
</g>
<g >
</g>
<g >
</g>
<g >
</g>
<g >
</g>
<g >
</g>
<g >
</g>
<g >
</g>
<g >
</g>
<g >
</g>
<g >
</g>
<g >
</g>
<g >
</g>
<g >
</g>
<g >
</g>
<g >
</g>
<g >
</g>
<g >
</g>
<g >
</g>
<g >
</g>
<g >
</g>
<g >
</g>
<g >
</g>
<g >
</g>
<g >
</g>
<g >
</g>
<g >
</g>
<g >
</g>
<g >
</g>
<g >
</g>
<g >
</g>
<g >
</g>
<g >
</g>
<g >
</g>
<g >
</g>
<g >
</g>
<g >
</g>
<g >
</g>
<g >
</g>
<g >
</g>
<g >
</g>
<g >
</g>
<g >
</g>
<g >
</g>
<g >
</g>
<g >
</g>
<g >
</g>
<g >
</g>
<g >
</g>
<g >
</g>
<g >
</g>
<g >
</g>
<g >
</g>
<g >
</g>
<g >
</g>
<g >
</g>
<g >
</g>
<g >
</g>
<g >
</g>
<g >
</g>
<g >
</g>
<g >
</g>
<g >
</g>
<g >
</g>
<g >
</g>
<g >
</g>
<g >
</g>
<g >
</g>
<g >
</g>
<g >
</g>
<g >
</g>
<g >
</g>
<g >
</g>
<g >
</g>
<g >
</g>
<g >
</g>
<g >
</g>
<g >
</g>
<g >
</g>
<g >
</g>
<g >
</g>
<g >
</g>
<g >
</g>
<g >
</g>
<g >
</g>
<g >
</g>
<g >
</g>
<g >
</g>
<g >
</g>
<g >
</g>
<g >
</g>
<g >
</g>
<g >
</g>
<g >
</g>
<g >
</g>
<g >
</g>
<g >
</g>
<g >
</g>
<g >
</g>
<g >
</g>
<g >
</g>
<g >
</g>
<g >
</g>
<g >
</g>
<g >
</g>
<g >
</g>
<g >
</g>
<g >
</g>
<g >
</g>
<g >
</g>
<g >
</g>
<g >
</g>
<g >
</g>
<g >
</g>
<g >
</g>
<g >
</g>
<g >
</g>
<g >
</g>
<g >
</g>
<g >
</g>
<g >
</g>
<g >
</g>
<g >
</g>
<g >
</g>
<g >
</g>
<g >
</g>
<g >
</g>
</g> 
</svg>
