<?xml version="1.0" standalone="no"?>
 <!DOCTYPE svg PUBLIC "-//W3C//DTD SVG 1.1//EN" 
 "http://www.w3.org/Graphics/SVG/1.1/DTD/svg11.dtd"> 
<svg
  xmlns:svg="http://www.w3.org/2000/svg"
  xmlns="http://www.w3.org/2000/svg"
  xmlns:xlink="http://www.w3.org/1999/xlink"
  version="1.1"
  width="243.7130mm" height="173.6598mm" viewBox="0.0000 0.0000 243.7130 173.6598">
<title>SVG Image created as ergodonk_simple_zero-brd.svg date 2023/12/06 15:43:01 </title>
  <desc>Image generated by PCBNEW </desc>
<g style="fill:#000000; fill-opacity:1.0000;stroke:#000000; stroke-opacity:1.0000;
stroke-linecap:round; stroke-linejoin:round;"
 transform="translate(0 0) scale(1 1)">
</g>
<g style="fill:#000000; fill-opacity:0.0; 
stroke:#000000; stroke-width:0.0000; stroke-opacity:1; 
stroke-linecap:round; stroke-linejoin:round;">
</g>
<g style="fill:#000000; fill-opacity:0.0; 
stroke:#000000; stroke-width:0.1500; stroke-opacity:1; 
stroke-linecap:round; stroke-linejoin:round;">
<path d="M74.2251 11.4554 A2.0000 2.0000 0.0 0 0 72.2251 13.4534" />
<path d="M70.2251 48.5054 A2.0000 2.0000 0.0 0 0 72.2251 46.5074" />
<path d="M24.8301 48.5054
L70.2251 48.5054
" />
<path d="M72.2251 11.1304
L72.2251 46.5074
" />
<path d="M24.8301 48.5054 A2.0000 2.0000 0.0 0 0 22.8301 50.5034" />
<path d="M24.8301 48.5054
L24.8301 50.5054
" />
<path d="M151.9927 154.3110 A2.0000 2.0000 0.0 0 0 153.8108 156.4777" />
<path d="M154.7051 135.0124 A2.0000 2.0000 0.0 0 0 153.0029 132.7535" />
<path d="M151.9927 154.3110
L154.7051 135.0124
" />
<path d="M143.1301 132.7554 A2.0000 2.0000 0.0 0 0 141.1301 134.7554" />
<path d="M153.0029 132.7535
L143.1301 132.7535
" />
<path d="M105.0301 142.2554 A2.0000 2.0000 0.0 0 0 103.0301 144.2554" />
<path d="M124.0801 136.7554 A2.0000 2.0000 0.0 0 0 122.0801 138.7554" />
<path d="M139.1301 136.7554
L124.0801 136.7554
" />
<path d="M122.0801 140.2554
L122.0801 138.7554
" />
<path d="M120.0801 142.2554
L105.0301 142.2554
" />
<path d="M103.0301 149.8981
L103.0301 144.2554
" />
<path d="M139.1301 136.7554 A2.0000 2.0000 0.0 0 0 141.1301 134.7554" />
<path d="M120.0801 142.2554 A2.0000 2.0000 0.0 0 0 122.0801 140.2554" />
<path d="M101.0301 151.8981 A2.0000 2.0000 0.0 0 0 103.0301 149.8981" />
<path d="M153.8108 156.4777
L229.1468 167.0759
" />
<path d="M229.1468 167.0759 A2.0000 2.0000 0.0 0 0 231.4107 165.3737" />
<path d="M52.4651 11.4554 A2.0000 2.0000 0.0 0 0 50.8616 12.2601" />
<path d="M23.2266 49.3081 A2.0040 2.0040 0.0 0 0 22.8311 50.5034" />
<path d="M239.3801 46.0054
L239.3801 108.5054
" />
<path d="M22.9580 70.2570
L51.5330 146.4590
" />
</g>
<g style="fill:#000000; fill-opacity:0.0; 
stroke:#000000; stroke-width:0.1000; stroke-opacity:1; 
stroke-linecap:round; stroke-linejoin:round;">
<path style="fill:#000000; fill-opacity:0.0; 
stroke:#000000; stroke-width:0.1000; stroke-opacity:1; 
stroke-linecap:round; stroke-linejoin:round;fill:none"
d="M 47.7651,38.8604
77.7451,38.8604
77.7451,49.0204
47.7651,49.0204
Z" /> 
</g>
<g style="fill:#000000; fill-opacity:0.0; 
stroke:#000000; stroke-width:0.1500; stroke-opacity:1; 
stroke-linecap:round; stroke-linejoin:round;">
<path d="M239.3801 46.0054 A2.0000 2.0000 0.0 0 0 239.0363 44.8841" />
<path d="M231.4107 165.3737
L239.3607 108.7837
" />
<path d="M51.5330 146.4590 A2.0000 2.0000 0.0 0 0 53.2308 147.7477" />
<path d="M239.3607 108.7837 A2.0000 2.0000 0.0 0 0 239.3801 108.5054" />
</g>
<g style="fill:#000000; fill-opacity:0.0; 
stroke:#000000; stroke-width:0.1000; stroke-opacity:1; 
stroke-linecap:round; stroke-linejoin:round;">
<path d="M216.9863 12.3341
L239.0363 44.8841
" />
</g>
<g style="fill:#000000; fill-opacity:0.0; 
stroke:#000000; stroke-width:0.1500; stroke-opacity:1; 
stroke-linecap:round; stroke-linejoin:round;">
<path d="M53.2308 147.7477
L101.0301 151.8981
" />
<path d="M23.2266 49.3081
L50.8616 12.2601
" />
<path d="M22.8301 69.5534 A2.0000 2.0000 0.0 0 0 22.9580 70.2570" />
<path d="M52.4651 11.4554
L215.3301 11.4554
" />
<path d="M216.9863 12.3341 A2.0000 2.0000 0.0 0 0 215.3301 11.4554" />
<path d="M22.8301 69.5534
L22.8321 50.5034
" />
<path d="M151.9927 154.3110
L153.9851 154.4854
" />
</g>
<g style="fill:#000000; fill-opacity:0.0; 
stroke:#000000; stroke-width:0.1200; stroke-opacity:1; 
stroke-linecap:round; stroke-linejoin:round;">
<path d="M104.5301 145.2474
L104.5301 148.2474
" />
<path d="M104.5301 148.2474
L115.8551 148.2474
" />
<path d="M115.8551 143.2724
L115.8551 145.2474
" />
<path d="M115.8551 145.2474
L104.5301 145.2474
" />
<path d="M115.8551 148.2474
L115.8551 150.2724
" />
<path d="M115.8551 150.2724
L124.8551 150.2724
" />
<path d="M124.8551 141.2724
L144.8551 141.2724
" />
<path d="M124.8551 143.2724
L115.8551 143.2724
" />
<path d="M124.8551 143.2724
L124.8551 141.2724
" />
<path d="M124.8551 152.2724
L124.8551 150.2724
" />
<path d="M144.8551 141.2724
L144.8551 145.2724
" />
<path d="M144.8551 145.2724
L150.3551 145.2724
" />
<path d="M144.8551 148.2724
L144.8551 152.2724
" />
<path d="M144.8551 148.2724
L150.3551 148.2724
" />
<path d="M144.8551 152.2724
L124.8551 152.2724
" />
<path d="M150.3551 145.2724
L150.3551 148.2724
" />
</g>
<g style="fill:#000000; fill-opacity:0.0; 
stroke:#000000; stroke-width:0.1000; stroke-opacity:1; 
stroke-linecap:round; stroke-linejoin:round;">
<circle cx="124.6251" cy="139.1924" r="1.1000" /> 
<circle cx="151.7851" cy="135.5124" r="1.1000" /> 
<circle cx="240.6451" cy="24.5224" r="1.1000" /> 
<circle cx="238.5401" cy="15.3574" r="1.1000" /> 
</g>
<g style="fill:#000000; fill-opacity:0.0; 
stroke:#000000; stroke-width:0.1200; stroke-opacity:1; 
stroke-linecap:round; stroke-linejoin:round;">
<path d="M198.8051 86.1304
L212.8051 86.1304
" />
<path d="M212.8051 86.1304
L212.8051 100.1304
" />
<path d="M212.8051 100.1304
L198.8051 100.1304
" />
<path d="M198.8051 100.1304
L198.8051 86.1304
" />
<path d="M122.6051 118.2304
L136.6051 118.2304
" />
<path d="M136.6051 118.2304
L136.6051 132.2304
" />
<path d="M136.6051 132.2304
L122.6051 132.2304
" />
<path d="M122.6051 132.2304
L122.6051 118.2304
" />
</g>
<g style="fill:#000000; fill-opacity:0.0; 
stroke:#000000; stroke-width:0.1000; stroke-opacity:1; 
stroke-linecap:round; stroke-linejoin:round;">
<circle cx="148.6951" cy="150.5104" r="1.1000" /> 
<circle cx="214.3151" cy="143.7004" r="1.1000" /> 
</g>
<g style="fill:#000000; fill-opacity:0.0; 
stroke:#000000; stroke-width:0.1200; stroke-opacity:1; 
stroke-linecap:round; stroke-linejoin:round;">
<path d="M103.5551 47.5304
L117.5551 47.5304
" />
<path d="M117.5551 47.5304
L117.5551 61.5304
" />
<path d="M117.5551 61.5304
L103.5551 61.5304
" />
<path d="M103.5551 61.5304
L103.5551 47.5304
" />
<path d="M99.5551 15.9804
L113.5551 15.9804
" />
<path d="M113.5551 15.9804
L113.5551 29.9804
" />
<path d="M113.5551 29.9804
L99.5551 29.9804
" />
<path d="M99.5551 29.9804
L99.5551 15.9804
" />
</g>
<g style="fill:#000000; fill-opacity:0.0; 
stroke:#000000; stroke-width:0.1000; stroke-opacity:1; 
stroke-linecap:round; stroke-linejoin:round;">
<circle cx="177.2151" cy="119.2054" r="1.1000" /> 
</g>
<g style="fill:#000000; fill-opacity:0.0; 
stroke:#000000; stroke-width:0.0500; stroke-opacity:1; 
stroke-linecap:round; stroke-linejoin:round;">
<path d="M64.1926 111.6804
L64.1926 124.6804
" />
<path d="M64.6926 111.1804
L70.6926 111.1804
" />
<path d="M64.6926 125.1804
L70.6926 125.1804
" />
<path d="M71.1926 111.6804
L71.1926 124.6804
" />
<path d="M88.0051 111.6804
L88.0051 124.6804
" />
<path d="M88.5051 111.1804
L94.5039 111.1804
" />
<path d="M88.5051 125.1804
L94.5051 125.1804
" />
<path d="M95.0039 111.6804
L95.0051 124.6804
" />
<path d="M64.1926 111.1804
L71.1926 111.1804
" />
<path d="M71.1926 111.1804
L71.1926 125.1804
" />
<path d="M71.1926 125.1804
L64.1926 125.1804
" />
<path d="M64.1926 125.1804
L64.1926 111.1804
" />
<path d="M88.0051 111.1804
L95.0051 111.1804
" />
<path d="M95.0051 111.1804
L95.0051 125.1804
" />
<path d="M95.0051 125.1804
L88.0051 125.1804
" />
<path d="M88.0051 125.1804
L88.0051 111.1804
" />
<path d="M64.6926 111.1804 A0.5000 0.5000 0.0 0 0 64.1926 111.6804" />
<path d="M64.1926 124.6804 A0.5000 0.5000 0.0 0 0 64.6926 125.1804" />
<path d="M71.1926 111.6804 A0.5000 0.5000 0.0 0 0 70.6926 111.1804" />
<path d="M70.6926 125.1804 A0.5000 0.5000 0.0 0 0 71.1926 124.6804" />
<path d="M88.5051 111.1804 A0.5000 0.5000 0.0 0 0 88.0051 111.6804" />
<path d="M88.0052 124.6804 A0.5000 0.5000 0.0 0 0 88.5051 125.1804" />
<path d="M95.0039 111.6804 A0.5000 0.5000 0.0 0 0 94.5039 111.1804" />
<path d="M94.5051 125.1804 A0.5000 0.5000 0.0 0 0 95.0051 124.6804" />
<path d="M59.4301 111.6804
L59.4301 124.6804
" />
<path d="M59.9301 111.1804
L65.9301 111.1804
" />
<path d="M59.9301 125.1804
L65.9301 125.1804
" />
<path d="M66.4301 111.6804
L66.4301 124.6804
" />
<path d="M83.2426 111.6804
L83.2426 124.6804
" />
<path d="M83.7426 111.1804
L89.7414 111.1804
" />
<path d="M83.7426 125.1804
L89.7426 125.1804
" />
<path d="M90.2414 111.6804
L90.2426 124.6804
" />
<path d="M59.4301 111.1804
L66.4301 111.1804
" />
<path d="M66.4301 111.1804
L66.4301 125.1804
" />
<path d="M66.4301 125.1804
L59.4301 125.1804
" />
<path d="M59.4301 125.1804
L59.4301 111.1804
" />
<path d="M83.2426 111.1804
L90.2426 111.1804
" />
<path d="M90.2426 111.1804
L90.2426 125.1804
" />
<path d="M90.2426 125.1804
L83.2426 125.1804
" />
<path d="M83.2426 125.1804
L83.2426 111.1804
" />
<path d="M59.9301 111.1804 A0.5000 0.5000 0.0 0 0 59.4301 111.6804" />
<path d="M59.4301 124.6804 A0.5000 0.5000 0.0 0 0 59.9301 125.1804" />
<path d="M66.4301 111.6804 A0.5000 0.5000 0.0 0 0 65.9301 111.1804" />
<path d="M65.9301 125.1804 A0.5000 0.5000 0.0 0 0 66.4301 124.6804" />
<path d="M83.7426 111.1804 A0.5000 0.5000 0.0 0 0 83.2426 111.6804" />
<path d="M83.2427 124.6804 A0.5000 0.5000 0.0 0 0 83.7426 125.1804" />
<path d="M90.2414 111.6804 A0.5000 0.5000 0.0 0 0 89.7414 111.1804" />
<path d="M89.7426 125.1804 A0.5000 0.5000 0.0 0 0 90.2426 124.6804" />
</g>
<g style="fill:#000000; fill-opacity:0.0; 
stroke:#000000; stroke-width:0.1200; stroke-opacity:1; 
stroke-linecap:round; stroke-linejoin:round;">
<path d="M141.6551 38.0304
L155.6551 38.0304
" />
<path d="M155.6551 38.0304
L155.6551 52.0304
" />
<path d="M155.6551 52.0304
L141.6551 52.0304
" />
<path d="M141.6551 52.0304
L141.6551 38.0304
" />
<path d="M160.7051 100.1804
L174.7051 100.1804
" />
<path d="M174.7051 100.1804
L174.7051 114.1804
" />
<path d="M174.7051 114.1804
L160.7051 114.1804
" />
<path d="M160.7051 114.1804
L160.7051 100.1804
" />
</g>
<g style="fill:#000000; fill-opacity:0.0; 
stroke:#000000; stroke-width:0.0500; stroke-opacity:1; 
stroke-linecap:round; stroke-linejoin:round;">
<path d="M28.4739 54.5304
L28.4739 67.5304
" />
<path d="M28.9739 54.0304
L34.9739 54.0304
" />
<path d="M28.9739 68.0304
L34.9739 68.0304
" />
<path d="M35.4739 54.5304
L35.4739 67.5304
" />
<path d="M52.2864 54.5304
L52.2864 67.5304
" />
<path d="M52.7864 54.0304
L58.7852 54.0304
" />
<path d="M52.7864 68.0304
L58.7864 68.0304
" />
<path d="M59.2852 54.5304
L59.2864 67.5304
" />
<path d="M28.4739 54.0304
L35.4739 54.0304
" />
<path d="M35.4739 54.0304
L35.4739 68.0304
" />
<path d="M35.4739 68.0304
L28.4739 68.0304
" />
<path d="M28.4739 68.0304
L28.4739 54.0304
" />
<path d="M52.2864 54.0304
L59.2864 54.0304
" />
<path d="M59.2864 54.0304
L59.2864 68.0304
" />
<path d="M59.2864 68.0304
L52.2864 68.0304
" />
<path d="M52.2864 68.0304
L52.2864 54.0304
" />
<path d="M28.9739 54.0304 A0.5000 0.5000 0.0 0 0 28.4739 54.5304" />
<path d="M28.4739 67.5304 A0.5000 0.5000 0.0 0 0 28.9739 68.0304" />
<path d="M35.4739 54.5304 A0.5000 0.5000 0.0 0 0 34.9739 54.0304" />
<path d="M34.9739 68.0304 A0.5000 0.5000 0.0 0 0 35.4739 67.5304" />
<path d="M52.7864 54.0304 A0.5000 0.5000 0.0 0 0 52.2864 54.5304" />
<path d="M52.2864 67.5304 A0.5000 0.5000 0.0 0 0 52.7864 68.0304" />
<path d="M59.2851 54.5304 A0.5000 0.5000 0.0 0 0 58.7852 54.0304" />
<path d="M58.7864 68.0304 A0.5000 0.5000 0.0 0 0 59.2864 67.5304" />
</g>
<g style="fill:#000000; fill-opacity:0.0; 
stroke:#000000; stroke-width:0.1000; stroke-opacity:1; 
stroke-linecap:round; stroke-linejoin:round;">
<circle cx="101.0951" cy="44.9504" r="1.1000" /> 
</g>
<g style="fill:#000000; fill-opacity:0.0; 
stroke:#000000; stroke-width:0.1200; stroke-opacity:1; 
stroke-linecap:round; stroke-linejoin:round;">
<path d="M215.3620 146.4296
L229.2258 148.3780
" />
<path d="M229.2258 148.3780
L227.2774 162.2417
" />
<path d="M227.2774 162.2417
L213.4136 160.2933
" />
<path d="M213.4136 160.2933
L215.3620 146.4296
" />
<path d="M179.7551 64.5804
L193.7551 64.5804
" />
<path d="M193.7551 64.5804
L193.7551 78.5804
" />
<path d="M193.7551 78.5804
L179.7551 78.5804
" />
<path d="M179.7551 78.5804
L179.7551 64.5804
" />
<path d="M137.6551 15.9804
L151.6551 15.9804
" />
<path d="M151.6551 15.9804
L151.6551 29.9804
" />
<path d="M151.6551 29.9804
L137.6551 29.9804
" />
<path d="M137.6551 29.9804
L137.6551 15.9804
" />
<path d="M76.5051 15.9804
L90.5051 15.9804
" />
<path d="M90.5051 15.9804
L90.5051 29.9804
" />
<path d="M90.5051 29.9804
L76.5051 29.9804
" />
<path d="M76.5051 29.9804
L76.5051 15.9804
" />
<path d="M178.9591 131.6957
L192.8229 133.6441
" />
<path d="M192.8229 133.6441
L190.8744 147.5079
" />
<path d="M190.8744 147.5079
L177.0107 145.5595
" />
<path d="M177.0107 145.5595
L178.9591 131.6957
" />
</g>
<g style="fill:#000000; fill-opacity:0.0; 
stroke:#000000; stroke-width:0.0500; stroke-opacity:1; 
stroke-linecap:round; stroke-linejoin:round;">
<path d="M45.1426 92.6304
L45.1426 105.6304
" />
<path d="M45.6426 92.1304
L51.6426 92.1304
" />
<path d="M45.6426 106.1304
L51.6426 106.1304
" />
<path d="M52.1426 92.6304
L52.1426 105.6304
" />
<path d="M68.9551 92.6304
L68.9551 105.6304
" />
<path d="M69.4551 92.1304
L75.4539 92.1304
" />
<path d="M69.4551 106.1304
L75.4551 106.1304
" />
<path d="M75.9539 92.6304
L75.9551 105.6304
" />
<path d="M45.1426 92.1304
L52.1426 92.1304
" />
<path d="M52.1426 92.1304
L52.1426 106.1304
" />
<path d="M52.1426 106.1304
L45.1426 106.1304
" />
<path d="M45.1426 106.1304
L45.1426 92.1304
" />
<path d="M68.9551 92.1304
L75.9551 92.1304
" />
<path d="M75.9551 92.1304
L75.9551 106.1304
" />
<path d="M75.9551 106.1304
L68.9551 106.1304
" />
<path d="M68.9551 106.1304
L68.9551 92.1304
" />
<path d="M45.6426 92.1304 A0.5000 0.5000 0.0 0 0 45.1426 92.6304" />
<path d="M45.1426 105.6304 A0.5000 0.5000 0.0 0 0 45.6426 106.1304" />
<path d="M52.1426 92.6304 A0.5000 0.5000 0.0 0 0 51.6426 92.1304" />
<path d="M51.6426 106.1304 A0.5000 0.5000 0.0 0 0 52.1426 105.6304" />
<path d="M69.4551 92.1304 A0.5000 0.5000 0.0 0 0 68.9551 92.6304" />
<path d="M68.9552 105.6304 A0.5000 0.5000 0.0 0 0 69.4551 106.1304" />
<path d="M75.9539 92.6304 A0.5000 0.5000 0.0 0 0 75.4539 92.1304" />
<path d="M75.4551 106.1304 A0.5000 0.5000 0.0 0 0 75.9551 105.6304" />
</g>
<g style="fill:#000000; fill-opacity:0.0; 
stroke:#000000; stroke-width:0.1200; stroke-opacity:1; 
stroke-linecap:round; stroke-linejoin:round;">
<path d="M141.6551 95.1804
L155.6551 95.1804
" />
<path d="M155.6551 95.1804
L155.6551 109.1804
" />
<path d="M155.6551 109.1804
L141.6551 109.1804
" />
<path d="M141.6551 109.1804
L141.6551 95.1804
" />
<path d="M103.5551 66.5804
L117.5551 66.5804
" />
<path d="M117.5551 66.5804
L117.5551 80.5804
" />
<path d="M117.5551 80.5804
L103.5551 80.5804
" />
<path d="M103.5551 80.5804
L103.5551 66.5804
" />
<path d="M103.5551 123.7304
L117.5551 123.7304
" />
<path d="M117.5551 123.7304
L117.5551 137.7304
" />
<path d="M117.5551 137.7304
L103.5551 137.7304
" />
<path d="M103.5551 137.7304
L103.5551 123.7304
" />
<path d="M53.7251 11.1304
L72.2251 11.1304
" />
<path d="M72.2251 11.1304
L72.2251 35.1304
" />
<path d="M72.2251 35.1304
L53.7251 35.1304
" />
<path d="M53.7251 35.1304
L53.7251 11.1304
" />
<path d="M103.5551 104.6804
L117.5551 104.6804
" />
<path d="M117.5551 104.6804
L117.5551 118.6804
" />
<path d="M117.5551 118.6804
L103.5551 118.6804
" />
<path d="M103.5551 118.6804
L103.5551 104.6804
" />
<path d="M93.7426 86.0804
L79.7426 86.0804
" />
<path d="M79.7426 86.0804
L79.7426 72.0804
" />
<path d="M79.7426 72.0804
L93.7426 72.0804
" />
<path d="M93.7426 72.0804
L93.7426 86.0804
" />
<path d="M98.5051 86.0804
L84.5051 86.0804
" />
<path d="M84.5051 86.0804
L84.5051 72.0804
" />
<path d="M84.5051 72.0804
L98.5051 72.0804
" />
<path d="M98.5051 72.0804
L98.5051 86.0804
" />
<path d="M118.6051 15.9804
L132.6051 15.9804
" />
<path d="M132.6051 15.9804
L132.6051 29.9804
" />
<path d="M132.6051 29.9804
L118.6051 29.9804
" />
<path d="M118.6051 29.9804
L118.6051 15.9804
" />
</g>
<g style="fill:#000000; fill-opacity:0.0; 
stroke:#000000; stroke-width:0.1000; stroke-opacity:1; 
stroke-linecap:round; stroke-linejoin:round;">
<circle cx="234.7251" cy="105.6204" r="1.1000" /> 
</g>
<g style="fill:#000000; fill-opacity:0.0; 
stroke:#000000; stroke-width:0.1200; stroke-opacity:1; 
stroke-linecap:round; stroke-linejoin:round;">
<path d="M50.8801 67.0304
L36.8801 67.0304
" />
<path d="M36.8801 67.0304
L36.8801 53.0304
" />
<path d="M36.8801 53.0304
L50.8801 53.0304
" />
<path d="M50.8801 53.0304
L50.8801 67.0304
" />
<path d="M220.8551 67.5804
L234.8551 67.5804
" />
<path d="M234.8551 67.5804
L234.8551 81.5804
" />
<path d="M234.8551 81.5804
L220.8551 81.5804
" />
<path d="M220.8551 81.5804
L220.8551 67.5804
" />
<path d="M122.6051 80.1304
L136.6051 80.1304
" />
<path d="M136.6051 80.1304
L136.6051 94.1304
" />
<path d="M136.6051 94.1304
L122.6051 94.1304
" />
<path d="M122.6051 94.1304
L122.6051 80.1304
" />
<path d="M55.6426 86.0804
L41.6426 86.0804
" />
<path d="M41.6426 86.0804
L41.6426 72.0804
" />
<path d="M41.6426 72.0804
L55.6426 72.0804
" />
<path d="M55.6426 72.0804
L55.6426 86.0804
" />
<path d="M55.6426 86.0804
L41.6426 86.0804
" />
<path d="M41.6426 86.0804
L41.6426 72.0804
" />
<path d="M41.6426 72.0804
L55.6426 72.0804
" />
<path d="M55.6426 72.0804
L55.6426 86.0804
" />
<path d="M122.6051 42.0304
L136.6051 42.0304
" />
<path d="M136.6051 42.0304
L136.6051 56.0304
" />
<path d="M136.6051 56.0304
L122.6051 56.0304
" />
<path d="M122.6051 56.0304
L122.6051 42.0304
" />
<path d="M198.8051 67.0804
L212.8051 67.0804
" />
<path d="M212.8051 67.0804
L212.8051 81.0804
" />
<path d="M212.8051 81.0804
L198.8051 81.0804
" />
<path d="M198.8051 81.0804
L198.8051 67.0804
" />
</g>
<g style="fill:#000000; fill-opacity:0.0; 
stroke:#000000; stroke-width:0.1000; stroke-opacity:1; 
stroke-linecap:round; stroke-linejoin:round;">
<circle cx="101.0951" cy="121.2054" r="1.1000" /> 
</g>
<g style="fill:#000000; fill-opacity:0.0; 
stroke:#000000; stroke-width:0.1200; stroke-opacity:1; 
stroke-linecap:round; stroke-linejoin:round;">
<path d="M225.9457 24.7248
L230.8514 31.9702
" />
<path d="M230.8514 31.9702
L220.0868 39.2587
" />
<path d="M220.0868 39.2587
L215.1811 32.0133
" />
<path d="M215.1811 32.0133
L225.9457 24.7248
" />
<path d="M84.5051 53.0304
L98.5051 53.0304
" />
<path d="M98.5051 53.0304
L98.5051 67.0304
" />
<path d="M98.5051 67.0304
L84.5051 67.0304
" />
<path d="M84.5051 67.0304
L84.5051 53.0304
" />
</g>
<g style="fill:#000000; fill-opacity:0.0; 
stroke:#000000; stroke-width:0.1000; stroke-opacity:1; 
stroke-linecap:round; stroke-linejoin:round;">
<circle cx="218.1351" cy="23.7304" r="1.1000" /> 
</g>
<g style="fill:#000000; fill-opacity:0.0; 
stroke:#000000; stroke-width:0.1200; stroke-opacity:1; 
stroke-linecap:round; stroke-linejoin:round;">
<path d="M220.6645 108.7003
L234.5283 110.6488
" />
<path d="M234.5283 110.6488
L232.5799 124.5125
" />
<path d="M232.5799 124.5125
L218.7161 122.5641
" />
<path d="M218.7161 122.5641
L220.6645 108.7003
" />
<path d="M82.1239 129.2304
L96.1239 129.2304
" />
<path d="M96.1239 129.2304
L96.1239 143.2304
" />
<path d="M96.1239 143.2304
L82.1239 143.2304
" />
<path d="M82.1239 143.2304
L82.1239 129.2304
" />
</g>
<g style="fill:#000000; fill-opacity:0.0; 
stroke:#000000; stroke-width:0.1000; stroke-opacity:1; 
stroke-linecap:round; stroke-linejoin:round;">
<circle cx="177.2151" cy="40.5054" r="1.1000" /> 
</g>
<g style="fill:#000000; fill-opacity:0.0; 
stroke:#000000; stroke-width:0.1200; stroke-opacity:1; 
stroke-linecap:round; stroke-linejoin:round;">
<path d="M91.3614 105.1154
L77.3614 105.1154
" />
<path d="M77.3614 105.1154
L77.3614 91.1154
" />
<path d="M77.3614 91.1154
L91.3614 91.1154
" />
<path d="M91.3614 91.1154
L91.3614 105.1154
" />
<path d="M98.5051 105.1154
L84.5051 105.1154
" />
<path d="M84.5051 105.1154
L84.5051 91.1154
" />
<path d="M84.5051 91.1154
L98.5051 91.1154
" />
<path d="M98.5051 91.1154
L98.5051 105.1154
" />
<path d="M141.6551 57.0804
L155.6551 57.0804
" />
<path d="M155.6551 57.0804
L155.6551 71.0804
" />
<path d="M155.6551 71.0804
L141.6551 71.0804
" />
<path d="M141.6551 71.0804
L141.6551 57.0804
" />
<path d="M198.8051 15.9804
L212.8051 15.9804
" />
<path d="M212.8051 15.9804
L212.8051 29.9804
" />
<path d="M212.8051 29.9804
L198.8051 29.9804
" />
<path d="M198.8051 29.9804
L198.8051 15.9804
" />
<path d="M179.7551 15.9804
L193.7551 15.9804
" />
<path d="M193.7551 15.9804
L193.7551 29.9804
" />
<path d="M193.7551 29.9804
L179.7551 29.9804
" />
<path d="M179.7551 29.9804
L179.7551 15.9804
" />
</g>
<g style="fill:#000000; fill-opacity:0.0; 
stroke:#000000; stroke-width:0.0500; stroke-opacity:1; 
stroke-linecap:round; stroke-linejoin:round;">
<path d="M192.4924 125.0959
L179.6189 123.2867
" />
<path d="M192.9179 125.6606
L192.0829 131.6023
" />
<path d="M179.0542 123.7122
L178.2191 129.6538
" />
<path d="M191.5182 132.0278
L178.6447 130.2186
" />
<path d="M189.1783 148.6767
L176.3048 146.8674
" />
<path d="M189.6039 149.2414
L188.7690 155.1818
" />
<path d="M175.7401 147.2930
L174.9051 153.2346
" />
<path d="M188.2043 155.6074
L175.3306 153.7993
" />
<path d="M192.9875 125.1655
L192.0133 132.0974
" />
<path d="M192.0133 132.0974
L178.1496 130.1490
" />
<path d="M178.1496 130.1490
L179.1238 123.2171
" />
<path d="M179.1238 123.2171
L192.9875 125.1655
" />
<path d="M189.6735 148.7463
L188.6992 155.6781
" />
<path d="M188.6992 155.6781
L174.8355 153.7297
" />
<path d="M174.8355 153.7297
L175.8097 146.7978
" />
<path d="M175.8097 146.7978
L189.6735 148.7463
" />
<path d="M192.9179 125.6606 A0.5000 0.5000 0.0 0 0 192.4924 125.0959" />
<path d="M179.6189 123.2867 A0.5000 0.5000 0.0 0 0 179.0542 123.7122" />
<path d="M191.5182 132.0278 A0.5000 0.5000 0.0 0 0 192.0829 131.6023" />
<path d="M178.2191 129.6538 A0.5000 0.5000 0.0 0 0 178.6447 130.2186" />
<path d="M189.6039 149.2414 A0.5000 0.5000 0.0 0 0 189.1783 148.6767" />
<path d="M176.3048 146.8675 A0.5000 0.5000 0.0 0 0 175.7401 147.2930" />
<path d="M188.2043 155.6073 A0.5000 0.5000 0.0 0 0 188.7690 155.1818" />
<path d="M174.9050 153.2346 A0.5000 0.5000 0.0 0 0 175.3306 153.7993" />
</g>
<g style="fill:#000000; fill-opacity:0.0; 
stroke:#000000; stroke-width:0.1200; stroke-opacity:1; 
stroke-linecap:round; stroke-linejoin:round;">
<path d="M220.8551 86.6304
L234.8551 86.6304
" />
<path d="M234.8551 86.6304
L234.8551 100.6304
" />
<path d="M234.8551 100.6304
L220.8551 100.6304
" />
<path d="M220.8551 100.6304
L220.8551 86.6304
" />
<path d="M179.7551 102.6804
L193.7551 102.6804
" />
<path d="M193.7551 102.6804
L193.7551 116.6804
" />
<path d="M193.7551 116.6804
L179.7551 116.6804
" />
<path d="M179.7551 116.6804
L179.7551 102.6804
" />
</g>
<g style="fill:#000000; fill-opacity:0.0; 
stroke:#000000; stroke-width:0.1000; stroke-opacity:1; 
stroke-linecap:round; stroke-linejoin:round;">
<circle cx="39.8951" cy="34.5304" r="1.1000" /> 
</g>
<g style="fill:#000000; fill-opacity:0.0; 
stroke:#000000; stroke-width:0.1200; stroke-opacity:1; 
stroke-linecap:round; stroke-linejoin:round;">
<path d="M141.6551 76.1304
L155.6551 76.1304
" />
<path d="M155.6551 76.1304
L155.6551 90.1304
" />
<path d="M155.6551 90.1304
L141.6551 90.1304
" />
<path d="M141.6551 90.1304
L141.6551 76.1304
" />
<path d="M220.8551 48.5304
L234.8551 48.5304
" />
<path d="M234.8551 48.5304
L234.8551 62.5304
" />
<path d="M234.8551 62.5304
L220.8551 62.5304
" />
<path d="M220.8551 62.5304
L220.8551 48.5304
" />
<path d="M58.3114 129.2304
L72.3114 129.2304
" />
<path d="M72.3114 129.2304
L72.3114 143.2304
" />
<path d="M72.3114 143.2304
L58.3114 143.2304
" />
<path d="M58.3114 143.2304
L58.3114 129.2304
" />
<path d="M156.7051 15.9804
L170.7051 15.9804
" />
<path d="M170.7051 15.9804
L170.7051 29.9804
" />
<path d="M170.7051 29.9804
L156.7051 29.9804
" />
<path d="M156.7051 29.9804
L156.7051 15.9804
" />
<path d="M65.4551 53.0304
L79.4551 53.0304
" />
<path d="M79.4551 53.0304
L79.4551 67.0304
" />
<path d="M79.4551 67.0304
L65.4551 67.0304
" />
<path d="M65.4551 67.0304
L65.4551 53.0304
" />
<path d="M103.5551 85.6304
L117.5551 85.6304
" />
<path d="M117.5551 85.6304
L117.5551 99.6304
" />
<path d="M117.5551 99.6304
L103.5551 99.6304
" />
<path d="M103.5551 99.6304
L103.5551 85.6304
" />
<path d="M218.0133 127.5650
L231.8770 129.5134
" />
<path d="M231.8770 129.5134
L229.9286 143.3771
" />
<path d="M229.9286 143.3771
L216.0649 141.4287
" />
<path d="M216.0649 141.4287
L218.0133 127.5650
" />
<path d="M122.6051 61.0804
L136.6051 61.0804
" />
<path d="M136.6051 61.0804
L136.6051 75.0804
" />
<path d="M136.6051 75.0804
L122.6051 75.0804
" />
<path d="M122.6051 75.0804
L122.6051 61.0804
" />
<path d="M179.7551 83.6304
L193.7551 83.6304
" />
<path d="M193.7551 83.6304
L193.7551 97.6304
" />
<path d="M193.7551 97.6304
L179.7551 97.6304
" />
<path d="M179.7551 97.6304
L179.7551 83.6304
" />
<path d="M67.5489 105.1304
L53.5489 105.1304
" />
<path d="M53.5489 105.1304
L53.5489 91.1304
" />
<path d="M53.5489 91.1304
L67.5489 91.1304
" />
<path d="M67.5489 91.1304
L67.5489 105.1304
" />
<path d="M198.8051 48.0304
L212.8051 48.0304
" />
<path d="M212.8051 48.0304
L212.8051 62.0304
" />
<path d="M212.8051 62.0304
L198.8051 62.0304
" />
<path d="M198.8051 62.0304
L198.8051 48.0304
" />
<path d="M141.6551 114.2304
L155.6551 114.2304
" />
<path d="M155.6551 114.2304
L155.6551 128.2304
" />
<path d="M155.6551 128.2304
L141.6551 128.2304
" />
<path d="M141.6551 128.2304
L141.6551 114.2304
" />
<path d="M159.0996 136.1177
L172.9634 138.0662
" />
<path d="M172.9634 138.0662
L171.0150 151.9299
" />
<path d="M171.0150 151.9299
L157.1512 149.9815
" />
<path d="M157.1512 149.9815
L159.0996 136.1177
" />
</g>
<g style="fill:#000000; fill-opacity:0.0; 
stroke:#000000; stroke-width:0.0500; stroke-opacity:1; 
stroke-linecap:round; stroke-linejoin:round;">
<path d="M196.1751 156.7280
L209.0486 158.5372
" />
<path d="M195.7496 156.1632
L196.5846 150.2216
" />
<path d="M209.6133 158.1117
L210.4484 152.1701
" />
<path d="M197.1493 149.7961
L210.0228 151.6053
" />
<path d="M199.4892 133.1472
L212.3627 134.9565
" />
<path d="M199.0636 132.5825
L199.8985 126.6421
" />
<path d="M212.9274 134.5309
L213.7624 128.5893
" />
<path d="M200.4632 126.2165
L213.3369 128.0246
" />
<path d="M195.6800 156.6584
L196.6542 149.7265
" />
<path d="M196.6542 149.7265
L210.5180 151.6749
" />
<path d="M210.5180 151.6749
L209.5437 158.6068
" />
<path d="M209.5437 158.6068
L195.6800 156.6584
" />
<path d="M198.9940 133.0776
L199.9683 126.1457
" />
<path d="M199.9683 126.1457
L213.8320 128.0942
" />
<path d="M213.8320 128.0942
L212.8578 135.0260
" />
<path d="M212.8578 135.0260
L198.9940 133.0776
" />
<path d="M195.7496 156.1632 A0.5000 0.5000 0.0 0 0 196.1751 156.7280" />
<path d="M209.0486 158.5372 A0.5000 0.5000 0.0 0 0 209.6133 158.1117" />
<path d="M197.1493 149.7961 A0.5000 0.5000 0.0 0 0 196.5846 150.2216" />
<path d="M210.4484 152.1701 A0.5000 0.5000 0.0 0 0 210.0228 151.6053" />
<path d="M199.0636 132.5825 A0.5000 0.5000 0.0 0 0 199.4892 133.1472" />
<path d="M212.3627 134.9564 A0.5000 0.5000 0.0 0 0 212.9274 134.5309" />
<path d="M200.4632 126.2166 A0.5000 0.5000 0.0 0 0 199.8985 126.6421" />
<path d="M213.7625 128.5893 A0.5000 0.5000 0.0 0 0 213.3369 128.0246" />
</g>
<g style="fill:#000000; fill-opacity:0.0; 
stroke:#000000; stroke-width:0.1200; stroke-opacity:1; 
stroke-linecap:round; stroke-linejoin:round;">
<path d="M65.4551 72.0804
L79.4551 72.0804
" />
<path d="M79.4551 72.0804
L79.4551 86.0804
" />
<path d="M79.4551 86.0804
L65.4551 86.0804
" />
<path d="M65.4551 86.0804
L65.4551 72.0804
" />
</g>
<g style="fill:#000000; fill-opacity:0.0; 
stroke:#000000; stroke-width:0.1000; stroke-opacity:1; 
stroke-linecap:round; stroke-linejoin:round;">
<circle cx="51.3951" cy="129.6604" r="1.1000" /> 
</g>
<g style="fill:#000000; fill-opacity:0.0; 
stroke:#000000; stroke-width:0.1200; stroke-opacity:1; 
stroke-linecap:round; stroke-linejoin:round;">
<path d="M122.6051 99.1804
L136.6051 99.1804
" />
<path d="M136.6051 99.1804
L136.6051 113.1804
" />
<path d="M136.6051 113.1804
L122.6051 113.1804
" />
<path d="M122.6051 113.1804
L122.6051 99.1804
" />
<path d="M197.8231 134.3460
L211.6868 136.2944
" />
<path d="M211.6868 136.2944
L209.7384 150.1582
" />
<path d="M209.7384 150.1582
L195.8746 148.2098
" />
<path d="M195.8746 148.2098
L197.8231 134.3460
" />
<path d="M160.7051 62.0804
L174.7051 62.0804
" />
<path d="M174.7051 62.0804
L174.7051 76.0804
" />
<path d="M174.7051 76.0804
L160.7051 76.0804
" />
<path d="M160.7051 76.0804
L160.7051 62.0804
" />
<path d="M160.7051 43.0304
L174.7051 43.0304
" />
<path d="M174.7051 43.0304
L174.7051 57.0304
" />
<path d="M174.7051 57.0304
L160.7051 57.0304
" />
<path d="M160.7051 57.0304
L160.7051 43.0304
" />
<path d="M160.7051 81.1304
L174.7051 81.1304
" />
<path d="M174.7051 81.1304
L174.7051 95.1304
" />
<path d="M174.7051 95.1304
L160.7051 95.1304
" />
<path d="M160.7051 95.1304
L160.7051 81.1304
" />
<path d="M179.7551 45.5304
L193.7551 45.5304
" />
<path d="M193.7551 45.5304
L193.7551 59.5304
" />
<path d="M193.7551 59.5304
L179.7551 59.5304
" />
<path d="M179.7551 59.5304
L179.7551 45.5304
" />
<path d="M81.8364 124.1804
L67.8364 124.1804
" />
<path d="M67.8364 124.1804
L67.8364 110.1804
" />
<path d="M67.8364 110.1804
L81.8364 110.1804
" />
<path d="M81.8364 110.1804
L81.8364 124.1804
" />
<path d="M86.5989 124.1804
L72.5989 124.1804
" />
<path d="M72.5989 124.1804
L72.5989 110.1804
" />
<path d="M72.5989 110.1804
L86.5989 110.1804
" />
<path d="M86.5989 110.1804
L86.5989 124.1804
" />
<path d="M199.3051 104.1804
L212.3051 104.1804
" />
<path d="M212.3051 104.1804
L212.3051 119.7804
" />
<path d="M212.3051 119.7804
L199.3051 119.7804
" />
<path d="M199.3051 119.7804
L199.3051 104.1804
" />
<g >
</g>
<g >
</g>
<g >
</g>
<g >
</g>
<g >
</g>
<g >
</g>
<g >
</g>
<g >
</g>
<g >
</g>
<g >
</g>
<g >
</g>
<g >
</g>
<g >
</g>
<g >
</g>
<g >
</g>
<g >
</g>
<g >
</g>
<g >
</g>
<g >
</g>
<g >
</g>
<g >
</g>
<g >
</g>
<g >
</g>
<g >
</g>
<g >
</g>
<g >
</g>
<g >
</g>
<g >
</g>
<g >
</g>
<g >
</g>
<g >
</g>
<g >
</g>
<g >
</g>
<g >
</g>
<g >
</g>
<g >
</g>
<g >
</g>
<g >
</g>
<g >
</g>
<g >
</g>
<g >
</g>
<g >
</g>
<g >
</g>
<g >
</g>
<g >
</g>
<g >
</g>
<g >
</g>
<g >
</g>
<g >
</g>
<g >
</g>
<g >
</g>
<g >
</g>
<g >
</g>
<g >
</g>
<g >
</g>
<g >
</g>
<g >
</g>
<g >
</g>
<g >
</g>
<g >
</g>
<g >
</g>
<g >
</g>
<g >
</g>
<g >
</g>
<g >
</g>
<g >
</g>
<g >
</g>
<g >
</g>
<g >
</g>
<g >
</g>
<g >
</g>
<g >
</g>
<g >
</g>
<g >
</g>
<g >
</g>
<g >
</g>
<g >
</g>
<g >
</g>
<g >
</g>
<g >
</g>
<g >
</g>
<g >
</g>
<g >
</g>
<g >
</g>
<g >
</g>
<g >
</g>
<g >
</g>
<g >
</g>
<g >
</g>
<g >
</g>
<g >
</g>
<g >
</g>
<g >
</g>
<g >
</g>
<g >
</g>
<g >
</g>
<g >
</g>
<g >
</g>
<g >
</g>
<g >
</g>
<g >
</g>
<g >
</g>
<g >
</g>
<g >
</g>
<g >
</g>
<g >
</g>
<g >
</g>
<g >
</g>
<g >
</g>
<g >
</g>
<g >
</g>
<g >
</g>
<g >
</g>
<g >
</g>
<g >
</g>
<g >
</g>
<g >
</g>
<g >
</g>
<g >
</g>
<g >
</g>
<g >
</g>
<g >
</g>
<g >
</g>
<g >
</g>
<g >
</g>
<g >
</g>
<g >
</g>
<g >
</g>
<g >
</g>
<g >
</g>
<g >
</g>
<g >
</g>
<g >
</g>
<g >
</g>
<g >
</g>
<g >
</g>
<g >
</g>
<g >
</g>
<g >
</g>
<g >
</g>
<g >
</g>
<g >
</g>
<g >
</g>
<g >
</g>
<g >
</g>
<g >
</g>
<g >
</g>
<g >
</g>
<g >
</g>
<g >
</g>
<g >
</g>
<g >
</g>
<g >
</g>
<g >
</g>
<g >
</g>
<g >
</g>
<g >
</g>
<g >
</g>
<g >
</g>
</g> 
</svg>
