solid ASCII
  facet normal -9.914449e-01 -1.305262e-01 -0.000000e+00
    outer loop
      vertex   5.671840e+01 1.513966e+02 1.600000e+00
      vertex   5.671840e+01 1.513966e+02 0.000000e+00
      vertex   5.675588e+01 1.511119e+02 1.600000e+00
    endloop
  endfacet
  facet normal -9.914449e-01 -1.305262e-01 -0.000000e+00
    outer loop
      vertex   5.675588e+01 1.511119e+02 1.600000e+00
      vertex   5.671840e+01 1.513966e+02 0.000000e+00
      vertex   5.675588e+01 1.511119e+02 0.000000e+00
    endloop
  endfacet
  facet normal -9.914449e-01 1.305262e-01 0.000000e+00
    outer loop
      vertex   5.675588e+01 1.511119e+02 1.600000e+00
      vertex   5.675588e+01 1.511119e+02 0.000000e+00
      vertex   5.671840e+01 1.508272e+02 1.600000e+00
    endloop
  endfacet
  facet normal -9.914449e-01 1.305262e-01 0.000000e+00
    outer loop
      vertex   5.671840e+01 1.508272e+02 1.600000e+00
      vertex   5.675588e+01 1.511119e+02 0.000000e+00
      vertex   5.671840e+01 1.508272e+02 0.000000e+00
    endloop
  endfacet
  facet normal -9.238795e-01 3.826834e-01 0.000000e+00
    outer loop
      vertex   5.671840e+01 1.508272e+02 1.600000e+00
      vertex   5.671840e+01 1.508272e+02 0.000000e+00
      vertex   5.660851e+01 1.505619e+02 1.600000e+00
    endloop
  endfacet
  facet normal -9.238795e-01 3.826834e-01 0.000000e+00
    outer loop
      vertex   5.660851e+01 1.505619e+02 1.600000e+00
      vertex   5.671840e+01 1.508272e+02 0.000000e+00
      vertex   5.660851e+01 1.505619e+02 0.000000e+00
    endloop
  endfacet
  facet normal -7.933533e-01 6.087614e-01 0.000000e+00
    outer loop
      vertex   5.660851e+01 1.505619e+02 1.600000e+00
      vertex   5.660851e+01 1.505619e+02 0.000000e+00
      vertex   5.643370e+01 1.503341e+02 1.600000e+00
    endloop
  endfacet
  facet normal -7.933533e-01 6.087614e-01 0.000000e+00
    outer loop
      vertex   5.643370e+01 1.503341e+02 1.600000e+00
      vertex   5.660851e+01 1.505619e+02 0.000000e+00
      vertex   5.643370e+01 1.503341e+02 0.000000e+00
    endloop
  endfacet
  facet normal -6.087614e-01 7.933533e-01 0.000000e+00
    outer loop
      vertex   5.643370e+01 1.503341e+02 1.600000e+00
      vertex   5.643370e+01 1.503341e+02 0.000000e+00
      vertex   5.620589e+01 1.501593e+02 1.600000e+00
    endloop
  endfacet
  facet normal -6.087614e-01 7.933533e-01 0.000000e+00
    outer loop
      vertex   5.620589e+01 1.501593e+02 1.600000e+00
      vertex   5.643370e+01 1.503341e+02 0.000000e+00
      vertex   5.620589e+01 1.501593e+02 0.000000e+00
    endloop
  endfacet
  facet normal -3.826834e-01 9.238795e-01 0.000000e+00
    outer loop
      vertex   5.620589e+01 1.501593e+02 1.600000e+00
      vertex   5.620589e+01 1.501593e+02 0.000000e+00
      vertex   5.594059e+01 1.500494e+02 1.600000e+00
    endloop
  endfacet
  facet normal -3.826834e-01 9.238795e-01 0.000000e+00
    outer loop
      vertex   5.594059e+01 1.500494e+02 1.600000e+00
      vertex   5.620589e+01 1.501593e+02 0.000000e+00
      vertex   5.594059e+01 1.500494e+02 0.000000e+00
    endloop
  endfacet
  facet normal -1.305262e-01 9.914449e-01 0.000000e+00
    outer loop
      vertex   5.594059e+01 1.500494e+02 1.600000e+00
      vertex   5.594059e+01 1.500494e+02 0.000000e+00
      vertex   5.565589e+01 1.500119e+02 1.600000e+00
    endloop
  endfacet
  facet normal -1.305262e-01 9.914449e-01 0.000000e+00
    outer loop
      vertex   5.565589e+01 1.500119e+02 1.600000e+00
      vertex   5.594059e+01 1.500494e+02 0.000000e+00
      vertex   5.565589e+01 1.500119e+02 0.000000e+00
    endloop
  endfacet
  facet normal 1.305262e-01 9.914449e-01 0.000000e+00
    outer loop
      vertex   5.565589e+01 1.500119e+02 1.600000e+00
      vertex   5.565589e+01 1.500119e+02 0.000000e+00
      vertex   5.537119e+01 1.500494e+02 1.600000e+00
    endloop
  endfacet
  facet normal 1.305262e-01 9.914449e-01 0.000000e+00
    outer loop
      vertex   5.537119e+01 1.500494e+02 1.600000e+00
      vertex   5.565589e+01 1.500119e+02 0.000000e+00
      vertex   5.537119e+01 1.500494e+02 0.000000e+00
    endloop
  endfacet
  facet normal 3.826834e-01 9.238795e-01 0.000000e+00
    outer loop
      vertex   5.537119e+01 1.500494e+02 1.600000e+00
      vertex   5.537119e+01 1.500494e+02 0.000000e+00
      vertex   5.510589e+01 1.501593e+02 1.600000e+00
    endloop
  endfacet
  facet normal 3.826834e-01 9.238795e-01 0.000000e+00
    outer loop
      vertex   5.510589e+01 1.501593e+02 1.600000e+00
      vertex   5.537119e+01 1.500494e+02 0.000000e+00
      vertex   5.510589e+01 1.501593e+02 0.000000e+00
    endloop
  endfacet
  facet normal 6.087614e-01 7.933533e-01 0.000000e+00
    outer loop
      vertex   5.510589e+01 1.501593e+02 1.600000e+00
      vertex   5.510589e+01 1.501593e+02 0.000000e+00
      vertex   5.487808e+01 1.503341e+02 1.600000e+00
    endloop
  endfacet
  facet normal 6.087614e-01 7.933533e-01 0.000000e+00
    outer loop
      vertex   5.487808e+01 1.503341e+02 1.600000e+00
      vertex   5.510589e+01 1.501593e+02 0.000000e+00
      vertex   5.487808e+01 1.503341e+02 0.000000e+00
    endloop
  endfacet
  facet normal 7.933533e-01 6.087614e-01 0.000000e+00
    outer loop
      vertex   5.487808e+01 1.503341e+02 1.600000e+00
      vertex   5.487808e+01 1.503341e+02 0.000000e+00
      vertex   5.470327e+01 1.505619e+02 1.600000e+00
    endloop
  endfacet
  facet normal 7.933533e-01 6.087614e-01 0.000000e+00
    outer loop
      vertex   5.470327e+01 1.505619e+02 1.600000e+00
      vertex   5.487808e+01 1.503341e+02 0.000000e+00
      vertex   5.470327e+01 1.505619e+02 0.000000e+00
    endloop
  endfacet
  facet normal 9.238795e-01 3.826834e-01 0.000000e+00
    outer loop
      vertex   5.470327e+01 1.505619e+02 1.600000e+00
      vertex   5.470327e+01 1.505619e+02 0.000000e+00
      vertex   5.459338e+01 1.508272e+02 1.600000e+00
    endloop
  endfacet
  facet normal 9.238795e-01 3.826834e-01 0.000000e+00
    outer loop
      vertex   5.459338e+01 1.508272e+02 1.600000e+00
      vertex   5.470327e+01 1.505619e+02 0.000000e+00
      vertex   5.459338e+01 1.508272e+02 0.000000e+00
    endloop
  endfacet
  facet normal 9.914449e-01 1.305262e-01 0.000000e+00
    outer loop
      vertex   5.459338e+01 1.508272e+02 1.600000e+00
      vertex   5.459338e+01 1.508272e+02 0.000000e+00
      vertex   5.455590e+01 1.511119e+02 1.600000e+00
    endloop
  endfacet
  facet normal 9.914449e-01 1.305262e-01 0.000000e+00
    outer loop
      vertex   5.455590e+01 1.511119e+02 1.600000e+00
      vertex   5.459338e+01 1.508272e+02 0.000000e+00
      vertex   5.455590e+01 1.511119e+02 0.000000e+00
    endloop
  endfacet
  facet normal 9.914449e-01 -1.305262e-01 0.000000e+00
    outer loop
      vertex   5.455590e+01 1.511119e+02 1.600000e+00
      vertex   5.455590e+01 1.511119e+02 0.000000e+00
      vertex   5.459338e+01 1.513966e+02 1.600000e+00
    endloop
  endfacet
  facet normal 9.914449e-01 -1.305262e-01 0.000000e+00
    outer loop
      vertex   5.459338e+01 1.513966e+02 1.600000e+00
      vertex   5.455590e+01 1.511119e+02 0.000000e+00
      vertex   5.459338e+01 1.513966e+02 0.000000e+00
    endloop
  endfacet
  facet normal 9.238795e-01 -3.826834e-01 0.000000e+00
    outer loop
      vertex   5.459338e+01 1.513966e+02 1.600000e+00
      vertex   5.459338e+01 1.513966e+02 0.000000e+00
      vertex   5.470327e+01 1.516619e+02 1.600000e+00
    endloop
  endfacet
  facet normal 9.238795e-01 -3.826834e-01 0.000000e+00
    outer loop
      vertex   5.470327e+01 1.516619e+02 1.600000e+00
      vertex   5.459338e+01 1.513966e+02 0.000000e+00
      vertex   5.470327e+01 1.516619e+02 0.000000e+00
    endloop
  endfacet
  facet normal 7.933533e-01 -6.087614e-01 0.000000e+00
    outer loop
      vertex   5.470327e+01 1.516619e+02 1.600000e+00
      vertex   5.470327e+01 1.516619e+02 0.000000e+00
      vertex   5.487808e+01 1.518897e+02 1.600000e+00
    endloop
  endfacet
  facet normal 7.933533e-01 -6.087614e-01 0.000000e+00
    outer loop
      vertex   5.487808e+01 1.518897e+02 1.600000e+00
      vertex   5.470327e+01 1.516619e+02 0.000000e+00
      vertex   5.487808e+01 1.518897e+02 0.000000e+00
    endloop
  endfacet
  facet normal 6.087614e-01 -7.933533e-01 0.000000e+00
    outer loop
      vertex   5.487808e+01 1.518897e+02 1.600000e+00
      vertex   5.487808e+01 1.518897e+02 0.000000e+00
      vertex   5.510589e+01 1.520645e+02 1.600000e+00
    endloop
  endfacet
  facet normal 6.087614e-01 -7.933533e-01 0.000000e+00
    outer loop
      vertex   5.510589e+01 1.520645e+02 1.600000e+00
      vertex   5.487808e+01 1.518897e+02 0.000000e+00
      vertex   5.510589e+01 1.520645e+02 0.000000e+00
    endloop
  endfacet
  facet normal 3.826834e-01 -9.238795e-01 0.000000e+00
    outer loop
      vertex   5.510589e+01 1.520645e+02 1.600000e+00
      vertex   5.510589e+01 1.520645e+02 0.000000e+00
      vertex   5.537119e+01 1.521744e+02 1.600000e+00
    endloop
  endfacet
  facet normal 3.826834e-01 -9.238795e-01 0.000000e+00
    outer loop
      vertex   5.537119e+01 1.521744e+02 1.600000e+00
      vertex   5.510589e+01 1.520645e+02 0.000000e+00
      vertex   5.537119e+01 1.521744e+02 0.000000e+00
    endloop
  endfacet
  facet normal 1.305262e-01 -9.914449e-01 0.000000e+00
    outer loop
      vertex   5.537119e+01 1.521744e+02 1.600000e+00
      vertex   5.537119e+01 1.521744e+02 0.000000e+00
      vertex   5.565589e+01 1.522119e+02 1.600000e+00
    endloop
  endfacet
  facet normal 1.305262e-01 -9.914449e-01 0.000000e+00
    outer loop
      vertex   5.565589e+01 1.522119e+02 1.600000e+00
      vertex   5.537119e+01 1.521744e+02 0.000000e+00
      vertex   5.565589e+01 1.522119e+02 0.000000e+00
    endloop
  endfacet
  facet normal -1.305262e-01 -9.914449e-01 -0.000000e+00
    outer loop
      vertex   5.565589e+01 1.522119e+02 1.600000e+00
      vertex   5.565589e+01 1.522119e+02 0.000000e+00
      vertex   5.594059e+01 1.521744e+02 1.600000e+00
    endloop
  endfacet
  facet normal -1.305262e-01 -9.914449e-01 -0.000000e+00
    outer loop
      vertex   5.594059e+01 1.521744e+02 1.600000e+00
      vertex   5.565589e+01 1.522119e+02 0.000000e+00
      vertex   5.594059e+01 1.521744e+02 0.000000e+00
    endloop
  endfacet
  facet normal -3.826834e-01 -9.238795e-01 -0.000000e+00
    outer loop
      vertex   5.594059e+01 1.521744e+02 1.600000e+00
      vertex   5.594059e+01 1.521744e+02 0.000000e+00
      vertex   5.620589e+01 1.520645e+02 1.600000e+00
    endloop
  endfacet
  facet normal -3.826834e-01 -9.238795e-01 -0.000000e+00
    outer loop
      vertex   5.620589e+01 1.520645e+02 1.600000e+00
      vertex   5.594059e+01 1.521744e+02 0.000000e+00
      vertex   5.620589e+01 1.520645e+02 0.000000e+00
    endloop
  endfacet
  facet normal -6.087614e-01 -7.933533e-01 -0.000000e+00
    outer loop
      vertex   5.620589e+01 1.520645e+02 1.600000e+00
      vertex   5.620589e+01 1.520645e+02 0.000000e+00
      vertex   5.643370e+01 1.518897e+02 1.600000e+00
    endloop
  endfacet
  facet normal -6.087614e-01 -7.933533e-01 -0.000000e+00
    outer loop
      vertex   5.643370e+01 1.518897e+02 1.600000e+00
      vertex   5.620589e+01 1.520645e+02 0.000000e+00
      vertex   5.643370e+01 1.518897e+02 0.000000e+00
    endloop
  endfacet
  facet normal -7.933533e-01 -6.087614e-01 -0.000000e+00
    outer loop
      vertex   5.643370e+01 1.518897e+02 1.600000e+00
      vertex   5.643370e+01 1.518897e+02 0.000000e+00
      vertex   5.660851e+01 1.516619e+02 1.600000e+00
    endloop
  endfacet
  facet normal -7.933533e-01 -6.087614e-01 -0.000000e+00
    outer loop
      vertex   5.660851e+01 1.516619e+02 1.600000e+00
      vertex   5.643370e+01 1.518897e+02 0.000000e+00
      vertex   5.660851e+01 1.516619e+02 0.000000e+00
    endloop
  endfacet
  facet normal -9.238795e-01 -3.826834e-01 -0.000000e+00
    outer loop
      vertex   5.660851e+01 1.516619e+02 1.600000e+00
      vertex   5.660851e+01 1.516619e+02 0.000000e+00
      vertex   5.671840e+01 1.513966e+02 1.600000e+00
    endloop
  endfacet
  facet normal -9.238795e-01 -3.826834e-01 -0.000000e+00
    outer loop
      vertex   5.671840e+01 1.513966e+02 1.600000e+00
      vertex   5.660851e+01 1.516619e+02 0.000000e+00
      vertex   5.671840e+01 1.513966e+02 0.000000e+00
    endloop
  endfacet
  facet normal 1.135583e-01 -9.935313e-01 0.000000e+00
    outer loop
      vertex   1.147900e+02 1.351370e+02 1.600000e+00
      vertex   1.147900e+02 1.351370e+02 0.000000e+00
      vertex   1.152414e+02 1.351886e+02 1.600000e+00
    endloop
  endfacet
  facet normal 1.135583e-01 -9.935313e-01 0.000000e+00
    outer loop
      vertex   1.152414e+02 1.351886e+02 1.600000e+00
      vertex   1.147900e+02 1.351370e+02 0.000000e+00
      vertex   1.152414e+02 1.351886e+02 0.000000e+00
    endloop
  endfacet
  facet normal 3.348232e-01 -9.422810e-01 0.000000e+00
    outer loop
      vertex   1.152414e+02 1.351886e+02 1.600000e+00
      vertex   1.152414e+02 1.351886e+02 0.000000e+00
      vertex   1.156695e+02 1.353408e+02 1.600000e+00
    endloop
  endfacet
  facet normal 3.348232e-01 -9.422810e-01 0.000000e+00
    outer loop
      vertex   1.156695e+02 1.353408e+02 1.600000e+00
      vertex   1.152414e+02 1.351886e+02 0.000000e+00
      vertex   1.156695e+02 1.353408e+02 0.000000e+00
    endloop
  endfacet
  facet normal 5.388163e-01 -8.424233e-01 0.000000e+00
    outer loop
      vertex   1.156695e+02 1.353408e+02 1.600000e+00
      vertex   1.156695e+02 1.353408e+02 0.000000e+00
      vertex   1.160523e+02 1.355856e+02 1.600000e+00
    endloop
  endfacet
  facet normal 5.388163e-01 -8.424233e-01 0.000000e+00
    outer loop
      vertex   1.160523e+02 1.355856e+02 1.600000e+00
      vertex   1.156695e+02 1.353408e+02 0.000000e+00
      vertex   1.160523e+02 1.355856e+02 0.000000e+00
    endloop
  endfacet
  facet normal 7.150147e-01 -6.991094e-01 0.000000e+00
    outer loop
      vertex   1.160523e+02 1.355856e+02 1.600000e+00
      vertex   1.160523e+02 1.355856e+02 0.000000e+00
      vertex   1.163699e+02 1.359104e+02 1.600000e+00
    endloop
  endfacet
  facet normal 7.150147e-01 -6.991094e-01 0.000000e+00
    outer loop
      vertex   1.163699e+02 1.359104e+02 1.600000e+00
      vertex   1.160523e+02 1.355856e+02 0.000000e+00
      vertex   1.163699e+02 1.359104e+02 0.000000e+00
    endloop
  endfacet
  facet normal 8.543293e-01 -5.197321e-01 0.000000e+00
    outer loop
      vertex   1.163699e+02 1.359104e+02 1.600000e+00
      vertex   1.163699e+02 1.359104e+02 0.000000e+00
      vertex   1.166061e+02 1.362986e+02 1.600000e+00
    endloop
  endfacet
  facet normal 8.543293e-01 -5.197321e-01 0.000000e+00
    outer loop
      vertex   1.166061e+02 1.362986e+02 1.600000e+00
      vertex   1.163699e+02 1.359104e+02 0.000000e+00
      vertex   1.166061e+02 1.362986e+02 0.000000e+00
    endloop
  endfacet
  facet normal 9.495735e-01 -3.135446e-01 0.000000e+00
    outer loop
      vertex   1.166061e+02 1.362986e+02 1.600000e+00
      vertex   1.166061e+02 1.362986e+02 0.000000e+00
      vertex   1.167485e+02 1.367301e+02 1.600000e+00
    endloop
  endfacet
  facet normal 9.495735e-01 -3.135446e-01 0.000000e+00
    outer loop
      vertex   1.167485e+02 1.367301e+02 1.600000e+00
      vertex   1.166061e+02 1.362986e+02 0.000000e+00
      vertex   1.167485e+02 1.367301e+02 0.000000e+00
    endloop
  endfacet
  facet normal 9.958342e-01 -9.118292e-02 0.000000e+00
    outer loop
      vertex   1.167485e+02 1.367301e+02 1.600000e+00
      vertex   1.167485e+02 1.367301e+02 0.000000e+00
      vertex   1.167899e+02 1.371825e+02 1.600000e+00
    endloop
  endfacet
  facet normal 9.958342e-01 -9.118292e-02 0.000000e+00
    outer loop
      vertex   1.167899e+02 1.371825e+02 1.600000e+00
      vertex   1.167485e+02 1.367301e+02 0.000000e+00
      vertex   1.167899e+02 1.371825e+02 0.000000e+00
    endloop
  endfacet
  facet normal -1.341026e-05 -1.000000e+00 0.000000e+00
    outer loop
      vertex   4.026170e+01 1.351380e+02 0.000000e+00
      vertex   1.147900e+02 1.351370e+02 0.000000e+00
      vertex   4.026170e+01 1.351380e+02 1.600000e+00
    endloop
  endfacet
  facet normal -1.341026e-05 -1.000000e+00 0.000000e+00
    outer loop
      vertex   4.026170e+01 1.351380e+02 1.600000e+00
      vertex   1.147900e+02 1.351370e+02 0.000000e+00
      vertex   1.147900e+02 1.351370e+02 1.600000e+00
    endloop
  endfacet
  facet normal -8.827100e-01 4.699181e-01 0.000000e+00
    outer loop
      vertex   3.936971e+01 1.368504e+02 1.600000e+00
      vertex   3.936971e+01 1.368504e+02 0.000000e+00
      vertex   3.924605e+01 1.366181e+02 1.600000e+00
    endloop
  endfacet
  facet normal -8.827100e-01 4.699181e-01 0.000000e+00
    outer loop
      vertex   3.924605e+01 1.366181e+02 1.600000e+00
      vertex   3.936971e+01 1.368504e+02 0.000000e+00
      vertex   3.924605e+01 1.366181e+02 0.000000e+00
    endloop
  endfacet
  facet normal -9.696893e-01 2.443415e-01 0.000000e+00
    outer loop
      vertex   3.924605e+01 1.366181e+02 1.600000e+00
      vertex   3.924605e+01 1.366181e+02 0.000000e+00
      vertex   3.918175e+01 1.363629e+02 1.600000e+00
    endloop
  endfacet
  facet normal -9.696893e-01 2.443415e-01 0.000000e+00
    outer loop
      vertex   3.918175e+01 1.363629e+02 1.600000e+00
      vertex   3.924605e+01 1.366181e+02 0.000000e+00
      vertex   3.918175e+01 1.363629e+02 0.000000e+00
    endloop
  endfacet
  facet normal -9.999900e-01 4.483038e-03 0.000000e+00
    outer loop
      vertex   3.918175e+01 1.363629e+02 1.600000e+00
      vertex   3.918175e+01 1.363629e+02 0.000000e+00
      vertex   3.918057e+01 1.360998e+02 1.600000e+00
    endloop
  endfacet
  facet normal -9.999900e-01 4.483038e-03 0.000000e+00
    outer loop
      vertex   3.918057e+01 1.360998e+02 1.600000e+00
      vertex   3.918175e+01 1.363629e+02 0.000000e+00
      vertex   3.918057e+01 1.360998e+02 0.000000e+00
    endloop
  endfacet
  facet normal -9.718410e-01 -2.356374e-01 -0.000000e+00
    outer loop
      vertex   3.918057e+01 1.360998e+02 1.600000e+00
      vertex   3.918057e+01 1.360998e+02 0.000000e+00
      vertex   3.924258e+01 1.358440e+02 1.600000e+00
    endloop
  endfacet
  facet normal -9.718410e-01 -2.356374e-01 -0.000000e+00
    outer loop
      vertex   3.924258e+01 1.358440e+02 1.600000e+00
      vertex   3.918057e+01 1.360998e+02 0.000000e+00
      vertex   3.924258e+01 1.358440e+02 0.000000e+00
    endloop
  endfacet
  facet normal -8.868878e-01 -4.619849e-01 -0.000000e+00
    outer loop
      vertex   3.924258e+01 1.358440e+02 1.600000e+00
      vertex   3.924258e+01 1.358440e+02 0.000000e+00
      vertex   3.936415e+01 1.356106e+02 1.600000e+00
    endloop
  endfacet
  facet normal -8.868878e-01 -4.619849e-01 -0.000000e+00
    outer loop
      vertex   3.936415e+01 1.356106e+02 1.600000e+00
      vertex   3.924258e+01 1.358440e+02 0.000000e+00
      vertex   3.936415e+01 1.356106e+02 0.000000e+00
    endloop
  endfacet
  facet normal -7.500958e-01 -6.613292e-01 -0.000000e+00
    outer loop
      vertex   3.936415e+01 1.356106e+02 1.600000e+00
      vertex   3.936415e+01 1.356106e+02 0.000000e+00
      vertex   3.953819e+01 1.354133e+02 1.600000e+00
    endloop
  endfacet
  facet normal -7.500958e-01 -6.613292e-01 -0.000000e+00
    outer loop
      vertex   3.953819e+01 1.354133e+02 1.600000e+00
      vertex   3.936415e+01 1.356106e+02 0.000000e+00
      vertex   3.953819e+01 1.354133e+02 0.000000e+00
    endloop
  endfacet
  facet normal -5.694606e-01 -8.220186e-01 -0.000000e+00
    outer loop
      vertex   3.953819e+01 1.354133e+02 1.600000e+00
      vertex   3.953819e+01 1.354133e+02 0.000000e+00
      vertex   3.975451e+01 1.352634e+02 1.600000e+00
    endloop
  endfacet
  facet normal -5.694606e-01 -8.220186e-01 -0.000000e+00
    outer loop
      vertex   3.975451e+01 1.352634e+02 1.600000e+00
      vertex   3.953819e+01 1.354133e+02 0.000000e+00
      vertex   3.975451e+01 1.352634e+02 0.000000e+00
    endloop
  endfacet
  facet normal -3.555402e-01 -9.346610e-01 -0.000000e+00
    outer loop
      vertex   3.975451e+01 1.352634e+02 1.600000e+00
      vertex   3.975451e+01 1.352634e+02 0.000000e+00
      vertex   4.000047e+01 1.351698e+02 1.600000e+00
    endloop
  endfacet
  facet normal -3.555402e-01 -9.346610e-01 -0.000000e+00
    outer loop
      vertex   4.000047e+01 1.351698e+02 1.600000e+00
      vertex   3.975451e+01 1.352634e+02 0.000000e+00
      vertex   4.000047e+01 1.351698e+02 0.000000e+00
    endloop
  endfacet
  facet normal -1.208385e-01 -9.926722e-01 -0.000000e+00
    outer loop
      vertex   4.000047e+01 1.351698e+02 1.600000e+00
      vertex   4.000047e+01 1.351698e+02 0.000000e+00
      vertex   4.026170e+01 1.351380e+02 1.600000e+00
    endloop
  endfacet
  facet normal -1.208385e-01 -9.926722e-01 -0.000000e+00
    outer loop
      vertex   4.026170e+01 1.351380e+02 1.600000e+00
      vertex   4.000047e+01 1.351698e+02 0.000000e+00
      vertex   4.026170e+01 1.351380e+02 0.000000e+00
    endloop
  endfacet
  facet normal -8.015366e-01 5.979458e-01 0.000000e+00
    outer loop
      vertex   6.662221e+01 1.733820e+02 0.000000e+00
      vertex   3.936971e+01 1.368504e+02 0.000000e+00
      vertex   6.662221e+01 1.733820e+02 1.600000e+00
    endloop
  endfacet
  facet normal -8.015366e-01 5.979458e-01 0.000000e+00
    outer loop
      vertex   6.662221e+01 1.733820e+02 1.600000e+00
      vertex   3.936971e+01 1.368504e+02 0.000000e+00
      vertex   3.936971e+01 1.368504e+02 1.600000e+00
    endloop
  endfacet
  facet normal -1.160199e-01 9.932469e-01 0.000000e+00
    outer loop
      vertex   6.822580e+01 1.741867e+02 1.600000e+00
      vertex   6.822580e+01 1.741867e+02 0.000000e+00
      vertex   6.776483e+01 1.741329e+02 1.600000e+00
    endloop
  endfacet
  facet normal -1.160199e-01 9.932469e-01 0.000000e+00
    outer loop
      vertex   6.776483e+01 1.741329e+02 1.600000e+00
      vertex   6.822580e+01 1.741867e+02 0.000000e+00
      vertex   6.776483e+01 1.741329e+02 0.000000e+00
    endloop
  endfacet
  facet normal -3.418230e-01 9.397643e-01 0.000000e+00
    outer loop
      vertex   6.776483e+01 1.741329e+02 1.600000e+00
      vertex   6.776483e+01 1.741329e+02 0.000000e+00
      vertex   6.732869e+01 1.739743e+02 1.600000e+00
    endloop
  endfacet
  facet normal -3.418230e-01 9.397643e-01 0.000000e+00
    outer loop
      vertex   6.732869e+01 1.739743e+02 1.600000e+00
      vertex   6.776483e+01 1.741329e+02 0.000000e+00
      vertex   6.732869e+01 1.739743e+02 0.000000e+00
    endloop
  endfacet
  facet normal -5.492199e-01 8.356779e-01 0.000000e+00
    outer loop
      vertex   6.732869e+01 1.739743e+02 1.600000e+00
      vertex   6.732869e+01 1.739743e+02 0.000000e+00
      vertex   6.694086e+01 1.737194e+02 1.600000e+00
    endloop
  endfacet
  facet normal -5.492199e-01 8.356779e-01 0.000000e+00
    outer loop
      vertex   6.694086e+01 1.737194e+02 1.600000e+00
      vertex   6.732869e+01 1.739743e+02 0.000000e+00
      vertex   6.694086e+01 1.737194e+02 0.000000e+00
    endloop
  endfacet
  facet normal -7.270426e-01 6.865923e-01 0.000000e+00
    outer loop
      vertex   6.694086e+01 1.737194e+02 1.600000e+00
      vertex   6.694086e+01 1.737194e+02 0.000000e+00
      vertex   6.662221e+01 1.733820e+02 1.600000e+00
    endloop
  endfacet
  facet normal -7.270426e-01 6.865923e-01 0.000000e+00
    outer loop
      vertex   6.662221e+01 1.733820e+02 1.600000e+00
      vertex   6.694086e+01 1.737194e+02 0.000000e+00
      vertex   6.662221e+01 1.733820e+02 0.000000e+00
    endloop
  endfacet
  facet normal 0.000000e+00 1.000000e+00 -0.000000e+00
    outer loop
      vertex   8.769566e+01 1.741867e+02 0.000000e+00
      vertex   6.822580e+01 1.741867e+02 0.000000e+00
      vertex   8.769566e+01 1.741867e+02 1.600000e+00
    endloop
  endfacet
  facet normal 0.000000e+00 1.000000e+00 0.000000e+00
    outer loop
      vertex   8.769566e+01 1.741867e+02 1.600000e+00
      vertex   6.822580e+01 1.741867e+02 0.000000e+00
      vertex   6.822580e+01 1.741867e+02 1.600000e+00
    endloop
  endfacet
  facet normal 9.935314e-01 1.135581e-01 0.000000e+00
    outer loop
      vertex   8.974114e+01 1.721868e+02 1.600000e+00
      vertex   8.974114e+01 1.721868e+02 0.000000e+00
      vertex   8.968954e+01 1.726382e+02 1.600000e+00
    endloop
  endfacet
  facet normal 9.935314e-01 1.135581e-01 0.000000e+00
    outer loop
      vertex   8.968954e+01 1.726382e+02 1.600000e+00
      vertex   8.974114e+01 1.721868e+02 0.000000e+00
      vertex   8.968954e+01 1.726382e+02 0.000000e+00
    endloop
  endfacet
  facet normal 9.422811e-01 3.348228e-01 0.000000e+00
    outer loop
      vertex   8.968954e+01 1.726382e+02 1.600000e+00
      vertex   8.968954e+01 1.726382e+02 0.000000e+00
      vertex   8.953742e+01 1.730663e+02 1.600000e+00
    endloop
  endfacet
  facet normal 9.422811e-01 3.348228e-01 0.000000e+00
    outer loop
      vertex   8.953742e+01 1.730663e+02 1.600000e+00
      vertex   8.968954e+01 1.726382e+02 0.000000e+00
      vertex   8.953742e+01 1.730663e+02 0.000000e+00
    endloop
  endfacet
  facet normal 8.424237e-01 5.388157e-01 0.000000e+00
    outer loop
      vertex   8.953742e+01 1.730663e+02 1.600000e+00
      vertex   8.953742e+01 1.730663e+02 0.000000e+00
      vertex   8.929260e+01 1.734491e+02 1.600000e+00
    endloop
  endfacet
  facet normal 8.424237e-01 5.388157e-01 0.000000e+00
    outer loop
      vertex   8.929260e+01 1.734491e+02 1.600000e+00
      vertex   8.953742e+01 1.730663e+02 0.000000e+00
      vertex   8.929260e+01 1.734491e+02 0.000000e+00
    endloop
  endfacet
  facet normal 6.991101e-01 7.150141e-01 0.000000e+00
    outer loop
      vertex   8.929260e+01 1.734491e+02 1.600000e+00
      vertex   8.929260e+01 1.734491e+02 0.000000e+00
      vertex   8.896773e+01 1.737667e+02 1.600000e+00
    endloop
  endfacet
  facet normal 6.991101e-01 7.150141e-01 0.000000e+00
    outer loop
      vertex   8.896773e+01 1.737667e+02 1.600000e+00
      vertex   8.929260e+01 1.734491e+02 0.000000e+00
      vertex   8.896773e+01 1.737667e+02 0.000000e+00
    endloop
  endfacet
  facet normal 5.197332e-01 8.543286e-01 0.000000e+00
    outer loop
      vertex   8.896773e+01 1.737667e+02 1.600000e+00
      vertex   8.896773e+01 1.737667e+02 0.000000e+00
      vertex   8.857956e+01 1.740029e+02 1.600000e+00
    endloop
  endfacet
  facet normal 5.197332e-01 8.543286e-01 0.000000e+00
    outer loop
      vertex   8.857956e+01 1.740029e+02 1.600000e+00
      vertex   8.896773e+01 1.737667e+02 0.000000e+00
      vertex   8.857956e+01 1.740029e+02 0.000000e+00
    endloop
  endfacet
  facet normal 3.135460e-01 9.495730e-01 0.000000e+00
    outer loop
      vertex   8.857956e+01 1.740029e+02 1.600000e+00
      vertex   8.857956e+01 1.740029e+02 0.000000e+00
      vertex   8.814812e+01 1.741453e+02 1.600000e+00
    endloop
  endfacet
  facet normal 3.135460e-01 9.495730e-01 0.000000e+00
    outer loop
      vertex   8.814812e+01 1.741453e+02 1.600000e+00
      vertex   8.857956e+01 1.740029e+02 0.000000e+00
      vertex   8.814812e+01 1.741453e+02 0.000000e+00
    endloop
  endfacet
  facet normal 9.118469e-02 9.958340e-01 0.000000e+00
    outer loop
      vertex   8.814812e+01 1.741453e+02 1.600000e+00
      vertex   8.814812e+01 1.741453e+02 0.000000e+00
      vertex   8.769566e+01 1.741867e+02 1.600000e+00
    endloop
  endfacet
  facet normal 9.118469e-02 9.958340e-01 0.000000e+00
    outer loop
      vertex   8.769566e+01 1.741867e+02 1.600000e+00
      vertex   8.814812e+01 1.741453e+02 0.000000e+00
      vertex   8.769566e+01 1.741867e+02 0.000000e+00
    endloop
  endfacet
  facet normal 1.000000e+00 -8.951784e-15 0.000000e+00
    outer loop
      vertex   8.974114e+01 1.531369e+02 0.000000e+00
      vertex   8.974114e+01 1.721868e+02 0.000000e+00
      vertex   8.974114e+01 1.531369e+02 1.600000e+00
    endloop
  endfacet
  facet normal 1.000000e+00 -8.951784e-15 0.000000e+00
    outer loop
      vertex   8.974114e+01 1.531369e+02 1.600000e+00
      vertex   8.974114e+01 1.721868e+02 0.000000e+00
      vertex   8.974114e+01 1.721868e+02 1.600000e+00
    endloop
  endfacet
  facet normal 1.998542e-05 1.000000e+00 -0.000000e+00
    outer loop
      vertex   1.147450e+02 1.531364e+02 0.000000e+00
      vertex   8.974114e+01 1.531369e+02 0.000000e+00
      vertex   1.147450e+02 1.531364e+02 1.600000e+00
    endloop
  endfacet
  facet normal 1.998542e-05 1.000000e+00 0.000000e+00
    outer loop
      vertex   1.147450e+02 1.531364e+02 1.600000e+00
      vertex   8.974114e+01 1.531369e+02 0.000000e+00
      vertex   8.974114e+01 1.531369e+02 1.600000e+00
    endloop
  endfacet
  facet normal 9.935313e-01 1.135583e-01 0.000000e+00
    outer loop
      vertex   1.167904e+02 1.511364e+02 1.600000e+00
      vertex   1.167904e+02 1.511364e+02 0.000000e+00
      vertex   1.167389e+02 1.515878e+02 1.600000e+00
    endloop
  endfacet
  facet normal 9.935313e-01 1.135583e-01 0.000000e+00
    outer loop
      vertex   1.167389e+02 1.515878e+02 1.600000e+00
      vertex   1.167904e+02 1.511364e+02 0.000000e+00
      vertex   1.167389e+02 1.515878e+02 0.000000e+00
    endloop
  endfacet
  facet normal 9.422810e-01 3.348232e-01 0.000000e+00
    outer loop
      vertex   1.167389e+02 1.515878e+02 1.600000e+00
      vertex   1.167389e+02 1.515878e+02 0.000000e+00
      vertex   1.165867e+02 1.520160e+02 1.600000e+00
    endloop
  endfacet
  facet normal 9.422810e-01 3.348232e-01 0.000000e+00
    outer loop
      vertex   1.165867e+02 1.520160e+02 1.600000e+00
      vertex   1.167389e+02 1.515878e+02 0.000000e+00
      vertex   1.165867e+02 1.520160e+02 0.000000e+00
    endloop
  endfacet
  facet normal 8.424233e-01 5.388163e-01 0.000000e+00
    outer loop
      vertex   1.165867e+02 1.520160e+02 1.600000e+00
      vertex   1.165867e+02 1.520160e+02 0.000000e+00
      vertex   1.163419e+02 1.523987e+02 1.600000e+00
    endloop
  endfacet
  facet normal 8.424233e-01 5.388163e-01 0.000000e+00
    outer loop
      vertex   1.163419e+02 1.523987e+02 1.600000e+00
      vertex   1.165867e+02 1.520160e+02 0.000000e+00
      vertex   1.163419e+02 1.523987e+02 0.000000e+00
    endloop
  endfacet
  facet normal 6.991094e-01 7.150147e-01 0.000000e+00
    outer loop
      vertex   1.163419e+02 1.523987e+02 1.600000e+00
      vertex   1.163419e+02 1.523987e+02 0.000000e+00
      vertex   1.160170e+02 1.527164e+02 1.600000e+00
    endloop
  endfacet
  facet normal 6.991094e-01 7.150147e-01 0.000000e+00
    outer loop
      vertex   1.160170e+02 1.527164e+02 1.600000e+00
      vertex   1.163419e+02 1.523987e+02 0.000000e+00
      vertex   1.160170e+02 1.527164e+02 0.000000e+00
    endloop
  endfacet
  facet normal 5.197321e-01 8.543293e-01 0.000000e+00
    outer loop
      vertex   1.160170e+02 1.527164e+02 1.600000e+00
      vertex   1.160170e+02 1.527164e+02 0.000000e+00
      vertex   1.156289e+02 1.529525e+02 1.600000e+00
    endloop
  endfacet
  facet normal 5.197321e-01 8.543293e-01 0.000000e+00
    outer loop
      vertex   1.156289e+02 1.529525e+02 1.600000e+00
      vertex   1.160170e+02 1.527164e+02 0.000000e+00
      vertex   1.156289e+02 1.529525e+02 0.000000e+00
    endloop
  endfacet
  facet normal 3.135446e-01 9.495735e-01 0.000000e+00
    outer loop
      vertex   1.156289e+02 1.529525e+02 1.600000e+00
      vertex   1.156289e+02 1.529525e+02 0.000000e+00
      vertex   1.151974e+02 1.530950e+02 1.600000e+00
    endloop
  endfacet
  facet normal 3.135446e-01 9.495735e-01 0.000000e+00
    outer loop
      vertex   1.151974e+02 1.530950e+02 1.600000e+00
      vertex   1.156289e+02 1.529525e+02 0.000000e+00
      vertex   1.151974e+02 1.530950e+02 0.000000e+00
    endloop
  endfacet
  facet normal 9.118292e-02 9.958342e-01 0.000000e+00
    outer loop
      vertex   1.151974e+02 1.530950e+02 1.600000e+00
      vertex   1.151974e+02 1.530950e+02 0.000000e+00
      vertex   1.147450e+02 1.531364e+02 1.600000e+00
    endloop
  endfacet
  facet normal 9.118292e-02 9.958342e-01 0.000000e+00
    outer loop
      vertex   1.147450e+02 1.531364e+02 1.600000e+00
      vertex   1.151974e+02 1.530950e+02 0.000000e+00
      vertex   1.147450e+02 1.531364e+02 0.000000e+00
    endloop
  endfacet
  facet normal 1.000000e+00 -3.608572e-05 0.000000e+00
    outer loop
      vertex   1.167901e+02 1.417900e+02 0.000000e+00
      vertex   1.167904e+02 1.511364e+02 0.000000e+00
      vertex   1.167901e+02 1.417900e+02 1.600000e+00
    endloop
  endfacet
  facet normal 1.000000e+00 -3.608572e-05 0.000000e+00
    outer loop
      vertex   1.167901e+02 1.417900e+02 1.600000e+00
      vertex   1.167904e+02 1.511364e+02 0.000000e+00
      vertex   1.167904e+02 1.511364e+02 1.600000e+00
    endloop
  endfacet
  facet normal 1.843863e-01 9.828539e-01 0.000000e+00
    outer loop
      vertex   1.167900e+02 1.395939e+02 1.600000e+00
      vertex   1.167900e+02 1.395939e+02 0.000000e+00
      vertex   1.165184e+02 1.396449e+02 1.600000e+00
    endloop
  endfacet
  facet normal 1.843863e-01 9.828539e-01 0.000000e+00
    outer loop
      vertex   1.165184e+02 1.396449e+02 1.600000e+00
      vertex   1.167900e+02 1.395939e+02 0.000000e+00
      vertex   1.165184e+02 1.396449e+02 0.000000e+00
    endloop
  endfacet
  facet normal 4.235273e-01 9.058833e-01 0.000000e+00
    outer loop
      vertex   1.165184e+02 1.396449e+02 1.600000e+00
      vertex   1.165184e+02 1.396449e+02 0.000000e+00
      vertex   1.162681e+02 1.397619e+02 1.600000e+00
    endloop
  endfacet
  facet normal 4.235273e-01 9.058833e-01 0.000000e+00
    outer loop
      vertex   1.162681e+02 1.397619e+02 1.600000e+00
      vertex   1.165184e+02 1.396449e+02 0.000000e+00
      vertex   1.162681e+02 1.397619e+02 0.000000e+00
    endloop
  endfacet
  facet normal 6.359383e-01 7.717399e-01 0.000000e+00
    outer loop
      vertex   1.162681e+02 1.397619e+02 1.600000e+00
      vertex   1.162681e+02 1.397619e+02 0.000000e+00
      vertex   1.160548e+02 1.399377e+02 1.600000e+00
    endloop
  endfacet
  facet normal 6.359383e-01 7.717399e-01 0.000000e+00
    outer loop
      vertex   1.160548e+02 1.399377e+02 1.600000e+00
      vertex   1.162681e+02 1.397619e+02 0.000000e+00
      vertex   1.160548e+02 1.399377e+02 0.000000e+00
    endloop
  endfacet
  facet normal 8.082134e-01 5.888897e-01 0.000000e+00
    outer loop
      vertex   1.160548e+02 1.399377e+02 1.600000e+00
      vertex   1.160548e+02 1.399377e+02 0.000000e+00
      vertex   1.158921e+02 1.401610e+02 1.600000e+00
    endloop
  endfacet
  facet normal 8.082134e-01 5.888897e-01 0.000000e+00
    outer loop
      vertex   1.158921e+02 1.401610e+02 1.600000e+00
      vertex   1.160548e+02 1.399377e+02 0.000000e+00
      vertex   1.158921e+02 1.401610e+02 0.000000e+00
    endloop
  endfacet
  facet normal 9.294798e-01 3.688730e-01 0.000000e+00
    outer loop
      vertex   1.158921e+02 1.401610e+02 1.600000e+00
      vertex   1.158921e+02 1.401610e+02 0.000000e+00
      vertex   1.157902e+02 1.404179e+02 1.600000e+00
    endloop
  endfacet
  facet normal 9.294798e-01 3.688730e-01 0.000000e+00
    outer loop
      vertex   1.157902e+02 1.404179e+02 1.600000e+00
      vertex   1.158921e+02 1.401610e+02 0.000000e+00
      vertex   1.157902e+02 1.404179e+02 0.000000e+00
    endloop
  endfacet
  facet normal 9.920841e-01 1.255756e-01 0.000000e+00
    outer loop
      vertex   1.157902e+02 1.404179e+02 1.600000e+00
      vertex   1.157902e+02 1.404179e+02 0.000000e+00
      vertex   1.157555e+02 1.406920e+02 1.600000e+00
    endloop
  endfacet
  facet normal 9.920841e-01 1.255756e-01 0.000000e+00
    outer loop
      vertex   1.157555e+02 1.406920e+02 1.600000e+00
      vertex   1.157902e+02 1.404179e+02 0.000000e+00
      vertex   1.157555e+02 1.406920e+02 0.000000e+00
    endloop
  endfacet
  facet normal 9.920750e-01 -1.256472e-01 0.000000e+00
    outer loop
      vertex   1.157555e+02 1.406920e+02 1.600000e+00
      vertex   1.157555e+02 1.406920e+02 0.000000e+00
      vertex   1.157902e+02 1.409662e+02 1.600000e+00
    endloop
  endfacet
  facet normal 9.920750e-01 -1.256472e-01 0.000000e+00
    outer loop
      vertex   1.157902e+02 1.409662e+02 1.600000e+00
      vertex   1.157555e+02 1.406920e+02 0.000000e+00
      vertex   1.157902e+02 1.409662e+02 0.000000e+00
    endloop
  endfacet
  facet normal 9.294532e-01 -3.689401e-01 0.000000e+00
    outer loop
      vertex   1.157902e+02 1.409662e+02 1.600000e+00
      vertex   1.157902e+02 1.409662e+02 0.000000e+00
      vertex   1.158921e+02 1.412230e+02 1.600000e+00
    endloop
  endfacet
  facet normal 9.294532e-01 -3.689401e-01 0.000000e+00
    outer loop
      vertex   1.158921e+02 1.412230e+02 1.600000e+00
      vertex   1.157902e+02 1.409662e+02 0.000000e+00
      vertex   1.158921e+02 1.412230e+02 0.000000e+00
    endloop
  endfacet
  facet normal 8.081709e-01 -5.889480e-01 0.000000e+00
    outer loop
      vertex   1.158921e+02 1.412230e+02 1.600000e+00
      vertex   1.158921e+02 1.412230e+02 0.000000e+00
      vertex   1.160549e+02 1.414464e+02 1.600000e+00
    endloop
  endfacet
  facet normal 8.081709e-01 -5.889480e-01 0.000000e+00
    outer loop
      vertex   1.160549e+02 1.414464e+02 1.600000e+00
      vertex   1.158921e+02 1.412230e+02 0.000000e+00
      vertex   1.160549e+02 1.414464e+02 0.000000e+00
    endloop
  endfacet
  facet normal 6.358826e-01 -7.717858e-01 0.000000e+00
    outer loop
      vertex   1.160549e+02 1.414464e+02 1.600000e+00
      vertex   1.160549e+02 1.414464e+02 0.000000e+00
      vertex   1.162682e+02 1.416221e+02 1.600000e+00
    endloop
  endfacet
  facet normal 6.358826e-01 -7.717858e-01 0.000000e+00
    outer loop
      vertex   1.162682e+02 1.416221e+02 1.600000e+00
      vertex   1.160549e+02 1.414464e+02 0.000000e+00
      vertex   1.162682e+02 1.416221e+02 0.000000e+00
    endloop
  endfacet
  facet normal 4.234619e-01 -9.059139e-01 0.000000e+00
    outer loop
      vertex   1.162682e+02 1.416221e+02 1.600000e+00
      vertex   1.162682e+02 1.416221e+02 0.000000e+00
      vertex   1.165185e+02 1.417391e+02 1.600000e+00
    endloop
  endfacet
  facet normal 4.234619e-01 -9.059139e-01 0.000000e+00
    outer loop
      vertex   1.165185e+02 1.417391e+02 1.600000e+00
      vertex   1.162682e+02 1.416221e+02 0.000000e+00
      vertex   1.165185e+02 1.417391e+02 0.000000e+00
    endloop
  endfacet
  facet normal 1.843153e-01 -9.828672e-01 0.000000e+00
    outer loop
      vertex   1.165185e+02 1.417391e+02 1.600000e+00
      vertex   1.165185e+02 1.417391e+02 0.000000e+00
      vertex   1.167901e+02 1.417900e+02 1.600000e+00
    endloop
  endfacet
  facet normal 1.843153e-01 -9.828672e-01 0.000000e+00
    outer loop
      vertex   1.167901e+02 1.417900e+02 1.600000e+00
      vertex   1.165185e+02 1.417391e+02 0.000000e+00
      vertex   1.167901e+02 1.417900e+02 0.000000e+00
    endloop
  endfacet
  facet normal 1.000000e+00 -3.608572e-05 0.000000e+00
    outer loop
      vertex   1.167899e+02 1.371825e+02 0.000000e+00
      vertex   1.167900e+02 1.395939e+02 0.000000e+00
      vertex   1.167899e+02 1.371825e+02 1.600000e+00
    endloop
  endfacet
  facet normal 1.000000e+00 -3.608572e-05 0.000000e+00
    outer loop
      vertex   1.167899e+02 1.371825e+02 1.600000e+00
      vertex   1.167900e+02 1.395939e+02 0.000000e+00
      vertex   1.167900e+02 1.395939e+02 1.600000e+00
    endloop
  endfacet
  facet normal -0.000000e+00 0.000000e+00 1.000000e+00
    outer loop
      vertex   5.671840e+01 1.513966e+02 1.600000e+00
      vertex   5.675588e+01 1.511119e+02 1.600000e+00
      vertex   8.974114e+01 1.531369e+02 1.600000e+00
    endloop
  endfacet
  facet normal 0.000000e+00 0.000000e+00 1.000000e+00
    outer loop
      vertex   8.974114e+01 1.531369e+02 1.600000e+00
      vertex   5.675588e+01 1.511119e+02 1.600000e+00
      vertex   5.671840e+01 1.508272e+02 1.600000e+00
    endloop
  endfacet
  facet normal 0.000000e+00 0.000000e+00 1.000000e+00
    outer loop
      vertex   8.974114e+01 1.531369e+02 1.600000e+00
      vertex   5.671840e+01 1.508272e+02 1.600000e+00
      vertex   5.660851e+01 1.505619e+02 1.600000e+00
    endloop
  endfacet
  facet normal -0.000000e+00 0.000000e+00 1.000000e+00
    outer loop
      vertex   5.660851e+01 1.505619e+02 1.600000e+00
      vertex   5.643370e+01 1.503341e+02 1.600000e+00
      vertex   8.974114e+01 1.531369e+02 1.600000e+00
    endloop
  endfacet
  facet normal 0.000000e+00 0.000000e+00 1.000000e+00
    outer loop
      vertex   8.974114e+01 1.531369e+02 1.600000e+00
      vertex   5.643370e+01 1.503341e+02 1.600000e+00
      vertex   5.620589e+01 1.501593e+02 1.600000e+00
    endloop
  endfacet
  facet normal 0.000000e+00 0.000000e+00 1.000000e+00
    outer loop
      vertex   8.974114e+01 1.531369e+02 1.600000e+00
      vertex   5.620589e+01 1.501593e+02 1.600000e+00
      vertex   5.594059e+01 1.500494e+02 1.600000e+00
    endloop
  endfacet
  facet normal -0.000000e+00 0.000000e+00 1.000000e+00
    outer loop
      vertex   5.565589e+01 1.500119e+02 1.600000e+00
      vertex   3.936971e+01 1.368504e+02 1.600000e+00
      vertex   5.594059e+01 1.500494e+02 1.600000e+00
    endloop
  endfacet
  facet normal 0.000000e+00 0.000000e+00 1.000000e+00
    outer loop
      vertex   5.594059e+01 1.500494e+02 1.600000e+00
      vertex   3.936971e+01 1.368504e+02 1.600000e+00
      vertex   4.026170e+01 1.351380e+02 1.600000e+00
    endloop
  endfacet
  facet normal 0.000000e+00 0.000000e+00 1.000000e+00
    outer loop
      vertex   5.594059e+01 1.500494e+02 1.600000e+00
      vertex   4.026170e+01 1.351380e+02 1.600000e+00
      vertex   1.147900e+02 1.351370e+02 1.600000e+00
    endloop
  endfacet
  facet normal 0.000000e+00 0.000000e+00 1.000000e+00
    outer loop
      vertex   5.565589e+01 1.500119e+02 1.600000e+00
      vertex   5.537119e+01 1.500494e+02 1.600000e+00
      vertex   3.936971e+01 1.368504e+02 1.600000e+00
    endloop
  endfacet
  facet normal 0.000000e+00 0.000000e+00 1.000000e+00
    outer loop
      vertex   3.936971e+01 1.368504e+02 1.600000e+00
      vertex   5.537119e+01 1.500494e+02 1.600000e+00
      vertex   5.510589e+01 1.501593e+02 1.600000e+00
    endloop
  endfacet
  facet normal 0.000000e+00 0.000000e+00 1.000000e+00
    outer loop
      vertex   3.936971e+01 1.368504e+02 1.600000e+00
      vertex   5.510589e+01 1.501593e+02 1.600000e+00
      vertex   5.487808e+01 1.503341e+02 1.600000e+00
    endloop
  endfacet
  facet normal 0.000000e+00 0.000000e+00 1.000000e+00
    outer loop
      vertex   5.487808e+01 1.503341e+02 1.600000e+00
      vertex   5.470327e+01 1.505619e+02 1.600000e+00
      vertex   3.936971e+01 1.368504e+02 1.600000e+00
    endloop
  endfacet
  facet normal 0.000000e+00 0.000000e+00 1.000000e+00
    outer loop
      vertex   3.936971e+01 1.368504e+02 1.600000e+00
      vertex   5.470327e+01 1.505619e+02 1.600000e+00
      vertex   5.459338e+01 1.508272e+02 1.600000e+00
    endloop
  endfacet
  facet normal 0.000000e+00 0.000000e+00 1.000000e+00
    outer loop
      vertex   3.936971e+01 1.368504e+02 1.600000e+00
      vertex   5.459338e+01 1.508272e+02 1.600000e+00
      vertex   5.455590e+01 1.511119e+02 1.600000e+00
    endloop
  endfacet
  facet normal 0.000000e+00 -0.000000e+00 1.000000e+00
    outer loop
      vertex   5.455590e+01 1.511119e+02 1.600000e+00
      vertex   5.459338e+01 1.513966e+02 1.600000e+00
      vertex   3.936971e+01 1.368504e+02 1.600000e+00
    endloop
  endfacet
  facet normal 0.000000e+00 0.000000e+00 1.000000e+00
    outer loop
      vertex   3.936971e+01 1.368504e+02 1.600000e+00
      vertex   5.459338e+01 1.513966e+02 1.600000e+00
      vertex   5.470327e+01 1.516619e+02 1.600000e+00
    endloop
  endfacet
  facet normal 0.000000e+00 0.000000e+00 1.000000e+00
    outer loop
      vertex   3.936971e+01 1.368504e+02 1.600000e+00
      vertex   5.470327e+01 1.516619e+02 1.600000e+00
      vertex   5.487808e+01 1.518897e+02 1.600000e+00
    endloop
  endfacet
  facet normal 0.000000e+00 0.000000e+00 1.000000e+00
    outer loop
      vertex   3.936971e+01 1.368504e+02 1.600000e+00
      vertex   5.487808e+01 1.518897e+02 1.600000e+00
      vertex   6.662221e+01 1.733820e+02 1.600000e+00
    endloop
  endfacet
  facet normal 0.000000e+00 0.000000e+00 1.000000e+00
    outer loop
      vertex   6.662221e+01 1.733820e+02 1.600000e+00
      vertex   5.487808e+01 1.518897e+02 1.600000e+00
      vertex   5.510589e+01 1.520645e+02 1.600000e+00
    endloop
  endfacet
  facet normal 0.000000e+00 0.000000e+00 1.000000e+00
    outer loop
      vertex   6.662221e+01 1.733820e+02 1.600000e+00
      vertex   5.510589e+01 1.520645e+02 1.600000e+00
      vertex   5.537119e+01 1.521744e+02 1.600000e+00
    endloop
  endfacet
  facet normal 0.000000e+00 0.000000e+00 1.000000e+00
    outer loop
      vertex   5.537119e+01 1.521744e+02 1.600000e+00
      vertex   5.565589e+01 1.522119e+02 1.600000e+00
      vertex   6.662221e+01 1.733820e+02 1.600000e+00
    endloop
  endfacet
  facet normal 0.000000e+00 0.000000e+00 1.000000e+00
    outer loop
      vertex   6.662221e+01 1.733820e+02 1.600000e+00
      vertex   5.565589e+01 1.522119e+02 1.600000e+00
      vertex   5.594059e+01 1.521744e+02 1.600000e+00
    endloop
  endfacet
  facet normal 0.000000e+00 0.000000e+00 1.000000e+00
    outer loop
      vertex   6.662221e+01 1.733820e+02 1.600000e+00
      vertex   5.594059e+01 1.521744e+02 1.600000e+00
      vertex   5.620589e+01 1.520645e+02 1.600000e+00
    endloop
  endfacet
  facet normal 0.000000e+00 0.000000e+00 1.000000e+00
    outer loop
      vertex   6.662221e+01 1.733820e+02 1.600000e+00
      vertex   5.620589e+01 1.520645e+02 1.600000e+00
      vertex   8.974114e+01 1.531369e+02 1.600000e+00
    endloop
  endfacet
  facet normal 0.000000e+00 0.000000e+00 1.000000e+00
    outer loop
      vertex   8.974114e+01 1.531369e+02 1.600000e+00
      vertex   5.620589e+01 1.520645e+02 1.600000e+00
      vertex   5.643370e+01 1.518897e+02 1.600000e+00
    endloop
  endfacet
  facet normal 0.000000e+00 0.000000e+00 1.000000e+00
    outer loop
      vertex   8.974114e+01 1.531369e+02 1.600000e+00
      vertex   5.643370e+01 1.518897e+02 1.600000e+00
      vertex   5.660851e+01 1.516619e+02 1.600000e+00
    endloop
  endfacet
  facet normal -0.000000e+00 0.000000e+00 1.000000e+00
    outer loop
      vertex   5.660851e+01 1.516619e+02 1.600000e+00
      vertex   5.671840e+01 1.513966e+02 1.600000e+00
      vertex   8.974114e+01 1.531369e+02 1.600000e+00
    endloop
  endfacet
  facet normal 0.000000e+00 0.000000e+00 1.000000e+00
    outer loop
      vertex   1.167900e+02 1.395939e+02 1.600000e+00
      vertex   1.165184e+02 1.396449e+02 1.600000e+00
      vertex   1.167899e+02 1.371825e+02 1.600000e+00
    endloop
  endfacet
  facet normal 0.000000e+00 0.000000e+00 1.000000e+00
    outer loop
      vertex   1.167899e+02 1.371825e+02 1.600000e+00
      vertex   1.165184e+02 1.396449e+02 1.600000e+00
      vertex   1.162681e+02 1.397619e+02 1.600000e+00
    endloop
  endfacet
  facet normal 0.000000e+00 0.000000e+00 1.000000e+00
    outer loop
      vertex   1.167899e+02 1.371825e+02 1.600000e+00
      vertex   1.162681e+02 1.397619e+02 1.600000e+00
      vertex   1.160548e+02 1.399377e+02 1.600000e+00
    endloop
  endfacet
  facet normal 0.000000e+00 0.000000e+00 1.000000e+00
    outer loop
      vertex   1.167899e+02 1.371825e+02 1.600000e+00
      vertex   1.160548e+02 1.399377e+02 1.600000e+00
      vertex   1.147900e+02 1.351370e+02 1.600000e+00
    endloop
  endfacet
  facet normal 0.000000e+00 0.000000e+00 1.000000e+00
    outer loop
      vertex   1.147900e+02 1.351370e+02 1.600000e+00
      vertex   1.160548e+02 1.399377e+02 1.600000e+00
      vertex   1.158921e+02 1.401610e+02 1.600000e+00
    endloop
  endfacet
  facet normal 0.000000e+00 0.000000e+00 1.000000e+00
    outer loop
      vertex   1.147900e+02 1.351370e+02 1.600000e+00
      vertex   1.158921e+02 1.401610e+02 1.600000e+00
      vertex   1.157902e+02 1.404179e+02 1.600000e+00
    endloop
  endfacet
  facet normal 0.000000e+00 -0.000000e+00 1.000000e+00
    outer loop
      vertex   1.147900e+02 1.351370e+02 1.600000e+00
      vertex   1.157902e+02 1.404179e+02 1.600000e+00
      vertex   8.974114e+01 1.531369e+02 1.600000e+00
    endloop
  endfacet
  facet normal 0.000000e+00 0.000000e+00 1.000000e+00
    outer loop
      vertex   8.974114e+01 1.531369e+02 1.600000e+00
      vertex   1.157902e+02 1.404179e+02 1.600000e+00
      vertex   1.157555e+02 1.406920e+02 1.600000e+00
    endloop
  endfacet
  facet normal 0.000000e+00 0.000000e+00 1.000000e+00
    outer loop
      vertex   8.974114e+01 1.531369e+02 1.600000e+00
      vertex   1.157555e+02 1.406920e+02 1.600000e+00
      vertex   1.157902e+02 1.409662e+02 1.600000e+00
    endloop
  endfacet
  facet normal 0.000000e+00 -0.000000e+00 1.000000e+00
    outer loop
      vertex   1.157902e+02 1.409662e+02 1.600000e+00
      vertex   1.158921e+02 1.412230e+02 1.600000e+00
      vertex   8.974114e+01 1.531369e+02 1.600000e+00
    endloop
  endfacet
  facet normal 0.000000e+00 0.000000e+00 1.000000e+00
    outer loop
      vertex   8.974114e+01 1.531369e+02 1.600000e+00
      vertex   1.158921e+02 1.412230e+02 1.600000e+00
      vertex   1.160549e+02 1.414464e+02 1.600000e+00
    endloop
  endfacet
  facet normal 0.000000e+00 0.000000e+00 1.000000e+00
    outer loop
      vertex   8.974114e+01 1.531369e+02 1.600000e+00
      vertex   1.160549e+02 1.414464e+02 1.600000e+00
      vertex   1.162682e+02 1.416221e+02 1.600000e+00
    endloop
  endfacet
  facet normal 0.000000e+00 0.000000e+00 1.000000e+00
    outer loop
      vertex   8.974114e+01 1.531369e+02 1.600000e+00
      vertex   1.162682e+02 1.416221e+02 1.600000e+00
      vertex   1.167904e+02 1.511364e+02 1.600000e+00
    endloop
  endfacet
  facet normal 0.000000e+00 0.000000e+00 1.000000e+00
    outer loop
      vertex   1.167904e+02 1.511364e+02 1.600000e+00
      vertex   1.162682e+02 1.416221e+02 1.600000e+00
      vertex   1.165185e+02 1.417391e+02 1.600000e+00
    endloop
  endfacet
  facet normal 0.000000e+00 0.000000e+00 1.000000e+00
    outer loop
      vertex   1.167904e+02 1.511364e+02 1.600000e+00
      vertex   1.165185e+02 1.417391e+02 1.600000e+00
      vertex   1.167901e+02 1.417900e+02 1.600000e+00
    endloop
  endfacet
  facet normal 0.000000e+00 0.000000e+00 1.000000e+00
    outer loop
      vertex   8.974114e+01 1.531369e+02 1.600000e+00
      vertex   1.167904e+02 1.511364e+02 1.600000e+00
      vertex   1.147450e+02 1.531364e+02 1.600000e+00
    endloop
  endfacet
  facet normal 0.000000e+00 0.000000e+00 1.000000e+00
    outer loop
      vertex   1.147450e+02 1.531364e+02 1.600000e+00
      vertex   1.167904e+02 1.511364e+02 1.600000e+00
      vertex   1.167389e+02 1.515878e+02 1.600000e+00
    endloop
  endfacet
  facet normal 0.000000e+00 0.000000e+00 1.000000e+00
    outer loop
      vertex   1.147450e+02 1.531364e+02 1.600000e+00
      vertex   1.167389e+02 1.515878e+02 1.600000e+00
      vertex   1.165867e+02 1.520160e+02 1.600000e+00
    endloop
  endfacet
  facet normal 0.000000e+00 0.000000e+00 1.000000e+00
    outer loop
      vertex   1.165867e+02 1.520160e+02 1.600000e+00
      vertex   1.163419e+02 1.523987e+02 1.600000e+00
      vertex   1.147450e+02 1.531364e+02 1.600000e+00
    endloop
  endfacet
  facet normal 0.000000e+00 0.000000e+00 1.000000e+00
    outer loop
      vertex   1.147450e+02 1.531364e+02 1.600000e+00
      vertex   1.163419e+02 1.523987e+02 1.600000e+00
      vertex   1.160170e+02 1.527164e+02 1.600000e+00
    endloop
  endfacet
  facet normal 0.000000e+00 0.000000e+00 1.000000e+00
    outer loop
      vertex   1.147450e+02 1.531364e+02 1.600000e+00
      vertex   1.160170e+02 1.527164e+02 1.600000e+00
      vertex   1.156289e+02 1.529525e+02 1.600000e+00
    endloop
  endfacet
  facet normal 0.000000e+00 0.000000e+00 1.000000e+00
    outer loop
      vertex   1.156289e+02 1.529525e+02 1.600000e+00
      vertex   1.151974e+02 1.530950e+02 1.600000e+00
      vertex   1.147450e+02 1.531364e+02 1.600000e+00
    endloop
  endfacet
  facet normal 0.000000e+00 -0.000000e+00 1.000000e+00
    outer loop
      vertex   8.974114e+01 1.531369e+02 1.600000e+00
      vertex   8.974114e+01 1.721868e+02 1.600000e+00
      vertex   6.662221e+01 1.733820e+02 1.600000e+00
    endloop
  endfacet
  facet normal -0.000000e+00 0.000000e+00 1.000000e+00
    outer loop
      vertex   6.662221e+01 1.733820e+02 1.600000e+00
      vertex   8.974114e+01 1.721868e+02 1.600000e+00
      vertex   6.822580e+01 1.741867e+02 1.600000e+00
    endloop
  endfacet
  facet normal 0.000000e+00 0.000000e+00 1.000000e+00
    outer loop
      vertex   6.662221e+01 1.733820e+02 1.600000e+00
      vertex   6.822580e+01 1.741867e+02 1.600000e+00
      vertex   6.694086e+01 1.737194e+02 1.600000e+00
    endloop
  endfacet
  facet normal 0.000000e+00 0.000000e+00 1.000000e+00
    outer loop
      vertex   6.694086e+01 1.737194e+02 1.600000e+00
      vertex   6.822580e+01 1.741867e+02 1.600000e+00
      vertex   6.732869e+01 1.739743e+02 1.600000e+00
    endloop
  endfacet
  facet normal 0.000000e+00 0.000000e+00 1.000000e+00
    outer loop
      vertex   6.732869e+01 1.739743e+02 1.600000e+00
      vertex   6.822580e+01 1.741867e+02 1.600000e+00
      vertex   6.776483e+01 1.741329e+02 1.600000e+00
    endloop
  endfacet
  facet normal -0.000000e+00 0.000000e+00 1.000000e+00
    outer loop
      vertex   6.822580e+01 1.741867e+02 1.600000e+00
      vertex   8.974114e+01 1.721868e+02 1.600000e+00
      vertex   8.769566e+01 1.741867e+02 1.600000e+00
    endloop
  endfacet
  facet normal 0.000000e+00 0.000000e+00 1.000000e+00
    outer loop
      vertex   8.769566e+01 1.741867e+02 1.600000e+00
      vertex   8.974114e+01 1.721868e+02 1.600000e+00
      vertex   8.968954e+01 1.726382e+02 1.600000e+00
    endloop
  endfacet
  facet normal 0.000000e+00 0.000000e+00 1.000000e+00
    outer loop
      vertex   8.769566e+01 1.741867e+02 1.600000e+00
      vertex   8.968954e+01 1.726382e+02 1.600000e+00
      vertex   8.953742e+01 1.730663e+02 1.600000e+00
    endloop
  endfacet
  facet normal 0.000000e+00 0.000000e+00 1.000000e+00
    outer loop
      vertex   8.953742e+01 1.730663e+02 1.600000e+00
      vertex   8.929260e+01 1.734491e+02 1.600000e+00
      vertex   8.769566e+01 1.741867e+02 1.600000e+00
    endloop
  endfacet
  facet normal 0.000000e+00 0.000000e+00 1.000000e+00
    outer loop
      vertex   8.769566e+01 1.741867e+02 1.600000e+00
      vertex   8.929260e+01 1.734491e+02 1.600000e+00
      vertex   8.896773e+01 1.737667e+02 1.600000e+00
    endloop
  endfacet
  facet normal 0.000000e+00 0.000000e+00 1.000000e+00
    outer loop
      vertex   8.769566e+01 1.741867e+02 1.600000e+00
      vertex   8.896773e+01 1.737667e+02 1.600000e+00
      vertex   8.857956e+01 1.740029e+02 1.600000e+00
    endloop
  endfacet
  facet normal 0.000000e+00 0.000000e+00 1.000000e+00
    outer loop
      vertex   8.857956e+01 1.740029e+02 1.600000e+00
      vertex   8.814812e+01 1.741453e+02 1.600000e+00
      vertex   8.769566e+01 1.741867e+02 1.600000e+00
    endloop
  endfacet
  facet normal 0.000000e+00 0.000000e+00 1.000000e+00
    outer loop
      vertex   3.936971e+01 1.368504e+02 1.600000e+00
      vertex   3.924605e+01 1.366181e+02 1.600000e+00
      vertex   4.026170e+01 1.351380e+02 1.600000e+00
    endloop
  endfacet
  facet normal 0.000000e+00 0.000000e+00 1.000000e+00
    outer loop
      vertex   4.026170e+01 1.351380e+02 1.600000e+00
      vertex   3.924605e+01 1.366181e+02 1.600000e+00
      vertex   3.918175e+01 1.363629e+02 1.600000e+00
    endloop
  endfacet
  facet normal 0.000000e+00 0.000000e+00 1.000000e+00
    outer loop
      vertex   4.026170e+01 1.351380e+02 1.600000e+00
      vertex   3.918175e+01 1.363629e+02 1.600000e+00
      vertex   3.918057e+01 1.360998e+02 1.600000e+00
    endloop
  endfacet
  facet normal 0.000000e+00 0.000000e+00 1.000000e+00
    outer loop
      vertex   3.918057e+01 1.360998e+02 1.600000e+00
      vertex   3.924258e+01 1.358440e+02 1.600000e+00
      vertex   4.026170e+01 1.351380e+02 1.600000e+00
    endloop
  endfacet
  facet normal 0.000000e+00 0.000000e+00 1.000000e+00
    outer loop
      vertex   4.026170e+01 1.351380e+02 1.600000e+00
      vertex   3.924258e+01 1.358440e+02 1.600000e+00
      vertex   3.936415e+01 1.356106e+02 1.600000e+00
    endloop
  endfacet
  facet normal 0.000000e+00 0.000000e+00 1.000000e+00
    outer loop
      vertex   4.026170e+01 1.351380e+02 1.600000e+00
      vertex   3.936415e+01 1.356106e+02 1.600000e+00
      vertex   3.953819e+01 1.354133e+02 1.600000e+00
    endloop
  endfacet
  facet normal 0.000000e+00 0.000000e+00 1.000000e+00
    outer loop
      vertex   3.953819e+01 1.354133e+02 1.600000e+00
      vertex   3.975451e+01 1.352634e+02 1.600000e+00
      vertex   4.026170e+01 1.351380e+02 1.600000e+00
    endloop
  endfacet
  facet normal 0.000000e+00 0.000000e+00 1.000000e+00
    outer loop
      vertex   4.026170e+01 1.351380e+02 1.600000e+00
      vertex   3.975451e+01 1.352634e+02 1.600000e+00
      vertex   4.000047e+01 1.351698e+02 1.600000e+00
    endloop
  endfacet
  facet normal 0.000000e+00 -0.000000e+00 1.000000e+00
    outer loop
      vertex   1.152414e+02 1.351886e+02 1.600000e+00
      vertex   1.156695e+02 1.353408e+02 1.600000e+00
      vertex   1.147900e+02 1.351370e+02 1.600000e+00
    endloop
  endfacet
  facet normal 0.000000e+00 0.000000e+00 1.000000e+00
    outer loop
      vertex   1.147900e+02 1.351370e+02 1.600000e+00
      vertex   1.156695e+02 1.353408e+02 1.600000e+00
      vertex   1.160523e+02 1.355856e+02 1.600000e+00
    endloop
  endfacet
  facet normal 0.000000e+00 0.000000e+00 1.000000e+00
    outer loop
      vertex   1.147900e+02 1.351370e+02 1.600000e+00
      vertex   1.160523e+02 1.355856e+02 1.600000e+00
      vertex   1.163699e+02 1.359104e+02 1.600000e+00
    endloop
  endfacet
  facet normal 0.000000e+00 -0.000000e+00 1.000000e+00
    outer loop
      vertex   1.163699e+02 1.359104e+02 1.600000e+00
      vertex   1.166061e+02 1.362986e+02 1.600000e+00
      vertex   1.147900e+02 1.351370e+02 1.600000e+00
    endloop
  endfacet
  facet normal 0.000000e+00 0.000000e+00 1.000000e+00
    outer loop
      vertex   1.147900e+02 1.351370e+02 1.600000e+00
      vertex   1.166061e+02 1.362986e+02 1.600000e+00
      vertex   1.167485e+02 1.367301e+02 1.600000e+00
    endloop
  endfacet
  facet normal 0.000000e+00 0.000000e+00 1.000000e+00
    outer loop
      vertex   1.147900e+02 1.351370e+02 1.600000e+00
      vertex   1.167485e+02 1.367301e+02 1.600000e+00
      vertex   1.167899e+02 1.371825e+02 1.600000e+00
    endloop
  endfacet
  facet normal 0.000000e+00 0.000000e+00 1.000000e+00
    outer loop
      vertex   8.974114e+01 1.531369e+02 1.600000e+00
      vertex   5.594059e+01 1.500494e+02 1.600000e+00
      vertex   1.147900e+02 1.351370e+02 1.600000e+00
    endloop
  endfacet
  facet normal 0.000000e+00 0.000000e+00 -1.000000e+00
    outer loop
      vertex   5.671840e+01 1.508272e+02 0.000000e+00
      vertex   5.675588e+01 1.511119e+02 0.000000e+00
      vertex   8.974114e+01 1.531369e+02 0.000000e+00
    endloop
  endfacet
  facet normal 0.000000e+00 0.000000e+00 -1.000000e+00
    outer loop
      vertex   8.974114e+01 1.531369e+02 0.000000e+00
      vertex   5.675588e+01 1.511119e+02 0.000000e+00
      vertex   5.671840e+01 1.513966e+02 0.000000e+00
    endloop
  endfacet
  facet normal 0.000000e+00 0.000000e+00 -1.000000e+00
    outer loop
      vertex   8.974114e+01 1.531369e+02 0.000000e+00
      vertex   5.671840e+01 1.513966e+02 0.000000e+00
      vertex   5.660851e+01 1.516619e+02 0.000000e+00
    endloop
  endfacet
  facet normal 0.000000e+00 0.000000e+00 -1.000000e+00
    outer loop
      vertex   5.660851e+01 1.516619e+02 0.000000e+00
      vertex   5.643370e+01 1.518897e+02 0.000000e+00
      vertex   8.974114e+01 1.531369e+02 0.000000e+00
    endloop
  endfacet
  facet normal 0.000000e+00 0.000000e+00 -1.000000e+00
    outer loop
      vertex   8.974114e+01 1.531369e+02 0.000000e+00
      vertex   5.643370e+01 1.518897e+02 0.000000e+00
      vertex   5.620589e+01 1.520645e+02 0.000000e+00
    endloop
  endfacet
  facet normal -0.000000e+00 0.000000e+00 -1.000000e+00
    outer loop
      vertex   8.974114e+01 1.531369e+02 0.000000e+00
      vertex   5.620589e+01 1.520645e+02 0.000000e+00
      vertex   6.662221e+01 1.733820e+02 0.000000e+00
    endloop
  endfacet
  facet normal 0.000000e+00 0.000000e+00 -1.000000e+00
    outer loop
      vertex   6.662221e+01 1.733820e+02 0.000000e+00
      vertex   5.620589e+01 1.520645e+02 0.000000e+00
      vertex   5.594059e+01 1.521744e+02 0.000000e+00
    endloop
  endfacet
  facet normal 0.000000e+00 0.000000e+00 -1.000000e+00
    outer loop
      vertex   6.662221e+01 1.733820e+02 0.000000e+00
      vertex   5.594059e+01 1.521744e+02 0.000000e+00
      vertex   5.565589e+01 1.522119e+02 0.000000e+00
    endloop
  endfacet
  facet normal -0.000000e+00 0.000000e+00 -1.000000e+00
    outer loop
      vertex   5.565589e+01 1.522119e+02 0.000000e+00
      vertex   5.537119e+01 1.521744e+02 0.000000e+00
      vertex   6.662221e+01 1.733820e+02 0.000000e+00
    endloop
  endfacet
  facet normal 0.000000e+00 0.000000e+00 -1.000000e+00
    outer loop
      vertex   6.662221e+01 1.733820e+02 0.000000e+00
      vertex   5.537119e+01 1.521744e+02 0.000000e+00
      vertex   5.510589e+01 1.520645e+02 0.000000e+00
    endloop
  endfacet
  facet normal 0.000000e+00 0.000000e+00 -1.000000e+00
    outer loop
      vertex   6.662221e+01 1.733820e+02 0.000000e+00
      vertex   5.510589e+01 1.520645e+02 0.000000e+00
      vertex   5.487808e+01 1.518897e+02 0.000000e+00
    endloop
  endfacet
  facet normal 0.000000e+00 0.000000e+00 -1.000000e+00
    outer loop
      vertex   6.662221e+01 1.733820e+02 0.000000e+00
      vertex   5.487808e+01 1.518897e+02 0.000000e+00
      vertex   3.936971e+01 1.368504e+02 0.000000e+00
    endloop
  endfacet
  facet normal 0.000000e+00 0.000000e+00 -1.000000e+00
    outer loop
      vertex   3.936971e+01 1.368504e+02 0.000000e+00
      vertex   5.487808e+01 1.518897e+02 0.000000e+00
      vertex   5.470327e+01 1.516619e+02 0.000000e+00
    endloop
  endfacet
  facet normal 0.000000e+00 0.000000e+00 -1.000000e+00
    outer loop
      vertex   3.936971e+01 1.368504e+02 0.000000e+00
      vertex   5.470327e+01 1.516619e+02 0.000000e+00
      vertex   5.459338e+01 1.513966e+02 0.000000e+00
    endloop
  endfacet
  facet normal 0.000000e+00 0.000000e+00 -1.000000e+00
    outer loop
      vertex   5.459338e+01 1.513966e+02 0.000000e+00
      vertex   5.455590e+01 1.511119e+02 0.000000e+00
      vertex   3.936971e+01 1.368504e+02 0.000000e+00
    endloop
  endfacet
  facet normal 0.000000e+00 0.000000e+00 -1.000000e+00
    outer loop
      vertex   3.936971e+01 1.368504e+02 0.000000e+00
      vertex   5.455590e+01 1.511119e+02 0.000000e+00
      vertex   5.459338e+01 1.508272e+02 0.000000e+00
    endloop
  endfacet
  facet normal 0.000000e+00 0.000000e+00 -1.000000e+00
    outer loop
      vertex   3.936971e+01 1.368504e+02 0.000000e+00
      vertex   5.459338e+01 1.508272e+02 0.000000e+00
      vertex   5.470327e+01 1.505619e+02 0.000000e+00
    endloop
  endfacet
  facet normal 0.000000e+00 -0.000000e+00 -1.000000e+00
    outer loop
      vertex   5.470327e+01 1.505619e+02 0.000000e+00
      vertex   5.487808e+01 1.503341e+02 0.000000e+00
      vertex   3.936971e+01 1.368504e+02 0.000000e+00
    endloop
  endfacet
  facet normal 0.000000e+00 0.000000e+00 -1.000000e+00
    outer loop
      vertex   3.936971e+01 1.368504e+02 0.000000e+00
      vertex   5.487808e+01 1.503341e+02 0.000000e+00
      vertex   5.510589e+01 1.501593e+02 0.000000e+00
    endloop
  endfacet
  facet normal 0.000000e+00 0.000000e+00 -1.000000e+00
    outer loop
      vertex   3.936971e+01 1.368504e+02 0.000000e+00
      vertex   5.510589e+01 1.501593e+02 0.000000e+00
      vertex   5.537119e+01 1.500494e+02 0.000000e+00
    endloop
  endfacet
  facet normal 0.000000e+00 -0.000000e+00 -1.000000e+00
    outer loop
      vertex   5.537119e+01 1.500494e+02 0.000000e+00
      vertex   5.565589e+01 1.500119e+02 0.000000e+00
      vertex   3.936971e+01 1.368504e+02 0.000000e+00
    endloop
  endfacet
  facet normal 0.000000e+00 0.000000e+00 -1.000000e+00
    outer loop
      vertex   3.936971e+01 1.368504e+02 0.000000e+00
      vertex   5.565589e+01 1.500119e+02 0.000000e+00
      vertex   5.594059e+01 1.500494e+02 0.000000e+00
    endloop
  endfacet
  facet normal 0.000000e+00 0.000000e+00 -1.000000e+00
    outer loop
      vertex   3.936971e+01 1.368504e+02 0.000000e+00
      vertex   5.594059e+01 1.500494e+02 0.000000e+00
      vertex   4.026170e+01 1.351380e+02 0.000000e+00
    endloop
  endfacet
  facet normal 0.000000e+00 0.000000e+00 -1.000000e+00
    outer loop
      vertex   4.026170e+01 1.351380e+02 0.000000e+00
      vertex   5.594059e+01 1.500494e+02 0.000000e+00
      vertex   1.147900e+02 1.351370e+02 0.000000e+00
    endloop
  endfacet
  facet normal 0.000000e+00 0.000000e+00 -1.000000e+00
    outer loop
      vertex   1.147900e+02 1.351370e+02 0.000000e+00
      vertex   5.594059e+01 1.500494e+02 0.000000e+00
      vertex   8.974114e+01 1.531369e+02 0.000000e+00
    endloop
  endfacet
  facet normal 0.000000e+00 0.000000e+00 -1.000000e+00
    outer loop
      vertex   1.147900e+02 1.351370e+02 0.000000e+00
      vertex   8.974114e+01 1.531369e+02 0.000000e+00
      vertex   1.157902e+02 1.404179e+02 0.000000e+00
    endloop
  endfacet
  facet normal 0.000000e+00 0.000000e+00 -1.000000e+00
    outer loop
      vertex   1.157902e+02 1.404179e+02 0.000000e+00
      vertex   8.974114e+01 1.531369e+02 0.000000e+00
      vertex   1.157555e+02 1.406920e+02 0.000000e+00
    endloop
  endfacet
  facet normal 0.000000e+00 0.000000e+00 -1.000000e+00
    outer loop
      vertex   1.157555e+02 1.406920e+02 0.000000e+00
      vertex   8.974114e+01 1.531369e+02 0.000000e+00
      vertex   1.157902e+02 1.409662e+02 0.000000e+00
    endloop
  endfacet
  facet normal 0.000000e+00 0.000000e+00 -1.000000e+00
    outer loop
      vertex   1.157902e+02 1.409662e+02 0.000000e+00
      vertex   8.974114e+01 1.531369e+02 0.000000e+00
      vertex   1.158921e+02 1.412230e+02 0.000000e+00
    endloop
  endfacet
  facet normal 0.000000e+00 0.000000e+00 -1.000000e+00
    outer loop
      vertex   1.158921e+02 1.412230e+02 0.000000e+00
      vertex   8.974114e+01 1.531369e+02 0.000000e+00
      vertex   1.160549e+02 1.414464e+02 0.000000e+00
    endloop
  endfacet
  facet normal 0.000000e+00 0.000000e+00 -1.000000e+00
    outer loop
      vertex   1.160549e+02 1.414464e+02 0.000000e+00
      vertex   8.974114e+01 1.531369e+02 0.000000e+00
      vertex   1.162682e+02 1.416221e+02 0.000000e+00
    endloop
  endfacet
  facet normal 0.000000e+00 0.000000e+00 -1.000000e+00
    outer loop
      vertex   1.162682e+02 1.416221e+02 0.000000e+00
      vertex   8.974114e+01 1.531369e+02 0.000000e+00
      vertex   1.167904e+02 1.511364e+02 0.000000e+00
    endloop
  endfacet
  facet normal 0.000000e+00 0.000000e+00 -1.000000e+00
    outer loop
      vertex   1.162682e+02 1.416221e+02 0.000000e+00
      vertex   1.167904e+02 1.511364e+02 0.000000e+00
      vertex   1.165185e+02 1.417391e+02 0.000000e+00
    endloop
  endfacet
  facet normal 0.000000e+00 0.000000e+00 -1.000000e+00
    outer loop
      vertex   1.165185e+02 1.417391e+02 0.000000e+00
      vertex   1.167904e+02 1.511364e+02 0.000000e+00
      vertex   1.167901e+02 1.417900e+02 0.000000e+00
    endloop
  endfacet
  facet normal 0.000000e+00 0.000000e+00 -1.000000e+00
    outer loop
      vertex   5.594059e+01 1.500494e+02 0.000000e+00
      vertex   5.620589e+01 1.501593e+02 0.000000e+00
      vertex   8.974114e+01 1.531369e+02 0.000000e+00
    endloop
  endfacet
  facet normal 0.000000e+00 0.000000e+00 -1.000000e+00
    outer loop
      vertex   8.974114e+01 1.531369e+02 0.000000e+00
      vertex   5.620589e+01 1.501593e+02 0.000000e+00
      vertex   5.643370e+01 1.503341e+02 0.000000e+00
    endloop
  endfacet
  facet normal 0.000000e+00 0.000000e+00 -1.000000e+00
    outer loop
      vertex   8.974114e+01 1.531369e+02 0.000000e+00
      vertex   5.643370e+01 1.503341e+02 0.000000e+00
      vertex   5.660851e+01 1.505619e+02 0.000000e+00
    endloop
  endfacet
  facet normal 0.000000e+00 0.000000e+00 -1.000000e+00
    outer loop
      vertex   5.660851e+01 1.505619e+02 0.000000e+00
      vertex   5.671840e+01 1.508272e+02 0.000000e+00
      vertex   8.974114e+01 1.531369e+02 0.000000e+00
    endloop
  endfacet
  facet normal -0.000000e+00 0.000000e+00 -1.000000e+00
    outer loop
      vertex   1.167900e+02 1.395939e+02 0.000000e+00
      vertex   1.167899e+02 1.371825e+02 0.000000e+00
      vertex   1.165184e+02 1.396449e+02 0.000000e+00
    endloop
  endfacet
  facet normal -0.000000e+00 -0.000000e+00 -1.000000e+00
    outer loop
      vertex   1.165184e+02 1.396449e+02 0.000000e+00
      vertex   1.167899e+02 1.371825e+02 0.000000e+00
      vertex   1.162681e+02 1.397619e+02 0.000000e+00
    endloop
  endfacet
  facet normal -0.000000e+00 -0.000000e+00 -1.000000e+00
    outer loop
      vertex   1.162681e+02 1.397619e+02 0.000000e+00
      vertex   1.167899e+02 1.371825e+02 0.000000e+00
      vertex   1.160548e+02 1.399377e+02 0.000000e+00
    endloop
  endfacet
  facet normal 0.000000e+00 -0.000000e+00 -1.000000e+00
    outer loop
      vertex   1.160548e+02 1.399377e+02 0.000000e+00
      vertex   1.167899e+02 1.371825e+02 0.000000e+00
      vertex   1.147900e+02 1.351370e+02 0.000000e+00
    endloop
  endfacet
  facet normal -0.000000e+00 0.000000e+00 -1.000000e+00
    outer loop
      vertex   1.160548e+02 1.399377e+02 0.000000e+00
      vertex   1.147900e+02 1.351370e+02 0.000000e+00
      vertex   1.158921e+02 1.401610e+02 0.000000e+00
    endloop
  endfacet
  facet normal -0.000000e+00 0.000000e+00 -1.000000e+00
    outer loop
      vertex   1.158921e+02 1.401610e+02 0.000000e+00
      vertex   1.147900e+02 1.351370e+02 0.000000e+00
      vertex   1.157902e+02 1.404179e+02 0.000000e+00
    endloop
  endfacet
  facet normal 0.000000e+00 0.000000e+00 -1.000000e+00
    outer loop
      vertex   1.167899e+02 1.371825e+02 0.000000e+00
      vertex   1.167485e+02 1.367301e+02 0.000000e+00
      vertex   1.147900e+02 1.351370e+02 0.000000e+00
    endloop
  endfacet
  facet normal 0.000000e+00 0.000000e+00 -1.000000e+00
    outer loop
      vertex   1.147900e+02 1.351370e+02 0.000000e+00
      vertex   1.167485e+02 1.367301e+02 0.000000e+00
      vertex   1.166061e+02 1.362986e+02 0.000000e+00
    endloop
  endfacet
  facet normal 0.000000e+00 0.000000e+00 -1.000000e+00
    outer loop
      vertex   1.147900e+02 1.351370e+02 0.000000e+00
      vertex   1.166061e+02 1.362986e+02 0.000000e+00
      vertex   1.163699e+02 1.359104e+02 0.000000e+00
    endloop
  endfacet
  facet normal 0.000000e+00 0.000000e+00 -1.000000e+00
    outer loop
      vertex   1.163699e+02 1.359104e+02 0.000000e+00
      vertex   1.160523e+02 1.355856e+02 0.000000e+00
      vertex   1.147900e+02 1.351370e+02 0.000000e+00
    endloop
  endfacet
  facet normal 0.000000e+00 0.000000e+00 -1.000000e+00
    outer loop
      vertex   1.147900e+02 1.351370e+02 0.000000e+00
      vertex   1.160523e+02 1.355856e+02 0.000000e+00
      vertex   1.156695e+02 1.353408e+02 0.000000e+00
    endloop
  endfacet
  facet normal 0.000000e+00 0.000000e+00 -1.000000e+00
    outer loop
      vertex   1.147900e+02 1.351370e+02 0.000000e+00
      vertex   1.156695e+02 1.353408e+02 0.000000e+00
      vertex   1.152414e+02 1.351886e+02 0.000000e+00
    endloop
  endfacet
  facet normal 0.000000e+00 0.000000e+00 -1.000000e+00
    outer loop
      vertex   4.000047e+01 1.351698e+02 0.000000e+00
      vertex   3.975451e+01 1.352634e+02 0.000000e+00
      vertex   4.026170e+01 1.351380e+02 0.000000e+00
    endloop
  endfacet
  facet normal 0.000000e+00 0.000000e+00 -1.000000e+00
    outer loop
      vertex   4.026170e+01 1.351380e+02 0.000000e+00
      vertex   3.975451e+01 1.352634e+02 0.000000e+00
      vertex   3.953819e+01 1.354133e+02 0.000000e+00
    endloop
  endfacet
  facet normal 0.000000e+00 0.000000e+00 -1.000000e+00
    outer loop
      vertex   4.026170e+01 1.351380e+02 0.000000e+00
      vertex   3.953819e+01 1.354133e+02 0.000000e+00
      vertex   3.936415e+01 1.356106e+02 0.000000e+00
    endloop
  endfacet
  facet normal 0.000000e+00 0.000000e+00 -1.000000e+00
    outer loop
      vertex   3.936415e+01 1.356106e+02 0.000000e+00
      vertex   3.924258e+01 1.358440e+02 0.000000e+00
      vertex   4.026170e+01 1.351380e+02 0.000000e+00
    endloop
  endfacet
  facet normal 0.000000e+00 0.000000e+00 -1.000000e+00
    outer loop
      vertex   4.026170e+01 1.351380e+02 0.000000e+00
      vertex   3.924258e+01 1.358440e+02 0.000000e+00
      vertex   3.918057e+01 1.360998e+02 0.000000e+00
    endloop
  endfacet
  facet normal 0.000000e+00 0.000000e+00 -1.000000e+00
    outer loop
      vertex   4.026170e+01 1.351380e+02 0.000000e+00
      vertex   3.918057e+01 1.360998e+02 0.000000e+00
      vertex   3.918175e+01 1.363629e+02 0.000000e+00
    endloop
  endfacet
  facet normal 0.000000e+00 0.000000e+00 -1.000000e+00
    outer loop
      vertex   3.918175e+01 1.363629e+02 0.000000e+00
      vertex   3.924605e+01 1.366181e+02 0.000000e+00
      vertex   4.026170e+01 1.351380e+02 0.000000e+00
    endloop
  endfacet
  facet normal 0.000000e+00 0.000000e+00 -1.000000e+00
    outer loop
      vertex   4.026170e+01 1.351380e+02 0.000000e+00
      vertex   3.924605e+01 1.366181e+02 0.000000e+00
      vertex   3.936971e+01 1.368504e+02 0.000000e+00
    endloop
  endfacet
  facet normal 0.000000e+00 -0.000000e+00 -1.000000e+00
    outer loop
      vertex   6.694086e+01 1.737194e+02 0.000000e+00
      vertex   6.822580e+01 1.741867e+02 0.000000e+00
      vertex   6.662221e+01 1.733820e+02 0.000000e+00
    endloop
  endfacet
  facet normal 0.000000e+00 0.000000e+00 -1.000000e+00
    outer loop
      vertex   6.662221e+01 1.733820e+02 0.000000e+00
      vertex   6.822580e+01 1.741867e+02 0.000000e+00
      vertex   8.974114e+01 1.721868e+02 0.000000e+00
    endloop
  endfacet
  facet normal 0.000000e+00 0.000000e+00 -1.000000e+00
    outer loop
      vertex   6.662221e+01 1.733820e+02 0.000000e+00
      vertex   8.974114e+01 1.721868e+02 0.000000e+00
      vertex   8.974114e+01 1.531369e+02 0.000000e+00
    endloop
  endfacet
  facet normal 0.000000e+00 0.000000e+00 -1.000000e+00
    outer loop
      vertex   6.694086e+01 1.737194e+02 0.000000e+00
      vertex   6.732869e+01 1.739743e+02 0.000000e+00
      vertex   6.822580e+01 1.741867e+02 0.000000e+00
    endloop
  endfacet
  facet normal 0.000000e+00 0.000000e+00 -1.000000e+00
    outer loop
      vertex   6.822580e+01 1.741867e+02 0.000000e+00
      vertex   6.732869e+01 1.739743e+02 0.000000e+00
      vertex   6.776483e+01 1.741329e+02 0.000000e+00
    endloop
  endfacet
  facet normal 0.000000e+00 0.000000e+00 -1.000000e+00
    outer loop
      vertex   6.822580e+01 1.741867e+02 0.000000e+00
      vertex   8.769566e+01 1.741867e+02 0.000000e+00
      vertex   8.974114e+01 1.721868e+02 0.000000e+00
    endloop
  endfacet
  facet normal 0.000000e+00 0.000000e+00 -1.000000e+00
    outer loop
      vertex   8.974114e+01 1.721868e+02 0.000000e+00
      vertex   8.769566e+01 1.741867e+02 0.000000e+00
      vertex   8.968954e+01 1.726382e+02 0.000000e+00
    endloop
  endfacet
  facet normal 0.000000e+00 0.000000e+00 -1.000000e+00
    outer loop
      vertex   8.968954e+01 1.726382e+02 0.000000e+00
      vertex   8.769566e+01 1.741867e+02 0.000000e+00
      vertex   8.953742e+01 1.730663e+02 0.000000e+00
    endloop
  endfacet
  facet normal 0.000000e+00 0.000000e+00 -1.000000e+00
    outer loop
      vertex   8.953742e+01 1.730663e+02 0.000000e+00
      vertex   8.769566e+01 1.741867e+02 0.000000e+00
      vertex   8.929260e+01 1.734491e+02 0.000000e+00
    endloop
  endfacet
  facet normal 0.000000e+00 0.000000e+00 -1.000000e+00
    outer loop
      vertex   8.929260e+01 1.734491e+02 0.000000e+00
      vertex   8.769566e+01 1.741867e+02 0.000000e+00
      vertex   8.896773e+01 1.737667e+02 0.000000e+00
    endloop
  endfacet
  facet normal 0.000000e+00 0.000000e+00 -1.000000e+00
    outer loop
      vertex   8.896773e+01 1.737667e+02 0.000000e+00
      vertex   8.769566e+01 1.741867e+02 0.000000e+00
      vertex   8.857956e+01 1.740029e+02 0.000000e+00
    endloop
  endfacet
  facet normal 0.000000e+00 0.000000e+00 -1.000000e+00
    outer loop
      vertex   8.857956e+01 1.740029e+02 0.000000e+00
      vertex   8.769566e+01 1.741867e+02 0.000000e+00
      vertex   8.814812e+01 1.741453e+02 0.000000e+00
    endloop
  endfacet
  facet normal 0.000000e+00 0.000000e+00 -1.000000e+00
    outer loop
      vertex   8.974114e+01 1.531369e+02 0.000000e+00
      vertex   1.147450e+02 1.531364e+02 0.000000e+00
      vertex   1.167904e+02 1.511364e+02 0.000000e+00
    endloop
  endfacet
  facet normal 0.000000e+00 0.000000e+00 -1.000000e+00
    outer loop
      vertex   1.167904e+02 1.511364e+02 0.000000e+00
      vertex   1.147450e+02 1.531364e+02 0.000000e+00
      vertex   1.167389e+02 1.515878e+02 0.000000e+00
    endloop
  endfacet
  facet normal 0.000000e+00 0.000000e+00 -1.000000e+00
    outer loop
      vertex   1.167389e+02 1.515878e+02 0.000000e+00
      vertex   1.147450e+02 1.531364e+02 0.000000e+00
      vertex   1.165867e+02 1.520160e+02 0.000000e+00
    endloop
  endfacet
  facet normal 0.000000e+00 0.000000e+00 -1.000000e+00
    outer loop
      vertex   1.165867e+02 1.520160e+02 0.000000e+00
      vertex   1.147450e+02 1.531364e+02 0.000000e+00
      vertex   1.163419e+02 1.523987e+02 0.000000e+00
    endloop
  endfacet
  facet normal 0.000000e+00 0.000000e+00 -1.000000e+00
    outer loop
      vertex   1.163419e+02 1.523987e+02 0.000000e+00
      vertex   1.147450e+02 1.531364e+02 0.000000e+00
      vertex   1.160170e+02 1.527164e+02 0.000000e+00
    endloop
  endfacet
  facet normal 0.000000e+00 0.000000e+00 -1.000000e+00
    outer loop
      vertex   1.160170e+02 1.527164e+02 0.000000e+00
      vertex   1.147450e+02 1.531364e+02 0.000000e+00
      vertex   1.156289e+02 1.529525e+02 0.000000e+00
    endloop
  endfacet
  facet normal 0.000000e+00 0.000000e+00 -1.000000e+00
    outer loop
      vertex   1.156289e+02 1.529525e+02 0.000000e+00
      vertex   1.147450e+02 1.531364e+02 0.000000e+00
      vertex   1.151974e+02 1.530950e+02 0.000000e+00
    endloop
  endfacet
endsolid
