%TF.GenerationSoftware,KiCad,Pcbnew,8.0.2*%
%TF.CreationDate,2024-06-02T17:13:22-07:00*%
%TF.ProjectId,ergodonk_simple_zero,6572676f-646f-46e6-9b5f-73696d706c65,0.2.1*%
%TF.SameCoordinates,Original*%
%TF.FileFunction,Paste,Top*%
%TF.FilePolarity,Positive*%
%FSLAX46Y46*%
G04 Gerber Fmt 4.6, Leading zero omitted, Abs format (unit mm)*
G04 Created by KiCad (PCBNEW 8.0.2) date 2024-06-02 17:13:22*
%MOMM*%
%LPD*%
G01*
G04 APERTURE LIST*
G04 Aperture macros list*
%AMRoundRect*
0 Rectangle with rounded corners*
0 $1 Rounding radius*
0 $2 $3 $4 $5 $6 $7 $8 $9 X,Y pos of 4 corners*
0 Add a 4 corners polygon primitive as box body*
4,1,4,$2,$3,$4,$5,$6,$7,$8,$9,$2,$3,0*
0 Add four circle primitives for the rounded corners*
1,1,$1+$1,$2,$3*
1,1,$1+$1,$4,$5*
1,1,$1+$1,$6,$7*
1,1,$1+$1,$8,$9*
0 Add four rect primitives between the rounded corners*
20,1,$1+$1,$2,$3,$4,$5,0*
20,1,$1+$1,$4,$5,$6,$7,0*
20,1,$1+$1,$6,$7,$8,$9,0*
20,1,$1+$1,$8,$9,$2,$3,0*%
%AMRotRect*
0 Rectangle, with rotation*
0 The origin of the aperture is its center*
0 $1 length*
0 $2 width*
0 $3 Rotation angle, in degrees counterclockwise*
0 Add horizontal line*
21,1,$1,$2,0,0,$3*%
%AMOutline5P*
0 Free polygon, 5 corners , with rotation*
0 The origin of the aperture is its center*
0 number of corners: always 5*
0 $1 to $10 corner X, Y*
0 $11 Rotation angle, in degrees counterclockwise*
0 create outline with 5 corners*
4,1,5,$1,$2,$3,$4,$5,$6,$7,$8,$9,$10,$1,$2,$11*%
%AMOutline6P*
0 Free polygon, 6 corners , with rotation*
0 The origin of the aperture is its center*
0 number of corners: always 6*
0 $1 to $12 corner X, Y*
0 $13 Rotation angle, in degrees counterclockwise*
0 create outline with 6 corners*
4,1,6,$1,$2,$3,$4,$5,$6,$7,$8,$9,$10,$11,$12,$1,$2,$13*%
%AMOutline7P*
0 Free polygon, 7 corners , with rotation*
0 The origin of the aperture is its center*
0 number of corners: always 7*
0 $1 to $14 corner X, Y*
0 $15 Rotation angle, in degrees counterclockwise*
0 create outline with 7 corners*
4,1,7,$1,$2,$3,$4,$5,$6,$7,$8,$9,$10,$11,$12,$13,$14,$1,$2,$15*%
%AMOutline8P*
0 Free polygon, 8 corners , with rotation*
0 The origin of the aperture is its center*
0 number of corners: always 8*
0 $1 to $16 corner X, Y*
0 $17 Rotation angle, in degrees counterclockwise*
0 create outline with 8 corners*
4,1,8,$1,$2,$3,$4,$5,$6,$7,$8,$9,$10,$11,$12,$13,$14,$15,$16,$1,$2,$17*%
%AMFreePoly0*
4,1,70,0.078904,0.947006,0.105684,0.947006,0.144395,0.936633,0.168156,0.932870,0.178932,0.927378,0.193939,0.923358,0.247393,0.892496,0.265726,0.883156,0.268665,0.880214,0.273067,0.877674,0.337674,0.813067,0.340214,0.808666,0.343156,0.805725,0.352496,0.787393,0.383358,0.733939,0.387378,0.718932,0.392870,0.708156,0.396633,0.684395,0.407006,0.645684,0.407133,0.618095,
0.410000,0.600000,0.410000,0.555652,0.437409,0.471298,0.489542,0.399542,0.561298,0.347408,0.645652,0.320000,0.690000,0.320000,0.798156,0.302870,0.895725,0.253155,0.973156,0.175725,1.022870,0.078156,1.040000,-0.030000,1.022870,-0.138156,0.973156,-0.235725,0.895725,-0.313156,0.798156,-0.362870,0.690000,-0.380000,0.519825,-0.365112,0.354820,-0.320899,0.268177,-0.280496,
0.193939,-0.323358,0.105684,-0.347006,0.014316,-0.347006,-0.073939,-0.323358,-0.153067,-0.277674,-0.217674,-0.213067,-0.263358,-0.133939,-0.287006,-0.045684,-0.290000,0.600000,-0.287006,0.645684,-0.276632,0.684395,-0.272870,0.708156,-0.267378,0.718932,-0.263358,0.733939,-0.232496,0.787393,-0.223156,0.805725,-0.220214,0.808666,-0.217674,0.813067,-0.153067,0.877674,-0.148666,0.880214,
-0.145725,0.883156,-0.127393,0.892496,-0.073939,0.923358,-0.058932,0.927378,-0.048156,0.932870,-0.024395,0.936633,0.014316,0.947006,0.041096,0.947006,0.060001,0.950000,0.078904,0.947006,0.078904,0.947006,$1*%
%AMFreePoly1*
4,1,72,0.778156,0.422870,0.875725,0.373156,0.953156,0.295725,1.002870,0.198156,1.020000,0.090000,1.002870,-0.018156,0.953156,-0.115725,0.875725,-0.193156,0.778156,-0.242870,0.670000,-0.260000,0.625652,-0.260000,0.541298,-0.287409,0.469542,-0.339542,0.417409,-0.411298,0.390000,-0.495652,0.390000,-0.540000,0.387006,-0.585684,0.376633,-0.624395,0.372870,-0.648156,0.367378,-0.658932,
0.363358,-0.673939,0.332496,-0.727393,0.323156,-0.745725,0.320214,-0.748666,0.317674,-0.753067,0.253067,-0.817674,0.248666,-0.820214,0.245724,-0.823156,0.227393,-0.832496,0.173939,-0.863358,0.158932,-0.867378,0.148156,-0.872870,0.124395,-0.876633,0.085684,-0.887006,0.058904,-0.887006,0.040000,-0.890000,0.021096,-0.887006,-0.005684,-0.887006,-0.044395,-0.876633,-0.068156,-0.872870,
-0.078932,-0.867379,-0.093939,-0.863358,-0.147393,-0.832496,-0.165725,-0.823156,-0.168666,-0.820214,-0.173067,-0.817674,-0.237674,-0.753067,-0.240214,-0.748666,-0.243156,-0.745725,-0.252496,-0.727393,-0.283358,-0.673939,-0.287378,-0.658932,-0.292870,-0.648156,-0.296633,-0.624395,-0.307006,-0.585684,-0.307133,-0.558095,-0.310000,-0.540000,-0.307357,-0.509799,-0.310000,0.060000,-0.307006,0.105684,
-0.283358,0.193939,-0.237674,0.273067,-0.173067,0.337674,-0.093939,0.383358,-0.005684,0.407006,0.085684,0.407006,0.173939,0.383358,0.248177,0.340496,0.334820,0.380899,0.499825,0.425112,0.670000,0.440000,0.778156,0.422870,0.778156,0.422870,$1*%
G04 Aperture macros list end*
%ADD10RoundRect,0.225000X0.225000X0.375000X-0.225000X0.375000X-0.225000X-0.375000X0.225000X-0.375000X0*%
%ADD11R,1.800000X2.000000*%
%ADD12R,2.000000X2.000000*%
%ADD13RoundRect,0.225000X0.275000X0.340037X-0.170620X0.402664X-0.275000X-0.340037X0.170620X-0.402664X0*%
%ADD14RotRect,1.800000X2.000000X352.000000*%
%ADD15RotRect,2.000000X2.000000X352.000000*%
%ADD16Outline5P,-1.000000X1.000000X0.400000X1.000000X1.000000X0.400000X1.000000X-1.000000X-1.000000X-1.000000X0.000000*%
%ADD17R,2.000000X1.440000*%
%ADD18Outline5P,-1.000000X1.000000X0.000000X1.000000X1.000000X0.000000X1.000000X-1.000000X-1.000000X-1.000000X0.000000*%
%ADD19Outline5P,-1.000000X1.000000X1.000000X1.000000X1.000000X-1.000000X-0.200000X-1.000000X-1.000000X-0.200000X352.000000*%
%ADD20FreePoly0,172.000000*%
%ADD21FreePoly1,172.000000*%
%ADD22R,1.302500X2.031100*%
%ADD23R,1.999998X1.828900*%
G04 APERTURE END LIST*
D10*
%TO.C,D58*%
X79176250Y-155818000D03*
X75876250Y-155818000D03*
%TD*%
D11*
%TO.C,SW31*%
X220820000Y-95568000D03*
D12*
X211120000Y-104008000D03*
X223620000Y-106548000D03*
X209920000Y-97768000D03*
%TD*%
D10*
%TO.C,D17*%
X105370000Y-79618000D03*
X102070000Y-79618000D03*
%TD*%
%TO.C,D55*%
X143470000Y-144818000D03*
X140170000Y-144818000D03*
%TD*%
D11*
%TO.C,SW55*%
X144620000Y-130168000D03*
D12*
X134920000Y-138608000D03*
X147420000Y-141148000D03*
X133720000Y-132368000D03*
%TD*%
D10*
%TO.C,D46*%
X124420000Y-131268000D03*
X121120000Y-131268000D03*
%TD*%
D13*
%TO.C,D40*%
X236495402Y-155189636D03*
X233227518Y-154730364D03*
%TD*%
D10*
%TO.C,D08*%
X57745000Y-79618000D03*
X54445000Y-79618000D03*
%TD*%
%TO.C,D15*%
X143470000Y-68618000D03*
X140170000Y-68618000D03*
%TD*%
%TO.C,D54*%
X162520000Y-140818000D03*
X159220000Y-140818000D03*
%TD*%
D11*
%TO.C,SW16*%
X125570000Y-59468000D03*
D12*
X115870000Y-67908000D03*
X128370000Y-70448000D03*
X114670000Y-61668000D03*
%TD*%
D11*
%TO.C,SW6*%
X121570000Y-27918000D03*
D12*
X111870000Y-36358000D03*
X124370000Y-38898000D03*
X110670000Y-30118000D03*
%TD*%
D10*
%TO.C,D56*%
X124420000Y-150318000D03*
X121120000Y-150318000D03*
%TD*%
%TO.C,D5*%
X139720000Y-42568000D03*
X136420000Y-42568000D03*
%TD*%
%TO.C,D13*%
X181570000Y-69618000D03*
X178270000Y-69618000D03*
%TD*%
%TO.C,D32*%
X200620000Y-110218000D03*
X197320000Y-110218000D03*
%TD*%
%TO.C,D26*%
X124420000Y-93168000D03*
X121120000Y-93168000D03*
%TD*%
D11*
%TO.C,SW14*%
X163670000Y-49968000D03*
D12*
X153970000Y-58408000D03*
X166470000Y-60948000D03*
X152770000Y-52168000D03*
%TD*%
D10*
%TO.C,D38*%
X78720000Y-98668000D03*
X75420000Y-98668000D03*
%TD*%
D11*
%TO.C,SW43*%
X182720000Y-112118000D03*
D12*
X173020000Y-120558000D03*
X185520000Y-123098000D03*
X171820000Y-114318000D03*
%TD*%
D10*
%TO.C,D7*%
X97370000Y-42568000D03*
X94070000Y-42568000D03*
%TD*%
%TO.C,D18*%
X86320000Y-79618000D03*
X83020000Y-79618000D03*
%TD*%
%TO.C,D2*%
X200620000Y-42568000D03*
X197320000Y-42568000D03*
%TD*%
D14*
%TO.C,SW50*%
X237128450Y-159720391D03*
D15*
X226348229Y-166728274D03*
X238373080Y-170983219D03*
X226028347Y-160381994D03*
%TD*%
D11*
%TO.C,SW22*%
X201770000Y-76518000D03*
D12*
X192070000Y-84958000D03*
X204570000Y-87498000D03*
X190870000Y-78718000D03*
%TD*%
D11*
%TO.C,SW4*%
X159670000Y-27918000D03*
D12*
X149970000Y-36358000D03*
X162470000Y-38898000D03*
X148770000Y-30118000D03*
%TD*%
D11*
%TO.C,SW7*%
X98520000Y-27918000D03*
D12*
X88820000Y-36358000D03*
X101320000Y-38898000D03*
X87620000Y-30118000D03*
%TD*%
D14*
%TO.C,SW52*%
X200787287Y-144931976D03*
D15*
X190007066Y-151939859D03*
X202031917Y-156194804D03*
X189687184Y-145593579D03*
%TD*%
D11*
%TO.C,SW44*%
X163670000Y-107118000D03*
D12*
X153970000Y-115558000D03*
X166470000Y-118098000D03*
X152770000Y-109318000D03*
%TD*%
D11*
%TO.C,SW26*%
X125570000Y-78518000D03*
D12*
X115870000Y-86958000D03*
X128370000Y-89498000D03*
X114670000Y-80718000D03*
%TD*%
D11*
%TO.C,SW56*%
X125570000Y-135668000D03*
D12*
X115870000Y-144108000D03*
X128370000Y-146648000D03*
X114670000Y-137868000D03*
%TD*%
D11*
%TO.C,SW46*%
X125570000Y-116618000D03*
D12*
X115870000Y-125058000D03*
X128370000Y-127598000D03*
X114670000Y-118818000D03*
%TD*%
D16*
%TO.C,SW27*%
X96820000Y-92458000D03*
D11*
X106520000Y-84018000D03*
D12*
X95620000Y-86218000D03*
X109320000Y-94998000D03*
%TD*%
D10*
%TO.C,D21*%
X219670000Y-91168000D03*
X216370000Y-91168000D03*
%TD*%
D11*
%TO.C,SW5*%
X140620000Y-27918000D03*
D12*
X130920000Y-36358000D03*
X143420000Y-38898000D03*
X129720000Y-30118000D03*
%TD*%
%TO.C,SW08*%
X47995000Y-67168000D03*
X49195000Y-73408000D03*
D11*
X58895000Y-64968000D03*
D12*
X61695000Y-75948000D03*
%TD*%
D11*
%TO.C,SW10*%
X242870000Y-79518000D03*
D12*
X233170000Y-87958000D03*
X245670000Y-90498000D03*
X231970000Y-81718000D03*
%TD*%
D10*
%TO.C,D37*%
X94000000Y-117703000D03*
X90700000Y-117703000D03*
%TD*%
D11*
%TO.C,SW35*%
X144620000Y-92068000D03*
D12*
X134920000Y-100508000D03*
X147420000Y-103048000D03*
X133720000Y-94268000D03*
%TD*%
%TO.C,SW28*%
X52757500Y-86218000D03*
X53957500Y-92458000D03*
D11*
X63657500Y-84018000D03*
D12*
X66457500Y-94998000D03*
%TD*%
D11*
%TO.C,SW15*%
X144620000Y-53968000D03*
D12*
X134920000Y-62408000D03*
X147420000Y-64948000D03*
X133720000Y-56168000D03*
%TD*%
D11*
%TO.C,SW21*%
X220820000Y-76518000D03*
D12*
X211120000Y-84958000D03*
X223620000Y-87498000D03*
X209920000Y-78718000D03*
%TD*%
D10*
%TO.C,D42*%
X200620000Y-129268000D03*
X197320000Y-129268000D03*
%TD*%
%TO.C,D33*%
X181570000Y-107718000D03*
X178270000Y-107718000D03*
%TD*%
%TO.C,D11*%
X219670000Y-72118000D03*
X216370000Y-72118000D03*
%TD*%
%TO.C,D27*%
X105350000Y-98668000D03*
X102050000Y-98668000D03*
%TD*%
D11*
%TO.C,SW17*%
X106520000Y-64968000D03*
D12*
X96820000Y-73408000D03*
X109320000Y-75948000D03*
X95620000Y-67168000D03*
%TD*%
D10*
%TO.C,D12*%
X200620000Y-72118000D03*
X197320000Y-72118000D03*
%TD*%
D14*
%TO.C,SW30*%
X242430945Y-121991177D03*
D15*
X231650724Y-128999060D03*
X243675575Y-133254005D03*
X231330842Y-122652780D03*
%TD*%
D10*
%TO.C,D25*%
X143470000Y-87668000D03*
X140170000Y-87668000D03*
%TD*%
%TO.C,D34*%
X162520000Y-102718000D03*
X159220000Y-102718000D03*
%TD*%
%TO.C,D48*%
X69660000Y-117790000D03*
X66360000Y-117790000D03*
%TD*%
D11*
%TO.C,SW57*%
X104138750Y-141168000D03*
D12*
X94438750Y-149608000D03*
X106938750Y-152148000D03*
X93238750Y-143368000D03*
%TD*%
D10*
%TO.C,D4*%
X158520000Y-42568000D03*
X155220000Y-42568000D03*
%TD*%
D13*
%TO.C,D50*%
X234017337Y-174069636D03*
X230749453Y-173610364D03*
%TD*%
D17*
%TO.C,SW37*%
X96820000Y-111773000D03*
D11*
X106520000Y-103053000D03*
D18*
X95620000Y-105253000D03*
D12*
X109320000Y-114033000D03*
%TD*%
D11*
%TO.C,SW24*%
X163670000Y-69018000D03*
D12*
X153970000Y-77458000D03*
X166470000Y-79998000D03*
X152770000Y-71218000D03*
%TD*%
D11*
%TO.C,SW1*%
X220820000Y-27918000D03*
D12*
X211120000Y-36358000D03*
X223620000Y-38898000D03*
X209920000Y-30118000D03*
%TD*%
D11*
%TO.C,SW2*%
X201770000Y-27918000D03*
D12*
X192070000Y-36358000D03*
X204570000Y-38898000D03*
X190870000Y-30118000D03*
%TD*%
D13*
%TO.C,D51*%
X215061319Y-171461935D03*
X211793435Y-171002663D03*
%TD*%
D10*
%TO.C,D0*%
X241720000Y-75118000D03*
X238420000Y-75118000D03*
%TD*%
%TO.C,D1*%
X219920000Y-42568000D03*
X216620000Y-42568000D03*
%TD*%
D11*
%TO.C,SW20*%
X242870000Y-98568000D03*
D12*
X233170000Y-107008000D03*
X245670000Y-109548000D03*
X231970000Y-100768000D03*
%TD*%
D10*
%TO.C,D47*%
X91180000Y-136780000D03*
X87880000Y-136780000D03*
%TD*%
D11*
%TO.C,SW42*%
X201770000Y-114618000D03*
D12*
X192070000Y-123058000D03*
X204570000Y-125598000D03*
X190870000Y-116818000D03*
%TD*%
D10*
%TO.C,D6*%
X120670000Y-42568000D03*
X117370000Y-42568000D03*
%TD*%
%TO.C,D24*%
X162520000Y-83668000D03*
X159220000Y-83668000D03*
%TD*%
%TO.C,D3*%
X177820000Y-42568000D03*
X174520000Y-42568000D03*
%TD*%
D11*
%TO.C,SW34*%
X163670000Y-88068000D03*
D12*
X153970000Y-96508000D03*
X166470000Y-99048000D03*
X152770000Y-90268000D03*
%TD*%
D10*
%TO.C,D16*%
X124420000Y-74118000D03*
X121120000Y-74118000D03*
%TD*%
%TO.C,D35*%
X143470000Y-106718000D03*
X140170000Y-106718000D03*
%TD*%
%TO.C,D43*%
X181570000Y-126768000D03*
X178270000Y-126768000D03*
%TD*%
D11*
%TO.C,SW0*%
X242870000Y-60468000D03*
D12*
X233170000Y-68908000D03*
X245670000Y-71448000D03*
X231970000Y-62668000D03*
%TD*%
D11*
%TO.C,SW58*%
X80326250Y-141168000D03*
D12*
X70626250Y-149608000D03*
X83126250Y-152148000D03*
X69426250Y-143368000D03*
%TD*%
D10*
%TO.C,D45*%
X143470000Y-125768000D03*
X140170000Y-125768000D03*
%TD*%
D11*
%TO.C,SW3*%
X178720000Y-27918000D03*
D12*
X169020000Y-36358000D03*
X181520000Y-38898000D03*
X167820000Y-30118000D03*
%TD*%
%TO.C,SW18*%
X77770000Y-73408000D03*
X76570000Y-67168000D03*
X90270000Y-75948000D03*
D11*
X87470000Y-64968000D03*
%TD*%
D10*
%TO.C,D22*%
X200620000Y-91168000D03*
X197320000Y-91168000D03*
%TD*%
D11*
%TO.C,SW36*%
X125570000Y-97568000D03*
D12*
X115870000Y-106008000D03*
X128370000Y-108548000D03*
X114670000Y-99768000D03*
%TD*%
D10*
%TO.C,D20*%
X241720000Y-113218000D03*
X238420000Y-113218000D03*
%TD*%
D14*
%TO.C,SW40*%
X239779697Y-140855784D03*
D15*
X228999476Y-147863667D03*
X241024327Y-152118612D03*
D19*
X228679594Y-141517387D03*
%TD*%
D11*
%TO.C,SW25*%
X144620000Y-73018000D03*
D12*
X134920000Y-81458000D03*
X147420000Y-83998000D03*
X133720000Y-75218000D03*
%TD*%
D10*
%TO.C,D14*%
X162520000Y-64618000D03*
X159220000Y-64618000D03*
%TD*%
D11*
%TO.C,SW32*%
X201770000Y-95568000D03*
D12*
X192070000Y-104008000D03*
X204570000Y-106548000D03*
X190870000Y-97768000D03*
%TD*%
D10*
%TO.C,D31*%
X219670000Y-110218000D03*
X216370000Y-110218000D03*
%TD*%
D12*
%TO.C,SW48*%
X64663750Y-105268000D03*
X65863750Y-111508000D03*
D11*
X75563750Y-103068000D03*
D12*
X78363750Y-114048000D03*
%TD*%
D11*
%TO.C,SW11*%
X220820000Y-57468000D03*
D12*
X211120000Y-65908000D03*
X223620000Y-68448000D03*
X209920000Y-59668000D03*
%TD*%
D11*
%TO.C,SW54*%
X163670000Y-126168000D03*
D12*
X153970000Y-134608000D03*
X166470000Y-137148000D03*
X152770000Y-128368000D03*
%TD*%
D10*
%TO.C,D28*%
X54570000Y-98668000D03*
X51270000Y-98668000D03*
%TD*%
%TO.C,D44*%
X162520000Y-121768000D03*
X159220000Y-121768000D03*
%TD*%
D13*
%TO.C,D52*%
X196283969Y-168711658D03*
X193016085Y-168252386D03*
%TD*%
D14*
%TO.C,SW53*%
X180866036Y-149408572D03*
D20*
X170695659Y-157178748D03*
D15*
X170085815Y-156416455D03*
D21*
X182895547Y-160044534D03*
D15*
X182110666Y-160671400D03*
X169765933Y-150070175D03*
%TD*%
D10*
%TO.C,D36*%
X124420000Y-112218000D03*
X121120000Y-112218000D03*
%TD*%
%TO.C,D41*%
X219700000Y-130990000D03*
X216400000Y-130990000D03*
%TD*%
D12*
%TO.C,SW38*%
X77770000Y-92458000D03*
X76570000Y-86218000D03*
X90270000Y-94998000D03*
D11*
X87470000Y-84018000D03*
%TD*%
D10*
%TO.C,D23*%
X181570000Y-88668000D03*
X178270000Y-88668000D03*
%TD*%
D13*
%TO.C,D30*%
X239175402Y-136339636D03*
X235907518Y-135880364D03*
%TD*%
D11*
%TO.C,SW45*%
X144620000Y-111118000D03*
D12*
X134920000Y-119558000D03*
X147420000Y-122098000D03*
X133720000Y-113318000D03*
%TD*%
D14*
%TO.C,SW51*%
X219564637Y-147682253D03*
D15*
X208784416Y-154690136D03*
X220809267Y-158945081D03*
X208464534Y-148343856D03*
%TD*%
D11*
%TO.C,SW23*%
X182720000Y-74018000D03*
D12*
X173020000Y-82458000D03*
X185520000Y-84998000D03*
X171820000Y-76218000D03*
%TD*%
D11*
%TO.C,SW13*%
X182720000Y-54968000D03*
D12*
X173020000Y-63408000D03*
X185520000Y-65948000D03*
X171820000Y-57168000D03*
%TD*%
D11*
%TO.C,SW33*%
X182720000Y-93068000D03*
D12*
X173020000Y-101508000D03*
X185520000Y-104048000D03*
X171820000Y-95268000D03*
%TD*%
D11*
%TO.C,SW12*%
X201770000Y-57468000D03*
D12*
X192070000Y-65908000D03*
X204570000Y-68448000D03*
X190870000Y-59668000D03*
%TD*%
D10*
%TO.C,D10*%
X241720000Y-94168000D03*
X238420000Y-94168000D03*
%TD*%
%TO.C,D57*%
X102988750Y-155818000D03*
X99688750Y-155818000D03*
%TD*%
D12*
%TO.C,SW47*%
X80151250Y-130558000D03*
D22*
X89602500Y-122133550D03*
D23*
X78951251Y-124403550D03*
D12*
X92651250Y-133098000D03*
%TD*%
D13*
%TO.C,D53*%
X177773942Y-163789636D03*
X174506058Y-163330364D03*
%TD*%
M02*
