M48
; DRILL file {KiCad 8.0.2} date 2024-06-02T17:13:25-0700
; FORMAT={-:-/ absolute / metric / decimal}
; #@! TF.CreationDate,2024-06-02T17:13:25-07:00
; #@! TF.GenerationSoftware,Kicad,Pcbnew,8.0.2
; #@! TF.FileFunction,NonPlated,1,2,NPTH
FMAT,2
METRIC
; #@! TA.AperFunction,NonPlated,NPTH,ComponentDrill
T1C0.800
; #@! TA.AperFunction,NonPlated,NPTH,ComponentDrill
T2C1.200
; #@! TA.AperFunction,NonPlated,NPTH,ComponentDrill
T3C1.500
; #@! TA.AperFunction,NonPlated,NPTH,ComponentDrill
T4C1.700
; #@! TA.AperFunction,NonPlated,NPTH,ComponentDrill
T5C1.900
; #@! TA.AperFunction,NonPlated,NPTH,ComponentDrill
T6C2.200
; #@! TA.AperFunction,NonPlated,NPTH,ComponentDrill
T7C3.000
; #@! TA.AperFunction,NonPlated,NPTH,ComponentDrill
T8C3.988
; #@! TA.AperFunction,NonPlated,NPTH,ComponentDrill
T9C4.000
%
G90
G05
T1
X51.375Y-124.32
X52.365Y-126.965
X53.405Y-129.645
X55.945Y-129.645
X62.365Y-126.965
X64.075Y-124.32
T2
X232.67Y-43.506
X233.652Y-44.956
X238.467Y-39.582
X239.448Y-41.031
T4
X51.015Y-70.868
X55.777Y-89.918
X61.175Y-70.868
X65.938Y-89.918
X67.684Y-108.968
X72.446Y-147.068
X77.844Y-108.968
X79.59Y-70.868
X79.59Y-89.918
X81.971Y-128.018
X82.606Y-147.068
X86.734Y-128.018
X89.75Y-70.868
X89.75Y-89.918
X90.64Y-33.818
X91.496Y-108.953
X92.131Y-128.018
X93.877Y-89.918
X96.259Y-147.068
X96.894Y-128.018
X98.64Y-70.868
X98.64Y-89.918
X98.64Y-108.953
X100.8Y-33.818
X101.656Y-108.953
X104.037Y-89.918
X106.419Y-147.068
X108.8Y-70.868
X108.8Y-89.918
X108.8Y-108.953
X113.69Y-33.818
X117.69Y-65.368
X117.69Y-84.418
X117.69Y-103.468
X117.69Y-122.518
X117.69Y-141.568
X123.85Y-33.818
X127.85Y-65.368
X127.85Y-84.418
X127.85Y-103.468
X127.85Y-122.518
X127.85Y-141.568
X132.74Y-33.818
X136.74Y-59.868
X136.74Y-78.918
X136.74Y-97.968
X136.74Y-117.018
X136.74Y-136.068
X142.9Y-33.818
X146.9Y-59.868
X146.9Y-78.918
X146.9Y-97.968
X146.9Y-117.018
X146.9Y-136.068
X151.79Y-33.818
X155.79Y-55.868
X155.79Y-74.918
X155.79Y-93.968
X155.79Y-113.018
X155.79Y-132.068
X161.95Y-33.818
X165.95Y-55.868
X165.95Y-74.918
X165.95Y-93.968
X165.95Y-113.018
X165.95Y-132.068
X170.84Y-33.818
X172.242Y-154.154
X174.84Y-60.868
X174.84Y-79.918
X174.84Y-98.968
X174.84Y-118.018
X181.0Y-33.818
X182.303Y-155.568
X185.0Y-60.868
X185.0Y-79.918
X185.0Y-98.968
X185.0Y-118.018
X192.163Y-149.678
X193.89Y-33.818
X193.89Y-63.368
X193.89Y-82.418
X193.89Y-101.468
X193.89Y-120.518
X202.224Y-151.092
X204.05Y-33.818
X204.05Y-63.368
X204.05Y-82.418
X204.05Y-101.468
X204.05Y-120.518
X210.94Y-152.428
X212.94Y-33.818
X212.94Y-63.368
X212.94Y-82.418
X212.94Y-101.468
X221.001Y-153.842
X223.1Y-33.818
X223.1Y-63.368
X223.1Y-82.418
X223.1Y-101.468
X228.504Y-164.466
X231.155Y-145.602
X233.807Y-126.737
X234.99Y-66.368
X234.99Y-85.418
X234.99Y-104.468
X238.565Y-165.88
X241.216Y-147.016
X243.868Y-128.151
X245.15Y-66.368
X245.15Y-85.418
X245.15Y-104.468
T5
X50.595Y-70.868
X55.357Y-89.918
X61.595Y-70.868
X66.358Y-89.918
X67.264Y-108.968
X72.026Y-147.068
X78.264Y-108.968
X79.17Y-70.868
X79.17Y-89.918
X81.551Y-128.018
X83.026Y-147.068
X86.314Y-128.018
X90.17Y-70.868
X90.17Y-89.918
X90.22Y-33.818
X91.076Y-108.953
X92.551Y-128.018
X93.457Y-89.918
X95.839Y-147.068
X97.314Y-128.018
X98.22Y-70.868
X98.22Y-89.918
X98.22Y-108.953
X101.22Y-33.818
X102.076Y-108.953
X104.457Y-89.918
X106.839Y-147.068
X109.22Y-70.868
X109.22Y-89.918
X109.22Y-108.953
X113.27Y-33.818
X117.27Y-65.368
X117.27Y-84.418
X117.27Y-103.468
X117.27Y-122.518
X117.27Y-141.568
X124.27Y-33.818
X128.27Y-65.368
X128.27Y-84.418
X128.27Y-103.468
X128.27Y-122.518
X128.27Y-141.568
X132.32Y-33.818
X136.32Y-59.868
X136.32Y-78.918
X136.32Y-97.968
X136.32Y-117.018
X136.32Y-136.068
X143.32Y-33.818
X147.32Y-59.868
X147.32Y-78.918
X147.32Y-97.968
X147.32Y-117.018
X147.32Y-136.068
X151.37Y-33.818
X155.37Y-55.868
X155.37Y-74.918
X155.37Y-93.968
X155.37Y-113.018
X155.37Y-132.068
X162.37Y-33.818
X166.37Y-55.868
X166.37Y-74.918
X166.37Y-93.968
X166.37Y-113.018
X166.37Y-132.068
X170.42Y-33.818
X171.826Y-154.096
X174.42Y-60.868
X174.42Y-79.918
X174.42Y-98.968
X174.42Y-118.018
X181.42Y-33.818
X182.719Y-155.627
X185.42Y-60.868
X185.42Y-79.918
X185.42Y-98.968
X185.42Y-118.018
X191.747Y-149.619
X193.47Y-33.818
X193.47Y-63.368
X193.47Y-82.418
X193.47Y-101.468
X193.47Y-120.518
X202.64Y-151.15
X204.47Y-33.818
X204.47Y-63.368
X204.47Y-82.418
X204.47Y-101.468
X204.47Y-120.518
X210.524Y-152.37
X212.52Y-33.818
X212.52Y-63.368
X212.52Y-82.418
X212.52Y-101.468
X221.417Y-153.901
X223.52Y-33.818
X223.52Y-63.368
X223.52Y-82.418
X223.52Y-101.468
X228.088Y-164.408
X230.739Y-145.543
X233.391Y-126.679
X234.57Y-66.368
X234.57Y-85.418
X234.57Y-104.468
X238.981Y-165.939
X241.632Y-147.074
X244.284Y-128.21
X245.57Y-66.368
X245.57Y-85.418
X245.57Y-104.468
T6
X144.126Y-152.7
X144.961Y-158.642
X148.713Y-156.6
X150.277Y-153.35
X151.345Y-88.1
X151.345Y-100.388
X154.029Y-151.308
X154.86Y-157.225
X170.395Y-69.05
X170.395Y-81.338
X170.395Y-107.15
X170.395Y-119.438
X189.445Y-88.1
X189.445Y-100.388
T7
X51.095Y-67.168
X52.285Y-73.408
X55.857Y-86.218
X56.095Y-64.968
X57.047Y-92.458
X58.635Y-75.948
X60.857Y-84.018
X63.397Y-94.998
X67.764Y-105.268
X68.954Y-111.508
X72.526Y-143.368
X72.764Y-103.068
X73.716Y-149.608
X74.986Y-152.148
X75.304Y-114.048
X77.526Y-141.168
X79.67Y-67.168
X79.67Y-86.218
X80.066Y-152.148
X80.86Y-73.408
X80.86Y-92.458
X81.336Y-149.608
X82.051Y-124.318
X82.526Y-143.368
X83.241Y-130.558
X84.67Y-64.968
X84.67Y-84.018
X87.051Y-122.118
X87.21Y-75.948
X87.21Y-94.998
X89.274Y-133.098
X89.591Y-133.098
X90.72Y-30.118
X91.814Y-122.118
X91.91Y-36.358
X93.18Y-38.898
X94.036Y-114.033
X95.624Y-130.558
X95.72Y-27.918
X96.339Y-143.368
X96.417Y-94.998
X96.576Y-103.053
X96.814Y-124.318
X97.529Y-149.608
X98.26Y-38.898
X98.72Y-67.168
X98.72Y-86.218
X98.72Y-105.253
X98.799Y-152.148
X98.957Y-84.018
X99.53Y-36.358
X99.91Y-73.408
X99.91Y-92.458
X99.91Y-111.493
X100.386Y-111.493
X100.72Y-30.118
X101.18Y-75.948
X101.339Y-141.168
X101.576Y-105.253
X102.767Y-92.458
X103.72Y-64.968
X103.72Y-84.018
X103.72Y-103.053
X103.879Y-152.148
X103.957Y-86.218
X105.149Y-149.608
X106.26Y-75.948
X106.26Y-94.998
X106.26Y-114.033
X106.339Y-143.368
X107.53Y-73.408
X108.72Y-67.168
X113.77Y-30.118
X114.96Y-36.358
X116.23Y-38.898
X117.77Y-61.668
X117.77Y-80.718
X117.77Y-99.768
X117.77Y-118.818
X117.77Y-137.868
X118.77Y-27.918
X118.96Y-67.908
X118.96Y-86.958
X118.96Y-106.008
X118.96Y-125.058
X118.96Y-144.108
X120.23Y-70.448
X120.23Y-89.498
X120.23Y-108.548
X120.23Y-127.598
X120.23Y-146.648
X121.31Y-38.898
X122.58Y-36.358
X122.77Y-59.468
X122.77Y-78.518
X122.77Y-97.568
X122.77Y-116.618
X122.77Y-135.668
X123.77Y-30.118
X125.31Y-70.448
X125.31Y-89.498
X125.31Y-108.548
X125.31Y-127.598
X125.31Y-146.648
X126.58Y-67.908
X126.58Y-86.958
X126.58Y-106.008
X126.58Y-125.058
X126.58Y-144.108
X127.77Y-61.668
X127.77Y-80.718
X127.77Y-99.768
X127.77Y-118.818
X127.77Y-137.868
X132.82Y-30.118
X134.01Y-36.358
X135.28Y-38.898
X136.82Y-56.168
X136.82Y-75.218
X136.82Y-94.268
X136.82Y-113.318
X136.82Y-132.368
X137.82Y-27.918
X138.01Y-62.408
X138.01Y-81.458
X138.01Y-100.508
X138.01Y-119.558
X138.01Y-138.608
X139.28Y-64.948
X139.28Y-83.998
X139.28Y-103.048
X139.28Y-122.098
X139.28Y-141.148
X140.36Y-38.898
X141.63Y-36.358
X141.82Y-53.968
X141.82Y-73.018
X141.82Y-92.068
X141.82Y-111.118
X141.82Y-130.168
X142.82Y-30.118
X144.36Y-64.948
X144.36Y-83.998
X144.36Y-103.048
X144.36Y-122.098
X144.36Y-141.148
X145.63Y-62.408
X145.63Y-81.458
X145.63Y-100.508
X145.63Y-119.558
X145.63Y-138.608
X146.82Y-56.168
X146.82Y-75.218
X146.82Y-94.268
X146.82Y-113.318
X146.82Y-132.368
X151.87Y-30.118
X153.06Y-36.358
X154.33Y-38.898
X155.87Y-52.168
X155.87Y-71.218
X155.87Y-90.268
X155.87Y-109.318
X155.87Y-128.368
X156.87Y-27.918
X157.06Y-58.408
X157.06Y-77.458
X157.06Y-96.508
X157.06Y-115.558
X157.06Y-134.608
X158.33Y-60.948
X158.33Y-79.998
X158.33Y-99.048
X158.33Y-118.098
X158.33Y-137.148
X159.41Y-38.898
X160.68Y-36.358
X160.87Y-49.968
X160.87Y-69.018
X160.87Y-88.068
X160.87Y-107.118
X160.87Y-126.168
X161.87Y-30.118
X163.41Y-60.948
X163.41Y-79.998
X163.41Y-99.048
X163.41Y-118.098
X163.41Y-137.148
X164.68Y-58.408
X164.68Y-77.458
X164.68Y-96.508
X164.68Y-115.558
X164.68Y-134.608
X165.87Y-52.168
X165.87Y-71.218
X165.87Y-90.268
X165.87Y-109.318
X165.87Y-128.368
X170.92Y-30.118
X172.11Y-36.358
X172.836Y-150.502
X173.146Y-156.846
X173.38Y-38.898
X174.05Y-159.539
X174.92Y-57.168
X174.92Y-76.218
X174.92Y-95.268
X174.92Y-114.318
X175.92Y-27.918
X176.11Y-63.408
X176.11Y-82.458
X176.11Y-101.508
X176.11Y-120.558
X177.38Y-65.948
X177.38Y-84.998
X177.38Y-104.048
X177.38Y-123.098
X178.093Y-149.019
X178.46Y-38.898
X179.08Y-160.246
X179.73Y-36.358
X179.92Y-54.968
X179.92Y-74.018
X179.92Y-93.068
X179.92Y-112.118
X180.692Y-157.907
X180.92Y-30.118
X182.46Y-65.948
X182.46Y-84.998
X182.46Y-104.048
X182.46Y-123.098
X182.738Y-151.893
X183.73Y-63.408
X183.73Y-82.458
X183.73Y-101.508
X183.73Y-120.558
X184.92Y-57.168
X184.92Y-76.218
X184.92Y-95.268
X184.92Y-114.318
X192.757Y-146.025
X193.067Y-152.37
X193.97Y-30.118
X193.97Y-59.668
X193.97Y-78.718
X193.97Y-97.768
X193.97Y-116.818
X193.971Y-155.062
X195.16Y-36.358
X195.16Y-65.908
X195.16Y-84.958
X195.16Y-104.008
X195.16Y-123.058
X196.43Y-38.898
X196.43Y-68.448
X196.43Y-87.498
X196.43Y-106.548
X196.43Y-125.598
X198.015Y-144.542
X198.97Y-27.918
X198.97Y-57.468
X198.97Y-76.518
X198.97Y-95.568
X198.97Y-114.618
X199.002Y-155.769
X200.613Y-153.43
X201.51Y-38.898
X201.51Y-68.448
X201.51Y-87.498
X201.51Y-106.548
X201.51Y-125.598
X202.66Y-147.417
X202.78Y-36.358
X202.78Y-65.908
X202.78Y-84.958
X202.78Y-104.008
X202.78Y-123.058
X203.97Y-30.118
X203.97Y-59.668
X203.97Y-78.718
X203.97Y-97.768
X203.97Y-116.818
X211.534Y-148.775
X211.844Y-155.12
X212.748Y-157.812
X213.02Y-30.118
X213.02Y-59.668
X213.02Y-78.718
X213.02Y-97.768
X214.21Y-36.358
X214.21Y-65.908
X214.21Y-84.958
X214.21Y-104.008
X215.48Y-38.898
X215.48Y-68.448
X215.48Y-87.498
X215.48Y-106.548
X216.792Y-147.293
X217.779Y-158.519
X218.02Y-27.918
X218.02Y-57.468
X218.02Y-76.518
X218.02Y-95.568
X219.39Y-156.181
X220.56Y-38.898
X220.56Y-68.448
X220.56Y-87.498
X220.56Y-106.548
X221.437Y-150.167
X221.83Y-36.358
X221.83Y-65.908
X221.83Y-84.958
X221.83Y-104.008
X223.02Y-30.118
X223.02Y-59.668
X223.02Y-78.718
X223.02Y-97.768
X229.098Y-160.813
X229.408Y-167.158
X230.312Y-169.85
X231.749Y-141.949
X232.059Y-148.294
X232.964Y-150.986
X234.356Y-159.331
X234.401Y-123.084
X234.711Y-129.429
X235.07Y-62.668
X235.07Y-81.718
X235.07Y-100.768
X235.343Y-170.557
X235.615Y-132.121
X236.26Y-68.908
X236.26Y-87.958
X236.26Y-107.008
X236.954Y-168.219
X237.007Y-140.466
X237.53Y-71.448
X237.53Y-90.498
X237.53Y-109.548
X237.994Y-151.693
X239.001Y-162.205
X239.605Y-149.354
X239.658Y-121.601
X240.07Y-60.468
X240.07Y-79.518
X240.07Y-98.568
X240.645Y-132.828
X241.652Y-143.341
X242.256Y-130.49
X242.61Y-71.448
X242.61Y-90.498
X242.61Y-109.548
X243.88Y-68.908
X243.88Y-87.958
X243.88Y-107.008
X244.303Y-124.476
X245.07Y-62.668
X245.07Y-81.718
X245.07Y-100.768
T8
X44.189Y-79.123
X60.857Y-117.223
X68.001Y-79.123
X75.145Y-136.273
X79.907Y-136.273
X84.67Y-117.223
X98.957Y-136.273
X103.72Y-136.273
X187.285Y-161.066
X190.599Y-137.485
X222.498Y-166.014
X225.812Y-142.433
T9
X56.095Y-70.868
X60.857Y-89.918
X72.764Y-108.968
X77.526Y-147.068
X84.67Y-70.868
X84.67Y-89.918
X87.051Y-128.018
X91.814Y-128.018
X95.72Y-33.818
X96.576Y-108.953
X98.957Y-89.918
X101.339Y-147.068
X103.72Y-70.868
X103.72Y-89.918
X103.72Y-108.953
X118.77Y-33.818
X122.77Y-65.368
X122.77Y-84.418
X122.77Y-103.468
X122.77Y-122.518
X122.77Y-141.568
X137.82Y-33.818
X141.82Y-59.868
X141.82Y-78.918
X141.82Y-97.968
X141.82Y-117.018
X141.82Y-136.068
X156.87Y-33.818
X160.87Y-55.868
X160.87Y-74.918
X160.87Y-93.968
X160.87Y-113.018
X160.87Y-132.068
X175.92Y-33.818
X177.272Y-154.861
X179.92Y-60.868
X179.92Y-79.918
X179.92Y-98.968
X179.92Y-118.018
X197.193Y-150.385
X198.97Y-33.818
X198.97Y-63.368
X198.97Y-82.418
X198.97Y-101.468
X198.97Y-120.518
X215.971Y-153.135
X218.02Y-33.818
X218.02Y-63.368
X218.02Y-82.418
X218.02Y-101.468
X233.535Y-165.173
X236.186Y-146.309
X238.837Y-127.444
X240.07Y-66.368
X240.07Y-85.418
X240.07Y-104.468
T1
X56.315Y-132.344G85X56.421Y-132.625
G05
X57.195Y-134.684G85X57.301Y-134.965
G05
X58.075Y-137.024G85X58.18Y-137.305
G05
T3
X212.42Y-119.868G85X212.42Y-121.168
G05
X223.62Y-119.868G85X223.62Y-121.168
G05
M30
