M48
; DRILL file {KiCad 8.0.2} date 2024-06-02T17:13:25-0700
; FORMAT={-:-/ absolute / metric / decimal}
; #@! TF.CreationDate,2024-06-02T17:13:25-07:00
; #@! TF.GenerationSoftware,Kicad,Pcbnew,8.0.2
; #@! TF.FileFunction,Plated,1,2,PTH
FMAT,2
METRIC
; #@! TA.AperFunction,Plated,PTH,ViaDrill
T1C0.300
; #@! TA.AperFunction,Plated,PTH,ComponentDrill
T2C0.300
; #@! TA.AperFunction,Plated,PTH,ComponentDrill
T3C0.400
; #@! TA.AperFunction,Plated,PTH,ComponentDrill
T4C0.600
; #@! TA.AperFunction,Plated,PTH,ComponentDrill
T5C0.800
; #@! TA.AperFunction,Plated,PTH,ComponentDrill
T6C1.000
; #@! TA.AperFunction,Plated,PTH,ComponentDrill
T7C1.100
; #@! TA.AperFunction,Plated,PTH,ComponentDrill
T8C2.200
; #@! TA.AperFunction,Plated,PTH,ComponentDrill
T9C3.048
; #@! TA.AperFunction,Plated,PTH,ComponentDrill
T10C4.100
; #@! TA.AperFunction,Plated,PTH,ComponentDrill
T11C6.000
%
G90
G05
T1
X50.62Y-74.938
X56.128Y-61.882
X59.9Y-46.125
X61.085Y-64.945
X63.657Y-75.972
X63.657Y-86.678
X68.2Y-96.473
X72.95Y-138.11
X73.79Y-59.54
X77.75Y-76.54
X77.78Y-94.258
X79.84Y-115.548
X84.93Y-134.418
X87.1Y-124.88
X87.9Y-43.878
X88.74Y-105.06
X88.855Y-82.633
X91.646Y-77.204
X91.94Y-86.04
X93.32Y-92.518
X93.521Y-111.489
X94.2Y-78.97
X95.416Y-43.464
X96.16Y-90.288
X96.28Y-133.098
X98.0Y-81.908
X100.08Y-114.44
X103.555Y-48.075
X103.59Y-99.278
X103.62Y-100.238
X103.67Y-61.99
X107.122Y-111.835
X107.26Y-38.898
X107.75Y-93.51
X109.524Y-83.752
X110.77Y-115.458
X113.249Y-94.879
X122.76Y-56.47
X128.21Y-47.793
X128.3Y-34.148
X129.167Y-47.801
X130.12Y-47.788
X130.96Y-113.1
X131.13Y-93.95
X131.18Y-74.87
X131.925Y-108.853
X132.6Y-127.66
X133.609Y-145.279
X141.85Y-50.91
X147.35Y-34.088
X151.095Y-46.427
X151.32Y-65.568
X160.88Y-47.878
X166.42Y-34.058
X179.9Y-51.98
X187.49Y-38.928
X198.99Y-54.51
X208.47Y-33.508
X218.13Y-54.35
X222.795Y-112.989
X224.173Y-46.477
X224.175Y-42.68
X224.465Y-113.372
X224.72Y-47.151
X225.345Y-47.75
X230.6Y-61.248
X232.94Y-73.428
X240.2Y-57.44
T2
X71.276Y-150.878
X77.526Y-143.668
X83.776Y-150.878
X84.408Y-144.444
X89.47Y-37.628
X95.089Y-150.878
X95.72Y-30.418
X97.47Y-74.678
X101.339Y-143.668
X101.97Y-37.628
X102.602Y-31.194
X103.72Y-67.468
X107.589Y-150.878
X108.221Y-144.444
X109.97Y-74.678
X110.602Y-68.244
X112.52Y-37.628
X116.52Y-69.178
X116.52Y-88.228
X116.52Y-107.278
X116.52Y-126.328
X116.52Y-145.378
X118.77Y-30.418
X122.77Y-61.968
X122.77Y-81.018
X122.77Y-100.068
X122.77Y-119.118
X122.77Y-138.168
X125.02Y-37.628
X125.652Y-31.194
X129.02Y-69.178
X129.02Y-88.228
X129.02Y-107.278
X129.02Y-126.328
X129.02Y-145.378
X129.652Y-62.744
X129.652Y-81.794
X129.652Y-100.844
X129.652Y-119.894
X129.652Y-138.944
X131.57Y-37.628
X135.57Y-63.678
X135.57Y-82.728
X135.57Y-101.778
X135.57Y-120.828
X135.57Y-139.878
X137.82Y-30.418
X141.82Y-56.468
X141.82Y-75.518
X141.82Y-94.568
X141.82Y-113.618
X141.82Y-132.668
X144.07Y-37.628
X144.702Y-31.194
X148.07Y-63.678
X148.07Y-82.728
X148.07Y-101.778
X148.07Y-120.828
X148.07Y-139.878
X148.702Y-57.244
X148.702Y-76.294
X148.702Y-95.344
X148.702Y-114.394
X148.702Y-133.444
X150.62Y-37.628
X154.62Y-59.678
X154.62Y-78.728
X154.62Y-97.778
X154.62Y-116.828
X154.62Y-135.878
X156.87Y-30.418
X160.87Y-52.468
X160.87Y-71.518
X160.87Y-90.568
X160.87Y-109.618
X160.87Y-128.668
X163.12Y-37.628
X163.752Y-31.194
X167.12Y-59.678
X167.12Y-78.728
X167.12Y-97.778
X167.12Y-116.828
X167.12Y-135.878
X167.752Y-53.244
X167.752Y-72.294
X167.752Y-91.344
X167.752Y-110.394
X167.752Y-129.444
X169.67Y-37.628
X170.553Y-157.765
X173.67Y-64.678
X173.67Y-83.728
X173.67Y-102.778
X173.67Y-121.828
X175.92Y-30.418
X177.745Y-151.495
X179.92Y-57.468
X179.92Y-76.518
X179.92Y-95.568
X179.92Y-114.618
X182.17Y-37.628
X182.802Y-31.194
X182.931Y-159.504
X184.452Y-153.221
X186.17Y-64.678
X186.17Y-83.728
X186.17Y-102.778
X186.17Y-121.828
X186.802Y-58.244
X186.802Y-77.294
X186.802Y-96.344
X186.802Y-115.394
X190.474Y-153.288
X192.72Y-37.628
X192.72Y-67.178
X192.72Y-86.228
X192.72Y-105.278
X192.72Y-124.328
X197.667Y-147.018
X198.97Y-30.418
X198.97Y-59.968
X198.97Y-79.018
X198.97Y-98.068
X198.97Y-117.118
X202.852Y-155.028
X204.373Y-148.745
X205.22Y-37.628
X205.22Y-67.178
X205.22Y-86.228
X205.22Y-105.278
X205.22Y-124.328
X205.852Y-31.194
X205.852Y-60.744
X205.852Y-79.794
X205.852Y-98.844
X205.852Y-117.894
X209.251Y-156.038
X211.77Y-37.628
X211.77Y-67.178
X211.77Y-86.228
X211.77Y-105.278
X216.444Y-149.768
X218.02Y-30.418
X218.02Y-59.968
X218.02Y-79.018
X218.02Y-98.068
X221.63Y-157.778
X223.151Y-151.495
X224.27Y-37.628
X224.27Y-67.178
X224.27Y-86.228
X224.27Y-105.278
X224.902Y-31.194
X224.902Y-60.744
X224.902Y-79.794
X224.902Y-98.844
X226.815Y-168.076
X229.466Y-149.212
X232.118Y-130.347
X233.82Y-70.178
X233.82Y-89.228
X233.82Y-108.278
X234.008Y-161.806
X236.659Y-142.942
X239.194Y-169.816
X239.31Y-124.077
X240.07Y-62.968
X240.07Y-82.018
X240.07Y-101.068
X240.715Y-163.533
X241.845Y-150.951
X243.366Y-144.668
X244.496Y-132.087
X246.017Y-125.804
X246.32Y-70.178
X246.32Y-89.228
X246.32Y-108.278
X246.952Y-63.744
X246.952Y-82.794
X246.952Y-101.844
T3
X41.259Y-85.814
X41.259Y-87.936
X43.381Y-85.814
X43.381Y-87.936
X61.472Y-139.665
X61.767Y-141.766
X63.573Y-139.37
X63.868Y-141.471
X100.884Y-53.717
X100.884Y-55.839
X103.006Y-53.717
X103.006Y-55.839
X106.189Y-32.757
X106.189Y-34.879
X108.311Y-32.757
X108.311Y-34.879
X108.839Y-133.232
X108.839Y-135.354
X110.961Y-133.232
X110.961Y-135.354
X121.709Y-52.299
X121.709Y-54.421
X123.831Y-52.299
X123.831Y-54.421
X139.384Y-155.082
X139.384Y-157.204
X141.506Y-155.082
X141.506Y-157.204
X178.459Y-134.308
X178.459Y-136.429
X180.58Y-134.308
X180.58Y-136.429
X186.399Y-32.757
X186.399Y-34.879
X188.521Y-32.757
X188.521Y-34.879
X198.149Y-50.282
X198.149Y-52.404
X200.271Y-50.282
X200.271Y-52.404
X224.734Y-131.314
X224.734Y-133.436
X226.856Y-131.314
X226.856Y-133.436
X227.984Y-114.895
X227.984Y-117.017
X230.106Y-114.895
X230.106Y-117.017
X230.159Y-34.164
X230.159Y-36.286
X232.281Y-34.164
X232.281Y-36.286
T4
X156.139Y-154.101
X157.001Y-150.767
X157.887Y-157.069
X159.969Y-149.019
X161.221Y-157.931
X163.303Y-149.881
X164.189Y-156.183
X165.051Y-152.849
T5
X48.92Y-98.668
X52.095Y-79.618
X52.63Y-45.16
X52.63Y-57.86
X56.92Y-98.668
X60.095Y-79.618
X64.01Y-117.79
X66.98Y-50.968
X66.98Y-53.508
X66.98Y-56.048
X66.98Y-58.588
X67.56Y-23.868
X67.56Y-26.408
X67.56Y-28.948
X67.56Y-31.488
X67.56Y-34.028
X67.56Y-36.568
X67.56Y-39.108
X67.56Y-41.648
X67.56Y-44.188
X70.1Y-44.188
X72.01Y-117.79
X72.06Y-50.968
X72.06Y-53.508
X72.06Y-56.048
X72.06Y-58.588
X72.64Y-44.188
X73.07Y-98.668
X73.526Y-155.818
X75.18Y-44.188
X77.14Y-50.968
X77.14Y-53.508
X77.14Y-56.048
X77.14Y-58.588
X77.72Y-44.188
X80.26Y-44.188
X80.67Y-79.618
X81.07Y-98.668
X81.526Y-155.818
X82.22Y-50.968
X82.22Y-53.508
X82.22Y-56.048
X82.22Y-58.588
X82.8Y-23.868
X82.8Y-26.408
X82.8Y-28.948
X82.8Y-31.488
X82.8Y-34.028
X82.8Y-36.568
X82.8Y-39.108
X82.8Y-41.648
X82.8Y-44.188
X85.53Y-136.78
X87.3Y-50.968
X87.3Y-53.508
X87.3Y-56.048
X87.3Y-58.588
X88.35Y-117.703
X88.67Y-79.618
X91.72Y-42.568
X92.38Y-50.968
X92.38Y-53.508
X92.38Y-56.048
X92.38Y-58.588
X93.53Y-136.78
X96.35Y-117.703
X97.339Y-155.818
X99.7Y-98.668
X99.72Y-42.568
X99.72Y-79.618
X105.339Y-155.818
X107.7Y-98.668
X107.72Y-79.618
X115.02Y-42.568
X118.77Y-74.118
X118.77Y-93.168
X118.77Y-112.218
X118.77Y-131.268
X118.77Y-150.318
X123.02Y-42.568
X126.77Y-74.118
X126.77Y-93.168
X126.77Y-112.218
X126.77Y-131.268
X126.77Y-150.318
X134.07Y-42.568
X137.82Y-68.618
X137.82Y-87.668
X137.82Y-106.718
X137.82Y-125.768
X137.82Y-144.818
X142.07Y-42.568
X145.82Y-68.618
X145.82Y-87.668
X145.82Y-106.718
X145.82Y-125.768
X145.82Y-144.818
X152.87Y-42.568
X156.87Y-64.618
X156.87Y-83.668
X156.87Y-102.718
X156.87Y-121.768
X156.87Y-140.818
X160.87Y-42.568
X164.87Y-64.618
X164.87Y-83.668
X164.87Y-102.718
X164.87Y-121.768
X164.87Y-140.818
X172.17Y-42.568
X172.179Y-163.003
X175.92Y-69.618
X175.92Y-88.668
X175.92Y-107.718
X175.92Y-126.768
X180.101Y-164.117
X180.17Y-42.568
X183.92Y-69.618
X183.92Y-88.668
X183.92Y-107.718
X183.92Y-126.768
X190.689Y-167.925
X194.97Y-42.568
X194.97Y-72.118
X194.97Y-91.168
X194.97Y-110.218
X194.97Y-129.268
X198.611Y-169.039
X202.97Y-42.568
X202.97Y-72.118
X202.97Y-91.168
X202.97Y-110.218
X202.97Y-129.268
X209.466Y-170.676
X214.02Y-72.118
X214.02Y-91.168
X214.02Y-110.218
X214.05Y-130.99
X214.27Y-42.568
X217.388Y-171.789
X222.02Y-72.118
X222.02Y-91.168
X222.02Y-110.218
X222.05Y-130.99
X222.27Y-42.568
X228.422Y-173.283
X230.9Y-154.403
X233.58Y-135.553
X236.07Y-75.118
X236.07Y-94.168
X236.07Y-113.218
X236.344Y-174.397
X238.823Y-155.517
X241.503Y-136.667
X244.07Y-75.118
X244.07Y-94.168
X244.07Y-113.218
T6
X42.01Y-56.625
X44.55Y-56.625
X60.225Y-106.525
X60.225Y-109.065
X215.52Y-113.018
X215.52Y-127.518
X218.02Y-113.018
X220.52Y-113.018
X220.52Y-127.518
T7
X48.74Y-47.4
X48.74Y-57.56
X57.55Y-57.777
X60.09Y-57.777
X62.63Y-57.777
T8
X42.32Y-86.875
X62.67Y-140.568
X101.945Y-54.778
X107.25Y-33.818
X109.9Y-134.293
X122.77Y-53.36
X140.445Y-156.143
X179.519Y-135.369
X187.46Y-33.818
X199.21Y-51.343
X225.795Y-132.375
X229.045Y-115.956
X231.22Y-35.225
T9
X44.189Y-63.883
X60.857Y-101.983
X68.001Y-63.883
X75.145Y-121.033
X79.907Y-121.033
X84.67Y-101.983
X98.957Y-121.033
X103.72Y-121.033
X202.377Y-163.187
X205.691Y-139.606
X207.407Y-163.893
X210.721Y-140.312
T10
X39.046Y-70.866
X54.26Y-110.85
X58.8Y-35.11
X89.432Y-154.493
X109.9Y-52.343
X109.9Y-127.043
X117.87Y-155.7
X161.92Y-162.3
X164.17Y-146.25
X189.43Y-52.343
X189.43Y-127.043
X226.53Y-154.538
X240.07Y-51.775
X247.095Y-116.475
T11
X160.595Y-153.475
T6
X229.949Y-44.927G85X229.535Y-45.207
G05
X230.21Y-42.637G85X229.796Y-42.917
G05
X231.322Y-46.955G85X230.908Y-47.236
G05
X233.522Y-40.394G85X233.108Y-40.674
G05
X233.545Y-47.563G85X233.131Y-47.844
G05
X236.006Y-38.712G85X235.592Y-38.992
G05
X236.858Y-45.321G85X236.444Y-45.601
G05
X239.342Y-43.639G85X238.928Y-43.919
G05
M30
