%TF.GenerationSoftware,KiCad,Pcbnew,8.0.2*%
%TF.CreationDate,2024-06-02T17:13:22-07:00*%
%TF.ProjectId,ergodonk_simple_zero,6572676f-646f-46e6-9b5f-73696d706c65,0.2.1*%
%TF.SameCoordinates,Original*%
%TF.FileFunction,Soldermask,Bot*%
%TF.FilePolarity,Negative*%
%FSLAX46Y46*%
G04 Gerber Fmt 4.6, Leading zero omitted, Abs format (unit mm)*
G04 Created by KiCad (PCBNEW 8.0.2) date 2024-06-02 17:13:22*
%MOMM*%
%LPD*%
G01*
G04 APERTURE LIST*
G04 Aperture macros list*
%AMRoundRect*
0 Rectangle with rounded corners*
0 $1 Rounding radius*
0 $2 $3 $4 $5 $6 $7 $8 $9 X,Y pos of 4 corners*
0 Add a 4 corners polygon primitive as box body*
4,1,4,$2,$3,$4,$5,$6,$7,$8,$9,$2,$3,0*
0 Add four circle primitives for the rounded corners*
1,1,$1+$1,$2,$3*
1,1,$1+$1,$4,$5*
1,1,$1+$1,$6,$7*
1,1,$1+$1,$8,$9*
0 Add four rect primitives between the rounded corners*
20,1,$1+$1,$2,$3,$4,$5,0*
20,1,$1+$1,$4,$5,$6,$7,0*
20,1,$1+$1,$6,$7,$8,$9,0*
20,1,$1+$1,$8,$9,$2,$3,0*%
%AMHorizOval*
0 Thick line with rounded ends*
0 $1 width*
0 $2 $3 position (X,Y) of the first rounded end (center of the circle)*
0 $4 $5 position (X,Y) of the second rounded end (center of the circle)*
0 Add line between two ends*
20,1,$1,$2,$3,$4,$5,0*
0 Add two circle primitives to create the rounded ends*
1,1,$1,$2,$3*
1,1,$1,$4,$5*%
%AMRotRect*
0 Rectangle, with rotation*
0 The origin of the aperture is its center*
0 $1 length*
0 $2 width*
0 $3 Rotation angle, in degrees counterclockwise*
0 Add horizontal line*
21,1,$1,$2,0,0,$3*%
%AMOutline5P*
0 Free polygon, 5 corners , with rotation*
0 The origin of the aperture is its center*
0 number of corners: always 5*
0 $1 to $10 corner X, Y*
0 $11 Rotation angle, in degrees counterclockwise*
0 create outline with 5 corners*
4,1,5,$1,$2,$3,$4,$5,$6,$7,$8,$9,$10,$1,$2,$11*%
%AMOutline6P*
0 Free polygon, 6 corners , with rotation*
0 The origin of the aperture is its center*
0 number of corners: always 6*
0 $1 to $12 corner X, Y*
0 $13 Rotation angle, in degrees counterclockwise*
0 create outline with 6 corners*
4,1,6,$1,$2,$3,$4,$5,$6,$7,$8,$9,$10,$11,$12,$1,$2,$13*%
%AMOutline7P*
0 Free polygon, 7 corners , with rotation*
0 The origin of the aperture is its center*
0 number of corners: always 7*
0 $1 to $14 corner X, Y*
0 $15 Rotation angle, in degrees counterclockwise*
0 create outline with 7 corners*
4,1,7,$1,$2,$3,$4,$5,$6,$7,$8,$9,$10,$11,$12,$13,$14,$1,$2,$15*%
%AMOutline8P*
0 Free polygon, 8 corners , with rotation*
0 The origin of the aperture is its center*
0 number of corners: always 8*
0 $1 to $16 corner X, Y*
0 $17 Rotation angle, in degrees counterclockwise*
0 create outline with 8 corners*
4,1,8,$1,$2,$3,$4,$5,$6,$7,$8,$9,$10,$11,$12,$13,$14,$15,$16,$1,$2,$17*%
%AMFreePoly0*
4,1,9,-0.900000,1.000000,0.900000,1.000000,0.900000,-1.000000,-0.720000,-1.000000,-0.788883,-0.986298,-0.847279,-0.947279,-0.886298,-0.888883,-0.900000,-0.820000,-0.900000,1.000000,-0.900000,1.000000,$1*%
%AMFreePoly1*
4,1,18,-0.800000,0.750000,0.050000,0.750000,0.201663,0.734505,0.366964,0.679731,0.515177,0.588312,0.638312,0.465177,0.729731,0.316964,0.784505,0.151663,0.800000,0.000000,0.784505,-0.151663,0.729731,-0.316964,0.638312,-0.465177,0.515177,-0.588312,0.366964,-0.679731,0.201663,-0.734505,0.050000,-0.750000,-0.800000,-0.750000,-0.800000,0.750000,-0.800000,0.750000,$1*%
%AMFreePoly2*
4,1,19,-0.800000,0.000000,-0.784505,0.151663,-0.729731,0.316964,-0.638312,0.465177,-0.515177,0.588312,-0.366964,0.679731,-0.201663,0.734505,-0.050000,0.750000,0.800000,0.750000,0.800000,-0.750000,-0.050000,-0.750000,-0.201663,-0.734505,-0.366964,-0.679731,-0.515177,-0.588312,-0.638312,-0.465177,-0.729731,-0.316964,-0.784505,-0.151663,-0.800000,0.000000,-0.800000,0.000000,-0.800000,0.000000,
$1*%
%AMFreePoly3*
4,1,28,-0.850000,0.400000,0.000000,1.250000,0.114750,1.242219,0.293119,1.197860,0.457783,1.116195,0.601041,1.001041,0.716195,0.857783,0.797860,0.693119,0.842219,0.514750,0.850001,0.400000,0.850000,-0.400000,0.842219,-0.514750,0.797860,-0.693119,0.716196,-0.857783,0.601041,-1.001041,0.457783,-1.116195,0.293120,-1.197860,0.114750,-1.242219,0.000000,-1.250000,-0.114750,-1.242219,
-0.293119,-1.197860,-0.457783,-1.116195,-0.601041,-1.001041,-0.716195,-0.857783,-0.797860,-0.693119,-0.842219,-0.514750,-0.850001,-0.400000,-0.850000,0.400000,-0.850000,0.400000,$1*%
%AMFreePoly4*
4,1,28,-0.850000,0.400000,-0.842219,0.514750,-0.797860,0.693119,-0.716196,0.857783,-0.601041,1.001041,-0.457783,1.116195,-0.293120,1.197860,-0.114750,1.242219,0.000000,1.250000,0.114750,1.242219,0.293119,1.197860,0.457783,1.116195,0.601041,1.001041,0.716195,0.857783,0.797860,0.693119,0.842219,0.514750,0.850001,0.400000,0.850000,-0.400000,0.842219,-0.514750,0.797860,-0.693119,
0.716196,-0.857783,0.601041,-1.001041,0.457783,-1.116195,0.293120,-1.197860,0.114750,-1.242219,0.000000,-1.250000,-0.850001,-0.400000,-0.850000,0.400000,-0.850000,0.400000,$1*%
%AMFreePoly5*
4,1,73,0.058904,0.817006,0.085684,0.817006,0.124394,0.806633,0.148156,0.802870,0.158932,0.797378,0.173939,0.793357,0.227393,0.762496,0.245725,0.753156,0.248666,0.750214,0.253067,0.747674,0.317674,0.683067,0.320216,0.678663,0.323156,0.675724,0.332491,0.657401,0.363358,0.603939,0.367379,0.588930,0.372870,0.578155,0.376632,0.554396,0.387006,0.515684,0.387133,0.488094,
0.390000,0.469999,0.387357,0.439800,0.390000,-0.130000,0.387006,-0.175684,0.363358,-0.263939,0.317674,-0.343067,0.253067,-0.407674,0.173939,-0.453358,0.085684,-0.477006,-0.005684,-0.477006,-0.093939,-0.453358,-0.168178,-0.410496,-0.254820,-0.450898,-0.419824,-0.495111,-0.589999,-0.510000,-0.698155,-0.492870,-0.795724,-0.443156,-0.873156,-0.365725,-0.922870,-0.268156,-0.940000,-0.160001,
-0.922870,-0.051845,-0.873156,0.045724,-0.795725,0.123156,-0.698156,0.172870,-0.590001,0.190000,-0.545653,0.190000,-0.461299,0.217409,-0.389543,0.269543,-0.337409,0.341299,-0.310000,0.425653,-0.310000,0.470001,-0.309999,0.470001,-0.307006,0.515684,-0.296633,0.554394,-0.292870,0.578156,-0.287378,0.588932,-0.283358,0.603939,-0.252496,0.657393,-0.243156,0.675725,-0.240214,0.678666,
-0.237674,0.683067,-0.173067,0.747674,-0.168663,0.750216,-0.165724,0.753156,-0.147401,0.762491,-0.093939,0.793358,-0.078930,0.797379,-0.068155,0.802870,-0.044396,0.806632,-0.005684,0.817006,0.021097,0.817006,0.040001,0.820000,0.058904,0.817006,0.058904,0.817006,$1*%
G04 Aperture macros list end*
%ADD10R,1.500000X1.500000*%
%ADD11RoundRect,0.225000X0.225000X0.375000X-0.225000X0.375000X-0.225000X-0.375000X0.225000X-0.375000X0*%
%ADD12C,1.500000*%
%ADD13C,1.900000*%
%ADD14C,1.700000*%
%ADD15C,3.000000*%
%ADD16C,4.000000*%
%ADD17FreePoly0,0.000000*%
%ADD18R,2.000000X2.000000*%
%ADD19C,4.700000*%
%ADD20RotRect,1.500000X1.500000X172.000000*%
%ADD21RoundRect,0.225000X0.275000X0.340037X-0.170620X0.402664X-0.275000X-0.340037X0.170620X-0.402664X0*%
%ADD22HorizOval,0.500000X0.087964X-0.234013X-0.087964X0.234013X0*%
%ADD23FreePoly1,90.000000*%
%ADD24FreePoly2,90.000000*%
%ADD25C,0.700000*%
%ADD26C,3.750000*%
%ADD27C,3.987800*%
%ADD28C,0.800000*%
%ADD29FreePoly0,352.000000*%
%ADD30RotRect,2.000000X2.000000X352.000000*%
%ADD31R,1.905000X2.000000*%
%ADD32O,1.905000X2.000000*%
%ADD33R,1.800000X2.000000*%
%ADD34Outline5P,-1.000000X0.400000X-0.400000X1.000000X1.000000X1.000000X1.000000X-1.000000X-1.000000X-1.000000X0.000000*%
%ADD35R,2.200000X2.200000*%
%ADD36O,2.200000X2.200000*%
%ADD37C,1.200000*%
%ADD38FreePoly3,304.101000*%
%ADD39FreePoly4,304.101000*%
%ADD40HorizOval,1.700000X-0.331220X-0.224261X0.331220X0.224261X0*%
%ADD41R,2.000000X1.409996*%
%ADD42Outline5P,-1.000000X0.000000X0.000000X1.000000X1.000000X1.000000X1.000000X-1.000000X-1.000000X-1.000000X0.000000*%
%ADD43C,2.200000*%
%ADD44FreePoly1,270.000000*%
%ADD45FreePoly2,270.000000*%
%ADD46O,1.700000X1.700000*%
%ADD47C,0.001000*%
%ADD48FreePoly5,172.000000*%
%ADD49C,1.600000*%
%ADD50O,1.600000X1.600000*%
%ADD51C,0.900000*%
%ADD52C,9.000000*%
%ADD53R,1.300000X2.000000*%
%ADD54R,2.000000X1.858900*%
%ADD55O,2.000000X3.200000*%
%ADD56C,2.000000*%
G04 APERTURE END LIST*
D10*
%TO.C,D58*%
X81526250Y-155818000D03*
D11*
X79176250Y-155818000D03*
X75876250Y-155818000D03*
D12*
X73526250Y-155818000D03*
%TD*%
D13*
%TO.C,SW31*%
X223520000Y-101468000D03*
D14*
X223100000Y-101468000D03*
D15*
X223020000Y-97768000D03*
X221830000Y-104008000D03*
X220560000Y-106548000D03*
D16*
X218020000Y-101468000D03*
D15*
X218020000Y-95568000D03*
X215480000Y-106548000D03*
X214210000Y-104008000D03*
X213020000Y-97768000D03*
D14*
X212940000Y-101468000D03*
D13*
X212520000Y-101468000D03*
D17*
X215220000Y-95568000D03*
D18*
X212420000Y-106548000D03*
X226120000Y-97768000D03*
X224920000Y-104008000D03*
%TD*%
D10*
%TO.C,D17*%
X107720000Y-79618000D03*
D11*
X105370000Y-79618000D03*
X102070000Y-79618000D03*
D12*
X99720000Y-79618000D03*
%TD*%
D10*
%TO.C,D55*%
X145820000Y-144818000D03*
D11*
X143470000Y-144818000D03*
X140170000Y-144818000D03*
D12*
X137820000Y-144818000D03*
%TD*%
D13*
%TO.C,SW55*%
X147320000Y-136068000D03*
D14*
X146900000Y-136068000D03*
D15*
X146820000Y-132368000D03*
X145630000Y-138608000D03*
X144360000Y-141148000D03*
D16*
X141820000Y-136068000D03*
D15*
X141820000Y-130168000D03*
X139280000Y-141148000D03*
X138010000Y-138608000D03*
X136820000Y-132368000D03*
D14*
X136740000Y-136068000D03*
D13*
X136320000Y-136068000D03*
D17*
X139020000Y-130168000D03*
D18*
X136220000Y-141148000D03*
X149920000Y-132368000D03*
X148720000Y-138608000D03*
%TD*%
D19*
%TO.C,H7*%
X161920000Y-162300000D03*
%TD*%
%TO.C,H26*%
X117870000Y-155700000D03*
%TD*%
D10*
%TO.C,D46*%
X126770000Y-131268000D03*
D11*
X124420000Y-131268000D03*
X121120000Y-131268000D03*
D12*
X118770000Y-131268000D03*
%TD*%
D20*
%TO.C,D40*%
X238822532Y-155516692D03*
D21*
X236495402Y-155189636D03*
X233227518Y-154730364D03*
D12*
X230900388Y-154403308D03*
%TD*%
D10*
%TO.C,D08*%
X60095000Y-79618000D03*
D11*
X57745000Y-79618000D03*
X54445000Y-79618000D03*
D12*
X52095000Y-79618000D03*
%TD*%
D22*
%TO.C,REF\u002A\u002A*%
X56368178Y-132484579D03*
X57247823Y-134824712D03*
X58127468Y-137164845D03*
%TD*%
D23*
%TO.C,JP10*%
X92380000Y-51068000D03*
X92380000Y-56148000D03*
D24*
X92380000Y-53408000D03*
X92380000Y-58488000D03*
%TD*%
D10*
%TO.C,D15*%
X145820000Y-68618000D03*
D11*
X143470000Y-68618000D03*
X140170000Y-68618000D03*
D12*
X137820000Y-68618000D03*
%TD*%
D19*
%TO.C,H5*%
X226530000Y-154538000D03*
%TD*%
D10*
%TO.C,D54*%
X164870000Y-140818000D03*
D11*
X162520000Y-140818000D03*
X159220000Y-140818000D03*
D12*
X156870000Y-140818000D03*
%TD*%
D13*
%TO.C,SW16*%
X128270000Y-65368000D03*
D14*
X127850000Y-65368000D03*
D15*
X127770000Y-61668000D03*
X126580000Y-67908000D03*
X125310000Y-70448000D03*
D16*
X122770000Y-65368000D03*
D15*
X122770000Y-59468000D03*
X120230000Y-70448000D03*
X118960000Y-67908000D03*
X117770000Y-61668000D03*
D14*
X117690000Y-65368000D03*
D13*
X117270000Y-65368000D03*
D17*
X119970000Y-59468000D03*
D18*
X117170000Y-70448000D03*
X130870000Y-61668000D03*
X129670000Y-67908000D03*
%TD*%
D13*
%TO.C,SW6*%
X124270000Y-33818000D03*
D14*
X123850000Y-33818000D03*
D15*
X123770000Y-30118000D03*
X122580000Y-36358000D03*
X121310000Y-38898000D03*
D16*
X118770000Y-33818000D03*
D15*
X118770000Y-27918000D03*
X116230000Y-38898000D03*
X114960000Y-36358000D03*
X113770000Y-30118000D03*
D14*
X113690000Y-33818000D03*
D13*
X113270000Y-33818000D03*
D17*
X115970000Y-27918000D03*
D18*
X113170000Y-38898000D03*
X126870000Y-30118000D03*
X125670000Y-36358000D03*
%TD*%
D25*
%TO.C,H18*%
X198149340Y-50282339D03*
X198149340Y-52403660D03*
D26*
X199210000Y-51343000D03*
D25*
X200270660Y-50282339D03*
X200270660Y-52403660D03*
%TD*%
D10*
%TO.C,D56*%
X126770000Y-150318000D03*
D11*
X124420000Y-150318000D03*
X121120000Y-150318000D03*
D12*
X118770000Y-150318000D03*
%TD*%
D25*
%TO.C,H12*%
X108839340Y-133232339D03*
X108839340Y-135353660D03*
D26*
X109900000Y-134293000D03*
D25*
X110960660Y-133232339D03*
X110960660Y-135353660D03*
%TD*%
D10*
%TO.C,D5*%
X142070000Y-42568000D03*
D11*
X139720000Y-42568000D03*
X136420000Y-42568000D03*
D12*
X134070000Y-42568000D03*
%TD*%
D10*
%TO.C,D13*%
X183920000Y-69618000D03*
D11*
X181570000Y-69618000D03*
X178270000Y-69618000D03*
D12*
X175920000Y-69618000D03*
%TD*%
D10*
%TO.C,D32*%
X202970000Y-110218000D03*
D11*
X200620000Y-110218000D03*
X197320000Y-110218000D03*
D12*
X194970000Y-110218000D03*
%TD*%
D10*
%TO.C,D26*%
X126770000Y-93168000D03*
D11*
X124420000Y-93168000D03*
X121120000Y-93168000D03*
D12*
X118770000Y-93168000D03*
%TD*%
D19*
%TO.C,H2*%
X189430000Y-127043000D03*
%TD*%
D16*
%TO.C,REF\u002A\u002A*%
X79907500Y-121033000D03*
D27*
X79907500Y-136273000D03*
D16*
X103720000Y-121033000D03*
D27*
X103720000Y-136273000D03*
%TD*%
D13*
%TO.C,SW14*%
X166370000Y-55868000D03*
D14*
X165950000Y-55868000D03*
D15*
X165870000Y-52168000D03*
X164680000Y-58408000D03*
X163410000Y-60948000D03*
D16*
X160870000Y-55868000D03*
D15*
X160870000Y-49968000D03*
X158330000Y-60948000D03*
X157060000Y-58408000D03*
X155870000Y-52168000D03*
D14*
X155790000Y-55868000D03*
D13*
X155370000Y-55868000D03*
D17*
X158070000Y-49968000D03*
D18*
X155270000Y-60948000D03*
X168970000Y-52168000D03*
X167770000Y-58408000D03*
%TD*%
D10*
%TO.C,D38*%
X81070000Y-98668000D03*
D11*
X78720000Y-98668000D03*
X75420000Y-98668000D03*
D12*
X73070000Y-98668000D03*
%TD*%
D13*
%TO.C,SW43*%
X185420000Y-118018000D03*
D14*
X185000000Y-118018000D03*
D15*
X184920000Y-114318000D03*
X183730000Y-120558000D03*
X182460000Y-123098000D03*
D16*
X179920000Y-118018000D03*
D15*
X179920000Y-112118000D03*
X177380000Y-123098000D03*
X176110000Y-120558000D03*
X174920000Y-114318000D03*
D14*
X174840000Y-118018000D03*
D13*
X174420000Y-118018000D03*
D17*
X177120000Y-112118000D03*
D18*
X174320000Y-123098000D03*
X188020000Y-114318000D03*
X186820000Y-120558000D03*
%TD*%
D10*
%TO.C,D7*%
X99720000Y-42568000D03*
D11*
X97370000Y-42568000D03*
X94070000Y-42568000D03*
D12*
X91720000Y-42568000D03*
%TD*%
D10*
%TO.C,D18*%
X88670000Y-79618000D03*
D11*
X86320000Y-79618000D03*
X83020000Y-79618000D03*
D12*
X80670000Y-79618000D03*
%TD*%
D10*
%TO.C,D2*%
X202970000Y-42568000D03*
D11*
X200620000Y-42568000D03*
X197320000Y-42568000D03*
D12*
X194970000Y-42568000D03*
%TD*%
D19*
%TO.C,H4*%
X109900000Y-52342737D03*
%TD*%
D28*
%TO.C,REF\u002A\u002A*%
X51375000Y-124320000D03*
X64075000Y-124320000D03*
%TD*%
D13*
%TO.C,SW50*%
X238981052Y-165938740D03*
D14*
X238565140Y-165880287D03*
D15*
X239000859Y-162205162D03*
X236954000Y-168218818D03*
X235342860Y-170557348D03*
D16*
X233534578Y-165173288D03*
D15*
X234355699Y-159330706D03*
X230312298Y-169850350D03*
X229408157Y-167158319D03*
X229098178Y-160813431D03*
D14*
X228504016Y-164466289D03*
D13*
X228088104Y-164407836D03*
D29*
X231582949Y-158941022D03*
D30*
X227282076Y-169424480D03*
X242070690Y-162636598D03*
X240013928Y-168648863D03*
%TD*%
D25*
%TO.C,H19*%
X230159340Y-34164339D03*
X230159340Y-36285660D03*
D26*
X231220000Y-35225000D03*
D25*
X232280660Y-34164339D03*
X232280660Y-36285660D03*
%TD*%
D13*
%TO.C,SW22*%
X204470000Y-82418000D03*
D14*
X204050000Y-82418000D03*
D15*
X203970000Y-78718000D03*
X202780000Y-84958000D03*
X201510000Y-87498000D03*
D16*
X198970000Y-82418000D03*
D15*
X198970000Y-76518000D03*
X196430000Y-87498000D03*
X195160000Y-84958000D03*
X193970000Y-78718000D03*
D14*
X193890000Y-82418000D03*
D13*
X193470000Y-82418000D03*
D17*
X196170000Y-76518000D03*
D18*
X193370000Y-87498000D03*
X207070000Y-78718000D03*
X205870000Y-84958000D03*
%TD*%
D13*
%TO.C,SW4*%
X162370000Y-33818000D03*
D14*
X161950000Y-33818000D03*
D15*
X161870000Y-30118000D03*
X160680000Y-36358000D03*
X159410000Y-38898000D03*
D16*
X156870000Y-33818000D03*
D15*
X156870000Y-27918000D03*
X154330000Y-38898000D03*
X153060000Y-36358000D03*
X151870000Y-30118000D03*
D14*
X151790000Y-33818000D03*
D13*
X151370000Y-33818000D03*
D17*
X154070000Y-27918000D03*
D18*
X151270000Y-38898000D03*
X164970000Y-30118000D03*
X163770000Y-36358000D03*
%TD*%
D13*
%TO.C,SW7*%
X101220000Y-33818000D03*
D14*
X100800000Y-33818000D03*
D15*
X100720000Y-30118000D03*
X99530000Y-36358000D03*
X98260000Y-38898000D03*
D16*
X95720000Y-33818000D03*
D15*
X95720000Y-27918000D03*
X93180000Y-38898000D03*
X91910000Y-36358000D03*
X90720000Y-30118000D03*
D14*
X90640000Y-33818000D03*
D13*
X90220000Y-33818000D03*
D17*
X92920000Y-27918000D03*
D18*
X90120000Y-38898000D03*
X103820000Y-30118000D03*
X102620000Y-36358000D03*
%TD*%
D13*
%TO.C,SW52*%
X202639889Y-151150325D03*
D14*
X202223977Y-151091872D03*
D15*
X202659696Y-147416747D03*
X200612837Y-153430403D03*
X199001697Y-155768933D03*
D16*
X197193415Y-150384873D03*
D15*
X198014536Y-144542291D03*
X193971135Y-155061935D03*
X193066994Y-152369904D03*
X192757015Y-146025016D03*
D14*
X192162853Y-149677874D03*
D13*
X191746941Y-149619421D03*
D29*
X195241786Y-144152607D03*
D30*
X190940913Y-154636065D03*
X205729527Y-147848183D03*
X203672765Y-153860448D03*
%TD*%
D16*
%TO.C,REF\u002A\u002A*%
X60857500Y-101983000D03*
D27*
X60857500Y-117223000D03*
D16*
X84670000Y-101983000D03*
D27*
X84670000Y-117223000D03*
%TD*%
D13*
%TO.C,SW44*%
X166370000Y-113018000D03*
D14*
X165950000Y-113018000D03*
D15*
X165870000Y-109318000D03*
X164680000Y-115558000D03*
X163410000Y-118098000D03*
D16*
X160870000Y-113018000D03*
D15*
X160870000Y-107118000D03*
X158330000Y-118098000D03*
X157060000Y-115558000D03*
X155870000Y-109318000D03*
D14*
X155790000Y-113018000D03*
D13*
X155370000Y-113018000D03*
D17*
X158070000Y-107118000D03*
D18*
X155270000Y-118098000D03*
X168970000Y-109318000D03*
X167770000Y-115558000D03*
%TD*%
D25*
%TO.C,H17*%
X106189340Y-32757339D03*
X106189340Y-34878660D03*
D26*
X107250000Y-33818000D03*
D25*
X108310660Y-32757339D03*
X108310660Y-34878660D03*
%TD*%
D28*
%TO.C,REF\u002A\u002A*%
X53405000Y-129645000D03*
X55945000Y-129645000D03*
%TD*%
D31*
%TO.C,Q1*%
X57550000Y-57777500D03*
D32*
X60090000Y-57777500D03*
X62630000Y-57777500D03*
%TD*%
D13*
%TO.C,SW26*%
X128270000Y-84418000D03*
D14*
X127850000Y-84418000D03*
D15*
X127770000Y-80718000D03*
X126580000Y-86958000D03*
X125310000Y-89498000D03*
D16*
X122770000Y-84418000D03*
D15*
X122770000Y-78518000D03*
X120230000Y-89498000D03*
X118960000Y-86958000D03*
X117770000Y-80718000D03*
D14*
X117690000Y-84418000D03*
D13*
X117270000Y-84418000D03*
D17*
X119970000Y-78518000D03*
D18*
X117170000Y-89498000D03*
X130870000Y-80718000D03*
X129670000Y-86958000D03*
%TD*%
D19*
%TO.C,H20*%
X54260000Y-110850000D03*
%TD*%
D13*
%TO.C,SW56*%
X128270000Y-141568000D03*
D14*
X127850000Y-141568000D03*
D15*
X127770000Y-137868000D03*
X126580000Y-144108000D03*
X125310000Y-146648000D03*
D16*
X122770000Y-141568000D03*
D15*
X122770000Y-135668000D03*
X120230000Y-146648000D03*
X118960000Y-144108000D03*
X117770000Y-137868000D03*
D14*
X117690000Y-141568000D03*
D13*
X117270000Y-141568000D03*
D17*
X119970000Y-135668000D03*
D18*
X117170000Y-146648000D03*
X130870000Y-137868000D03*
X129670000Y-144108000D03*
%TD*%
D12*
%TO.C,MCU11*%
X82800000Y-23868000D03*
X82800000Y-26408000D03*
X82800000Y-28948000D03*
X82800000Y-31488000D03*
X82800000Y-34028000D03*
X82800000Y-36568000D03*
X82800000Y-39108000D03*
X82800000Y-41648000D03*
X82800000Y-44188000D03*
X80260000Y-44188000D03*
X77720000Y-44188000D03*
X75180000Y-44188000D03*
X72640000Y-44188000D03*
X70100000Y-44188000D03*
X67560000Y-44188000D03*
X67560000Y-41648000D03*
X67560000Y-39108000D03*
X67560000Y-36568000D03*
X67560000Y-34028000D03*
X67560000Y-31488000D03*
X67560000Y-28948000D03*
X67560000Y-26408000D03*
X67560000Y-23868000D03*
%TD*%
D13*
%TO.C,SW46*%
X128270000Y-122518000D03*
D14*
X127850000Y-122518000D03*
D15*
X127770000Y-118818000D03*
X126580000Y-125058000D03*
X125310000Y-127598000D03*
D16*
X122770000Y-122518000D03*
D15*
X122770000Y-116618000D03*
X120230000Y-127598000D03*
X118960000Y-125058000D03*
X117770000Y-118818000D03*
D14*
X117690000Y-122518000D03*
D13*
X117270000Y-122518000D03*
D17*
X119970000Y-116618000D03*
D18*
X117170000Y-127598000D03*
X130870000Y-118818000D03*
X129670000Y-125058000D03*
%TD*%
D13*
%TO.C,SW27*%
X93457500Y-89918000D03*
D14*
X93877500Y-89918000D03*
D15*
X96417500Y-94998000D03*
D13*
X98220000Y-89918000D03*
D14*
X98640000Y-89918000D03*
D15*
X98720000Y-86218000D03*
X98957500Y-84018000D03*
D16*
X98957500Y-89918000D03*
D15*
X99910000Y-92458000D03*
X102767500Y-92458000D03*
X103720000Y-84018000D03*
D16*
X103720000Y-89918000D03*
D15*
X103957500Y-86218000D03*
D14*
X104037500Y-89918000D03*
D13*
X104457500Y-89918000D03*
D15*
X106260000Y-94998000D03*
D14*
X108800000Y-89918000D03*
D13*
X109220000Y-89918000D03*
D18*
X93357500Y-94998000D03*
D33*
X96157500Y-84018000D03*
D34*
X105857500Y-92458000D03*
D18*
X107057500Y-86218000D03*
%TD*%
D10*
%TO.C,D21*%
X222020000Y-91168000D03*
D11*
X219670000Y-91168000D03*
X216370000Y-91168000D03*
D12*
X214020000Y-91168000D03*
%TD*%
D13*
%TO.C,SW5*%
X143320000Y-33818000D03*
D14*
X142900000Y-33818000D03*
D15*
X142820000Y-30118000D03*
X141630000Y-36358000D03*
X140360000Y-38898000D03*
D16*
X137820000Y-33818000D03*
D15*
X137820000Y-27918000D03*
X135280000Y-38898000D03*
X134010000Y-36358000D03*
X132820000Y-30118000D03*
D14*
X132740000Y-33818000D03*
D13*
X132320000Y-33818000D03*
D17*
X135020000Y-27918000D03*
D18*
X132220000Y-38898000D03*
X145920000Y-30118000D03*
X144720000Y-36358000D03*
%TD*%
D19*
%TO.C,H10*%
X247095000Y-116475000D03*
%TD*%
D13*
%TO.C,SW08*%
X50595000Y-70868000D03*
D14*
X51015000Y-70868000D03*
D15*
X51095000Y-67168000D03*
X52285000Y-73408000D03*
X56095000Y-64968000D03*
D16*
X56095000Y-70868000D03*
D15*
X58635000Y-75948000D03*
D14*
X61175000Y-70868000D03*
D13*
X61595000Y-70868000D03*
%TD*%
%TO.C,SW10*%
X245570000Y-85418000D03*
D14*
X245150000Y-85418000D03*
D15*
X245070000Y-81718000D03*
X243880000Y-87958000D03*
X242610000Y-90498000D03*
D16*
X240070000Y-85418000D03*
D15*
X240070000Y-79518000D03*
X237530000Y-90498000D03*
X236260000Y-87958000D03*
X235070000Y-81718000D03*
D14*
X234990000Y-85418000D03*
D13*
X234570000Y-85418000D03*
D17*
X237270000Y-79518000D03*
D18*
X234470000Y-90498000D03*
X248170000Y-81718000D03*
X246970000Y-87958000D03*
%TD*%
D35*
%TO.C,D19*%
X48740000Y-47400000D03*
D36*
X48740000Y-57560000D03*
%TD*%
D10*
%TO.C,D37*%
X96350000Y-117703000D03*
D11*
X94000000Y-117703000D03*
X90700000Y-117703000D03*
D12*
X88350000Y-117703000D03*
%TD*%
D13*
%TO.C,SW35*%
X147320000Y-97968000D03*
D14*
X146900000Y-97968000D03*
D15*
X146820000Y-94268000D03*
X145630000Y-100508000D03*
X144360000Y-103048000D03*
D16*
X141820000Y-97968000D03*
D15*
X141820000Y-92068000D03*
X139280000Y-103048000D03*
X138010000Y-100508000D03*
X136820000Y-94268000D03*
D14*
X136740000Y-97968000D03*
D13*
X136320000Y-97968000D03*
D17*
X139020000Y-92068000D03*
D18*
X136220000Y-103048000D03*
X149920000Y-94268000D03*
X148720000Y-100508000D03*
%TD*%
D13*
%TO.C,SW28*%
X55357500Y-89918000D03*
D14*
X55777500Y-89918000D03*
D15*
X55857500Y-86218000D03*
X57047500Y-92458000D03*
X60857500Y-84018000D03*
D16*
X60857500Y-89918000D03*
D15*
X63397500Y-94998000D03*
D14*
X65937500Y-89918000D03*
D13*
X66357500Y-89918000D03*
%TD*%
%TO.C,SW15*%
X147320000Y-59868000D03*
D14*
X146900000Y-59868000D03*
D15*
X146820000Y-56168000D03*
X145630000Y-62408000D03*
X144360000Y-64948000D03*
D16*
X141820000Y-59868000D03*
D15*
X141820000Y-53968000D03*
X139280000Y-64948000D03*
X138010000Y-62408000D03*
X136820000Y-56168000D03*
D14*
X136740000Y-59868000D03*
D13*
X136320000Y-59868000D03*
D17*
X139020000Y-53968000D03*
D18*
X136220000Y-64948000D03*
X149920000Y-56168000D03*
X148720000Y-62408000D03*
%TD*%
D13*
%TO.C,SW21*%
X223520000Y-82418000D03*
D14*
X223100000Y-82418000D03*
D15*
X223020000Y-78718000D03*
X221830000Y-84958000D03*
X220560000Y-87498000D03*
D16*
X218020000Y-82418000D03*
D15*
X218020000Y-76518000D03*
X215480000Y-87498000D03*
X214210000Y-84958000D03*
X213020000Y-78718000D03*
D14*
X212940000Y-82418000D03*
D13*
X212520000Y-82418000D03*
D17*
X215220000Y-76518000D03*
D18*
X212420000Y-87498000D03*
X226120000Y-78718000D03*
X224920000Y-84958000D03*
%TD*%
D10*
%TO.C,D42*%
X202970000Y-129268000D03*
D11*
X200620000Y-129268000D03*
X197320000Y-129268000D03*
D12*
X194970000Y-129268000D03*
%TD*%
D19*
%TO.C,H3*%
X109900000Y-127043000D03*
%TD*%
D10*
%TO.C,D33*%
X183920000Y-107718000D03*
D11*
X181570000Y-107718000D03*
X178270000Y-107718000D03*
D12*
X175920000Y-107718000D03*
%TD*%
D37*
%TO.C,J11*%
X238466781Y-39581892D03*
X232670427Y-43506466D03*
X239447924Y-41030980D03*
X233651570Y-44955554D03*
D38*
X229741631Y-45066805D03*
D39*
X233338452Y-47703637D03*
D40*
X236650654Y-45461023D03*
X239134805Y-43779063D03*
%TD*%
D10*
%TO.C,D11*%
X222020000Y-72118000D03*
D11*
X219670000Y-72118000D03*
X216370000Y-72118000D03*
D12*
X214020000Y-72118000D03*
%TD*%
D25*
%TO.C,H25*%
X224734340Y-131314339D03*
X224734340Y-133435660D03*
D26*
X225795000Y-132375000D03*
D25*
X226855660Y-131314339D03*
X226855660Y-133435660D03*
%TD*%
D10*
%TO.C,D27*%
X107700000Y-98668000D03*
D11*
X105350000Y-98668000D03*
X102050000Y-98668000D03*
D12*
X99700000Y-98668000D03*
%TD*%
D13*
%TO.C,SW17*%
X109220000Y-70868000D03*
D14*
X108800000Y-70868000D03*
D15*
X108720000Y-67168000D03*
X107530000Y-73408000D03*
X106260000Y-75948000D03*
D16*
X103720000Y-70868000D03*
D15*
X103720000Y-64968000D03*
X101180000Y-75948000D03*
X99910000Y-73408000D03*
X98720000Y-67168000D03*
D14*
X98640000Y-70868000D03*
D13*
X98220000Y-70868000D03*
D17*
X100920000Y-64968000D03*
D18*
X98120000Y-75948000D03*
X111820000Y-67168000D03*
X110620000Y-73408000D03*
%TD*%
D19*
%TO.C,H6*%
X240070000Y-51775000D03*
%TD*%
D10*
%TO.C,D12*%
X202970000Y-72118000D03*
D11*
X200620000Y-72118000D03*
X197320000Y-72118000D03*
D12*
X194970000Y-72118000D03*
%TD*%
D19*
%TO.C,H24*%
X39045993Y-70866000D03*
%TD*%
D13*
%TO.C,SW30*%
X244283547Y-128209526D03*
D14*
X243867635Y-128151073D03*
D15*
X244303354Y-124475948D03*
X242256495Y-130489604D03*
X240645355Y-132828134D03*
D16*
X238837073Y-127444074D03*
D15*
X239658194Y-121601492D03*
X235614793Y-132121136D03*
X234710652Y-129429105D03*
X234400673Y-123084217D03*
D14*
X233806511Y-126737075D03*
D13*
X233390599Y-126678622D03*
D29*
X236885444Y-121211808D03*
D30*
X232584571Y-131695266D03*
X247373185Y-124907384D03*
X245316423Y-130919649D03*
%TD*%
D10*
%TO.C,D25*%
X145820000Y-87668000D03*
D11*
X143470000Y-87668000D03*
X140170000Y-87668000D03*
D12*
X137820000Y-87668000D03*
%TD*%
D10*
%TO.C,D34*%
X164870000Y-102718000D03*
D11*
X162520000Y-102718000D03*
X159220000Y-102718000D03*
D12*
X156870000Y-102718000D03*
%TD*%
D10*
%TO.C,D48*%
X72010000Y-117790000D03*
D11*
X69660000Y-117790000D03*
X66360000Y-117790000D03*
D12*
X64010000Y-117790000D03*
%TD*%
D23*
%TO.C,JP11*%
X87300000Y-51068000D03*
X87300000Y-56148000D03*
D24*
X87300000Y-53408000D03*
X87300000Y-58488000D03*
%TD*%
D13*
%TO.C,SW57*%
X106838750Y-147068000D03*
D14*
X106418750Y-147068000D03*
D15*
X106338750Y-143368000D03*
X105148750Y-149608000D03*
X103878750Y-152148000D03*
D16*
X101338750Y-147068000D03*
D15*
X101338750Y-141168000D03*
X98798750Y-152148000D03*
X97528750Y-149608000D03*
X96338750Y-143368000D03*
D14*
X96258750Y-147068000D03*
D13*
X95838750Y-147068000D03*
D17*
X98538750Y-141168000D03*
D18*
X95738750Y-152148000D03*
X109438750Y-143368000D03*
X108238750Y-149608000D03*
%TD*%
D19*
%TO.C,H1*%
X189430000Y-52342737D03*
%TD*%
D10*
%TO.C,D4*%
X160870000Y-42568000D03*
D11*
X158520000Y-42568000D03*
X155220000Y-42568000D03*
D12*
X152870000Y-42568000D03*
%TD*%
D20*
%TO.C,D50*%
X236344467Y-174396692D03*
D21*
X234017337Y-174069636D03*
X230749453Y-173610364D03*
D12*
X228422323Y-173283308D03*
%TD*%
D13*
%TO.C,SW37*%
X91076250Y-108953000D03*
D14*
X91496250Y-108953000D03*
D15*
X94036250Y-114033000D03*
X96576250Y-103053000D03*
D16*
X96576250Y-108953000D03*
D13*
X98220000Y-108953000D03*
D14*
X98640000Y-108953000D03*
D15*
X98720000Y-105253000D03*
X99910000Y-111493000D03*
X100386250Y-111493000D03*
X101576250Y-105253000D03*
D14*
X101656250Y-108953000D03*
D13*
X102076250Y-108953000D03*
D15*
X103720000Y-103053000D03*
D16*
X103720000Y-108953000D03*
D15*
X106260000Y-114033000D03*
D14*
X108800000Y-108953000D03*
D13*
X109220000Y-108953000D03*
D18*
X90976250Y-114033000D03*
D33*
X93776250Y-103053000D03*
D41*
X103476250Y-111787998D03*
D42*
X104676250Y-105253000D03*
%TD*%
D43*
%TO.C,REF\u002A\u002A*%
X151345000Y-100388000D03*
X170395000Y-81338000D03*
X170395000Y-119438000D03*
X189445000Y-100388000D03*
%TD*%
D13*
%TO.C,SW24*%
X166370000Y-74918000D03*
D14*
X165950000Y-74918000D03*
D15*
X165870000Y-71218000D03*
X164680000Y-77458000D03*
X163410000Y-79998000D03*
D16*
X160870000Y-74918000D03*
D15*
X160870000Y-69018000D03*
X158330000Y-79998000D03*
X157060000Y-77458000D03*
X155870000Y-71218000D03*
D14*
X155790000Y-74918000D03*
D13*
X155370000Y-74918000D03*
D17*
X158070000Y-69018000D03*
D18*
X155270000Y-79998000D03*
X168970000Y-71218000D03*
X167770000Y-77458000D03*
%TD*%
D13*
%TO.C,SW1*%
X223520000Y-33818000D03*
D14*
X223100000Y-33818000D03*
D15*
X223020000Y-30118000D03*
X221830000Y-36358000D03*
X220560000Y-38898000D03*
D16*
X218020000Y-33818000D03*
D15*
X218020000Y-27918000D03*
X215480000Y-38898000D03*
X214210000Y-36358000D03*
X213020000Y-30118000D03*
D14*
X212940000Y-33818000D03*
D13*
X212520000Y-33818000D03*
D17*
X215220000Y-27918000D03*
D18*
X212420000Y-38898000D03*
X226120000Y-30118000D03*
X224920000Y-36358000D03*
%TD*%
D13*
%TO.C,SW2*%
X204470000Y-33818000D03*
D14*
X204050000Y-33818000D03*
D15*
X203970000Y-30118000D03*
X202780000Y-36358000D03*
X201510000Y-38898000D03*
D16*
X198970000Y-33818000D03*
D15*
X198970000Y-27918000D03*
X196430000Y-38898000D03*
X195160000Y-36358000D03*
X193970000Y-30118000D03*
D14*
X193890000Y-33818000D03*
D13*
X193470000Y-33818000D03*
D17*
X196170000Y-27918000D03*
D18*
X193370000Y-38898000D03*
X207070000Y-30118000D03*
X205870000Y-36358000D03*
%TD*%
D20*
%TO.C,D51*%
X217388449Y-171788991D03*
D21*
X215061319Y-171461935D03*
X211793435Y-171002663D03*
D12*
X209466305Y-170675607D03*
%TD*%
D44*
%TO.C,JP13*%
X66980000Y-58488000D03*
X66980000Y-53408000D03*
D45*
X66980000Y-56148000D03*
X66980000Y-51068000D03*
%TD*%
D10*
%TO.C,D0*%
X244070000Y-75118000D03*
D11*
X241720000Y-75118000D03*
X238420000Y-75118000D03*
D12*
X236070000Y-75118000D03*
%TD*%
D25*
%TO.C,H16*%
X100884340Y-53717339D03*
X100884340Y-55838660D03*
D26*
X101945000Y-54778000D03*
D25*
X103005660Y-53717339D03*
X103005660Y-55838660D03*
%TD*%
D10*
%TO.C,D1*%
X222270000Y-42568000D03*
D11*
X219920000Y-42568000D03*
X216620000Y-42568000D03*
D12*
X214270000Y-42568000D03*
%TD*%
D16*
%TO.C,REF\u002A\u002A*%
X205690691Y-139606180D03*
D27*
X190599006Y-137485182D03*
D16*
X202376632Y-163186938D03*
D27*
X187284946Y-161065940D03*
%TD*%
D13*
%TO.C,SW20*%
X245570000Y-104468000D03*
D14*
X245150000Y-104468000D03*
D15*
X245070000Y-100768000D03*
X243880000Y-107008000D03*
X242610000Y-109548000D03*
D16*
X240070000Y-104468000D03*
D15*
X240070000Y-98568000D03*
X237530000Y-109548000D03*
X236260000Y-107008000D03*
X235070000Y-100768000D03*
D14*
X234990000Y-104468000D03*
D13*
X234570000Y-104468000D03*
D17*
X237270000Y-98568000D03*
D18*
X234470000Y-109548000D03*
X248170000Y-100768000D03*
X246970000Y-107008000D03*
%TD*%
D10*
%TO.C,D47*%
X93530000Y-136780000D03*
D11*
X91180000Y-136780000D03*
X87880000Y-136780000D03*
D12*
X85530000Y-136780000D03*
%TD*%
D13*
%TO.C,SW42*%
X204470000Y-120518000D03*
D14*
X204050000Y-120518000D03*
D15*
X203970000Y-116818000D03*
X202780000Y-123058000D03*
X201510000Y-125598000D03*
D16*
X198970000Y-120518000D03*
D15*
X198970000Y-114618000D03*
X196430000Y-125598000D03*
X195160000Y-123058000D03*
X193970000Y-116818000D03*
D14*
X193890000Y-120518000D03*
D13*
X193470000Y-120518000D03*
D17*
X196170000Y-114618000D03*
D18*
X193370000Y-125598000D03*
X207070000Y-116818000D03*
X205870000Y-123058000D03*
%TD*%
D10*
%TO.C,D6*%
X123020000Y-42568000D03*
D11*
X120670000Y-42568000D03*
X117370000Y-42568000D03*
D12*
X115020000Y-42568000D03*
%TD*%
D10*
%TO.C,D24*%
X164870000Y-83668000D03*
D11*
X162520000Y-83668000D03*
X159220000Y-83668000D03*
D12*
X156870000Y-83668000D03*
%TD*%
D19*
%TO.C,H8*%
X58800000Y-35110000D03*
%TD*%
D25*
%TO.C,H22*%
X186399340Y-32757339D03*
X186399340Y-34878660D03*
D26*
X187460000Y-33818000D03*
D25*
X188520660Y-32757339D03*
X188520660Y-34878660D03*
%TD*%
D10*
%TO.C,D3*%
X180170000Y-42568000D03*
D11*
X177820000Y-42568000D03*
X174520000Y-42568000D03*
D12*
X172170000Y-42568000D03*
%TD*%
D13*
%TO.C,SW34*%
X166370000Y-93968000D03*
D14*
X165950000Y-93968000D03*
D15*
X165870000Y-90268000D03*
X164680000Y-96508000D03*
X163410000Y-99048000D03*
D16*
X160870000Y-93968000D03*
D15*
X160870000Y-88068000D03*
X158330000Y-99048000D03*
X157060000Y-96508000D03*
X155870000Y-90268000D03*
D14*
X155790000Y-93968000D03*
D13*
X155370000Y-93968000D03*
D17*
X158070000Y-88068000D03*
D18*
X155270000Y-99048000D03*
X168970000Y-90268000D03*
X167770000Y-96508000D03*
%TD*%
D10*
%TO.C,D16*%
X126770000Y-74118000D03*
D11*
X124420000Y-74118000D03*
X121120000Y-74118000D03*
D12*
X118770000Y-74118000D03*
%TD*%
D10*
%TO.C,D35*%
X145820000Y-106718000D03*
D11*
X143470000Y-106718000D03*
X140170000Y-106718000D03*
D12*
X137820000Y-106718000D03*
%TD*%
D25*
%TO.C,H23*%
X121709340Y-52299339D03*
X121709340Y-54420660D03*
D26*
X122770000Y-53360000D03*
D25*
X123830660Y-52299339D03*
X123830660Y-54420660D03*
%TD*%
D10*
%TO.C,D43*%
X183920000Y-126768000D03*
D11*
X181570000Y-126768000D03*
X178270000Y-126768000D03*
D12*
X175920000Y-126768000D03*
%TD*%
D13*
%TO.C,SW0*%
X245570000Y-66368000D03*
D14*
X245150000Y-66368000D03*
D15*
X245070000Y-62668000D03*
X243880000Y-68908000D03*
X242610000Y-71448000D03*
D16*
X240070000Y-66368000D03*
D15*
X240070000Y-60468000D03*
X237530000Y-71448000D03*
X236260000Y-68908000D03*
X235070000Y-62668000D03*
D14*
X234990000Y-66368000D03*
D13*
X234570000Y-66368000D03*
D17*
X237270000Y-60468000D03*
D18*
X234470000Y-71448000D03*
X248170000Y-62668000D03*
X246970000Y-68908000D03*
%TD*%
D13*
%TO.C,SW58*%
X83026250Y-147068000D03*
D14*
X82606250Y-147068000D03*
D15*
X82526250Y-143368000D03*
X81336250Y-149608000D03*
X80066250Y-152148000D03*
D16*
X77526250Y-147068000D03*
D15*
X77526250Y-141168000D03*
X74986250Y-152148000D03*
X73716250Y-149608000D03*
X72526250Y-143368000D03*
D14*
X72446250Y-147068000D03*
D13*
X72026250Y-147068000D03*
D17*
X74726250Y-141168000D03*
D18*
X71926250Y-152148000D03*
X85626250Y-143368000D03*
X84426250Y-149608000D03*
%TD*%
D10*
%TO.C,D45*%
X145820000Y-125768000D03*
D11*
X143470000Y-125768000D03*
X140170000Y-125768000D03*
D12*
X137820000Y-125768000D03*
%TD*%
D44*
%TO.C,JP14*%
X72060000Y-58488000D03*
X72060000Y-53408000D03*
D45*
X72060000Y-56148000D03*
X72060000Y-51068000D03*
%TD*%
D13*
%TO.C,SW3*%
X181420000Y-33818000D03*
D14*
X181000000Y-33818000D03*
D15*
X180920000Y-30118000D03*
X179730000Y-36358000D03*
X178460000Y-38898000D03*
D16*
X175920000Y-33818000D03*
D15*
X175920000Y-27918000D03*
X173380000Y-38898000D03*
X172110000Y-36358000D03*
X170920000Y-30118000D03*
D14*
X170840000Y-33818000D03*
D13*
X170420000Y-33818000D03*
D17*
X173120000Y-27918000D03*
D18*
X170320000Y-38898000D03*
X184020000Y-30118000D03*
X182820000Y-36358000D03*
%TD*%
D13*
%TO.C,SW18*%
X90170000Y-70868000D03*
D14*
X89750000Y-70868000D03*
D15*
X87210000Y-75948000D03*
D16*
X84670000Y-70868000D03*
D15*
X84670000Y-64968000D03*
X80860000Y-73408000D03*
X79670000Y-67168000D03*
D14*
X79590000Y-70868000D03*
D13*
X79170000Y-70868000D03*
%TD*%
D10*
%TO.C,D22*%
X202970000Y-91168000D03*
D11*
X200620000Y-91168000D03*
X197320000Y-91168000D03*
D12*
X194970000Y-91168000D03*
%TD*%
D13*
%TO.C,SW36*%
X128270000Y-103468000D03*
D14*
X127850000Y-103468000D03*
D15*
X127770000Y-99768000D03*
X126580000Y-106008000D03*
X125310000Y-108548000D03*
D16*
X122770000Y-103468000D03*
D15*
X122770000Y-97568000D03*
X120230000Y-108548000D03*
X118960000Y-106008000D03*
X117770000Y-99768000D03*
D14*
X117690000Y-103468000D03*
D13*
X117270000Y-103468000D03*
D17*
X119970000Y-97568000D03*
D18*
X117170000Y-108548000D03*
X130870000Y-99768000D03*
X129670000Y-106008000D03*
%TD*%
D23*
%TO.C,JP12*%
X82220000Y-51068000D03*
X82220000Y-56148000D03*
D24*
X82220000Y-53408000D03*
X82220000Y-58488000D03*
%TD*%
D10*
%TO.C,D20*%
X244070000Y-113218000D03*
D11*
X241720000Y-113218000D03*
X238420000Y-113218000D03*
D12*
X236070000Y-113218000D03*
%TD*%
D13*
%TO.C,SW40*%
X241632299Y-147074133D03*
D14*
X241216387Y-147015680D03*
D15*
X241652106Y-143340555D03*
X239605247Y-149354211D03*
X237994107Y-151692741D03*
D16*
X236185825Y-146308681D03*
D15*
X237006946Y-140466099D03*
X232963545Y-150985743D03*
X232059404Y-148293712D03*
X231749425Y-141948824D03*
D14*
X231155263Y-145601682D03*
D13*
X230739351Y-145543229D03*
D29*
X234234196Y-140076415D03*
D30*
X229933323Y-150559873D03*
X244721937Y-143771991D03*
X242665175Y-149784256D03*
%TD*%
D14*
%TO.C,J10*%
X60225000Y-106525000D03*
D46*
X60225000Y-109065000D03*
%TD*%
D13*
%TO.C,SW25*%
X147320000Y-78918000D03*
D14*
X146900000Y-78918000D03*
D15*
X146820000Y-75218000D03*
X145630000Y-81458000D03*
X144360000Y-83998000D03*
D16*
X141820000Y-78918000D03*
D15*
X141820000Y-73018000D03*
X139280000Y-83998000D03*
X138010000Y-81458000D03*
X136820000Y-75218000D03*
D14*
X136740000Y-78918000D03*
D13*
X136320000Y-78918000D03*
D17*
X139020000Y-73018000D03*
D18*
X136220000Y-83998000D03*
X149920000Y-75218000D03*
X148720000Y-81458000D03*
%TD*%
D14*
%TO.C,J_SOL_1*%
X44550000Y-56625000D03*
D46*
X42010000Y-56625000D03*
%TD*%
D25*
%TO.C,H13*%
X139384340Y-155082339D03*
X139384340Y-157203660D03*
D26*
X140445000Y-156143000D03*
D25*
X141505660Y-155082339D03*
X141505660Y-157203660D03*
%TD*%
D10*
%TO.C,D14*%
X164870000Y-64618000D03*
D11*
X162520000Y-64618000D03*
X159220000Y-64618000D03*
D12*
X156870000Y-64618000D03*
%TD*%
D25*
%TO.C,H21*%
X227984340Y-114895376D03*
X227984340Y-117016697D03*
D26*
X229045000Y-115956037D03*
D25*
X230105660Y-114895376D03*
X230105660Y-117016697D03*
%TD*%
D13*
%TO.C,SW32*%
X204470000Y-101468000D03*
D14*
X204050000Y-101468000D03*
D15*
X203970000Y-97768000D03*
X202780000Y-104008000D03*
X201510000Y-106548000D03*
D16*
X198970000Y-101468000D03*
D15*
X198970000Y-95568000D03*
X196430000Y-106548000D03*
X195160000Y-104008000D03*
X193970000Y-97768000D03*
D14*
X193890000Y-101468000D03*
D13*
X193470000Y-101468000D03*
D17*
X196170000Y-95568000D03*
D18*
X193370000Y-106548000D03*
X207070000Y-97768000D03*
X205870000Y-104008000D03*
%TD*%
D10*
%TO.C,D31*%
X222020000Y-110218000D03*
D11*
X219670000Y-110218000D03*
X216370000Y-110218000D03*
D12*
X214020000Y-110218000D03*
%TD*%
D13*
%TO.C,SW48*%
X67263750Y-108968000D03*
D14*
X67683750Y-108968000D03*
D15*
X67763750Y-105268000D03*
X68953750Y-111508000D03*
X72763750Y-103068000D03*
D16*
X72763750Y-108968000D03*
D15*
X75303750Y-114048000D03*
D14*
X77843750Y-108968000D03*
D13*
X78263750Y-108968000D03*
%TD*%
D47*
%TO.C,S1*%
X144126140Y-152700061D03*
X144961179Y-158641670D03*
X148713492Y-156599575D03*
X150276508Y-153350425D03*
X154028821Y-151308330D03*
X154860380Y-157225182D03*
%TD*%
D28*
%TO.C,REF\u002A\u002A*%
X52365000Y-126965000D03*
X62365000Y-126965000D03*
%TD*%
D13*
%TO.C,SW11*%
X223520000Y-63368000D03*
D14*
X223100000Y-63368000D03*
D15*
X223020000Y-59668000D03*
X221830000Y-65908000D03*
X220560000Y-68448000D03*
D16*
X218020000Y-63368000D03*
D15*
X218020000Y-57468000D03*
X215480000Y-68448000D03*
X214210000Y-65908000D03*
X213020000Y-59668000D03*
D14*
X212940000Y-63368000D03*
D13*
X212520000Y-63368000D03*
D17*
X215220000Y-57468000D03*
D18*
X212420000Y-68448000D03*
X226120000Y-59668000D03*
X224920000Y-65908000D03*
%TD*%
D13*
%TO.C,SW54*%
X166370000Y-132068000D03*
D14*
X165950000Y-132068000D03*
D15*
X165870000Y-128368000D03*
X164680000Y-134608000D03*
X163410000Y-137148000D03*
D16*
X160870000Y-132068000D03*
D15*
X160870000Y-126168000D03*
X158330000Y-137148000D03*
X157060000Y-134608000D03*
X155870000Y-128368000D03*
D14*
X155790000Y-132068000D03*
D13*
X155370000Y-132068000D03*
D17*
X158070000Y-126168000D03*
D18*
X155270000Y-137148000D03*
X168970000Y-128368000D03*
X167770000Y-134608000D03*
%TD*%
D19*
%TO.C,H8*%
X164170000Y-146250000D03*
%TD*%
D10*
%TO.C,D28*%
X56920000Y-98668000D03*
D11*
X54570000Y-98668000D03*
X51270000Y-98668000D03*
D12*
X48920000Y-98668000D03*
%TD*%
D10*
%TO.C,D44*%
X164870000Y-121768000D03*
D11*
X162520000Y-121768000D03*
X159220000Y-121768000D03*
D12*
X156870000Y-121768000D03*
%TD*%
D20*
%TO.C,D52*%
X198611099Y-169038714D03*
D21*
X196283969Y-168711658D03*
X193016085Y-168252386D03*
D12*
X190688955Y-167925330D03*
%TD*%
D13*
%TO.C,SW53*%
X182718638Y-155626921D03*
D14*
X182302726Y-155568468D03*
D15*
X182738445Y-151893343D03*
X180691586Y-157906999D03*
X179080446Y-160245529D03*
D16*
X177272164Y-154861469D03*
D15*
X178093285Y-149018887D03*
X174049884Y-159538531D03*
X173145743Y-156846500D03*
X172835764Y-150501612D03*
D14*
X172241602Y-154154470D03*
D13*
X171825690Y-154096017D03*
D29*
X175320535Y-148629203D03*
D30*
X171019662Y-159112661D03*
X185808276Y-152324779D03*
X183751514Y-158337044D03*
D48*
X183036112Y-159044363D03*
%TD*%
D10*
%TO.C,D36*%
X126770000Y-112218000D03*
D11*
X124420000Y-112218000D03*
X121120000Y-112218000D03*
D12*
X118770000Y-112218000D03*
%TD*%
D25*
%TO.C,H15*%
X41259340Y-85814339D03*
X41259340Y-87935660D03*
D26*
X42320000Y-86875000D03*
D25*
X43380660Y-85814339D03*
X43380660Y-87935660D03*
%TD*%
D16*
%TO.C,REF\u002A\u002A*%
X207406543Y-163892992D03*
D27*
X222498228Y-166013990D03*
D16*
X210720602Y-140312234D03*
D27*
X225812288Y-142433232D03*
%TD*%
D10*
%TO.C,D41*%
X222050000Y-130990000D03*
D11*
X219700000Y-130990000D03*
X216400000Y-130990000D03*
D12*
X214050000Y-130990000D03*
%TD*%
D25*
%TO.C,H11*%
X178458680Y-134308000D03*
X178458680Y-136429321D03*
D26*
X179519340Y-135368661D03*
D25*
X180580000Y-134308000D03*
X180580000Y-136429321D03*
%TD*%
D13*
%TO.C,SW38*%
X90170000Y-89918000D03*
D14*
X89750000Y-89918000D03*
D15*
X87210000Y-94998000D03*
D16*
X84670000Y-89918000D03*
D15*
X84670000Y-84018000D03*
X80860000Y-92458000D03*
X79670000Y-86218000D03*
D14*
X79590000Y-89918000D03*
D13*
X79170000Y-89918000D03*
%TD*%
D49*
%TO.C,R2*%
X52630000Y-57860000D03*
D50*
X52630000Y-45160000D03*
%TD*%
D10*
%TO.C,D23*%
X183920000Y-88668000D03*
D11*
X181570000Y-88668000D03*
X178270000Y-88668000D03*
D12*
X175920000Y-88668000D03*
%TD*%
D19*
%TO.C,H9*%
X89432500Y-154493000D03*
%TD*%
D44*
%TO.C,JP15*%
X77140000Y-58488000D03*
X77140000Y-53408000D03*
D45*
X77140000Y-56148000D03*
X77140000Y-51068000D03*
%TD*%
D20*
%TO.C,D30*%
X241502532Y-136666692D03*
D21*
X239175402Y-136339636D03*
X235907518Y-135880364D03*
D12*
X233580388Y-135553308D03*
%TD*%
D13*
%TO.C,SW45*%
X147320000Y-117018000D03*
D14*
X146900000Y-117018000D03*
D15*
X146820000Y-113318000D03*
X145630000Y-119558000D03*
X144360000Y-122098000D03*
D16*
X141820000Y-117018000D03*
D15*
X141820000Y-111118000D03*
X139280000Y-122098000D03*
X138010000Y-119558000D03*
X136820000Y-113318000D03*
D14*
X136740000Y-117018000D03*
D13*
X136320000Y-117018000D03*
D17*
X139020000Y-111118000D03*
D18*
X136220000Y-122098000D03*
X149920000Y-113318000D03*
X148720000Y-119558000D03*
%TD*%
D13*
%TO.C,SW51*%
X221417239Y-153900602D03*
D14*
X221001327Y-153842149D03*
D15*
X221437046Y-150167024D03*
X219390187Y-156180680D03*
X217779047Y-158519210D03*
D16*
X215970765Y-153135150D03*
D15*
X216791886Y-147292568D03*
X212748485Y-157812212D03*
X211844344Y-155120181D03*
X211534365Y-148775293D03*
D14*
X210940203Y-152428151D03*
D13*
X210524291Y-152369698D03*
D29*
X214019136Y-146902884D03*
D30*
X209718263Y-157386342D03*
X224506877Y-150598460D03*
X222450115Y-156610725D03*
%TD*%
D13*
%TO.C,SW23*%
X185420000Y-79918000D03*
D14*
X185000000Y-79918000D03*
D15*
X184920000Y-76218000D03*
X183730000Y-82458000D03*
X182460000Y-84998000D03*
D16*
X179920000Y-79918000D03*
D15*
X179920000Y-74018000D03*
X177380000Y-84998000D03*
X176110000Y-82458000D03*
X174920000Y-76218000D03*
D14*
X174840000Y-79918000D03*
D13*
X174420000Y-79918000D03*
D17*
X177120000Y-74018000D03*
D18*
X174320000Y-84998000D03*
X188020000Y-76218000D03*
X186820000Y-82458000D03*
%TD*%
D13*
%TO.C,SW13*%
X185420000Y-60868000D03*
D14*
X185000000Y-60868000D03*
D15*
X184920000Y-57168000D03*
X183730000Y-63408000D03*
X182460000Y-65948000D03*
D16*
X179920000Y-60868000D03*
D15*
X179920000Y-54968000D03*
X177380000Y-65948000D03*
X176110000Y-63408000D03*
X174920000Y-57168000D03*
D14*
X174840000Y-60868000D03*
D13*
X174420000Y-60868000D03*
D17*
X177120000Y-54968000D03*
D18*
X174320000Y-65948000D03*
X188020000Y-57168000D03*
X186820000Y-63408000D03*
%TD*%
D13*
%TO.C,SW33*%
X185420000Y-98968000D03*
D14*
X185000000Y-98968000D03*
D15*
X184920000Y-95268000D03*
X183730000Y-101508000D03*
X182460000Y-104048000D03*
D16*
X179920000Y-98968000D03*
D15*
X179920000Y-93068000D03*
X177380000Y-104048000D03*
X176110000Y-101508000D03*
X174920000Y-95268000D03*
D14*
X174840000Y-98968000D03*
D13*
X174420000Y-98968000D03*
D17*
X177120000Y-93068000D03*
D18*
X174320000Y-104048000D03*
X188020000Y-95268000D03*
X186820000Y-101508000D03*
%TD*%
D51*
%TO.C,REF\u002A\u002A*%
X156138794Y-154101279D03*
X157001140Y-150766832D03*
X157886832Y-157068860D03*
X159968721Y-149018794D03*
D52*
X160595000Y-153475000D03*
D51*
X161221279Y-157931206D03*
X163303168Y-149881140D03*
X164188860Y-156183168D03*
X165051206Y-152848721D03*
%TD*%
D13*
%TO.C,SW12*%
X204470000Y-63368000D03*
D14*
X204050000Y-63368000D03*
D15*
X203970000Y-59668000D03*
X202780000Y-65908000D03*
X201510000Y-68448000D03*
D16*
X198970000Y-63368000D03*
D15*
X198970000Y-57468000D03*
X196430000Y-68448000D03*
X195160000Y-65908000D03*
X193970000Y-59668000D03*
D14*
X193890000Y-63368000D03*
D13*
X193470000Y-63368000D03*
D17*
X196170000Y-57468000D03*
D18*
X193370000Y-68448000D03*
X207070000Y-59668000D03*
X205870000Y-65908000D03*
%TD*%
D10*
%TO.C,D10*%
X244070000Y-94168000D03*
D11*
X241720000Y-94168000D03*
X238420000Y-94168000D03*
D12*
X236070000Y-94168000D03*
%TD*%
D43*
%TO.C,REF\u002A\u002A*%
X151345000Y-88100000D03*
X170395000Y-69050000D03*
X170395000Y-107150000D03*
X189445000Y-88100000D03*
%TD*%
D10*
%TO.C,D57*%
X105338750Y-155818000D03*
D11*
X102988750Y-155818000D03*
X99688750Y-155818000D03*
D12*
X97338750Y-155818000D03*
%TD*%
D13*
%TO.C,SW47*%
X81551250Y-128018000D03*
D14*
X81971250Y-128018000D03*
D15*
X82051250Y-124318000D03*
X83241250Y-130558000D03*
D13*
X86313750Y-128018000D03*
D14*
X86733750Y-128018000D03*
D15*
X87051250Y-122118000D03*
D16*
X87051250Y-128018000D03*
D15*
X89273750Y-133098000D03*
X89591250Y-133098000D03*
X91813750Y-122118000D03*
D16*
X91813750Y-128018000D03*
D14*
X92131250Y-128018000D03*
D13*
X92551250Y-128018000D03*
D15*
X95623750Y-130558000D03*
X96813750Y-124318000D03*
D14*
X96893750Y-128018000D03*
D13*
X97313750Y-128018000D03*
D18*
X86213750Y-133098000D03*
D53*
X89263750Y-122118000D03*
D18*
X98713750Y-130558000D03*
D54*
X99913750Y-124388550D03*
%TD*%
D25*
%TO.C,H14*%
X61472047Y-139665277D03*
X61767278Y-141765953D03*
D26*
X62670000Y-140568000D03*
D25*
X63572722Y-139370046D03*
X63867953Y-141470722D03*
%TD*%
D20*
%TO.C,D53*%
X180101072Y-164116692D03*
D21*
X177773942Y-163789636D03*
X174506058Y-163330364D03*
D12*
X172178928Y-163003308D03*
%TD*%
D27*
%TO.C,REF\u002A\u002A*%
X98957500Y-136273000D03*
D16*
X98957500Y-121033000D03*
D27*
X75145000Y-136273000D03*
D16*
X75145000Y-121033000D03*
%TD*%
D55*
%TO.C,SWLH_ROT1*%
X223620000Y-120518000D03*
X212420000Y-120518000D03*
D18*
X215520000Y-113018000D03*
D56*
X220520000Y-113018000D03*
X218020000Y-113018000D03*
X220520000Y-127518000D03*
X215520000Y-127518000D03*
%TD*%
D27*
%TO.C,REF\u002A\u002A*%
X68001250Y-79123000D03*
D16*
X68001250Y-63883000D03*
D27*
X44188750Y-79123000D03*
D16*
X44188750Y-63883000D03*
%TD*%
M02*
